<svg xmlns="http://www.w3.org/2000/svg" viewBox="0 0 737 694" width="737" height="694">
	<style>
		tspan { white-space:pre }
		.shp0 { fill: #124ef7 }
		.shp1 { fill: #ffffff }
		.shp2 { fill: none;stroke: #ffffff;stroke-width: 2 }
	</style>
	<path id="Layer copy" class="shp0" d="M722,423c0,-111.15 -89.85,-201 -201,-201c-111.15,0 -201,89.85 -201,201c0,111.15 89.85,201 201,201c111.15,0 201,-89.85 201,-201z"/>
	<path id="CIS copy" class="shp1" d="M572.84,320.96c0.06,-0.22 0.15,-0.43 0.28,-0.62c0.13,-0.19 0.3,-0.35 0.48,-0.48c0.19,-0.13 0.4,-0.22 0.62,-0.28c0.22,-0.05 0.45,-0.07 0.68,-0.04c0.23,-0.02 0.46,-0.01 0.68,0.05c0.22,0.06 0.43,0.15 0.62,0.28c0.19,0.13 0.35,0.29 0.48,0.48c0.13,0.19 0.23,0.39 0.29,0.61l4.75,11.32h-2.5l-1.3,-3.19h-6.07l-1.28,3.19h-2.5zM572.48,327.4h4.84l-2.05,-5.13c0.04,-0.12 0.03,-0.25 -0.04,-0.36c-0.07,-0.1 -0.19,-0.17 -0.32,-0.17c-0.13,0 -0.24,0.06 -0.32,0.17c-0.07,0.1 -0.09,0.24 -0.04,0.36zM581.91,332.28h0v0zM581.92,332.28v-7.88c0,-0.09 0,-0.19 0.01,-0.28c0.01,-0.09 0.03,-0.19 0.05,-0.28c0.02,-0.09 0.05,-0.18 0.09,-0.27c0.04,-0.09 0.08,-0.17 0.12,-0.25c0.09,-0.1 0.19,-0.19 0.3,-0.27c0.11,-0.08 0.23,-0.14 0.35,-0.19c0.12,-0.05 0.26,-0.09 0.39,-0.1c0.13,-0.02 0.27,-0.02 0.4,-0.01h8.59c0.22,-0.01 0.43,0 0.65,0.02c0.22,0.03 0.43,0.07 0.63,0.14c0.21,0.06 0.41,0.15 0.6,0.25c0.19,0.1 0.38,0.22 0.55,0.35c0.14,0.16 0.27,0.33 0.39,0.51c0.11,0.18 0.2,0.37 0.28,0.57c0.07,0.2 0.13,0.41 0.16,0.62c0.03,0.21 0.05,0.42 0.04,0.64v6.45h-2.11v-6.12c0.01,-0.12 0.01,-0.24 -0.01,-0.36c-0.01,-0.12 -0.04,-0.24 -0.07,-0.35c-0.03,-0.12 -0.08,-0.23 -0.13,-0.33c-0.05,-0.11 -0.12,-0.21 -0.19,-0.31c-0.08,-0.08 -0.18,-0.15 -0.27,-0.21c-0.1,-0.06 -0.2,-0.11 -0.31,-0.15c-0.11,-0.04 -0.22,-0.07 -0.34,-0.08c-0.12,-0.01 -0.23,-0.02 -0.35,0h-1.96v7.92h-2.11v-7.92h-3.08c-0.04,-0.01 -0.08,-0.01 -0.13,0c-0.04,0 -0.08,0.01 -0.12,0.02c-0.04,0.01 -0.08,0.03 -0.12,0.05c-0.04,0.02 -0.07,0.05 -0.1,0.07c-0.02,0.04 -0.04,0.08 -0.05,0.12c-0.01,0.04 -0.03,0.08 -0.03,0.12c-0.01,0.04 -0.01,0.09 -0.01,0.13c0,0.04 0,0.09 0.01,0.13v7.27zM605.59,332.28v0h0zM605.59,332.28h-5.29c-0.27,0.03 -0.55,0.03 -0.82,-0.01c-0.27,-0.04 -0.54,-0.11 -0.79,-0.21c-0.25,-0.11 -0.49,-0.24 -0.71,-0.41c-0.22,-0.17 -0.42,-0.36 -0.59,-0.58c-0.14,-0.27 -0.26,-0.54 -0.36,-0.82c-0.1,-0.28 -0.18,-0.57 -0.24,-0.87c-0.06,-0.29 -0.09,-0.59 -0.11,-0.89c-0.01,-0.3 -0.01,-0.6 0.02,-0.9c0,-1.79 0.09,-3.1 1.13,-4c0.26,-0.17 0.53,-0.32 0.82,-0.45c0.29,-0.13 0.58,-0.23 0.88,-0.31c0.3,-0.08 0.61,-0.13 0.92,-0.15c0.31,-0.02 0.62,-0.02 0.94,0.01c0.27,-0.02 0.54,-0.03 0.81,-0.01c0.27,0.01 0.54,0.05 0.81,0.1c0.27,0.05 0.53,0.12 0.78,0.21c0.26,0.09 0.51,0.19 0.75,0.32c0.24,0.17 0.45,0.38 0.64,0.61c0.19,0.23 0.34,0.49 0.46,0.76c0.12,0.27 0.2,0.56 0.24,0.85c0.04,0.29 0.05,0.59 0.01,0.88c0.01,0.13 0.01,0.26 0,0.39c-0.01,0.13 -0.04,0.26 -0.08,0.38c-0.04,0.12 -0.09,0.24 -0.15,0.36c-0.06,0.11 -0.14,0.22 -0.22,0.32c-0.07,0.06 -0.14,0.12 -0.22,0.17c-0.08,0.05 -0.16,0.09 -0.25,0.12c-0.09,0.03 -0.18,0.05 -0.27,0.06c-0.09,0.01 -0.19,0.02 -0.28,0.01h-5.55c0,0.11 0,0.22 0.01,0.33c0.01,0.11 0.01,0.22 0.02,0.33c0.01,0.11 0.02,0.22 0.04,0.33c0.02,0.11 0.03,0.22 0.05,0.33c0.06,0.19 0.16,0.38 0.29,0.54c0.13,0.16 0.28,0.29 0.46,0.4c0.18,0.1 0.37,0.17 0.57,0.21c0.2,0.03 0.41,0.03 0.61,-0.01h4.66zM598.87,326.59h4.38c0.07,0 0.14,-0.01 0.21,-0.04c0.06,-0.03 0.12,-0.07 0.17,-0.13c0.05,-0.05 0.08,-0.12 0.09,-0.19c0.02,-0.07 0.02,-0.14 0,-0.21c0,-0.12 -0.01,-0.24 -0.04,-0.36c-0.03,-0.12 -0.07,-0.24 -0.12,-0.35c-0.05,-0.11 -0.12,-0.21 -0.19,-0.31c-0.08,-0.1 -0.16,-0.18 -0.26,-0.26c-0.13,-0.08 -0.27,-0.16 -0.42,-0.22c-0.14,-0.06 -0.29,-0.11 -0.45,-0.15c-0.15,-0.04 -0.31,-0.06 -0.46,-0.07c-0.16,-0.01 -0.31,-0.01 -0.47,0c-0.18,-0.02 -0.36,-0.03 -0.54,-0.01c-0.18,0.02 -0.36,0.05 -0.53,0.11c-0.17,0.05 -0.34,0.13 -0.49,0.22c-0.16,0.09 -0.3,0.2 -0.44,0.32c-0.09,0.12 -0.16,0.24 -0.22,0.37c-0.06,0.13 -0.11,0.27 -0.15,0.41c-0.04,0.14 -0.06,0.28 -0.07,0.43c-0.01,0.14 -0.01,0.29 0.01,0.43zM607.08,326.34c-0.02,-0.25 -0.02,-0.51 0.01,-0.76c0.03,-0.25 0.09,-0.5 0.18,-0.74c0.09,-0.24 0.2,-0.47 0.33,-0.68c0.14,-0.21 0.29,-0.41 0.47,-0.59c0.2,-0.15 0.42,-0.28 0.65,-0.4c0.23,-0.11 0.46,-0.2 0.71,-0.27c0.24,-0.07 0.49,-0.12 0.75,-0.15c0.25,-0.03 0.51,-0.03 0.76,-0.01h1.42v1.62h-0.88c-0.16,-0.01 -0.33,-0.01 -0.49,0.01c-0.16,0.02 -0.33,0.06 -0.48,0.12c-0.16,0.06 -0.3,0.13 -0.44,0.22c-0.14,0.09 -0.27,0.2 -0.38,0.31c-0.09,0.14 -0.17,0.28 -0.24,0.43c-0.07,0.15 -0.12,0.31 -0.16,0.46c-0.04,0.16 -0.07,0.32 -0.08,0.49c-0.01,0.16 -0.01,0.33 0,0.49v5.38h-2.11zM613.07,322.74h2.11v9.54h-2.11zM615.18,321.35h-2.11v-1.68h2.11zM624.66,332.28l-4.59,0c-0.26,0.01 -0.53,0 -0.79,-0.05c-0.26,-0.05 -0.52,-0.12 -0.76,-0.22c-0.24,-0.1 -0.48,-0.23 -0.7,-0.38c-0.22,-0.15 -0.42,-0.33 -0.6,-0.52c-0.17,-0.25 -0.32,-0.52 -0.45,-0.8c-0.13,-0.28 -0.23,-0.57 -0.3,-0.86c-0.07,-0.3 -0.12,-0.6 -0.14,-0.9c-0.02,-0.3 -0.01,-0.61 0.02,-0.91c0,-1.13 0.02,-2.77 1.08,-3.87c0.19,-0.18 0.41,-0.34 0.63,-0.48c0.23,-0.14 0.47,-0.25 0.72,-0.34c0.25,-0.09 0.51,-0.15 0.77,-0.18c0.26,-0.03 0.53,-0.04 0.79,-0.02h4.09v1.62h-3.4c-0.25,-0.03 -0.51,-0.02 -0.75,0.04c-0.25,0.06 -0.48,0.16 -0.69,0.29c-0.21,0.14 -0.4,0.31 -0.55,0.51c-0.15,0.2 -0.27,0.43 -0.34,0.67c-0.03,0.15 -0.05,0.3 -0.08,0.45c-0.02,0.15 -0.04,0.3 -0.05,0.45c-0.01,0.15 -0.02,0.3 -0.03,0.45c-0.01,0.15 -0.01,0.3 -0.01,0.45c-0.01,0.17 0,0.34 0,0.5c0.01,0.17 0.03,0.33 0.05,0.5c0.03,0.17 0.06,0.33 0.1,0.49c0.04,0.16 0.09,0.32 0.15,0.48c0.13,0.19 0.29,0.36 0.47,0.5c0.18,0.14 0.38,0.26 0.59,0.35c0.21,0.09 0.43,0.15 0.66,0.17c0.23,0.03 0.46,0.02 0.68,-0.02h3.42v1.62zM631.72,322.74c0.18,-0.01 0.36,0.01 0.54,0.03c0.18,0.03 0.35,0.08 0.52,0.14c0.17,0.06 0.33,0.14 0.49,0.24c0.15,0.09 0.3,0.2 0.43,0.33c0.12,0.16 0.23,0.33 0.33,0.5c0.09,0.18 0.17,0.36 0.23,0.56c0.06,0.19 0.1,0.39 0.13,0.59c0.02,0.2 0.03,0.4 0.02,0.6l0,4.95c0.01,0.11 0.01,0.22 0,0.33c-0.01,0.11 -0.03,0.22 -0.07,0.32c-0.03,0.1 -0.07,0.21 -0.13,0.3c-0.05,0.1 -0.11,0.19 -0.18,0.27c-0.09,0.07 -0.19,0.14 -0.29,0.19c-0.1,0.05 -0.21,0.1 -0.33,0.13c-0.11,0.03 -0.23,0.05 -0.34,0.06c-0.12,0.01 -0.23,0.01 -0.35,0h-4.55c-0.15,0.02 -0.31,0.02 -0.46,0.01c-0.15,-0.01 -0.3,-0.04 -0.45,-0.08c-0.15,-0.04 -0.29,-0.09 -0.43,-0.16c-0.14,-0.07 -0.27,-0.15 -0.39,-0.24c-0.15,-0.18 -0.29,-0.37 -0.4,-0.57c-0.11,-0.2 -0.21,-0.42 -0.28,-0.64c-0.07,-0.22 -0.12,-0.45 -0.14,-0.68c-0.02,-0.23 -0.03,-0.47 0,-0.7c-0.02,-0.21 -0.02,-0.42 0,-0.63c0.02,-0.21 0.07,-0.42 0.14,-0.62c0.07,-0.2 0.16,-0.39 0.28,-0.57c0.11,-0.18 0.25,-0.35 0.4,-0.5c0.12,-0.1 0.25,-0.19 0.39,-0.26c0.14,-0.08 0.28,-0.14 0.43,-0.19c0.15,-0.05 0.3,-0.08 0.46,-0.1c0.16,-0.02 0.31,-0.02 0.47,-0.01h4.14v-0.67c0.01,-0.08 0,-0.16 -0.01,-0.24c-0.01,-0.08 -0.03,-0.16 -0.05,-0.23c-0.02,-0.08 -0.05,-0.15 -0.09,-0.22c-0.04,-0.07 -0.08,-0.14 -0.13,-0.2c-0.06,-0.07 -0.13,-0.14 -0.21,-0.19c-0.08,-0.06 -0.16,-0.1 -0.25,-0.14c-0.09,-0.04 -0.18,-0.06 -0.28,-0.08c-0.09,-0.01 -0.19,-0.02 -0.29,-0.01h-4.7v-1.62zM632.3,327.97h-3.51c-0.07,0 -0.14,0 -0.22,0.01c-0.07,0.01 -0.14,0.03 -0.21,0.06c-0.07,0.03 -0.13,0.06 -0.19,0.11c-0.06,0.04 -0.11,0.09 -0.16,0.14c-0.05,0.08 -0.09,0.16 -0.12,0.24c-0.03,0.08 -0.06,0.17 -0.08,0.26c-0.02,0.09 -0.03,0.18 -0.04,0.27c0,0.09 0,0.18 0.01,0.27c-0.01,0.09 -0.01,0.19 0,0.28c0.01,0.09 0.03,0.19 0.05,0.28c0.02,0.09 0.06,0.18 0.1,0.26c0.04,0.08 0.09,0.17 0.14,0.24c0.05,0.04 0.1,0.08 0.15,0.12c0.05,0.03 0.11,0.06 0.17,0.09c0.06,0.02 0.12,0.04 0.18,0.06c0.06,0.01 0.12,0.02 0.19,0.02h2.94c0.04,0 0.08,0 0.12,0c0.04,0 0.08,-0.01 0.12,-0.02c0.04,-0.01 0.08,-0.02 0.12,-0.04c0.04,-0.02 0.07,-0.03 0.11,-0.05c0.03,-0.02 0.05,-0.05 0.07,-0.08c0.02,-0.03 0.04,-0.06 0.05,-0.1c0.01,-0.03 0.02,-0.07 0.02,-0.11c0,-0.04 0,-0.07 0,-0.11zM538.84,508.96c0.06,-0.22 0.15,-0.43 0.28,-0.62c0.13,-0.19 0.29,-0.35 0.48,-0.48c0.19,-0.13 0.4,-0.22 0.62,-0.28c0.22,-0.05 0.45,-0.07 0.68,-0.04c0.23,-0.02 0.46,-0.01 0.68,0.05c0.22,0.06 0.43,0.15 0.62,0.28c0.19,0.13 0.35,0.29 0.48,0.48c0.13,0.19 0.23,0.39 0.29,0.62l4.75,11.32h-2.5l-1.3,-3.19h-6.07l-1.28,3.19h-2.5zM538.48,515.4h4.84l-2.05,-5.13c0.04,-0.12 0.03,-0.25 -0.04,-0.36c-0.07,-0.1 -0.19,-0.17 -0.32,-0.17c-0.13,0 -0.24,0.06 -0.32,0.17c-0.07,0.1 -0.09,0.24 -0.04,0.36zM547.79,520.27v-1.62h5.37c0.06,0 0.13,0 0.19,-0.01c0.06,-0.01 0.13,-0.03 0.19,-0.05c0.06,-0.02 0.12,-0.05 0.17,-0.09c0.05,-0.04 0.1,-0.08 0.15,-0.12c0.03,-0.04 0.06,-0.09 0.09,-0.13c0.02,-0.05 0.04,-0.1 0.06,-0.15c0.02,-0.05 0.03,-0.1 0.03,-0.16c0.01,-0.05 0.01,-0.11 0,-0.16c0.01,-0.07 0,-0.13 0,-0.2c-0.01,-0.07 -0.03,-0.13 -0.05,-0.19c-0.02,-0.06 -0.05,-0.12 -0.09,-0.18c-0.04,-0.06 -0.08,-0.11 -0.13,-0.15c-0.13,-0.08 -0.27,-0.15 -0.41,-0.21c-0.14,-0.06 -0.28,-0.12 -0.43,-0.17c-0.14,-0.05 -0.29,-0.1 -0.44,-0.13c-0.15,-0.04 -0.3,-0.07 -0.45,-0.09l-1.84,-0.5c-0.2,-0.03 -0.4,-0.09 -0.59,-0.15c-0.19,-0.07 -0.38,-0.15 -0.55,-0.25c-0.18,-0.1 -0.35,-0.21 -0.51,-0.34c-0.16,-0.13 -0.31,-0.26 -0.44,-0.42c-0.15,-0.24 -0.26,-0.51 -0.34,-0.78c-0.08,-0.27 -0.11,-0.56 -0.11,-0.84c0,-0.28 0.04,-0.57 0.11,-0.84c0.08,-0.27 0.19,-0.54 0.34,-0.78c0.14,-0.16 0.3,-0.3 0.48,-0.42c0.18,-0.12 0.36,-0.21 0.56,-0.29c0.2,-0.07 0.41,-0.12 0.62,-0.14c0.21,-0.02 0.42,-0.02 0.63,0.01h5.38v1.62h-5.06c-0.06,-0.01 -0.13,-0.01 -0.19,0c-0.06,0 -0.13,0.01 -0.19,0.03c-0.06,0.02 -0.12,0.04 -0.18,0.06c-0.06,0.03 -0.12,0.06 -0.17,0.09c-0.05,0.04 -0.09,0.09 -0.13,0.14c-0.04,0.05 -0.07,0.11 -0.09,0.17c-0.02,0.06 -0.04,0.12 -0.05,0.19c-0.01,0.06 -0.01,0.13 0,0.19c-0.01,0.07 -0.01,0.14 0,0.21c0.01,0.07 0.03,0.14 0.05,0.2c0.03,0.06 0.06,0.13 0.1,0.18c0.04,0.06 0.09,0.11 0.15,0.15c0.09,0.05 0.19,0.11 0.28,0.15c0.1,0.05 0.19,0.09 0.29,0.13c0.1,0.04 0.2,0.08 0.3,0.11c0.1,0.03 0.21,0.06 0.31,0.09l2.05,0.58c0.22,0.04 0.43,0.09 0.64,0.15c0.21,0.06 0.42,0.14 0.62,0.23c0.2,0.09 0.39,0.19 0.58,0.31c0.19,0.12 0.37,0.24 0.54,0.38c0.1,0.12 0.19,0.25 0.27,0.39c0.08,0.14 0.14,0.28 0.19,0.43c0.05,0.15 0.08,0.3 0.11,0.46c0.02,0.16 0.03,0.31 0.02,0.47c0.02,0.19 0.01,0.38 -0.01,0.56c-0.03,0.19 -0.07,0.37 -0.14,0.55c-0.07,0.18 -0.16,0.34 -0.26,0.5c-0.11,0.16 -0.23,0.3 -0.37,0.43c-0.11,0.07 -0.23,0.14 -0.35,0.19c-0.12,0.05 -0.25,0.1 -0.38,0.13c-0.13,0.03 -0.26,0.06 -0.4,0.07c-0.13,0.01 -0.27,0.01 -0.4,0.01h-6.1zM557.4,520.28v-9.54h2.11v9.54zM557.4,509.35v-1.68h2.11v1.68zM566.82,510.74c0.18,-0.01 0.36,0.01 0.54,0.03c0.18,0.03 0.35,0.08 0.52,0.14c0.17,0.06 0.33,0.14 0.49,0.24c0.15,0.09 0.3,0.2 0.43,0.33c0.12,0.16 0.23,0.33 0.33,0.5c0.09,0.18 0.17,0.36 0.23,0.56c0.06,0.19 0.1,0.39 0.13,0.59c0.02,0.2 0.03,0.4 0.02,0.6v4.95c0.01,0.11 0.01,0.22 0,0.33c-0.01,0.11 -0.03,0.22 -0.07,0.32c-0.03,0.1 -0.07,0.21 -0.13,0.3c-0.05,0.1 -0.11,0.19 -0.18,0.27c-0.09,0.07 -0.19,0.14 -0.29,0.19c-0.1,0.05 -0.21,0.1 -0.33,0.13c-0.11,0.03 -0.23,0.05 -0.34,0.06c-0.12,0.01 -0.23,0.01 -0.35,0h-4.56c-0.15,0.02 -0.31,0.02 -0.46,0.01c-0.15,-0.01 -0.3,-0.04 -0.45,-0.08c-0.15,-0.04 -0.29,-0.09 -0.43,-0.16c-0.14,-0.07 -0.27,-0.15 -0.39,-0.24c-0.15,-0.18 -0.29,-0.37 -0.4,-0.57c-0.11,-0.2 -0.21,-0.42 -0.28,-0.64c-0.07,-0.22 -0.12,-0.45 -0.14,-0.68c-0.02,-0.23 -0.03,-0.47 0,-0.7c-0.02,-0.21 -0.02,-0.42 0,-0.63c0.02,-0.21 0.07,-0.42 0.14,-0.62c0.07,-0.2 0.16,-0.39 0.28,-0.57c0.11,-0.18 0.25,-0.35 0.4,-0.5c0.12,-0.1 0.25,-0.19 0.39,-0.26c0.14,-0.08 0.28,-0.14 0.43,-0.19c0.15,-0.05 0.3,-0.08 0.46,-0.1c0.16,-0.02 0.31,-0.02 0.47,-0.01h4.14v-0.67c0.01,-0.08 0,-0.16 -0.01,-0.24c-0.01,-0.08 -0.03,-0.16 -0.05,-0.23c-0.02,-0.08 -0.05,-0.15 -0.09,-0.22c-0.04,-0.07 -0.08,-0.14 -0.13,-0.2c-0.06,-0.07 -0.13,-0.14 -0.21,-0.19c-0.08,-0.06 -0.16,-0.1 -0.25,-0.14c-0.09,-0.04 -0.18,-0.06 -0.28,-0.08c-0.09,-0.01 -0.19,-0.02 -0.29,-0.01h-4.7v-1.62zM567.4,515.97l-3.51,0c-0.07,0 -0.14,0 -0.22,0.01c-0.07,0.01 -0.14,0.03 -0.21,0.06c-0.07,0.03 -0.13,0.06 -0.19,0.11c-0.06,0.04 -0.11,0.09 -0.16,0.14c-0.05,0.08 -0.09,0.16 -0.12,0.24c-0.03,0.08 -0.06,0.17 -0.08,0.26c-0.02,0.09 -0.03,0.18 -0.04,0.27c0,0.09 0,0.18 0.01,0.27c-0.01,0.09 -0.01,0.19 0,0.28c0.01,0.09 0.03,0.19 0.05,0.28c0.02,0.09 0.06,0.18 0.1,0.26c0.04,0.08 0.09,0.17 0.14,0.24c0.05,0.04 0.1,0.08 0.15,0.12c0.05,0.03 0.11,0.06 0.17,0.09c0.06,0.02 0.12,0.04 0.18,0.06c0.06,0.01 0.12,0.02 0.19,0.02h2.94c0.04,0 0.08,0 0.12,0c0.04,0 0.08,-0.01 0.12,-0.02c0.04,-0.01 0.08,-0.02 0.12,-0.04c0.04,-0.02 0.07,-0.03 0.11,-0.05c0.03,-0.02 0.05,-0.05 0.07,-0.08c0.02,-0.03 0.04,-0.06 0.05,-0.1c0.01,-0.03 0.02,-0.07 0.02,-0.11c0,-0.04 0,-0.07 0,-0.11zM422.81,424.29h-8.19c-0.13,0.02 -0.26,0.02 -0.38,0.01c-0.13,-0.01 -0.25,-0.03 -0.38,-0.06c-0.12,-0.03 -0.24,-0.08 -0.36,-0.14c-0.11,-0.06 -0.22,-0.13 -0.32,-0.21c-0.09,-0.1 -0.16,-0.21 -0.23,-0.32c-0.07,-0.12 -0.12,-0.24 -0.16,-0.36c-0.04,-0.13 -0.07,-0.26 -0.08,-0.39c-0.01,-0.13 -0.01,-0.27 0,-0.4v-8.93c0,-0.12 0,-0.24 0.02,-0.35c0.02,-0.12 0.04,-0.23 0.08,-0.34c0.04,-0.11 0.08,-0.22 0.14,-0.32c0.06,-0.1 0.12,-0.2 0.19,-0.3c0.1,-0.09 0.21,-0.17 0.33,-0.24c0.12,-0.07 0.24,-0.12 0.37,-0.17c0.13,-0.04 0.26,-0.07 0.4,-0.08c0.14,-0.01 0.27,-0.01 0.41,0h8.09v1.89h-6.81c-0.06,-0.01 -0.11,-0.01 -0.17,0c-0.06,0.01 -0.11,0.02 -0.17,0.03c-0.06,0.02 -0.11,0.04 -0.16,0.06c-0.05,0.03 -0.1,0.05 -0.15,0.09c-0.04,0.04 -0.07,0.09 -0.1,0.13c-0.03,0.05 -0.05,0.1 -0.07,0.15c-0.02,0.05 -0.03,0.11 -0.03,0.16c-0.01,0.06 0,0.11 0,0.17v2.54h7.47v1.89h-7.47v2.95c0,0.04 0,0.09 0.01,0.13c0.01,0.04 0.02,0.09 0.03,0.13c0.02,0.04 0.03,0.08 0.06,0.12c0.02,0.04 0.05,0.07 0.08,0.11c0.06,0.04 0.12,0.07 0.19,0.09c0.07,0.03 0.13,0.05 0.2,0.06c0.07,0.01 0.14,0.02 0.21,0.02c0.07,0 0.14,0 0.21,-0.01h6.73zM432.89,422.57c0.01,0.12 0.01,0.25 -0.01,0.37c-0.02,0.12 -0.05,0.24 -0.09,0.36c-0.04,0.12 -0.1,0.23 -0.17,0.33c-0.07,0.1 -0.15,0.2 -0.24,0.29c-0.11,0.07 -0.22,0.13 -0.34,0.19c-0.12,0.05 -0.24,0.09 -0.37,0.12c-0.13,0.03 -0.26,0.05 -0.39,0.06c-0.13,0.01 -0.26,0.01 -0.39,-0.01h-3.37c-0.22,0.02 -0.44,0.02 -0.66,0c-0.22,-0.02 -0.44,-0.06 -0.65,-0.12c-0.21,-0.06 -0.42,-0.14 -0.62,-0.24c-0.2,-0.1 -0.38,-0.22 -0.56,-0.36c-0.18,-0.18 -0.34,-0.38 -0.48,-0.6c-0.14,-0.22 -0.25,-0.45 -0.33,-0.69c-0.08,-0.24 -0.14,-0.49 -0.17,-0.75c-0.03,-0.26 -0.03,-0.51 0,-0.77v-6.01h2.11v5.64c-0.02,0.14 -0.02,0.29 -0.01,0.44c0.01,0.15 0.03,0.29 0.06,0.43c0.03,0.14 0.07,0.28 0.13,0.42c0.05,0.14 0.12,0.27 0.19,0.39c0.1,0.12 0.22,0.22 0.35,0.31c0.13,0.09 0.27,0.16 0.42,0.21c0.15,0.05 0.3,0.09 0.46,0.1c0.16,0.01 0.32,0.01 0.47,-0.02h1.75c0.05,0 0.11,0 0.16,0c0.05,-0.01 0.11,-0.02 0.16,-0.04c0.05,-0.02 0.1,-0.04 0.15,-0.07c0.05,-0.03 0.09,-0.06 0.13,-0.1c0.03,-0.04 0.06,-0.08 0.09,-0.13c0.03,-0.05 0.05,-0.09 0.06,-0.14c0.02,-0.05 0.03,-0.1 0.03,-0.15c0,-0.05 0,-0.1 0,-0.16v-7.15h2.11zM434.33,418.34c-0.02,-0.25 -0.02,-0.51 0.01,-0.76c0.03,-0.25 0.09,-0.5 0.18,-0.74c0.09,-0.24 0.2,-0.47 0.33,-0.68c0.14,-0.21 0.29,-0.41 0.47,-0.59c0.2,-0.15 0.42,-0.28 0.65,-0.4c0.23,-0.11 0.46,-0.2 0.71,-0.27c0.24,-0.07 0.49,-0.12 0.75,-0.15c0.25,-0.03 0.51,-0.03 0.76,-0.01h1.42v1.62h-0.88c-0.16,-0.01 -0.33,-0.01 -0.49,0.01c-0.16,0.02 -0.33,0.06 -0.48,0.12c-0.16,0.06 -0.3,0.13 -0.44,0.22c-0.14,0.09 -0.27,0.2 -0.38,0.31c-0.09,0.14 -0.17,0.28 -0.24,0.43c-0.07,0.15 -0.12,0.31 -0.16,0.46c-0.04,0.16 -0.07,0.32 -0.08,0.49c-0.01,0.16 -0.01,0.33 0,0.49v5.38h-2.11zM444.79,414.63c1.13,0 2.81,0.04 3.85,1.01c1.1,1.03 1.23,2.83 1.23,3.83c0,2.02 -0.53,3.22 -1.23,3.89c-1.03,0.95 -2.75,1.03 -3.85,1.03c-0.34,0.03 -0.68,0.03 -1.02,0c-0.34,-0.03 -0.67,-0.09 -1,-0.17c-0.33,-0.09 -0.65,-0.2 -0.96,-0.35c-0.31,-0.14 -0.6,-0.31 -0.88,-0.51c-1.13,-1.04 -1.22,-2.84 -1.22,-3.82c0,-1.08 0.12,-2.88 1.22,-3.91c1.04,-0.97 2.72,-1.01 3.85,-1.01zM441.89,419.53c-0.02,0.21 -0.03,0.43 -0.01,0.64c0.01,0.21 0.05,0.43 0.1,0.64c0.05,0.21 0.12,0.41 0.21,0.61c0.09,0.2 0.19,0.38 0.31,0.56c0.15,0.14 0.32,0.27 0.49,0.38c0.18,0.11 0.37,0.2 0.56,0.27c0.2,0.07 0.4,0.11 0.61,0.14c0.21,0.02 0.42,0.03 0.62,0.01c0.21,0.02 0.41,0.02 0.62,0c0.21,-0.02 0.41,-0.07 0.6,-0.14c0.2,-0.07 0.38,-0.16 0.56,-0.27c0.18,-0.11 0.34,-0.24 0.49,-0.38c0.13,-0.17 0.24,-0.36 0.33,-0.56c0.09,-0.2 0.17,-0.4 0.22,-0.61c0.05,-0.21 0.09,-0.42 0.1,-0.64c0.01,-0.22 0.01,-0.43 -0.02,-0.65c0.03,-0.22 0.04,-0.44 0.02,-0.66c-0.01,-0.22 -0.04,-0.44 -0.1,-0.66c-0.05,-0.22 -0.12,-0.42 -0.21,-0.63c-0.09,-0.2 -0.2,-0.4 -0.32,-0.58c-0.15,-0.14 -0.32,-0.26 -0.5,-0.37c-0.18,-0.11 -0.37,-0.19 -0.56,-0.26c-0.2,-0.07 -0.4,-0.11 -0.61,-0.13c-0.21,-0.02 -0.41,-0.02 -0.62,0c-0.21,-0.02 -0.42,-0.02 -0.62,0c-0.21,0.02 -0.41,0.07 -0.61,0.13c-0.2,0.06 -0.39,0.15 -0.57,0.25c-0.18,0.1 -0.35,0.23 -0.5,0.37c-0.12,0.19 -0.22,0.38 -0.3,0.59c-0.08,0.2 -0.15,0.41 -0.2,0.63c-0.05,0.21 -0.08,0.43 -0.1,0.65c-0.02,0.22 -0.01,0.44 0.01,0.66zM453.15,427.35h-2.11v-11.13c0,-0.11 0,-0.22 0.03,-0.33c0.02,-0.11 0.06,-0.22 0.1,-0.32c0.05,-0.1 0.11,-0.2 0.17,-0.28c0.07,-0.09 0.15,-0.17 0.24,-0.24c0.09,-0.06 0.18,-0.11 0.27,-0.15c0.1,-0.04 0.19,-0.08 0.29,-0.1c0.1,-0.03 0.2,-0.04 0.31,-0.05c0.1,-0.01 0.21,-0.01 0.31,0h3.33c0.26,-0.01 0.51,0 0.77,0.04c0.25,0.04 0.5,0.11 0.74,0.19c0.24,0.09 0.47,0.2 0.69,0.34c0.22,0.14 0.42,0.29 0.61,0.47c0.19,0.25 0.36,0.51 0.5,0.79c0.14,0.28 0.26,0.57 0.34,0.87c0.09,0.3 0.14,0.61 0.17,0.92c0.03,0.31 0.02,0.63 -0.01,0.94c0.03,0.31 0.03,0.62 0.01,0.93c-0.02,0.31 -0.06,0.62 -0.12,0.92c-0.06,0.3 -0.15,0.6 -0.26,0.9c-0.11,0.29 -0.24,0.58 -0.39,0.85c-0.2,0.24 -0.43,0.46 -0.68,0.65c-0.25,0.19 -0.53,0.34 -0.82,0.46c-0.29,0.12 -0.6,0.2 -0.91,0.24c-0.31,0.04 -0.63,0.05 -0.94,0.01h-2.66zM455.55,422.66c0.17,0.01 0.35,0 0.52,-0.03c0.17,-0.03 0.34,-0.09 0.5,-0.17c0.16,-0.08 0.3,-0.17 0.44,-0.29c0.13,-0.12 0.25,-0.25 0.34,-0.39c0.09,-0.18 0.16,-0.36 0.22,-0.54c0.06,-0.19 0.11,-0.38 0.14,-0.57c0.03,-0.19 0.05,-0.39 0.06,-0.58c0.01,-0.2 0,-0.39 -0.02,-0.59c0.01,-0.17 0.02,-0.35 0.01,-0.52c0,-0.17 -0.02,-0.35 -0.04,-0.52c-0.02,-0.17 -0.05,-0.34 -0.09,-0.51c-0.04,-0.17 -0.08,-0.34 -0.14,-0.5c-0.08,-0.17 -0.19,-0.33 -0.31,-0.47c-0.13,-0.14 -0.28,-0.26 -0.44,-0.35c-0.16,-0.1 -0.34,-0.17 -0.52,-0.21c-0.18,-0.04 -0.37,-0.06 -0.56,-0.05h-2.07c-0.03,0 -0.05,0.01 -0.08,0.02c-0.03,0.01 -0.05,0.02 -0.07,0.03c-0.02,0.01 -0.05,0.02 -0.07,0.04c-0.02,0.01 -0.04,0.03 -0.06,0.05c-0.02,0.02 -0.04,0.04 -0.06,0.07c-0.02,0.02 -0.03,0.05 -0.05,0.08c-0.01,0.03 -0.02,0.06 -0.03,0.09c-0.01,0.03 -0.01,0.06 -0.01,0.09v5.85zM469.75,424.28h-5.29c-0.27,0.03 -0.55,0.03 -0.82,-0.01c-0.27,-0.04 -0.54,-0.11 -0.79,-0.21c-0.25,-0.11 -0.49,-0.24 -0.71,-0.41c-0.22,-0.17 -0.42,-0.36 -0.59,-0.58c-0.14,-0.27 -0.26,-0.54 -0.36,-0.82c-0.1,-0.28 -0.18,-0.57 -0.24,-0.87c-0.06,-0.29 -0.09,-0.59 -0.11,-0.89c-0.01,-0.3 -0.01,-0.6 0.02,-0.9c0,-1.79 0.09,-3.1 1.13,-4c0.26,-0.17 0.53,-0.32 0.82,-0.45c0.29,-0.13 0.58,-0.23 0.88,-0.31c0.3,-0.08 0.61,-0.13 0.92,-0.15c0.31,-0.02 0.62,-0.02 0.94,0.01c0.27,-0.02 0.54,-0.03 0.81,-0.01c0.27,0.01 0.54,0.05 0.81,0.1c0.27,0.05 0.53,0.12 0.78,0.21c0.26,0.09 0.51,0.19 0.75,0.32c0.24,0.17 0.45,0.38 0.64,0.61c0.19,0.23 0.34,0.49 0.46,0.76c0.12,0.27 0.2,0.56 0.24,0.85c0.04,0.29 0.05,0.59 0.01,0.88c0.01,0.13 0.01,0.26 0,0.39c-0.01,0.13 -0.04,0.26 -0.08,0.38c-0.04,0.12 -0.09,0.24 -0.15,0.36c-0.06,0.11 -0.14,0.22 -0.22,0.32c-0.07,0.06 -0.14,0.12 -0.22,0.17c-0.08,0.05 -0.16,0.09 -0.25,0.12c-0.09,0.03 -0.18,0.05 -0.27,0.06c-0.09,0.01 -0.19,0.02 -0.28,0.01h-5.55c0,0.11 0,0.22 0.01,0.33c0.01,0.11 0.01,0.22 0.02,0.33c0.01,0.11 0.02,0.22 0.04,0.33c0.02,0.11 0.03,0.22 0.05,0.33c0.06,0.2 0.16,0.38 0.29,0.54c0.13,0.16 0.28,0.3 0.46,0.4c0.18,0.1 0.37,0.17 0.57,0.21c0.2,0.03 0.41,0.03 0.61,-0.01h4.66v1.62zM467.41,418.59c0.07,0 0.14,-0.01 0.21,-0.04c0.06,-0.03 0.12,-0.07 0.17,-0.13c0.05,-0.05 0.08,-0.12 0.09,-0.19c0.02,-0.07 0.02,-0.14 0,-0.21c0,-0.12 -0.01,-0.24 -0.04,-0.36c-0.03,-0.12 -0.07,-0.24 -0.12,-0.35c-0.05,-0.11 -0.12,-0.21 -0.19,-0.31c-0.08,-0.1 -0.16,-0.18 -0.26,-0.26c-0.13,-0.08 -0.27,-0.16 -0.42,-0.22c-0.14,-0.06 -0.29,-0.11 -0.45,-0.15c-0.15,-0.04 -0.31,-0.06 -0.46,-0.07c-0.16,-0.01 -0.31,-0.01 -0.47,0c-0.18,-0.02 -0.36,-0.03 -0.54,-0.01c-0.18,0.02 -0.36,0.05 -0.53,0.11c-0.17,0.05 -0.34,0.13 -0.49,0.22c-0.16,0.09 -0.3,0.2 -0.44,0.32c-0.09,0.12 -0.16,0.24 -0.22,0.37c-0.06,0.13 -0.11,0.27 -0.15,0.41c-0.04,0.14 -0.06,0.28 -0.07,0.43c-0.01,0.14 -0.01,0.29 0.01,0.43zM479.96,290.28h-5.31c-0.37,0.03 -0.74,0.02 -1.1,-0.03c-0.36,-0.05 -0.72,-0.14 -1.07,-0.27c-0.35,-0.13 -0.68,-0.29 -0.99,-0.49c-0.31,-0.2 -0.6,-0.43 -0.86,-0.69c-1.19,-1.33 -1.28,-3.26 -1.28,-4.64c0,-1.8 0.16,-3.66 1.22,-4.9c0.27,-0.27 0.56,-0.51 0.88,-0.72c0.32,-0.21 0.66,-0.38 1.01,-0.52c0.35,-0.14 0.72,-0.23 1.1,-0.29c0.38,-0.06 0.76,-0.08 1.14,-0.05h5.05v1.89h-3.94c-1.4,0 -2.59,0.09 -3.31,1.17c-0.14,0.26 -0.26,0.52 -0.36,0.8c-0.1,0.27 -0.18,0.56 -0.24,0.84c-0.06,0.29 -0.1,0.58 -0.11,0.87c-0.02,0.29 -0.01,0.58 0.01,0.88c-0.03,0.26 -0.03,0.53 -0.02,0.79c0.01,0.26 0.04,0.53 0.09,0.78c0.05,0.26 0.12,0.51 0.21,0.76c0.09,0.25 0.19,0.49 0.31,0.73c0.65,0.99 1.81,1.21 3.3,1.21h4.27v1.89zM481.57,290.28v-12.6h2.38v12.6zM485.73,290.28v-1.89h6.99c0.17,0.01 0.35,-0.02 0.51,-0.09c0.16,-0.07 0.3,-0.17 0.42,-0.3c0.11,-0.13 0.2,-0.29 0.24,-0.46c0.05,-0.17 0.05,-0.34 0.02,-0.52c0.01,-0.17 -0.02,-0.34 -0.08,-0.51c-0.06,-0.16 -0.14,-0.31 -0.26,-0.44c-0.11,-0.13 -0.25,-0.24 -0.4,-0.32c-0.15,-0.08 -0.32,-0.13 -0.49,-0.15l-4.97,-1.57c-0.14,-0.04 -0.28,-0.09 -0.42,-0.15c-0.14,-0.06 -0.27,-0.13 -0.4,-0.21c-0.13,-0.08 -0.25,-0.17 -0.36,-0.26c-0.11,-0.1 -0.22,-0.2 -0.32,-0.31c-0.12,-0.17 -0.22,-0.35 -0.31,-0.54c-0.09,-0.19 -0.16,-0.39 -0.22,-0.59c-0.06,-0.2 -0.09,-0.41 -0.11,-0.62c-0.02,-0.21 -0.02,-0.42 -0.01,-0.63c-0.02,-0.21 -0.02,-0.43 0.01,-0.64c0.03,-0.21 0.07,-0.42 0.14,-0.62c0.07,-0.2 0.16,-0.39 0.27,-0.58c0.11,-0.18 0.24,-0.35 0.39,-0.51c0.14,-0.12 0.29,-0.23 0.46,-0.32c0.16,-0.09 0.33,-0.17 0.51,-0.23c0.18,-0.06 0.36,-0.1 0.54,-0.13c0.19,-0.02 0.37,-0.03 0.56,-0.02h7.26v1.89h-6.44c-0.09,-0.01 -0.18,-0.01 -0.26,0c-0.09,0.01 -0.17,0.02 -0.26,0.05c-0.08,0.02 -0.17,0.06 -0.25,0.1c-0.08,0.04 -0.15,0.09 -0.22,0.14c-0.06,0.07 -0.11,0.14 -0.15,0.21c-0.04,0.08 -0.08,0.16 -0.11,0.24c-0.03,0.08 -0.05,0.17 -0.06,0.26c-0.01,0.09 -0.01,0.18 -0.01,0.26c-0.01,0.17 0.01,0.34 0.07,0.5c0.05,0.16 0.13,0.31 0.24,0.44c0.11,0.13 0.24,0.24 0.39,0.32c0.15,0.08 0.31,0.14 0.48,0.16l4.61,1.46c0.16,0.04 0.33,0.09 0.48,0.15c0.16,0.06 0.31,0.13 0.47,0.2c0.15,0.08 0.3,0.16 0.44,0.25c0.14,0.09 0.28,0.19 0.41,0.3c0.15,0.16 0.27,0.34 0.38,0.53c0.11,0.19 0.2,0.39 0.27,0.6c0.07,0.21 0.12,0.42 0.15,0.64c0.03,0.22 0.04,0.44 0.02,0.66c0.01,0.21 0.01,0.41 -0.01,0.62c-0.02,0.2 -0.06,0.41 -0.11,0.61c-0.05,0.2 -0.12,0.39 -0.21,0.58c-0.09,0.19 -0.19,0.37 -0.3,0.54c-0.13,0.16 -0.29,0.31 -0.46,0.43c-0.17,0.12 -0.36,0.23 -0.55,0.31c-0.2,0.08 -0.4,0.13 -0.61,0.16c-0.21,0.03 -0.42,0.03 -0.63,0h-7.74z"/>
	<path id="Layer copy" class="shp2" d="M521,222v201h200"/>
	<path id="Shape_517_copy copy" class="shp2" d="M721,423h-200l-118,159"/>
	<path id="Shape_517_copy_2 copy" class="shp2" d="M403,582l118,-159l-112,-165"/>
</svg>
