<svg xmlns="http://www.w3.org/2000/svg" viewBox="0 0 737 694" width="737" height="694">
	<style>
		tspan { white-space:pre }
		.shp0 { fill: #ffffff }
		.shp1 { fill: #f0f1fe }
		.shp2 { fill: #ff5f00 }
		.shp3 { fill: #d1d4fc }
		.shp4 { fill: #ffdfd6 }
		.shp5 { fill: #124ef7 }
		.shp6 { fill: #e0e3fd }
	</style>
	<g id="Layer copy">
		<path id="Layer copy" class="shp0" d="M348.59,343l-314.57,0c-6.71,0 -12.02,6.65 -12.02,15.05l0,150.85c0,8.4 5.31,15.05 12.02,15.05l314.57,0c6.71,0 12.02,-6.65 12.02,-15.05v-150.85c0,-8.4 -5.31,-15.05 -12.02,-15.05z"/>
		<path id="Layer copy" class="shp1" d="M41.57,499.1h6.15l0,-130.9h-6.15z"/>
		<path id="Layer copy" class="shp1" d="M57.51,499.1h6.15l0,-130.9h-6.15z"/>
		<path id="Layer copy" class="shp1" d="M73.17,499.1h6.15l0,-130.9h-6.15z"/>
		<path id="Layer copy" class="shp1" d="M89.11,499.1h6.15v-130.9h-6.15z"/>
		<path id="Layer copy" class="shp1" d="M104.77,499.1h6.15v-130.9h-6.15z"/>
		<path id="Layer copy" class="shp1" d="M120.7,499.1h6.15v-130.9h-6.15z"/>
		<path id="Layer copy" class="shp2" d="M41.57,499.1h6.15v-57.75h-6.15z"/>
		<path id="Layer copy" class="shp2" d="M57.51,499.1h6.15v-81.55h-6.15z"/>
		<path id="Layer copy" class="shp2" d="M73.17,499.1h6.15v-93.8h-6.15z"/>
		<path id="Layer copy" class="shp2" d="M89.11,499.1h6.15v-81.55h-6.15z"/>
		<path id="Layer copy" class="shp2" d="M104.77,498.75h6.15v-105.35h-6.15z"/>
		<path id="Layer copy" class="shp2" d="M120.7,498.75h6.15v-118.3h-6.15z"/>
		<path id="Layer copy" class="shp3" d="M197.04,390.25c0,-11.81 -7.62,-21.35 -17.06,-21.35c-9.43,0 -17.06,9.54 -17.06,21.35c0,11.81 7.62,21.35 17.06,21.35c9.43,0 17.06,-9.54 17.06,-21.35z"/>
		<path id="Layer copy" class="shp1" d="M206.27,378l138.13,0v-5.6l-138.13,0z"/>
		<path id="Layer copy" class="shp1" d="M206.27,394.8l138.13,0v-5.6l-138.13,0z"/>
		<path id="Layer copy" class="shp4" d="M206.27,411.6l57.88,0v-5.6l-57.88,0z"/>
		<path id="Layer copy" class="shp3" d="M197.04,473.2c0,-11.81 -7.62,-21.35 -17.06,-21.35c-9.43,0 -17.06,9.54 -17.06,21.35c0,11.81 7.62,21.35 17.06,21.35c9.43,0 17.06,-9.54 17.06,-21.35z"/>
		<path id="Layer copy" class="shp1" d="M206.27,460.6l138.13,0v-5.6l-138.13,0z"/>
		<path id="Layer copy" class="shp1" d="M206.27,477.4l138.13,0v-5.6l-138.13,0z"/>
		<path id="Layer copy" class="shp4" d="M206.27,494.2l57.88,0v-5.6l-57.88,0z"/>
	</g>
	<g id="Layer copy">
		<path id="Layer copy" class="shp0" d="M402,548.45v-108.5c0,-6.65 -4.47,-12.25 -9.79,-12.25l-161.06,0c-5.31,0 -9.79,5.6 -9.79,12.25v108.5c0,6.65 4.47,12.25 9.79,12.25l161.06,0c5.31,0 9.51,-5.6 9.79,-12.25z"/>
		<path id="Layer copy" class="shp1" d="M239.26,450.8h72.42v-8.05h-72.42z"/>
		<path id="Layer copy" class="shp5" d="M239.26,468.3h36.35v-8.05h-36.35z"/>
		<path id="Layer copy" class="shp6" d="M231.15,542.15l161.34,0c2.24,-3.85 1.96,-15.05 1.68,-19.6c-0.84,-11.2 -1.68,-22.4 -2.52,-33.6c-0.28,-2.8 -0.56,-5.95 -2.52,-7.35c-1.68,-1.4 -3.91,-0.7 -5.59,0.7c-5.59,3.85 -8.11,11.9 -11.18,18.9c-3.36,6.65 -8.95,13.65 -15.1,11.9c-4.75,-1.4 -7.83,-7.35 -9.51,-12.95c-1.68,-5.6 -3.08,-11.9 -6.43,-16.45c-1.4,-1.75 -3.08,-3.15 -5.03,-2.8c-0.84,0.35 -1.96,1.05 -2.8,1.75c-5.03,4.55 -6.99,12.6 -10.91,18.55c-4.19,5.95 -9.79,10.15 -15.38,14c-6.43,4.2 -13.42,8.75 -20.69,7c-5.59,-1.4 -10.35,-6.3 -14.82,-11.55c-3.64,-4.2 -7.83,-9.1 -12.86,-8.05c-3.64,0.7 -6.15,4.2 -8.67,7.35c-6.71,9.1 -13.14,22.05 -19.01,32.2z"/>
	</g>
</svg>
