<svg xmlns="http://www.w3.org/2000/svg" viewBox="0 0 737 694" width="737" height="694">
	<style>
		tspan { white-space:pre }
		.shp0 { fill: #d0d4fb } 
	</style>
	<path id="Shape 528" class="shp0" d="M350.35,90.1c72.1,44.39 49.67,148.18 48.7,219.91c-1.07,79.09 -2.14,158.18 -3.22,237.28c-0.07,4.76 7.38,4.77 7.44,0c1.28,-94.52 2.56,-189.05 3.84,-283.57c0.9,-66.74 12.39,-139.74 -53.01,-180c-4.08,-2.51 -7.83,3.89 -3.76,6.39zM390.39,126.2c-3.28,-6.88 -6.72,-13.8 -11.63,-19.64c-7.5,-8.93 -17.95,-14.8 -28.16,-20.49l-1.5,0.8c-5.9,15.25 -8.96,31.97 -5.89,48.02c3.07,16.05 12.92,31.27 27.73,38.36c10.86,5.19 23.7,5.87 33.83,12.35c2.87,-20.47 -5.48,-40.72 -14.38,-59.39zM465.91,0.31c-71.61,28.24 -56.2,136.23 -59.09,197.09c-4.89,103.21 -7.54,206.41 -6.86,309.74c0.03,4.76 7.48,4.77 7.44,0c-0.57,-85.91 0.85,-171.82 4.47,-257.66c1.64,-38.79 3.6,-77.57 5.44,-116.35c2.14,-45.02 0.06,-105.77 50.56,-125.68c4.4,-1.74 2.48,-8.9 -1.98,-7.14zM416.89,124.52c-0.13,-0.36 -0.22,-0.73 -0.35,-1.08c-1.09,1.72 -2.11,3.49 -2.9,5.44zM469.99,6.59c-0.43,-0.99 -0.94,-2.04 -1.9,-2.54c-1.08,-0.57 -2.4,-0.27 -3.57,0.08c-23.3,6.87 -41.68,26.51 -49.65,49.33c-7.85,22.46 -6.24,47.51 1.67,69.97c8.9,-13.97 26.98,-20.96 39.64,-32.55c22.47,-20.57 25.92,-56.42 13.81,-84.29zM466.71,601.93v-94.7h-123.41v94.7c0,16.05 13.09,29.07 29.24,29.07h64.94c16.15,0 29.24,-13.01 29.24,-29.07zM408.25,360.27c-1.12,-28.6 -2.43,-62.47 18.94,-84.88c16.68,-17.5 59.45,-29.56 83.43,-30.17c4.78,-0.12 4.8,-7.52 0,-7.4c-18.28,0.47 -37.36,7.68 -54.58,13.49c-12.67,4.28 -24.66,9.01 -34.11,18.85c-22.95,23.9 -22.32,59.42 -21.12,90.12c0.19,4.75 7.63,4.77 7.45,0zM518.64,234.84c-0.43,-0.49 -1.17,-0.52 -1.82,-0.51c-9,0.08 -18,0.15 -27,0.23c-7.79,0.07 -15.68,0.14 -23.22,2.09c-15.22,3.93 -27.54,15.11 -37.17,27.47l-2.8,0.43c14.04,4.46 27.83,10.3 42.5,11.82c14.66,1.52 30.91,-2.18 40.1,-13.64c5.85,-7.3 8.13,-16.76 9.67,-25.96c0.11,-0.66 0.19,-1.42 -0.25,-1.92z" />
</svg>