<svg xmlns="http://www.w3.org/2000/svg" viewBox="0 0 737 694" width="737" height="694">
	<style>
		tspan { white-space:pre }
		.shp0 { fill: #ffffff } 
		.shp1 { fill: #4d5068 } 
		.shp2 { fill: #fb5b43 } 
		.shp3 { fill: #f9fafe } 
	</style>
	<g id="Group 34">
		<path id="Rounded Rectangle 520" class="shp0" d="M55,83v530c0,11.05 8.95,20 20,20h254c11.05,0 20,-8.95 20,-20v-530c0,-11.05 -8.95,-20 -20,-20h-254c-11.05,0 -20,8.95 -20,20z" />
		<path id="Rounded Rectangle 521" class="shp1" d="M77,76h75.01c0.26,7.78 6.65,14 14.49,14l72,1c8.01,0 14.5,-6.49 14.5,-14.5c0,-0.17 0,-0.33 -0.01,-0.5h75.01c5.52,0 10,4.48 10,10v524c0,5.52 -4.48,10 -10,10h-251c-5.52,0 -10,-4.48 -10,-10v-524c0,-5.52 4.48,-10 10,-10z" />
		<path id="Rounded Rectangle 523" class="shp2" d="M87,198v71c0,11.05 8.95,20 20,20h194c11.05,0 20,-8.95 20,-20v-71c0,-11.05 -8.95,-20 -20,-20h-194c-11.05,0 -20,8.95 -20,20z" />
		<path id="Shape 527" class="shp3" d="M292,204.03h-122.96v4.11h122.96zM292,216.01h-122.96v4.11h122.96zM292,228.32h-122.96v4.11h122.96zM220.55,252.88h-51.51v4.11h51.51z" />
		<path id="Shape 1" class="shp0" d="M132.5 198C119.52 198 109 208.52 109 221.5C109 234.48 119.52 245 132.5 245C145.48 245 156 234.48 156 221.5C156 208.52 145.48 198 132.5 198ZM132.5 234.5C130.81 234.5 129.45 233.13 129.45 231.44L135.55 231.44C135.55 233.13 134.19 234.5 132.5 234.5ZM142.82 228.38L142.82 228.38L142.82 228.38C142.82 229.51 141.91 229.58 140.78 229.58L124.22 229.58C123.09 229.58 122.18 229.51 122.18 228.38L122.18 228.18C122.18 227.37 122.65 226.67 123.34 226.35L123.99 220.74C123.99 216.64 126.89 213.22 130.75 212.41L130.75 210.24C130.75 209.27 131.53 208.49 132.5 208.49C133.47 208.49 134.25 209.27 134.25 210.24L134.25 212.41C138.11 213.22 141.01 216.64 141.01 220.74L141.66 226.35C142.35 226.68 142.82 227.37 142.82 228.18L142.82 228.38Z" />
	</g>
</svg>