<?xml version="1.0" encoding="utf-8"?>
<!-- Generator: Adobe Illustrator 21.0.0, SVG Export Plug-In . SVG Version: 6.00 Build 0)  -->
<svg version="1.1" id="Graphics" xmlns="http://www.w3.org/2000/svg" xmlns:xlink="http://www.w3.org/1999/xlink" x="0px" y="0px"
	 viewBox="0 0 124.7 160.8" style="enable-background:new 0 0 124.7 160.8;" xml:space="preserve">
<style type="text/css">
	.st0{fill:#EFF1FE;}
	.st1{fill:#FFFFFF;}
	.st2{fill:#F0F1FE;}
	.st3{fill:#FF5F00;}
	.st4{fill:#B2B8FA;}
	.st5{fill:url(#SVGID_1_);}
	.st6{fill:#D1D4FC;}
	.st7{fill:#FFDFD6;}
	.st8{opacity:0;fill:#FFFFFF;}
	.st9{opacity:2.439000e-02;fill:#FDFDFF;}
	.st10{opacity:4.878000e-02;fill:#FBFCFF;}
	.st11{opacity:7.317100e-02;fill:#F9FAFF;}
	.st12{opacity:9.756100e-02;fill:#F7F8FF;}
	.st13{opacity:0.122;fill:#F6F6FE;}
	.st14{opacity:0.1463;fill:#F4F5FE;}
	.st15{opacity:0.1707;fill:#F2F3FE;}
	.st16{opacity:0.1951;fill:#F0F1FE;}
	.st17{opacity:0.2195;fill:#EEEFFE;}
	.st18{opacity:0.2439;fill:#ECEEFE;}
	.st19{opacity:0.2683;fill:#EAECFE;}
	.st20{opacity:0.2927;fill:#E8EAFE;}
	.st21{opacity:0.3171;fill:#E7E8FD;}
	.st22{opacity:0.3415;fill:#E5E7FD;}
	.st23{opacity:0.3659;fill:#E3E5FD;}
	.st24{opacity:0.3902;fill:#E1E3FD;}
	.st25{opacity:0.4146;fill:#DFE2FD;}
	.st26{opacity:0.439;fill:#DDE0FD;}
	.st27{opacity:0.4634;fill:#DBDEFD;}
	.st28{opacity:0.4878;fill:#D9DCFD;}
	.st29{opacity:0.5122;fill:#D8DBFC;}
	.st30{opacity:0.5366;fill:#D6D9FC;}
	.st31{opacity:0.561;fill:#D4D7FC;}
	.st32{opacity:0.5854;fill:#D2D5FC;}
	.st33{opacity:0.6098;fill:#D0D4FC;}
	.st34{opacity:0.6341;fill:#CED2FC;}
	.st35{opacity:0.6585;fill:#CCD0FC;}
	.st36{opacity:0.6829;fill:#CACFFC;}
	.st37{opacity:0.7073;fill:#C9CDFB;}
	.st38{opacity:0.7317;fill:#C7CBFB;}
	.st39{opacity:0.7561;fill:#C5C9FB;}
	.st40{opacity:0.7805;fill:#C3C8FB;}
	.st41{opacity:0.8049;fill:#C1C6FB;}
	.st42{opacity:0.8293;fill:#BFC4FB;}
	.st43{opacity:0.8537;fill:#BDC2FB;}
	.st44{opacity:0.878;fill:#BBC1FB;}
	.st45{opacity:0.9024;fill:#BABFFA;}
	.st46{opacity:0.9268;fill:#B8BDFA;}
	.st47{opacity:0.9512;fill:#B6BBFA;}
	.st48{opacity:0.9756;fill:#B4BAFA;}
	.st49{fill:#536DFE;}
	.st50{fill:#E0E3FD;}
	.st51{fill:url(#SVGID_2_);}
	.st52{opacity:0.1;fill:#FFFFFF;}
	.st53{fill:#4D5068;}
	.st54{opacity:0.2;fill:#231F20;}
	.st55{fill:#FFCEBD;}
	.st56{fill:#5608E7;}
	.st57{fill:#545671;}
	.st58{fill:#3F4155;}
	.st59{fill:#F5F7F9;}
	.st60{fill:url(#SVGID_3_);}
	.st61{opacity:0.15;fill:#525D7A;}
</style>
<path class="st0" d="M56.9,0.8c25.5-4.4,47.3,10.2,47.7,45.4c0.2,25.1-1.9,86.4-22.1,99.8c-50.1,33.5-74-65-68.2-97.6
	C18.8,23.6,34.6,4.6,56.9,0.8z"/>
<g>
	<path class="st1" d="M121.3,81.4H58.6c-1.9,0-3.5-1.6-3.5-3.5v-34c0-1.9,1.6-3.5,3.5-3.5h62.7c1.9,0,3.5,1.6,3.5,3.5v34
		C124.7,79.8,123.2,81.4,121.3,81.4z"/>
	<rect x="66.6" y="47.2" class="st2" width="25.8" height="2.3"/>
	<rect x="66.6" y="52.1" class="st3" width="12.9" height="2.3"/>
	<path class="st4" d="M121.9,73.2H63l8.3-6.3c0.2,0.2,0.6,0.4,0.9,0.4c0.4,0,0.8-0.2,1.1-0.5l5.3,3.1c0,0.1,0,0.1,0,0.2
		c0,0.7,0.6,1.3,1.3,1.3c0.7,0,1.3-0.6,1.3-1.3c0-0.2,0-0.4-0.1-0.5l12.3-12.4c0.2,0.1,0.5,0.2,0.7,0.2c0.2,0,0.5-0.1,0.7-0.2
		l4.5,5.5C99.1,63,99,63.2,99,63.5c0,0.7,0.6,1.3,1.3,1.3c0.7,0,1.3-0.6,1.3-1.3c0-0.1,0-0.2,0-0.3l11.7-8.5
		c0.2,0.2,0.5,0.3,0.9,0.3c0.7,0,1.3-0.6,1.3-1.3c0-0.7-0.6-1.3-1.3-1.3c-0.7,0-1.3,0.6-1.3,1.3c0,0.2,0,0.4,0.1,0.5l-11.6,8.5
		c-0.2-0.3-0.6-0.5-1-0.5c-0.2,0-0.4,0.1-0.6,0.2l-4.5-5.5c0.1-0.2,0.2-0.5,0.2-0.7c0-0.7-0.6-1.3-1.3-1.3c-0.7,0-1.3,0.6-1.3,1.3
		c0,0.3,0.1,0.5,0.2,0.7L80.7,69.2c-0.2-0.2-0.5-0.3-0.9-0.3c-0.5,0-0.9,0.2-1.1,0.6l-5.2-3.1c0-0.1,0-0.2,0-0.3
		c0-0.7-0.6-1.3-1.3-1.3c-0.7,0-1.3,0.6-1.3,1.3c0,0.2,0,0.3,0.1,0.5l-8.5,6.4V47.3h-0.6v26H57v0.6h4.9v3h0.6v-3h59.4V73.2z"/>
</g>
<g>
	<path class="st1" d="M120.7,36.2H49c-2.2,0-4.1-1.8-4.1-4.1V14.2c0-2.2,1.8-4.1,4.1-4.1h71.7c2.2,0,4.1,1.8,4.1,4.1v17.9
		C124.7,34.4,122.9,36.2,120.7,36.2z"/>
	<linearGradient id="SVGID_1_" gradientUnits="userSpaceOnUse" x1="44.8985" y1="13.2447" x2="124.74" y2="13.2447">
		<stop  offset="0" style="stop-color:#E040FB"/>
		<stop  offset="7.285416e-03" style="stop-color:#E040F9"/>
		<stop  offset="0.3718" style="stop-color:#ED4DA4"/>
		<stop  offset="0.6698" style="stop-color:#F65666"/>
		<stop  offset="0.8866" style="stop-color:#FC5C40"/>
		<stop  offset="1" style="stop-color:#FE5E31"/>
	</linearGradient>
	<path class="st5" d="M121,10.2H48.6c-2.1,0-3.7,1.7-3.7,3.7v2.4h79.8v-2.4C124.7,11.8,123.1,10.2,121,10.2z"/>
	<circle class="st6" cx="56.7" cy="26.6" r="6.1"/>
	<rect x="66.1" y="21" class="st2" width="51.9" height="1.6"/>
	<rect x="66.1" y="25.8" class="st2" width="51.9" height="1.6"/>
	<rect x="66.1" y="30.6" class="st7" width="19.5" height="1.6"/>
	<circle class="st1" cx="51.4" cy="13.2" r="0.8"/>
	<circle class="st1" cx="54.8" cy="13.2" r="0.8"/>
	<circle class="st1" cx="58.2" cy="13.2" r="0.8"/>
</g>
<g>
	<g>
		<path class="st8" d="M58.3,41.6c-1.8,0-3.2,1.4-3.2,3.2v23.6h16.5c1.8,0,3.2-1.4,3.2-3.2V41.6H58.3z"/>
		<path class="st9" d="M58.3,41.6c-1.8,0-3.2,1.4-3.2,3.2v23.5h16.3c1.8,0,3.2-1.4,3.2-3.2V41.6H58.3z"/>
		<path class="st10" d="M58.3,41.6c-1.8,0-3.2,1.4-3.2,3.2v23.3h16.1c1.8,0,3.2-1.4,3.2-3.2V41.6H58.3z"/>
		<path class="st11" d="M58.2,41.6c-1.7,0-3.2,1.4-3.2,3.2v23.2h15.8c1.7,0,3.2-1.4,3.2-3.2V41.6H58.2z"/>
		<path class="st12" d="M58.2,41.6c-1.7,0-3.1,1.4-3.1,3.1v23.1h15.6c1.7,0,3.1-1.4,3.1-3.1V41.6H58.2z"/>
		<path class="st13" d="M58.2,41.6c-1.7,0-3.1,1.4-3.1,3.1v23h15.4c1.7,0,3.1-1.4,3.1-3.1v-23H58.2z"/>
		<path class="st14" d="M58.2,41.6c-1.7,0-3.1,1.4-3.1,3.1v22.8h15.2c1.7,0,3.1-1.4,3.1-3.1V41.6H58.2z"/>
		<path class="st15" d="M58.2,41.6c-1.7,0-3.1,1.4-3.1,3.1v22.7h15c1.7,0,3.1-1.4,3.1-3.1V41.6H58.2z"/>
		<path class="st16" d="M58.1,41.6c-1.7,0-3,1.4-3,3v22.6h14.8c1.7,0,3-1.4,3-3V41.6H58.1z"/>
		<path class="st17" d="M58.1,41.6c-1.7,0-3,1.3-3,3V67h14.6c1.7,0,3-1.3,3-3V41.6H58.1z"/>
		<path class="st18" d="M58.1,41.6c-1.7,0-3,1.3-3,3v22.3h14.3c1.7,0,3-1.3,3-3V41.6H58.1z"/>
		<path class="st19" d="M58.1,41.6c-1.6,0-3,1.3-3,3v22.2h14.1c1.6,0,3-1.3,3-3V41.6H58.1z"/>
		<path class="st20" d="M58,41.6c-1.6,0-2.9,1.3-2.9,2.9v22.1H69c1.6,0,2.9-1.3,2.9-2.9V41.6H58z"/>
		<path class="st21" d="M58,41.6c-1.6,0-2.9,1.3-2.9,2.9v21.9h13.7c1.6,0,2.9-1.3,2.9-2.9V41.6H58z"/>
		<path class="st22" d="M58,41.6c-1.6,0-2.9,1.3-2.9,2.9v21.8h13.5c1.6,0,2.9-1.3,2.9-2.9V41.6H58z"/>
		<path class="st23" d="M58,41.6c-1.6,0-2.9,1.3-2.9,2.9v21.7h13.3c1.6,0,2.9-1.3,2.9-2.9V41.6H58z"/>
		<path class="st24" d="M57.9,41.6c-1.6,0-2.8,1.3-2.8,2.8V66h13c1.6,0,2.8-1.3,2.8-2.8V41.6H57.9z"/>
		<path class="st25" d="M57.9,41.6c-1.6,0-2.8,1.3-2.8,2.8v21.4h12.8c1.6,0,2.8-1.3,2.8-2.8V41.6H57.9z"/>
		<path class="st26" d="M57.9,41.6c-1.5,0-2.8,1.3-2.8,2.8v21.3h12.6c1.5,0,2.8-1.3,2.8-2.8V41.6H57.9z"/>
		<path class="st27" d="M57.9,41.6c-1.5,0-2.8,1.2-2.8,2.8v21.2h12.4c1.5,0,2.8-1.2,2.8-2.8V41.6H57.9z"/>
		<path class="st28" d="M57.8,41.6c-1.5,0-2.8,1.2-2.8,2.8v21.1h12.2c1.5,0,2.8-1.2,2.8-2.8V41.6H57.8z"/>
		<path class="st29" d="M57.8,41.6c-1.5,0-2.7,1.2-2.7,2.7v20.9h12c1.5,0,2.7-1.2,2.7-2.7V41.6H57.8z"/>
		<path class="st30" d="M57.8,41.6c-1.5,0-2.7,1.2-2.7,2.7v20.8h11.8c1.5,0,2.7-1.2,2.7-2.7V41.6H57.8z"/>
		<path class="st31" d="M57.8,41.6c-1.5,0-2.7,1.2-2.7,2.7v20.7h11.5c1.5,0,2.7-1.2,2.7-2.7V41.6H57.8z"/>
		<path class="st32" d="M57.8,41.6c-1.5,0-2.7,1.2-2.7,2.7v20.6h11.3c1.5,0,2.7-1.2,2.7-2.7V41.6H57.8z"/>
		<path class="st33" d="M57.7,41.6c-1.5,0-2.6,1.2-2.6,2.6v20.4h11.1c1.5,0,2.6-1.2,2.6-2.6V41.6H57.7z"/>
		<path class="st34" d="M57.7,41.6c-1.4,0-2.6,1.2-2.6,2.6v20.3H66c1.4,0,2.6-1.2,2.6-2.6V41.6H57.7z"/>
		<path class="st35" d="M57.7,41.6c-1.4,0-2.6,1.2-2.6,2.6v20.2h10.7c1.4,0,2.6-1.2,2.6-2.6V41.6H57.7z"/>
		<path class="st36" d="M57.7,41.6c-1.4,0-2.6,1.1-2.6,2.6v20h10.5c1.4,0,2.6-1.1,2.6-2.6v-20H57.7z"/>
		<path class="st37" d="M57.6,41.6c-1.4,0-2.5,1.1-2.5,2.5V64h10.3c1.4,0,2.5-1.1,2.5-2.5V41.6H57.6z"/>
		<path class="st38" d="M57.6,41.6c-1.4,0-2.5,1.1-2.5,2.5v19.8h10c1.4,0,2.5-1.1,2.5-2.5V41.6H57.6z"/>
		<path class="st39" d="M57.6,41.6c-1.4,0-2.5,1.1-2.5,2.5v19.7h9.8c1.4,0,2.5-1.1,2.5-2.5V41.6H57.6z"/>
		<path class="st40" d="M57.6,41.6c-1.4,0-2.5,1.1-2.5,2.5v19.5h9.6c1.4,0,2.5-1.1,2.5-2.5V41.6H57.6z"/>
		<path class="st41" d="M57.5,41.6c-1.4,0-2.4,1.1-2.4,2.4v19.4h9.4c1.4,0,2.4-1.1,2.4-2.4V41.6H57.5z"/>
		<path class="st42" d="M57.5,41.6c-1.3,0-2.4,1.1-2.4,2.4v19.3h9.2c1.3,0,2.4-1.1,2.4-2.4V41.6H57.5z"/>
		<path class="st43" d="M57.5,41.6c-1.3,0-2.4,1.1-2.4,2.4v19.2h9c1.3,0,2.4-1.1,2.4-2.4V41.6H57.5z"/>
		<path class="st44" d="M57.5,41.6c-1.3,0-2.4,1.1-2.4,2.4v19h8.8c1.3,0,2.4-1.1,2.4-2.4v-19H57.5z"/>
		<path class="st45" d="M57.4,41.6c-1.3,0-2.4,1.1-2.4,2.4v18.9h8.5c1.3,0,2.4-1.1,2.4-2.4V41.6H57.4z"/>
		<path class="st46" d="M57.4,41.6c-1.3,0-2.3,1-2.3,2.3v18.8h8.3c1.3,0,2.3-1,2.3-2.3V41.6H57.4z"/>
		<path class="st47" d="M57.4,41.6c-1.3,0-2.3,1-2.3,2.3v18.7h8.1c1.3,0,2.3-1,2.3-2.3V41.6H57.4z"/>
		<path class="st48" d="M57.4,41.6c-1.3,0-2.3,1-2.3,2.3v18.5H63c1.3,0,2.3-1,2.3-2.3V41.6H57.4z"/>
		<path class="st4" d="M57.4,41.6c-1.2,0-2.3,1-2.3,2.3v18.4h7.7c1.2,0,2.3-1,2.3-2.3V41.6H57.4z"/>
	</g>
	<g>
		<g>
			<path class="st8" d="M1.6,31.6c-1.9,0-3.4,1.5-3.4,3.4V65c0,1.9,1.5,3.4,3.4,3.4H42V33.1v-1.5H1.6z"/>
			<path class="st9" d="M1.8,31.6c-1.8,0-3.3,1.5-3.3,3.3v29.9c0,1.8,1.5,3.3,3.3,3.3H42V33.1v-1.5H1.8z"/>
			<path class="st10" d="M2,31.6c-1.8,0-3.3,1.5-3.3,3.3v29.8c0,1.8,1.5,3.3,3.3,3.3h40V33.1v-1.5H2z"/>
			<path class="st11" d="M2.2,31.6c-1.8,0-3.3,1.5-3.3,3.3v29.6c0,1.8,1.5,3.3,3.3,3.3H42V33.1v-1.5H2.2z"/>
			<path class="st12" d="M2.4,31.6c-1.8,0-3.3,1.5-3.3,3.3v29.5c0,1.8,1.5,3.3,3.3,3.3H42V33.1v-1.5H2.4z"/>
			<path class="st13" d="M2.6,31.6c-1.8,0-3.3,1.5-3.3,3.3v29.3c0,1.8,1.5,3.3,3.3,3.3H42V33.1v-1.5H2.6z"/>
			<path class="st14" d="M2.8,31.6c-1.8,0-3.3,1.5-3.3,3.3V64c0,1.8,1.5,3.3,3.3,3.3H42V33.1v-1.5H2.8z"/>
			<path class="st15" d="M3,31.6c-1.8,0-3.2,1.5-3.2,3.2v29c0,1.8,1.5,3.2,3.2,3.2h39v-34v-1.4H3z"/>
			<path class="st16" d="M3.2,31.6C1.4,31.6,0,33,0,34.8v28.9c0,1.8,1.4,3.2,3.2,3.2H42V33v-1.4H3.2z"/>
			<path class="st17" d="M3.4,31.6c-1.8,0-3.2,1.4-3.2,3.2v28.7c0,1.8,1.4,3.2,3.2,3.2H42V33v-1.4H3.4z"/>
			<path class="st18" d="M3.6,31.6c-1.8,0-3.2,1.4-3.2,3.2v28.5c0,1.8,1.4,3.2,3.2,3.2H42V33v-1.4H3.6z"/>
			<path class="st19" d="M3.8,31.6c-1.8,0-3.2,1.4-3.2,3.2v28.4c0,1.8,1.4,3.2,3.2,3.2H42V33v-1.4H3.8z"/>
			<path class="st20" d="M4,31.6c-1.7,0-3.2,1.4-3.2,3.2V63c0,1.7,1.4,3.2,3.2,3.2h38V33v-1.4H4z"/>
			<path class="st21" d="M4.2,31.6c-1.7,0-3.1,1.4-3.1,3.1v28.1c0,1.7,1.4,3.1,3.1,3.1H42V33v-1.4H4.2z"/>
			<path class="st22" d="M4.4,31.6c-1.7,0-3.1,1.4-3.1,3.1v27.9c0,1.7,1.4,3.1,3.1,3.1H42V33v-1.4H4.4z"/>
			<path class="st23" d="M4.6,31.6c-1.7,0-3.1,1.4-3.1,3.1v27.8c0,1.7,1.4,3.1,3.1,3.1H42V33v-1.4H4.6z"/>
			<path class="st24" d="M4.8,31.6c-1.7,0-3.1,1.4-3.1,3.1v27.6c0,1.7,1.4,3.1,3.1,3.1H42V33v-1.4H4.8z"/>
			<path class="st25" d="M5.1,31.6C3.4,31.6,2,33,2,34.7v27.5c0,1.7,1.4,3.1,3.1,3.1h37V33v-1.4H5.1z"/>
			<path class="st26" d="M5.3,31.6c-1.7,0-3.1,1.4-3.1,3.1V62c0,1.7,1.4,3.1,3.1,3.1H42V33v-1.4H5.3z"/>
			<path class="st27" d="M5.5,31.6c-1.7,0-3,1.4-3,3v27.2c0,1.7,1.4,3,3,3H42V33v-1.4H5.5z"/>
			<path class="st28" d="M5.7,31.6c-1.7,0-3,1.4-3,3v27c0,1.7,1.4,3,3,3H42V33v-1.4H5.7z"/>
			<path class="st29" d="M5.9,31.6c-1.7,0-3,1.3-3,3v26.9c0,1.7,1.3,3,3,3H42V32.9v-1.3H5.9z"/>
			<path class="st30" d="M6.1,31.6c-1.7,0-3,1.3-3,3v26.7c0,1.7,1.3,3,3,3h36V32.9v-1.3H6.1z"/>
			<path class="st31" d="M6.3,31.6c-1.6,0-3,1.3-3,3v26.6c0,1.6,1.3,3,3,3H42V32.9v-1.3H6.3z"/>
			<path class="st32" d="M6.5,31.6c-1.6,0-3,1.3-3,3V61c0,1.6,1.3,3,3,3H42v-31v-1.3H6.5z"/>
			<path class="st33" d="M6.7,31.6c-1.6,0-2.9,1.3-2.9,2.9v26.3c0,1.6,1.3,2.9,2.9,2.9H42V32.9v-1.3H6.7z"/>
			<path class="st34" d="M6.9,31.6c-1.6,0-2.9,1.3-2.9,2.9v26.1c0,1.6,1.3,2.9,2.9,2.9H42V32.9v-1.3H6.9z"/>
			<path class="st35" d="M7.1,31.6c-1.6,0-2.9,1.3-2.9,2.9v26c0,1.6,1.3,2.9,2.9,2.9H42V32.9v-1.3H7.1z"/>
			<path class="st36" d="M7.3,31.6c-1.6,0-2.9,1.3-2.9,2.9v25.8c0,1.6,1.3,2.9,2.9,2.9H42V32.9v-1.3H7.3z"/>
			<path class="st37" d="M7.5,31.6c-1.6,0-2.9,1.3-2.9,2.9v25.7c0,1.6,1.3,2.9,2.9,2.9H42V32.9v-1.3H7.5z"/>
			<path class="st38" d="M7.7,31.6c-1.6,0-2.9,1.3-2.9,2.9V60c0,1.6,1.3,2.9,2.9,2.9H42v-30v-1.3H7.7z"/>
			<path class="st39" d="M7.9,31.6c-1.6,0-2.8,1.3-2.8,2.8v25.4c0,1.6,1.3,2.8,2.8,2.8H42V32.9v-1.3H7.9z"/>
			<path class="st40" d="M8.1,31.6c-1.6,0-2.8,1.3-2.8,2.8v25.2c0,1.6,1.3,2.8,2.8,2.8H42V32.9v-1.3H8.1z"/>
			<path class="st41" d="M8.3,31.6c-1.5,0-2.8,1.3-2.8,2.8v25.1c0,1.5,1.3,2.8,2.8,2.8H42V32.9v-1.3H8.3z"/>
			<path class="st42" d="M8.5,31.6c-1.5,0-2.8,1.2-2.8,2.8v24.9c0,1.5,1.2,2.8,2.8,2.8H42V32.9v-1.2H8.5z"/>
			<path class="st43" d="M8.7,31.6c-1.5,0-2.8,1.2-2.8,2.8v24.8c0,1.5,1.2,2.8,2.8,2.8H42V32.8v-1.2H8.7z"/>
			<path class="st44" d="M8.9,31.6c-1.5,0-2.8,1.2-2.8,2.8V59c0,1.5,1.2,2.8,2.8,2.8H42V32.8v-1.2H8.9z"/>
			<path class="st45" d="M9.1,31.6c-1.5,0-2.7,1.2-2.7,2.7v24.5c0,1.5,1.2,2.7,2.7,2.7H42V32.8v-1.2H9.1z"/>
			<path class="st46" d="M9.3,31.6c-1.5,0-2.7,1.2-2.7,2.7v24.3c0,1.5,1.2,2.7,2.7,2.7H42V32.8v-1.2H9.3z"/>
			<path class="st47" d="M9.5,31.6c-1.5,0-2.7,1.2-2.7,2.7v24.2c0,1.5,1.2,2.7,2.7,2.7H42V32.8v-1.2H9.5z"/>
			<path class="st48" d="M9.7,31.6c-1.5,0-2.7,1.2-2.7,2.7v24C7,59.8,8.2,61,9.7,61H42V32.8v-1.2H9.7z"/>
			<path class="st4" d="M9.9,31.6c-1.5,0-2.7,1.2-2.7,2.7v23.9c0,1.5,1.2,2.7,2.7,2.7H42v-28v-1.2H9.9z"/>
		</g>
		<g>
			<path class="st1" d="M63.4,62.4H7.8c-1.9,0-3.5-1.6-3.5-3.5V29.1c0-1.9,1.6-3.5,3.5-3.5h55.6c1.9,0,3.5,1.6,3.5,3.5V59
				C66.9,60.9,65.3,62.4,63.4,62.4z"/>
			<rect x="10.4" y="29.8" class="st2" width="25.2" height="2.2"/>
			<rect x="10.4" y="34.6" class="st49" width="12.6" height="2.2"/>
			<path class="st50" d="M7.7,57.3c2.1-2.8,4.3-6.4,6.6-8.9c0.8-0.9,1.8-1.8,3-2c1.7-0.3,3.2,1,4.5,2.2c1.5,1.4,3.2,2.8,5.2,3.2
				c2.5,0.5,5-0.8,7.2-2c1.9-1.1,3.9-2.2,5.3-3.9c1.3-1.7,2.1-3.8,3.8-5.1c0.3-0.2,0.6-0.4,1-0.5c0.6-0.1,1.3,0.3,1.7,0.8
				c1.2,1.2,1.6,3,2.2,4.5c0.6,1.6,1.6,3.2,3.3,3.6c2.2,0.5,4.1-1.4,5.2-3.3c1.1-1.9,2-4.2,3.9-5.3c0.6-0.3,1.4-0.5,1.9-0.2
				c0.6,0.4,0.8,1.3,0.8,2c0.3,3.1,0.6,6.2,0.9,9.4c0.1,1.3,0.2,4.4-0.5,5.5H7.7z"/>
		</g>
	</g>
</g>
<g>
	<g>
		<path class="st8" d="M97.1,83.2C97.1,83.2,97.1,83.2,97.1,83.2c-2.2,0-4.5,0.1-6.7,0.1c-3.5,0-6.1-0.1-7.7-0.4
			c-7-1-11.2-4-13.2-5.8l0,0c-0.1-0.1-0.2-0.2-0.3-0.3c-0.1,0.1-0.3,0.3-0.4,0.4c-2,1.8-6.2,4.9-12.9,5.7c-1.9,0.2-5.1,0.3-9.6,0.3
			c-5.8,0-12.3-0.2-14.9-0.3c0.1,14.2,2.4,26,5.6,35.6c3.7,11.3,8.8,19.6,13.4,25.5c5.4,6.9,10.8,11.3,14.5,13.8
			c-0.1,0.2,3,2.2,3.1,2.1c0,0,0.1-0.1,0.1-0.1c0.3,0.1,0.5,0.3,0.7,0.4c0,0,0,0,0,0c0.1-0.1,0.3-0.2,0.4-0.2l0,0
			c2.6-1.5,10.3-6.5,18-16.5c4.5-5.8,9.5-14.1,13.2-25c3.3-9.7,5.6-21.4,5.7-35.6C104.3,83,100.9,83.1,97.1,83.2z"/>
		<path class="st9" d="M96.9,83.4C96.9,83.4,96.9,83.4,96.9,83.4c-2.2,0-4.5,0.1-6.7,0.1c-3.5,0-6.1-0.1-7.7-0.4
			c-6.9-1-11.1-4-13.1-5.8l0,0c-0.1-0.1-0.2-0.2-0.3-0.3c-0.1,0.1-0.3,0.3-0.4,0.4c-2,1.8-6.2,4.9-12.8,5.6
			c-1.9,0.2-5.1,0.3-9.5,0.3c-5.8,0-12.2-0.2-14.8-0.3c0.1,14.1,2.3,25.8,5.5,35.4c3.7,11.2,8.7,19.5,13.3,25.3
			c5.4,6.9,10.8,11.3,14.4,13.8c-0.1,0.2,2.9,2.2,3.1,2.1c0,0,0.1-0.1,0.1-0.1c0.3,0.1,0.5,0.3,0.7,0.4c0,0,0,0,0,0
			c0.1-0.1,0.2-0.1,0.4-0.2l0,0c2.6-1.5,10.2-6.5,17.9-16.4c4.5-5.8,9.4-14,13.1-24.9c3.3-9.6,5.6-21.3,5.7-35.4
			C104.1,83.2,100.7,83.3,96.9,83.4z"/>
		<path class="st10" d="M96.7,83.6C96.7,83.6,96.7,83.6,96.7,83.6c-2.1,0-4.4,0.1-6.6,0.1c-3.5,0-6-0.1-7.6-0.4
			c-6.9-1-11.1-4-13-5.8l0,0c-0.1-0.1-0.2-0.2-0.3-0.3c-0.1,0.1-0.3,0.3-0.4,0.4c-2,1.8-6.1,4.8-12.7,5.6c-1.9,0.2-5.1,0.3-9.4,0.3
			c-5.7,0-12.1-0.2-14.7-0.3c0.1,14,2.3,25.7,5.5,35.2c3.7,11.1,8.7,19.4,13.2,25.2c5.3,6.8,10.7,11.2,14.3,13.7
			c-0.1,0.2,2.9,2.2,3.1,2.1c0,0,0.1-0.1,0.1-0.1c0.3,0.1,0.5,0.3,0.7,0.4c0,0,0,0,0,0c0.1-0.1,0.2-0.1,0.4-0.2l0,0
			c2.5-1.5,10.2-6.4,17.8-16.3c4.5-5.8,9.4-13.9,13.1-24.7c3.2-9.5,5.5-21.2,5.7-35.2C103.9,83.4,100.5,83.5,96.7,83.6z"/>
		<path class="st11" d="M96.6,83.8C96.6,83.8,96.6,83.8,96.6,83.8c-2.1,0-4.4,0.1-6.6,0.1c-3.4,0-6-0.1-7.6-0.4
			c-6.9-1-11-4-12.9-5.7l0,0c-0.1-0.1-0.2-0.2-0.3-0.3c-0.1,0.1-0.3,0.3-0.4,0.4c-2,1.8-6.1,4.8-12.6,5.6c-1.9,0.2-5,0.3-9.4,0.3
			c-5.7,0-12-0.2-14.7-0.3c0.1,14,2.3,25.5,5.5,35c3.7,11,8.6,19.3,13.1,25c5.3,6.8,10.6,11.1,14.2,13.6c-0.1,0.2,2.9,2.2,3.1,2.1
			c0,0,0.1-0.1,0.1-0.1c0.3,0.1,0.5,0.3,0.7,0.4c0,0,0,0,0,0c0.1-0.1,0.2-0.1,0.4-0.2v0c2.5-1.5,10.1-6.4,17.7-16.1
			c4.4-5.7,9.3-13.8,13-24.6c3.2-9.5,5.5-21,5.6-34.9C103.6,83.6,100.3,83.8,96.6,83.8z"/>
		<path class="st12" d="M96.4,84.1C96.4,84.1,96.4,84,96.4,84.1c-2.1,0-4.4,0.1-6.5,0.1c-3.4,0-5.9-0.1-7.5-0.4
			c-6.8-1-10.9-3.9-12.8-5.7l0,0c-0.1-0.1-0.2-0.2-0.3-0.3c-0.1,0.1-0.3,0.3-0.4,0.4c-1.9,1.8-6,4.8-12.5,5.5
			c-1.9,0.2-5,0.3-9.3,0.3c-5.7,0-11.9-0.2-14.6-0.3c0.1,13.9,2.3,25.3,5.4,34.7c3.6,11,8.6,19.1,13,24.8c5.3,6.7,10.6,11,14.1,13.5
			c-0.1,0.2,2.9,2.2,3,2.1c0,0,0.1-0.1,0.1-0.1c0.3,0.1,0.5,0.3,0.7,0.4c0,0,0,0,0,0c0.1-0.1,0.2-0.1,0.4-0.2l0,0
			c2.5-1.5,10-6.3,17.6-16c4.4-5.7,9.3-13.7,12.9-24.4c3.2-9.4,5.5-20.9,5.6-34.7C103.4,83.8,100.1,84,96.4,84.1z"/>
		<path class="st13" d="M96.2,84.3C96.2,84.3,96.2,84.3,96.2,84.3c-2.1,0-4.3,0.1-6.5,0.1c-3.4,0-5.9-0.1-7.5-0.4
			c-6.8-1-10.8-3.9-12.8-5.7l0,0c-0.1-0.1-0.2-0.2-0.3-0.3c-0.1,0.1-0.3,0.2-0.4,0.4c-1.9,1.8-6,4.7-12.5,5.5
			c-1.9,0.2-5,0.3-9.3,0.3c-5.6,0-11.9-0.2-14.5-0.3c0.1,13.8,2.3,25.2,5.4,34.5c3.6,10.9,8.5,19,13,24.7c5.2,6.7,10.5,11,14.1,13.4
			c-0.1,0.2,2.9,2.1,3,2.1c0,0,0.1-0.1,0.1-0.1c0.3,0.1,0.5,0.3,0.7,0.4c0,0,0,0,0,0c0.1,0,0.2-0.1,0.4-0.2v0
			c2.5-1.5,10-6.3,17.5-15.9c4.4-5.7,9.2-13.7,12.8-24.3c3.2-9.4,5.4-20.8,5.5-34.5C103.2,84.1,99.9,84.2,96.2,84.3z"/>
		<path class="st14" d="M96,84.5C96,84.5,96,84.5,96,84.5c-2.1,0-4.3,0.1-6.5,0.1c-3.4,0-5.9-0.1-7.4-0.4c-6.7-1-10.8-3.9-12.7-5.6
			l0,0c-0.1-0.1-0.2-0.2-0.3-0.3c-0.1,0.1-0.3,0.2-0.4,0.4c-1.9,1.8-6,4.7-12.4,5.5c-1.8,0.2-4.9,0.3-9.2,0.3
			c-5.6,0-11.8-0.2-14.4-0.3c0.1,13.7,2.3,25,5.4,34.3c3.6,10.8,8.5,18.9,12.9,24.5c5.2,6.6,10.4,10.9,14,13.3c-0.1,0.2,2.8,2.1,3,2
			c0,0,0.1-0.1,0.1-0.1c0.3,0.1,0.5,0.3,0.7,0.4c0,0,0,0,0,0c0.1,0,0.2-0.1,0.3-0.2l0,0c2.5-1.4,9.9-6.3,17.3-15.8
			c4.4-5.6,9.1-13.6,12.7-24.1c3.2-9.3,5.4-20.6,5.5-34.3C103,84.3,99.7,84.4,96,84.5z"/>
		<path class="st15" d="M95.9,84.7C95.9,84.7,95.9,84.7,95.9,84.7c-2.1,0-4.3,0.1-6.4,0.1c-3.3,0-5.8-0.1-7.4-0.4
			c-6.7-1-10.7-3.9-12.6-5.6l0,0c-0.1-0.1-0.2-0.2-0.3-0.3c-0.1,0.1-0.3,0.2-0.4,0.4c-1.9,1.8-5.9,4.7-12.3,5.4
			c-1.8,0.2-4.9,0.3-9.1,0.3c-5.6,0-11.7-0.2-14.3-0.3c0.1,13.6,2.3,24.9,5.3,34.1c3.6,10.8,8.4,18.8,12.8,24.4
			c5.2,6.6,10.4,10.8,13.9,13.2c-0.1,0.2,2.8,2.1,3,2c0,0,0.1-0.1,0.1-0.1c0.2,0.1,0.5,0.3,0.6,0.4c0,0,0,0,0,0
			c0.1,0,0.2-0.1,0.3-0.2v0c2.5-1.4,9.9-6.2,17.2-15.7c4.3-5.6,9.1-13.5,12.6-24c3.1-9.2,5.4-20.5,5.5-34.1
			C102.8,84.5,99.5,84.6,95.9,84.7z"/>
		<path class="st16" d="M95.7,84.9C95.7,84.9,95.7,84.9,95.7,84.9c-2.1,0-4.3,0.1-6.4,0.1c-3.3,0-5.8-0.1-7.3-0.3
			c-6.6-0.9-10.6-3.8-12.5-5.5l0,0c-0.1-0.1-0.2-0.2-0.3-0.3c-0.1,0.1-0.3,0.2-0.4,0.4c-1.9,1.8-5.9,4.6-12.2,5.4
			c-1.8,0.2-4.9,0.3-9.1,0.3c-5.5,0-11.6-0.2-14.2-0.3c0.1,13.5,2.2,24.7,5.3,33.9c3.5,10.7,8.3,18.6,12.7,24.2
			c5.1,6.6,10.3,10.8,13.8,13.2c-0.1,0.2,2.8,2.1,3,2c0,0,0.1-0.1,0.1-0.1c0.2,0.1,0.5,0.3,0.6,0.4c0,0,0,0,0,0
			c0.1,0,0.2-0.1,0.3-0.2l0,0c2.4-1.4,9.8-6.2,17.1-15.6c4.3-5.6,9-13.4,12.6-23.8c3.1-9.2,5.3-20.4,5.4-33.8
			C102.5,84.7,99.3,84.9,95.7,84.9z"/>
		<path class="st17" d="M95.5,85.2C95.5,85.2,95.5,85.1,95.5,85.2c-2,0-4.2,0.1-6.3,0.1c-3.3,0-5.8-0.1-7.3-0.3
			c-6.6-0.9-10.6-3.8-12.4-5.5l0,0c-0.1-0.1-0.2-0.2-0.3-0.3c-0.1,0.1-0.3,0.2-0.4,0.4c-1.9,1.7-5.8,4.6-12.1,5.4
			c-1.8,0.2-4.8,0.3-9,0.3c-5.5,0-11.6-0.2-14.1-0.3c0.1,13.4,2.2,24.5,5.2,33.6c3.5,10.6,8.3,18.5,12.6,24.1
			c5.1,6.5,10.2,10.7,13.7,13.1c-0.1,0.2,2.8,2.1,2.9,2c0,0,0.1-0.1,0.1-0.1c0.2,0.1,0.5,0.3,0.6,0.4c0,0,0,0,0,0
			c0.1,0,0.2-0.1,0.3-0.2v0c2.4-1.4,9.7-6.1,17-15.5c4.3-5.5,9-13.3,12.5-23.6c3.1-9.1,5.3-20.2,5.4-33.6
			C102.3,84.9,99.1,85.1,95.5,85.2z"/>
		<path class="st18" d="M95.3,85.4C95.3,85.4,95.3,85.4,95.3,85.4c-2,0-4.2,0.1-6.3,0.1c-3.3,0-5.7-0.1-7.2-0.3
			c-6.5-0.9-10.5-3.8-12.3-5.5l0,0c-0.1-0.1-0.2-0.2-0.3-0.3c-0.1,0.1-0.3,0.2-0.4,0.4c-1.9,1.7-5.8,4.6-12.1,5.3
			c-1.8,0.2-4.8,0.3-9,0.3c-5.4,0-11.5-0.2-14-0.3c0.1,13.3,2.2,24.4,5.2,33.4c3.5,10.6,8.2,18.4,12.5,23.9
			c5.1,6.5,10.2,10.6,13.6,13c-0.1,0.2,2.8,2.1,2.9,2c0,0,0.1-0.1,0.1-0.1c0.2,0.1,0.5,0.3,0.6,0.4c0,0,0,0,0,0
			c0.1,0,0.2-0.1,0.3-0.2l0,0c2.4-1.4,9.7-6.1,16.9-15.4c4.2-5.5,8.9-13.2,12.4-23.5c3.1-9.1,5.2-20.1,5.4-33.4
			C102.1,85.2,98.9,85.3,95.3,85.4z"/>
		<path class="st19" d="M95.2,85.6C95.2,85.6,95.2,85.6,95.2,85.6c-2,0-4.2,0.1-6.3,0.1c-3.3,0-5.7-0.1-7.2-0.3
			c-6.5-0.9-10.4-3.8-12.3-5.4l0,0c-0.1-0.1-0.2-0.2-0.3-0.3c-0.1,0.1-0.3,0.2-0.4,0.4c-1.9,1.7-5.8,4.5-12,5.3
			c-1.8,0.2-4.8,0.3-8.9,0.3c-5.4,0-11.4-0.2-13.9-0.3c0.1,13.2,2.2,24.2,5.2,33.2c3.5,10.5,8.2,18.3,12.5,23.7
			c5,6.4,10.1,10.5,13.5,12.9c-0.1,0.2,2.8,2.1,2.9,2c0,0,0.1-0.1,0.1-0.1c0.2,0.1,0.5,0.3,0.6,0.4c0,0,0,0,0,0
			c0.1,0,0.2-0.1,0.3-0.2v0c2.4-1.4,9.6-6.1,16.8-15.3c4.2-5.4,8.9-13.1,12.3-23.3c3.1-9,5.2-20,5.3-33.2
			C101.9,85.4,98.7,85.5,95.2,85.6z"/>
		<path class="st20" d="M95,85.8C95,85.8,95,85.8,95,85.8c-2,0-4.2,0.1-6.2,0.1c-3.2,0-5.6-0.1-7.1-0.3c-6.5-0.9-10.4-3.7-12.2-5.4
			l0,0c-0.1-0.1-0.2-0.2-0.3-0.3c-0.1,0.1-0.3,0.2-0.4,0.4c-1.8,1.7-5.7,4.5-11.9,5.3c-1.8,0.2-4.7,0.3-8.8,0.3
			c-5.4,0-11.3-0.2-13.8-0.3c0.1,13.2,2.2,24,5.1,33c3.5,10.4,8.1,18.2,12.4,23.6c5,6.4,10,10.5,13.4,12.8c-0.1,0.2,2.7,2,2.9,2
			c0,0,0.1-0.1,0.1-0.1c0.2,0.1,0.5,0.3,0.6,0.4c0,0,0,0,0,0c0.1,0,0.2-0.1,0.3-0.2l0,0c2.4-1.4,9.5-6,16.7-15.2
			c4.2-5.4,8.8-13,12.2-23.2c3-8.9,5.2-19.8,5.3-32.9C101.6,85.6,98.5,85.7,95,85.8z"/>
		<path class="st21" d="M94.8,86C94.8,86,94.8,86,94.8,86c-2,0-4.1,0.1-6.2,0.1c-3.2,0-5.6-0.1-7.1-0.3c-6.4-0.9-10.3-3.7-12.1-5.4
			l0,0c-0.1-0.1-0.2-0.2-0.3-0.3c-0.1,0.1-0.3,0.2-0.4,0.4c-1.8,1.7-5.7,4.5-11.8,5.2c-1.8,0.2-4.7,0.3-8.8,0.3
			c-5.3,0-11.3-0.2-13.7-0.3c0.1,13.1,2.2,23.9,5.1,32.7c3.4,10.3,8.1,18,12.3,23.4c5,6.3,10,10.4,13.3,12.7c-0.1,0.2,2.7,2,2.9,1.9
			c0,0,0.1-0.1,0.1-0.1c0.2,0.1,0.5,0.3,0.6,0.3c0,0,0,0,0,0c0.1,0,0.2-0.1,0.3-0.2v0c2.4-1.4,9.5-6,16.6-15.1
			c4.2-5.4,8.7-13,12.2-23c3-8.9,5.1-19.7,5.3-32.7C101.4,85.8,98.3,86,94.8,86z"/>
		<path class="st22" d="M94.6,86.3C94.6,86.3,94.6,86.2,94.6,86.3c-2,0-4.1,0.1-6.1,0.1c-3.2,0-5.6-0.1-7-0.3
			c-6.4-0.9-10.2-3.7-12-5.3l0,0c-0.1-0.1-0.2-0.2-0.3-0.3c-0.1,0.1-0.3,0.2-0.4,0.4c-1.8,1.7-5.6,4.5-11.7,5.2
			c-1.7,0.2-4.7,0.3-8.7,0.3C43,86.2,37.1,86,34.7,86c0.1,13,2.2,23.7,5.1,32.5c3.4,10.3,8,17.9,12.2,23.3
			c4.9,6.3,9.9,10.3,13.2,12.6c-0.1,0.2,2.7,2,2.8,1.9c0,0,0.1-0.1,0.1-0.1c0.2,0.1,0.5,0.3,0.6,0.3c0,0,0,0,0,0
			c0.1,0,0.2-0.1,0.3-0.2l0,0c2.3-1.4,9.4-5.9,16.4-15c4.1-5.3,8.7-12.9,12.1-22.9c3-8.8,5.1-19.6,5.2-32.5
			C101.2,86.1,98.1,86.2,94.6,86.3z"/>
		<path class="st23" d="M94.5,86.5C94.5,86.5,94.5,86.5,94.5,86.5c-2,0-4.1,0.1-6.1,0.1c-3.2,0-5.5-0.1-7-0.3
			c-6.3-0.9-10.2-3.7-11.9-5.3l0,0c-0.1-0.1-0.2-0.2-0.3-0.3c-0.1,0.1-0.3,0.2-0.4,0.4c-1.8,1.7-5.6,4.4-11.7,5.1
			c-1.7,0.2-4.6,0.3-8.7,0.3c-5.3,0-11.1-0.2-13.5-0.3c0.1,12.9,2.1,23.6,5,32.3c3.4,10.2,8,17.8,12.1,23.1
			c4.9,6.3,9.8,10.3,13.2,12.6c-0.1,0.2,2.7,2,2.8,1.9c0,0,0.1,0,0.1-0.1c0.2,0.1,0.5,0.3,0.6,0.3c0,0,0,0,0,0
			c0.1,0,0.2-0.1,0.3-0.2v0c2.3-1.4,9.3-5.9,16.3-14.9c4.1-5.3,8.6-12.8,12-22.7c3-8.8,5.1-19.4,5.2-32.3
			C101,86.3,97.9,86.4,94.5,86.5z"/>
		<path class="st24" d="M94.3,86.7C94.3,86.7,94.3,86.7,94.3,86.7c-2,0-4,0.1-6,0.1c-3.1,0-5.5-0.1-6.9-0.3
			c-6.3-0.9-10.1-3.6-11.8-5.3l0,0c-0.1-0.1-0.2-0.2-0.3-0.3c-0.1,0.1-0.3,0.2-0.4,0.3c-1.8,1.7-5.6,4.4-11.6,5.1
			c-1.7,0.2-4.6,0.3-8.6,0.3c-5.2,0-11-0.2-13.4-0.3c0.1,12.8,2.1,23.4,5,32.1c3.4,10.1,7.9,17.7,12,22.9
			c4.9,6.2,9.8,10.2,13.1,12.5c-0.1,0.2,2.7,2,2.8,1.9c0,0,0.1,0,0.1-0.1c0.2,0.1,0.4,0.3,0.6,0.3c0,0,0,0,0,0
			c0.1,0,0.2-0.1,0.3-0.2l0,0c2.3-1.4,9.3-5.9,16.2-14.8c4.1-5.3,8.6-12.7,11.9-22.5c3-8.7,5-19.3,5.2-32.1
			C100.8,86.5,97.7,86.6,94.3,86.7z"/>
		<path class="st25" d="M94.1,86.9C94.1,86.9,94.1,86.9,94.1,86.9c-1.9,0-4,0.1-6,0.1c-3.1,0-5.5-0.1-6.9-0.3
			c-6.2-0.9-10-3.6-11.8-5.2l0,0c-0.1-0.1-0.2-0.2-0.3-0.3c-0.1,0.1-0.2,0.2-0.4,0.3c-1.8,1.7-5.5,4.4-11.5,5.1
			c-1.7,0.2-4.6,0.3-8.5,0.3c-5.2,0-11-0.2-13.4-0.3c0.1,12.7,2.1,23.2,5,31.9c3.3,10.1,7.9,17.5,12,22.8c4.8,6.2,9.7,10.1,13,12.4
			c-0.1,0.2,2.6,2,2.8,1.9c0,0,0.1,0,0.1-0.1c0.2,0.1,0.4,0.3,0.6,0.3c0,0,0,0,0,0c0.1,0,0.2-0.1,0.3-0.2v0
			c2.3-1.3,9.2-5.8,16.1-14.7c4.1-5.2,8.5-12.6,11.8-22.4c2.9-8.6,5-19.2,5.1-31.8C100.5,86.7,97.5,86.8,94.1,86.9z"/>
		<path class="st26" d="M93.9,87.1C93.9,87.1,93.9,87.1,93.9,87.1c-1.9,0-4,0.1-6,0.1c-3.1,0-5.4-0.1-6.9-0.3
			c-6.2-0.9-9.9-3.6-11.7-5.2l0,0c-0.1-0.1-0.2-0.2-0.3-0.3c-0.1,0.1-0.2,0.2-0.4,0.3c-1.8,1.6-5.5,4.3-11.4,5
			c-1.7,0.2-4.6,0.3-8.5,0.3c-5.2,0-10.9-0.2-13.3-0.3c0.1,12.6,2.1,23.1,4.9,31.6c3.3,10,7.8,17.4,11.9,22.6
			c4.8,6.1,9.6,10.1,12.9,12.3c-0.1,0.2,2.6,2,2.8,1.9c0,0,0.1,0,0.1-0.1c0.2,0.1,0.4,0.3,0.6,0.3c0,0,0,0,0,0
			c0.1,0,0.2-0.1,0.3-0.2l0,0c2.3-1.3,9.1-5.8,16-14.6c4-5.2,8.4-12.5,11.7-22.2c2.9-8.6,5-19,5.1-31.6
			C100.3,86.9,97.3,87.1,93.9,87.1z"/>
		<path class="st27" d="M93.7,87.4C93.7,87.4,93.7,87.3,93.7,87.4c-1.9,0-4,0.1-5.9,0.1c-3.1,0-5.4-0.1-6.8-0.3
			c-6.2-0.9-9.9-3.6-11.6-5.1l0,0c-0.1-0.1-0.2-0.2-0.3-0.3c-0.1,0.1-0.2,0.2-0.4,0.3c-1.8,1.6-5.5,4.3-11.3,5
			c-1.7,0.2-4.5,0.3-8.4,0.3c-5.1,0-10.8-0.2-13.2-0.3c0.1,12.5,2.1,22.9,4.9,31.4c3.3,9.9,7.7,17.3,11.8,22.5
			c4.8,6.1,9.6,10,12.8,12.2c-0.1,0.2,2.6,1.9,2.7,1.9c0,0,0.1,0,0.1-0.1c0.2,0.1,0.4,0.2,0.6,0.3c0,0,0,0,0,0
			c0.1,0,0.2-0.1,0.3-0.2v0c2.3-1.3,9.1-5.7,15.9-14.5c4-5.2,8.4-12.4,11.7-22.1c2.9-8.5,4.9-18.9,5-31.4
			C100.1,87.2,97.1,87.3,93.7,87.4z"/>
		<path class="st28" d="M93.6,87.6C93.6,87.6,93.6,87.6,93.6,87.6c-1.9,0-3.9,0.1-5.9,0.1c-3.1,0-5.3-0.1-6.8-0.3
			c-6.1-0.9-9.8-3.5-11.5-5.1l0,0c-0.1-0.1-0.2-0.2-0.3-0.3c-0.1,0.1-0.2,0.2-0.4,0.3c-1.7,1.6-5.4,4.3-11.3,5
			c-1.7,0.2-4.5,0.3-8.4,0.3c-5.1,0-10.7-0.2-13.1-0.3c0.1,12.5,2.1,22.7,4.9,31.2c3.3,9.9,7.7,17.2,11.7,22.3
			c4.7,6,9.5,9.9,12.7,12.1c-0.1,0.2,2.6,1.9,2.7,1.9c0,0,0.1,0,0.1-0.1c0.2,0.1,0.4,0.2,0.6,0.3c0,0,0,0,0,0c0.1,0,0.2-0.1,0.3-0.2
			l0,0c2.3-1.3,9-5.7,15.8-14.4c4-5.1,8.3-12.3,11.6-21.9c2.9-8.5,4.9-18.8,5-31.2C99.9,87.4,96.9,87.5,93.6,87.6z"/>
		<path class="st29" d="M93.4,87.8C93.4,87.8,93.4,87.8,93.4,87.8c-1.9,0-3.9,0.1-5.8,0.1c-3,0-5.3-0.1-6.7-0.3
			c-6.1-0.9-9.7-3.5-11.4-5.1l0,0c-0.1-0.1-0.2-0.2-0.3-0.3c-0.1,0.1-0.2,0.2-0.4,0.3c-1.7,1.6-5.4,4.2-11.2,4.9
			c-1.7,0.2-4.5,0.3-8.3,0.3c-5,0-10.7-0.2-13-0.3c0.1,12.4,2.1,22.6,4.8,31c3.2,9.8,7.6,17.1,11.6,22.1c4.7,6,9.4,9.8,12.6,12
			c-0.1,0.2,2.6,1.9,2.7,1.8c0,0,0.1,0,0.1-0.1c0.2,0.1,0.4,0.2,0.6,0.3c0,0,0,0,0,0c0.1,0,0.2-0.1,0.3-0.2v0
			c2.2-1.3,9-5.7,15.7-14.3c3.9-5.1,8.3-12.3,11.5-21.8c2.9-8.4,4.9-18.6,5-31C99.7,87.6,96.7,87.7,93.4,87.8z"/>
		<path class="st30" d="M93.2,88C93.2,88,93.2,88,93.2,88c-1.9,0-3.9,0.1-5.8,0.1c-3,0-5.3-0.1-6.7-0.3c-6-0.9-9.7-3.5-11.4-5l0,0
			c-0.1-0.1-0.2-0.2-0.3-0.3c-0.1,0.1-0.2,0.2-0.4,0.3c-1.7,1.6-5.3,4.2-11.1,4.9C56,87.9,53.2,88,49.4,88c-5,0-10.6-0.2-12.9-0.3
			c0.1,12.3,2,22.4,4.8,30.7c3.2,9.7,7.6,16.9,11.5,22c4.7,6,9.4,9.8,12.5,12c-0.1,0.2,2.6,1.9,2.7,1.8c0,0,0.1,0,0.1-0.1
			c0.2,0.1,0.4,0.2,0.6,0.3c0,0,0,0,0,0c0.1,0,0.2-0.1,0.3-0.2l0,0c2.2-1.3,8.9-5.6,15.5-14.2c3.9-5,8.2-12.2,11.4-21.6
			c2.8-8.3,4.8-18.5,4.9-30.7C99.4,87.8,96.5,87.9,93.2,88z"/>
		<path class="st31" d="M93,88.2C93,88.2,93,88.2,93,88.2c-1.9,0-3.8,0.1-5.8,0.1c-3,0-5.2-0.1-6.6-0.3c-6-0.9-9.6-3.5-11.3-5l0,0
			c-0.1-0.1-0.2-0.2-0.3-0.2c-0.1,0.1-0.2,0.2-0.4,0.3c-1.7,1.6-5.3,4.2-11,4.9c-1.6,0.2-4.4,0.3-8.2,0.3c-5,0-10.5-0.2-12.8-0.3
			c0.1,12.2,2,22.3,4.8,30.5c3.2,9.6,7.5,16.8,11.5,21.8c4.6,5.9,9.3,9.7,12.4,11.9c-0.1,0.2,2.5,1.9,2.7,1.8c0,0,0.1,0,0.1-0.1
			c0.2,0.1,0.4,0.2,0.6,0.3c0,0,0,0,0,0c0.1,0,0.2-0.1,0.3-0.2v0c2.2-1.3,8.8-5.6,15.4-14.1c3.9-5,8.1-12.1,11.3-21.5
			c2.8-8.3,4.8-18.4,4.9-30.5C99.2,88,96.3,88.2,93,88.2z"/>
		<path class="st32" d="M92.9,88.5C92.9,88.5,92.9,88.4,92.9,88.5c-1.8,0-3.8,0.1-5.7,0.1c-3,0-5.2-0.1-6.6-0.3
			c-5.9-0.8-9.5-3.4-11.2-5l0,0c-0.1-0.1-0.2-0.2-0.3-0.2c-0.1,0.1-0.2,0.2-0.4,0.3c-1.7,1.6-5.3,4.2-10.9,4.8
			c-1.6,0.2-4.4,0.3-8.1,0.3c-4.9,0-10.4-0.2-12.7-0.2c0.1,12.1,2,22.1,4.7,30.3c3.2,9.6,7.5,16.7,11.4,21.7
			c4.6,5.9,9.2,9.6,12.3,11.8c-0.1,0.2,2.5,1.9,2.6,1.8c0,0,0.1,0,0.1-0.1c0.2,0.1,0.4,0.2,0.6,0.3c0,0,0,0,0,0
			c0.1,0,0.2-0.1,0.3-0.2l0,0c2.2-1.3,8.8-5.5,15.3-14c3.9-5,8.1-12,11.2-21.3c2.8-8.2,4.8-18.2,4.9-30.3
			C99,88.3,96.1,88.4,92.9,88.5z"/>
		<path class="st33" d="M92.7,88.7C92.7,88.7,92.7,88.7,92.7,88.7c-1.8,0-3.8,0.1-5.7,0.1c-3,0-5.1-0.1-6.5-0.3
			c-5.9-0.8-9.5-3.4-11.1-4.9l0,0c-0.1-0.1-0.2-0.2-0.3-0.2c-0.1,0.1-0.2,0.2-0.4,0.3c-1.7,1.6-5.2,4.1-10.9,4.8
			c-1.6,0.2-4.3,0.3-8.1,0.3c-4.9,0-10.3-0.2-12.6-0.2c0.1,12,2,21.9,4.7,30.1c3.2,9.5,7.4,16.6,11.3,21.5
			c4.6,5.8,9.2,9.6,12.2,11.7c-0.1,0.2,2.5,1.9,2.6,1.8c0,0,0.1,0,0.1-0.1c0.2,0.1,0.4,0.2,0.6,0.3c0,0,0,0,0,0
			c0.1,0,0.2-0.1,0.3-0.2v0c2.2-1.3,8.7-5.5,15.2-13.9c3.8-4.9,8-11.9,11.2-21.1c2.8-8.2,4.7-18.1,4.8-30.1
			C98.8,88.5,95.9,88.6,92.7,88.7z"/>
		<path class="st34" d="M92.5,88.9C92.5,88.9,92.5,88.9,92.5,88.9c-1.8,0-3.8,0.1-5.6,0.1c-2.9,0-5.1-0.1-6.5-0.3
			c-5.9-0.8-9.4-3.4-11-4.9l0,0c-0.1-0.1-0.2-0.2-0.3-0.2c-0.1,0.1-0.2,0.2-0.4,0.3c-1.7,1.5-5.2,4.1-10.8,4.8
			c-1.6,0.2-4.3,0.3-8,0.3c-4.9,0-10.3-0.2-12.5-0.2c0.1,11.9,2,21.8,4.7,29.9c3.1,9.4,7.4,16.4,11.2,21.4
			c4.5,5.8,9.1,9.5,12.2,11.6c-0.1,0.2,2.5,1.9,2.6,1.8c0,0,0.1,0,0.1-0.1c0.2,0.1,0.4,0.2,0.6,0.3c0,0,0,0,0,0
			c0.1,0,0.2-0.1,0.3-0.2v0c2.2-1.3,8.6-5.5,15.1-13.8c3.8-4.9,8-11.8,11.1-21c2.8-8.1,4.7-18,4.8-29.8
			C98.5,88.7,95.7,88.8,92.5,88.9z"/>
		<path class="st35" d="M92.3,89.1C92.3,89.1,92.3,89.1,92.3,89.1c-1.8,0-3.7,0.1-5.6,0.1c-2.9,0-5.1-0.1-6.4-0.3
			c-5.8-0.8-9.3-3.4-10.9-4.9l0,0c-0.1-0.1-0.2-0.2-0.3-0.2c-0.1,0.1-0.2,0.2-0.3,0.3c-1.7,1.5-5.1,4.1-10.7,4.7
			c-1.6,0.2-4.3,0.3-7.9,0.3c-4.8,0-10.2-0.2-12.4-0.2c0.1,11.8,2,21.6,4.6,29.6c3.1,9.4,7.3,16.3,11.1,21.2
			c4.5,5.7,9,9.4,12.1,11.5c-0.1,0.2,2.5,1.8,2.6,1.8c0,0,0.1,0,0.1-0.1c0.2,0.1,0.4,0.2,0.6,0.3c0,0,0,0,0,0c0.1,0,0.2-0.1,0.3-0.2
			l0,0c2.1-1.2,8.6-5.4,15-13.7c3.8-4.9,7.9-11.7,11-20.8c2.7-8,4.7-17.8,4.8-29.6C98.3,88.9,95.5,89.1,92.3,89.1z"/>
		<path class="st36" d="M92.2,89.3C92.2,89.3,92.2,89.3,92.2,89.3c-1.8,0-3.7,0.1-5.5,0.1c-2.9,0-5-0.1-6.4-0.3
			c-5.8-0.8-9.2-3.3-10.9-4.8l0,0c-0.1-0.1-0.2-0.2-0.3-0.2c-0.1,0.1-0.2,0.2-0.3,0.3c-1.6,1.5-5.1,4-10.6,4.7
			c-1.6,0.2-4.2,0.3-7.9,0.3c-4.8,0-10.1-0.2-12.3-0.2c0.1,11.7,1.9,21.5,4.6,29.4c3.1,9.3,7.3,16.2,11,21c4.5,5.7,9,9.3,12,11.4
			c-0.1,0.2,2.4,1.8,2.6,1.7c0,0,0.1,0,0.1-0.1c0.2,0.1,0.4,0.2,0.6,0.3c0,0,0,0,0,0c0.1,0,0.2-0.1,0.3-0.2v0
			c2.1-1.2,8.5-5.4,14.9-13.6c3.7-4.8,7.8-11.6,10.9-20.7c2.7-8,4.6-17.7,4.7-29.4C98.1,89.2,95.3,89.3,92.2,89.3z"/>
		<path class="st37" d="M92,89.6C92,89.6,92,89.5,92,89.6c-1.8,0-3.7,0.1-5.5,0.1c-2.9,0-5-0.1-6.3-0.3c-5.7-0.8-9.2-3.3-10.8-4.8
			l0,0c-0.1-0.1-0.2-0.2-0.3-0.2c-0.1,0.1-0.2,0.2-0.3,0.3c-1.6,1.5-5.1,4-10.5,4.7c-1.6,0.2-4.2,0.3-7.8,0.3
			c-4.8,0-10-0.2-12.2-0.2c0.1,11.7,1.9,21.3,4.6,29.2c3.1,9.2,7.2,16.1,11,20.9c4.4,5.7,8.9,9.3,11.9,11.3
			c-0.1,0.2,2.4,1.8,2.6,1.7c0,0,0.1,0,0.1-0.1c0.2,0.1,0.4,0.2,0.6,0.3c0,0,0,0,0,0c0.1,0,0.2-0.1,0.3-0.2l0,0
			c2.1-1.2,8.4-5.3,14.8-13.5c3.7-4.8,7.8-11.5,10.8-20.5c2.7-7.9,4.6-17.6,4.7-29.2C97.9,89.4,95.1,89.5,92,89.6z"/>
		<path class="st38" d="M91.8,89.8C91.8,89.8,91.8,89.8,91.8,89.8c-1.8,0-3.6,0.1-5.5,0.1c-2.8,0-5-0.1-6.3-0.3
			c-5.7-0.8-9.1-3.3-10.7-4.7l0,0c-0.1-0.1-0.2-0.2-0.3-0.2c-0.1,0.1-0.2,0.2-0.3,0.3c-1.6,1.5-5,4-10.5,4.6
			c-1.6,0.2-4.2,0.3-7.8,0.3c-4.7,0-10-0.2-12.1-0.2c0.1,11.6,1.9,21.1,4.5,29c3,9.2,7.1,16,10.9,20.7c4.4,5.6,8.8,9.2,11.8,11.3
			c-0.1,0.2,2.4,1.8,2.5,1.7c0,0,0.1,0,0.1-0.1c0.2,0.1,0.4,0.2,0.6,0.3c0,0,0,0,0,0c0.1,0,0.2-0.1,0.3-0.2v0
			c2.1-1.2,8.4-5.3,14.6-13.4c3.7-4.8,7.7-11.5,10.8-20.4c2.7-7.9,4.6-17.4,4.7-29C97.7,89.6,94.9,89.7,91.8,89.8z"/>
		<path class="st39" d="M91.6,90C91.6,90,91.6,90,91.6,90c-1.8,0-3.6,0.1-5.4,0.1c-2.8,0-4.9-0.1-6.2-0.3c-5.6-0.8-9-3.3-10.6-4.7
			l0,0c-0.1-0.1-0.2-0.2-0.3-0.2c-0.1,0.1-0.2,0.2-0.3,0.3c-1.6,1.5-5,3.9-10.4,4.6c-1.5,0.2-4.1,0.3-7.7,0.3c-4.7,0-9.9-0.2-12-0.2
			c0.1,11.5,1.9,21,4.5,28.7c3,9.1,7.1,15.8,10.8,20.6c4.4,5.6,8.8,9.1,11.7,11.2c-0.1,0.2,2.4,1.8,2.5,1.7c0,0,0.1,0,0.1-0.1
			c0.2,0.1,0.4,0.2,0.5,0.3c0,0,0,0,0,0c0.1,0,0.2-0.1,0.3-0.2l0,0c2.1-1.2,8.3-5.3,14.5-13.3c3.7-4.7,7.7-11.4,10.7-20.2
			c2.7-7.8,4.5-17.3,4.6-28.7C97.4,89.8,94.7,89.9,91.6,90z"/>
		<path class="st40" d="M91.4,90.2C91.4,90.2,91.4,90.2,91.4,90.2c-1.7,0-3.6,0.1-5.4,0.1c-2.8,0-4.9-0.1-6.2-0.3
			c-5.6-0.8-9-3.2-10.5-4.7v0c-0.1-0.1-0.2-0.2-0.3-0.2c-0.1,0.1-0.2,0.2-0.3,0.3c-1.6,1.5-5,3.9-10.3,4.5c-1.5,0.2-4.1,0.3-7.6,0.3
			c-4.6,0-9.8-0.2-12-0.2c0.1,11.4,1.9,20.8,4.5,28.5c3,9,7,15.7,10.7,20.4c4.3,5.5,8.7,9.1,11.6,11.1c-0.1,0.1,2.4,1.8,2.5,1.7
			c0,0,0.1,0,0.1-0.1c0.2,0.1,0.4,0.2,0.5,0.3c0,0,0,0,0,0c0.1,0,0.2-0.1,0.3-0.2v0c2.1-1.2,8.2-5.2,14.4-13.2
			c3.6-4.7,7.6-11.3,10.6-20.1c2.6-7.7,4.5-17.2,4.6-28.5C97.2,90,94.5,90.2,91.4,90.2z"/>
		<path class="st41" d="M91.3,90.4C91.3,90.4,91.3,90.4,91.3,90.4c-1.7,0-3.6,0.1-5.3,0.1c-2.8,0-4.8-0.1-6.1-0.3
			c-5.5-0.8-8.9-3.2-10.5-4.6v0c-0.1-0.1-0.2-0.2-0.3-0.2c-0.1,0.1-0.2,0.2-0.3,0.3c-1.6,1.5-4.9,3.9-10.2,4.5
			c-1.5,0.2-4.1,0.3-7.6,0.3c-4.6,0-9.7-0.2-11.9-0.2c0.1,11.3,1.9,20.6,4.4,28.3c3,8.9,7,15.6,10.6,20.2c4.3,5.5,8.6,9,11.5,11
			c-0.1,0.1,2.3,1.8,2.5,1.7c0,0,0.1,0,0.1-0.1c0.2,0.1,0.4,0.2,0.5,0.3c0,0,0,0,0,0c0.1,0,0.2-0.1,0.3-0.2l0,0
			c2-1.2,8.2-5.2,14.3-13.1c3.6-4.6,7.5-11.2,10.5-19.9c2.6-7.7,4.4-17,4.5-28.3C97,90.3,94.3,90.4,91.3,90.4z"/>
		<path class="st42" d="M91.1,90.7C91.1,90.7,91.1,90.6,91.1,90.7c-1.7,0-3.5,0.1-5.3,0.1c-2.8,0-4.8-0.1-6.1-0.3
			c-5.5-0.8-8.8-3.2-10.4-4.6v0c-0.1-0.1-0.2-0.2-0.3-0.2c-0.1,0.1-0.2,0.2-0.3,0.3c-1.6,1.5-4.9,3.8-10.1,4.5
			c-1.5,0.2-4,0.3-7.5,0.3c-4.6,0-9.7-0.2-11.8-0.2c0.1,11.2,1.9,20.5,4.4,28.1c2.9,8.9,6.9,15.5,10.5,20.1
			c4.3,5.4,8.6,8.9,11.4,10.9c-0.1,0.1,2.3,1.7,2.5,1.7c0,0,0.1,0,0.1-0.1c0.2,0.1,0.4,0.2,0.5,0.3c0,0,0,0,0,0
			c0.1,0,0.2-0.1,0.3-0.2v0c2-1.2,8.1-5.1,14.2-13c3.6-4.6,7.5-11.1,10.4-19.7c2.6-7.6,4.4-16.9,4.5-28.1
			C96.8,90.5,94.1,90.6,91.1,90.7z"/>
		<path class="st43" d="M90.9,90.9C90.9,90.9,90.9,90.9,90.9,90.9c-1.7,0-3.5,0.1-5.2,0.1c-2.7,0-4.8-0.1-6-0.3
			c-5.5-0.8-8.8-3.2-10.3-4.6v0c-0.1-0.1-0.2-0.2-0.3-0.2c-0.1,0.1-0.2,0.2-0.3,0.3c-1.6,1.4-4.8,3.8-10.1,4.4
			c-1.5,0.2-4,0.3-7.5,0.3c-4.5,0-9.6-0.2-11.7-0.2c0.1,11.1,1.8,20.3,4.3,27.9c2.9,8.8,6.9,15.3,10.5,19.9
			c4.2,5.4,8.5,8.9,11.3,10.8c-0.1,0.1,2.3,1.7,2.4,1.7c0,0,0.1,0,0.1-0.1c0.2,0.1,0.4,0.2,0.5,0.3c0,0,0,0,0,0
			c0.1,0,0.2-0.1,0.3-0.2l0,0c2-1.2,8.1-5.1,14.1-12.9c3.5-4.6,7.4-11,10.3-19.6c2.6-7.6,4.4-16.8,4.5-27.8
			C96.6,90.7,93.9,90.8,90.9,90.9z"/>
		<path class="st44" d="M90.7,91.1C90.7,91.1,90.7,91.1,90.7,91.1c-1.7,0-3.5,0.1-5.2,0.1c-2.7,0-4.7-0.1-6-0.3
			c-5.4-0.8-8.7-3.1-10.2-4.5v0c-0.1-0.1-0.2-0.2-0.2-0.2c-0.1,0.1-0.2,0.2-0.3,0.3c-1.5,1.4-4.8,3.8-10,4.4c-1.5,0.2-4,0.3-7.4,0.3
			c-4.5,0-9.5-0.2-11.6-0.2c0.1,11,1.8,20.2,4.3,27.6c2.9,8.7,6.8,15.2,10.4,19.8c4.2,5.4,8.4,8.8,11.3,10.7
			c-0.1,0.1,2.3,1.7,2.4,1.6c0,0,0.1,0,0.1-0.1c0.2,0.1,0.4,0.2,0.5,0.3c0,0,0,0,0,0c0.1,0,0.2-0.1,0.3-0.2v0c2-1.2,8-5,14-12.8
			c3.5-4.5,7.4-10.9,10.3-19.4c2.5-7.5,4.3-16.6,4.4-27.6C96.3,90.9,93.7,91,90.7,91.1z"/>
		<path class="st45" d="M90.6,91.3C90.6,91.3,90.6,91.3,90.6,91.3c-1.7,0-3.5,0.1-5.2,0.1c-2.7,0-4.7-0.1-5.9-0.3
			c-5.4-0.8-8.6-3.1-10.1-4.5v0c-0.1-0.1-0.2-0.2-0.2-0.2c-0.1,0.1-0.2,0.2-0.3,0.3c-1.5,1.4-4.8,3.8-9.9,4.4
			c-1.5,0.2-3.9,0.3-7.4,0.3c-4.5,0-9.4-0.2-11.5-0.2c0.1,10.9,1.8,20,4.3,27.4c2.9,8.7,6.8,15.1,10.3,19.6
			c4.2,5.3,8.3,8.7,11.2,10.7c-0.1,0.1,2.3,1.7,2.4,1.6c0,0,0.1,0,0.1-0.1c0.2,0.1,0.4,0.2,0.5,0.3c0,0,0,0,0,0
			c0.1,0,0.2-0.1,0.3-0.2l0,0c2-1.2,7.9-5,13.9-12.7c3.5-4.5,7.3-10.8,10.2-19.3c2.5-7.4,4.3-16.5,4.4-27.4
			C96.1,91.1,93.5,91.3,90.6,91.3z"/>
		<path class="st46" d="M90.4,91.5C90.4,91.5,90.4,91.5,90.4,91.5c-1.7,0-3.4,0.1-5.1,0.1c-2.7,0-4.7-0.1-5.9-0.3
			c-5.3-0.8-8.5-3.1-10-4.5l0,0c-0.1-0.1-0.2-0.2-0.2-0.2c-0.1,0.1-0.2,0.2-0.3,0.3c-1.5,1.4-4.7,3.7-9.8,4.3
			c-1.5,0.2-3.9,0.3-7.3,0.3c-4.4,0-9.4-0.2-11.4-0.2c0.1,10.9,1.8,19.8,4.2,27.2c2.9,8.6,6.7,15,10.2,19.4
			c4.1,5.3,8.3,8.6,11.1,10.6c-0.1,0.1,2.3,1.7,2.4,1.6c0,0,0.1,0,0.1-0.1c0.2,0.1,0.4,0.2,0.5,0.3c0,0,0,0,0,0
			c0.1,0,0.2-0.1,0.3-0.2v0c2-1.1,7.9-5,13.7-12.6c3.5-4.5,7.3-10.8,10.1-19.1c2.5-7.4,4.3-16.4,4.4-27.2
			C95.9,91.4,93.3,91.5,90.4,91.5z"/>
		<path class="st47" d="M90.2,91.8C90.2,91.8,90.2,91.7,90.2,91.8c-1.6,0-3.4,0.1-5.1,0.1c-2.6,0-4.6-0.1-5.8-0.3
			c-5.3-0.8-8.5-3.1-10-4.4l0,0c-0.1-0.1-0.2-0.2-0.2-0.2c-0.1,0.1-0.2,0.2-0.3,0.3c-1.5,1.4-4.7,3.7-9.7,4.3
			c-1.4,0.2-3.9,0.3-7.2,0.3c-4.4,0-9.3-0.2-11.3-0.2c0.1,10.8,1.8,19.7,4.2,27c2.8,8.5,6.7,14.9,10.1,19.3c4.1,5.2,8.2,8.6,11,10.5
			c-0.1,0.1,2.2,1.7,2.4,1.6c0,0,0,0,0.1-0.1c0.2,0.1,0.4,0.2,0.5,0.3c0,0,0,0,0,0c0.1,0,0.2-0.1,0.3-0.2l0,0
			c1.9-1.1,7.8-4.9,13.6-12.5c3.4-4.4,7.2-10.7,10-19c2.5-7.3,4.2-16.2,4.3-27C95.7,91.6,93.1,91.7,90.2,91.8z"/>
		<path class="st48" d="M90,92C90,92,90,92,90,92c-1.6,0-3.4,0.1-5,0.1c-2.6,0-4.6-0.1-5.8-0.3c-5.2-0.7-8.4-3-9.9-4.4l0,0
			c-0.1-0.1-0.2-0.2-0.2-0.2c-0.1,0.1-0.2,0.2-0.3,0.3c-1.5,1.4-4.6,3.7-9.7,4.3c-1.4,0.2-3.9,0.3-7.2,0.3c-4.4,0-9.2-0.2-11.2-0.2
			c0.1,10.7,1.8,19.5,4.2,26.7c2.8,8.5,6.6,14.7,10,19.1c4.1,5.2,8.1,8.5,10.9,10.4c-0.1,0.1,2.2,1.7,2.3,1.6c0,0,0,0,0.1-0.1
			c0.2,0.1,0.4,0.2,0.5,0.3c0,0,0,0,0,0c0.1,0,0.2-0.1,0.3-0.2v0c1.9-1.1,7.7-4.9,13.5-12.4c3.4-4.4,7.1-10.6,9.9-18.8
			c2.5-7.3,4.2-16.1,4.3-26.7C95.4,91.8,92.9,91.9,90,92z"/>
		<path class="st4" d="M89.9,92.2C89.9,92.2,89.9,92.2,89.9,92.2c-1.6,0-3.3,0.1-5,0.1c-2.6,0-4.5-0.1-5.7-0.3
			c-5.2-0.7-8.3-3-9.8-4.3l0,0c-0.1-0.1-0.2-0.2-0.2-0.2c-0.1,0.1-0.2,0.2-0.3,0.3c-1.5,1.4-4.6,3.6-9.6,4.2
			c-1.4,0.2-3.8,0.3-7.1,0.3c-4.3,0-9.1-0.1-11.1-0.2c0.1,10.6,1.8,19.3,4.1,26.5c2.8,8.4,6.5,14.6,10,19c4,5.1,8.1,8.4,10.8,10.3
			c-0.1,0.1,2.2,1.6,2.3,1.6c0,0,0,0,0.1-0.1c0.2,0.1,0.4,0.2,0.5,0.3c0,0,0,0,0,0c0.1,0,0.2-0.1,0.3-0.2l0,0
			c1.9-1.1,7.7-4.8,13.4-12.3c3.4-4.4,7.1-10.5,9.8-18.6c2.4-7.2,4.2-16,4.3-26.5C95.2,92,92.7,92.1,89.9,92.2z"/>
	</g>
	<g>
		<path class="st1" d="M85,87.6c-3.6,0-6.2-0.1-7.8-0.4c-6.5-0.9-10.4-3.8-12.2-5.6l0,0c-0.1-0.1-0.2-0.2-0.3-0.3
			c-0.1,0.1-0.3,0.2-0.4,0.4c-1.8,1.8-5.7,4.6-11.9,5.4c-1.8,0.2-4.8,0.3-8.9,0.3c-5.4,0-11.4-0.2-13.8-0.3
			c0.1,13.5,2.2,24.7,5.2,33.9c3.5,10.7,8.1,18.7,12.4,24.2c7.5,9.8,15,14.4,17,15.5c0,0,0,0,0,0c0.1,0,0.2-0.1,0.3-0.2l0,0
			c2.4-1.4,9.5-6.2,16.7-15.6c4.2-5.6,8.8-13.4,12.2-23.8c3-9.2,5.2-20.4,5.3-33.9C96.3,87.4,90.3,87.6,85,87.6z"/>
		<linearGradient id="SVGID_2_" gradientUnits="userSpaceOnUse" x1="33.6563" y1="121.3664" x2="94.8859" y2="121.3664">
			<stop  offset="0" style="stop-color:#E040FB"/>
			<stop  offset="7.285416e-03" style="stop-color:#E040F9"/>
			<stop  offset="0.3718" style="stop-color:#ED4DA4"/>
			<stop  offset="0.6698" style="stop-color:#F65666"/>
			<stop  offset="0.8866" style="stop-color:#FC5C40"/>
			<stop  offset="1" style="stop-color:#FE5E31"/>
		</linearGradient>
		<path class="st51" d="M64.2,156.2c-3-2-8.4-6.1-13.9-13.3c-5-6.5-9-14.3-11.8-23.1c-2.8-8.7-4.5-18.4-4.9-28.7
			c2.8,0.1,6.5,0.2,9.9,0.2c4.3,0,7.4-0.1,9.3-0.4c5.4-0.7,9.3-2.7,11.8-4.6c2.6,1.8,6.5,3.8,11.9,4.6c1.8,0.3,4.6,0.4,8.4,0.4
			c3.3,0,7-0.1,9.9-0.2c-0.4,10.2-2.1,19.8-5,28.6c-2.8,8.6-6.8,16.2-11.7,22.7C72.7,149.9,67.1,154.3,64.2,156.2z"/>
		<path id="XMLID_1788_" class="st52" d="M83.3,87.6c0.6,11.7-0.5,21.7-2.4,30.3c-2.5,11.2-6.5,19.9-10.3,26.1
			c-2.4,3.9-6.3,9.5-10.1,14.4c1.3,0.9,2.3,1.4,2.8,1.7c0,0,0,0,0,0c0.1-0.1,0.3-0.2,0.4-0.3c3.2-2.7,8.8-8,14-16.6
			c3.8-6.2,7.8-14.9,10.3-26.1c1.9-8.4,2.9-18.3,2.4-29.7c-2.1,0.1-4.4,0.1-6.6,0.1C83.7,87.6,83.5,87.6,83.3,87.6z"/>
		<g id="XMLID_1730_">
			<polygon id="XMLID_1731_" class="st1" points="61.7,128.3 50.7,117.3 55.5,112.5 61.6,118.6 76.3,103.6 81.1,108.4 			"/>
		</g>
	</g>
</g>
<g>
	<path class="st53" d="M83.2,87.5L83.2,87.5c0.3,0.7,1,1.1,1.7,1.2l11.3,1.6l1.4-0.5c1-0.4,1.7-1.4,1.7-2.4l0,0
		c0-0.6-0.2-1.1-0.5-1.6l-1-1.4L83.2,87.5z"/>
	<path class="st1" d="M83.2,87.1L83.2,87.1c0.3,0.6,0.9,1.1,1.6,1.2l10.8,1.5l1.3-0.5c1-0.4,1.6-1.3,1.6-2.3l0,0
		c0-0.5-0.2-1.1-0.5-1.5l-1-1.3L83.2,87.1z"/>
	<path class="st53" d="M98.9,76.9l-1.2-1c-0.5-0.4-1.1-0.6-1.7-0.6l-18.4,1v-2.6l-14.5,6.3v0.5c0,4.1,3.3,7.4,7.4,7.4l5.2,0.4L83,88
		l16-3.8c0.6-0.2,1.4-1.1,1.5-2.2l0.1-0.8C100.8,79.6,100.2,78,98.9,76.9z"/>
	<path class="st54" d="M86.6,86.2l-7.3,0.4l-5.2-0.4c-4.1,0-7.4-3.3-7.4-7.4v-0.3l-3.7,1.6v0.5c0,4.1,3.3,7.4,7.4,7.4l5.2,0.4L83,88
		l16-3.8c0.4-0.2,0.9-0.6,1.2-1.3L86.6,86.2z"/>
	<path class="st55" d="M72.9,45.8l-4.3-4l4.7-5c0,0,5.7,3.5,4.3,4C75,41.7,72.9,45.8,72.9,45.8z"/>
	<path class="st55" d="M84.9,31.6c-0.6,1.7-0.7,4.7-0.5,6c0,0.3-1.3-0.3-1.4-0.1c-0.5,0.9-1.1,1.7-1.8,2.4c-1,0.9-2.6,1.5-3.8,0.7
		l-2-1.4c-1.1-0.8-2-2-2.4-3.3l-1.1-3.7l6.7-4l5.2-1c0,0,0.8,0.4,1.2,1.6C85.2,29.7,85.2,30.7,84.9,31.6z"/>
	<path class="st56" d="M73.7,44.8l4.2,10.4c0.4,1,0.2,2.1-0.4,2.9l-0.6,0.8l-0.8,6.1l3.1,11.6c-3.7-0.7-10.3,7.9-17.1,5.6l0.7-15.8
		l-1.3-15.6l4.9-9.9h3L73.7,44.8z"/>
	<polygon class="st56" points="72.8,47 73.1,58.4 66,58.4 65,48.3 66.5,46.2 	"/>
	<g>
		<path class="st57" d="M98.7,76L98.7,76c0.2,0.1,0.4,0,0.4-0.1l8.1-14.3c0.1-0.2,0-0.4-0.1-0.4l0,0c-0.2-0.1-0.4,0-0.4,0.1
			l-8.1,14.3C98.5,75.7,98.5,75.9,98.7,76z"/>
		<path class="st57" d="M82,76.2l17.6,0.1c0.4,0,0.8-0.3,0.8-0.8l0,0c0-0.4-0.3-0.8-0.8-0.8l-17.6-0.1c-0.4,0-0.8,0.3-0.8,0.8l0,0
			C81.3,75.9,81.6,76.2,82,76.2z"/>
		<g>
			<path class="st58" d="M81.3,75.2c0.1,0.2,0.4,0.4,0.7,0.4l17.6,0.1c0.3,0,0.6-0.2,0.7-0.4c0,0.1,0.1,0.2,0.1,0.3
				c0,0.4-0.3,0.8-0.8,0.8L82,76.2c-0.4,0-0.8-0.3-0.8-0.8C81.3,75.4,81.3,75.3,81.3,75.2z"/>
		</g>
		<g>
			
				<rect x="86.7" y="74.7" transform="matrix(4.827404e-03 -1 1 4.827404e-03 11.1074 161.9694)" class="st59" width="0.5" height="1.4"/>
		</g>
		<g>
			
				<rect x="85" y="74.7" transform="matrix(5.043527e-03 -1 1 5.043527e-03 9.4604 160.3004)" class="st59" width="0.5" height="1.4"/>
		</g>
		<g>
			
				<rect x="96.7" y="74.8" transform="matrix(4.971837e-03 -1 1 4.971837e-03 21.0282 172.0406)" class="st59" width="0.5" height="1.4"/>
		</g>
	</g>
	<g>
		
			<linearGradient id="SVGID_3_" gradientUnits="userSpaceOnUse" x1="1.521" y1="41.7022" x2="29.3391" y2="41.7022" gradientTransform="matrix(-1 0 0 1 87.2899 0)">
			<stop  offset="0" style="stop-color:#FEC55E"/>
			<stop  offset="1" style="stop-color:#FF5722"/>
		</linearGradient>
		<path class="st60" d="M85.7,27.7c-0.2-1-0.8-2.1-1.4-2.9c-0.4-0.6-1-1.2-1.7-1.4c-1.8-0.7-3.7-0.5-5.6-0.2
			c-1.2,0.2-2.3,0.5-3.3,1.3c-1.1,0.8-2.1,1.5-3.2,2.3c-0.9,0.6-1.9,1.1-2.6,2c-0.4,0.6-0.7,1.3-1,2c-0.4,1-0.7,2-1.1,3
			c-0.3,0.7-1,1.2-1.4,1.8c-1.1,1.6-2.1,3.5-2.1,5.5c0,0.7,0.1,1.5,0,2.2c-0.1,1.4-0.7,2.5-1.1,3.8c-0.4,1.2-0.4,2.5-1,3.7
			c-0.4,0.9-1,1.7-1.4,2.6c-0.5,1.2-0.5,2.4-0.1,3.6c0.4,1.1-0.1,2.4-0.7,3.4c1,0.4,2.2,0.3,3.3-0.2c1-0.4,1.9-1.2,2.7-2
			c0.7-0.7,1.3-1.4,1.7-2.3c0.3-0.7,0.3-1.4,0.7-2.1c0.6-1.1,2-1.7,2.4-2.9c0.4-1.4-0.9-3.1-0.1-4.4c0.3-0.5,0.8-0.8,1.2-1.2
			c0.7-0.7,1.2-1.8,1.7-2.6c0.6-1,0.4-2.3,0.4-3.3c0-0.4,0.1-0.9,0.3-1.2c0.3-0.4,0.9-0.5,1.4-0.7c1.1-0.2,2.3-0.6,2.9-1.5
			c0.5-0.8,0.5-1.7,0.9-2.5c0.8-1.6,2.7-2.1,4.3-2.3c0.9-0.1,1.7-0.2,2.4-0.7c0.5-0.3,1.3-0.7,1.6-1.2
			C85.8,28.8,85.8,28.2,85.7,27.7z"/>
	</g>
	<path class="st55" d="M72.7,58.4v8.8l12.4,4.9l4.9-1.7l3.8,0.8l1.1,1.6v1.8h-0.7l-0.9-1.4L91.7,73l-2.1,1.7l-7.2,0.1l-3.2-0.4
		l-10-1.7c-0.8-0.2-2.2-1.1-2.3-2.3V58.4H72.7z"/>
	<path class="st61" d="M90.5,73.7l-7.2,0.1h-3.1l-9.6-2.3c-1.7-0.4-2.8-1.9-2.8-3.6l0.5-9.4l-1.5-0.1v11.9c0.1,1.2,1.6,2.2,2.3,2.3
		l10,1.7l3.2,0.4l7.2-0.1l2.1-1.7L90.5,73.7z"/>
</g>
</svg>
