<svg xmlns="http://www.w3.org/2000/svg" viewBox="0 0 514 512" width="514" height="512">
	<defs>
		<clipPath clipPathUnits="userSpaceOnUse" id="cp1">
			<path d="M1 0L513 0L513 512L1 512Z" />
		</clipPath>
		<linearGradient id="grd1" gradientUnits="userSpaceOnUse"  x1="61.35" y1="53.005" x2="427.072" y2="418.755">
			<stop offset="0" stop-color="#d4e1f4"  />
			<stop offset="0.172" stop-color="#d4e1f4"  />
			<stop offset="0.2" stop-color="#d4e1f4"  />
			<stop offset="0.2" stop-color="#dae4f4"  />
			<stop offset="0.201" stop-color="#ebebf4"  />
			<stop offset="0.201" stop-color="#f6f1f4"  />
			<stop offset="0.202" stop-color="#fdf4f4"  />
			<stop offset="0.205" stop-color="#fff5f4"  />
			<stop offset="0.252" stop-color="#fff5f4"  />
			<stop offset="0.26" stop-color="#fff5f4"  />
			<stop offset="0.26" stop-color="#d4e1f4"  />
			<stop offset="0.397" stop-color="#d4e1f4"  />
			<stop offset="0.42" stop-color="#d4e1f4"  />
			<stop offset="0.42" stop-color="#dae4f4"  />
			<stop offset="0.421" stop-color="#ebebf4"  />
			<stop offset="0.421" stop-color="#f6f1f4"  />
			<stop offset="0.422" stop-color="#fdf4f4"  />
			<stop offset="0.425" stop-color="#fff5f4"  />
			<stop offset="0.49" stop-color="#fff5f4"  />
			<stop offset="0.5" stop-color="#fff5f4"  />
			<stop offset="0.5" stop-color="#f9f2f4"  />
			<stop offset="0.5" stop-color="#e8ebf4"  />
			<stop offset="0.5" stop-color="#dde5f4"  />
			<stop offset="0.5" stop-color="#d6e2f4"  />
			<stop offset="0.501" stop-color="#d4e1f4"  />
			<stop offset="0.706" stop-color="#d4e1f4"  />
			<stop offset="0.74" stop-color="#d4e1f4"  />
			<stop offset="0.741" stop-color="#fff5f4"  />
			<stop offset="0.835" stop-color="#fff5f4"  />
			<stop offset="0.85" stop-color="#fff5f4"  />
			<stop offset="0.851" stop-color="#d4e1f4"  />
			<stop offset="1" stop-color="#d4e1f4"  />
		</linearGradient>
	</defs>
	<style>
		tspan { white-space:pre }
		.shp0 { fill: #7facfa } 
		.shp1 { fill: #e3e7f2 } 
		.shp2 { fill: url(#grd1) } 
		.shp3 { fill: #a4c2f7 } 
		.shp4 { fill: #ffffff } 
		.shp5 { fill: #5709e7 } 
	</style>
	<g id="Page 1" clip-path="url(#cp1)">
		<path id="Path 1" class="shp0" d="M188.73,491.01h136.53v-77.48h-136.53zM9.53,119.47v281.6c0,18.85 15.28,34.13 34.13,34.13h426.67c18.85,0 34.13,-15.28 34.13,-34.13v-281.6c0,-18.85 -15.28,-34.13 -34.13,-34.13h-426.67c-18.85,0 -34.13,15.28 -34.13,34.13zM120.47,477.87v17.07c0,4.71 3.82,8.53 8.53,8.53h256c4.71,0 8.53,-3.82 8.53,-8.53v-17.07c0,-4.71 -3.82,-8.53 -8.53,-8.53h-256c-4.71,0 -8.53,3.82 -8.53,8.53z" />
		<path id="Path 2" class="shp1" d="M163.13,413.53v21.67h25.6v34.13h-25.6v21.67h136.53v-77.48zM9.53,119.47v281.6c0,18.85 15.28,34.13 34.13,34.13h401.07c18.85,0 34.13,-15.28 34.13,-34.13v-281.6c0,-18.85 -15.28,-34.13 -34.13,-34.13h-401.07c-18.85,0 -34.13,15.28 -34.13,34.13zM120.47,477.87v17.07c0,4.71 3.82,8.53 8.53,8.53h230.4c4.71,0 8.53,-3.82 8.53,-8.53v-17.07c0,-4.71 -3.82,-8.53 -8.53,-8.53h-230.4c-4.71,0 -8.53,3.82 -8.53,8.53z" />
		<path id="Path 3" class="shp0" d="M504.47,366.93v-247.47c0,-9.05 -3.59,-17.74 -10,-24.14c-6.4,-6.4 -15.08,-10 -24.14,-10h-426.67c-9.05,0 -17.74,3.59 -24.14,10c-6.4,6.4 -10,15.08 -9.99,24.14v247.47h494.93z" />
		<path id="Path 4" class="shp2" d="M41.9,85.33c-18.36,0.49 -32.85,15.77 -32.37,34.13v247.47h469.34v-247.47c0.48,-18.36 -14.01,-33.64 -32.37,-34.13z" />
		<path id="Path 5" class="shp1" d="M342.33,196.27l26.54,62.72c1.04,3.31 4.12,5.57 7.6,5.57c3.48,0 6.55,-2.25 7.6,-5.57l26.54,-62.72h25.6c9.41,-0.03 17.04,-7.65 17.07,-17.07v-153.6c-0.03,-9.41 -7.65,-17.04 -17.07,-17.07h-119.47c-9.41,0.03 -17.04,7.65 -17.07,17.07v17.07z" />
		<path id="Path 6" class="shp3" d="M342.33,116.99v45.14h69.38c4.1,0 7.42,-3.32 7.42,-7.42v-7.42c-0.03,-17.9 -10.79,-34.05 -27.31,-40.96c-0.08,0 -0.17,-0.08 -0.26,-0.08h-33.71c-0.09,0 -0.17,0.08 -0.26,0.08c-5.77,2.47 -10.97,6.1 -15.27,10.67zM342.33,87.64c5.31,15.84 21.32,25.5 37.82,22.81c16.49,-2.69 28.61,-16.94 28.61,-33.65c0,-16.71 -12.11,-30.96 -28.61,-33.65c-16.49,-2.69 -32.51,6.97 -37.82,22.81z" />
		<path id="Path 7" class="shp1" d="M214.33,42.67v-17.07c-0.03,-9.42 -7.65,-17.04 -17.07,-17.07h-119.47c-9.41,0.03 -17.04,7.65 -17.07,17.07v153.6c0.03,9.41 7.65,17.04 17.07,17.07h25.6l26.54,62.72c1.05,3.31 4.12,5.57 7.6,5.57c3.48,0 6.55,-2.25 7.6,-5.57l26.54,-62.72zM325.27,42.67h-136.53c-9.42,0.03 -17.04,7.65 -17.07,17.07v187.73c0.03,9.41 7.65,17.04 17.07,17.07h34.13l26.54,62.72c1.05,3.32 4.12,5.57 7.6,5.57c3.48,0 6.55,-2.25 7.59,-5.57l26.54,-62.72h34.13c9.42,-0.03 17.04,-7.65 17.07,-17.07v-187.73c-0.03,-9.41 -7.65,-17.04 -17.07,-17.07z" />
		<path id="Path 8" class="shp3" d="M237.55,157.44c-19.22,7.88 -31.76,26.59 -31.74,47.36v8.53c0.01,4.71 3.83,8.52 8.53,8.53h85.33c4.71,-0.01 8.52,-3.83 8.53,-8.53v-8.53c0.02,-20.77 -12.53,-39.48 -31.74,-47.36zM171.67,116.99c-4.31,-4.57 -9.51,-8.2 -15.27,-10.67c-0.09,0 -0.17,-0.08 -0.26,-0.08h-33.71c-0.08,0 -0.17,0.08 -0.26,0.08c-16.52,6.91 -27.28,23.06 -27.31,40.96v7.42c0,4.1 3.32,7.42 7.42,7.42h69.38v-45.14zM111.93,315.73c0,14.14 11.46,25.6 25.6,25.6c14.14,0 25.6,-11.46 25.6,-25.6c0,-14.14 -11.46,-25.6 -25.6,-25.6c-14.14,0 -25.6,11.46 -25.6,25.6zM350.87,315.73c0,14.14 11.46,25.6 25.6,25.6c14.14,0 25.6,-11.46 25.6,-25.6c0,-14.14 -11.46,-25.6 -25.6,-25.6c-14.14,0 -25.6,11.46 -25.6,25.6zM287.19,89.27c-8.01,-8.01 -18.87,-12.49 -30.19,-12.47c-23.56,0 -42.67,19.1 -42.67,42.67c0,23.57 19.1,42.67 42.67,42.67c23.57,0 42.67,-19.1 42.67,-42.67c0.02,-11.32 -4.47,-22.19 -12.47,-30.19zM171.67,65.96c-5.31,-15.85 -21.33,-25.5 -37.82,-22.81c-16.49,2.69 -28.61,16.94 -28.61,33.65c0,16.71 12.11,30.96 28.61,33.65c16.49,2.69 32.51,-6.97 37.82,-22.81z" />
		<path id="Path 9" class="shp4" d="M45.13,425.21c-6.4,-6.4 -10,-15.09 -9.99,-24.14v-281.6c-0.24,-14.74 9.07,-27.95 23.04,-32.68v-1.45h-16.3c-18.35,0.52 -32.82,15.79 -32.34,34.13v281.6c0,9.05 3.59,17.74 9.99,24.14c6.4,6.4 15.09,10 24.14,9.99h25.6c-9.05,0 -17.74,-3.59 -24.14,-9.99zM154.6,469.34h-25.6c-4.71,0.01 -8.52,3.83 -8.53,8.53v17.07c0.01,4.71 3.83,8.52 8.53,8.53h25.6c-4.71,-0.01 -8.52,-3.83 -8.53,-8.53v-17.07c0.01,-4.71 3.83,-8.52 8.53,-8.53zM188.73,469.33h25.6v-34.13h-25.6zM1,119.47v110.93v136.53h17.07v-136.53v-110.93z" />
		<path id="Path 10" class="shp5" d="M6.29,195.58c-1.04,-0.41 -2,-1.02 -2.81,-1.79c-3.22,-3.4 -3.22,-8.72 0,-12.12c1.64,-1.56 3.8,-2.44 6.06,-2.48c0.57,0.02 1.14,0.08 1.7,0.17c0.54,0.09 1.05,0.26 1.54,0.51c0.55,0.19 1.06,0.45 1.54,0.77l1.28,1.02c3.3,3.37 3.3,8.75 0,12.12c-1.64,1.56 -3.8,2.44 -6.06,2.48c-1.12,-0.01 -2.22,-0.24 -3.25,-0.68zM513,119.47v281.6c-0.03,23.55 -19.11,42.64 -42.67,42.67h-136.53v17.07h59.73c4.71,0 8.53,3.82 8.53,8.53v34.13c0,4.71 -3.82,8.53 -8.53,8.53h-273.07c-4.71,0 -8.53,-3.82 -8.53,-8.53v-34.13c0,-4.71 3.82,-8.53 8.53,-8.53h59.73v-17.07h-136.53c-23.55,-0.03 -42.64,-19.11 -42.67,-42.67v-179.2c0,-4.71 3.82,-8.53 8.53,-8.53c4.71,0 8.53,3.82 8.53,8.53v136.53h477.87v-238.93c-0.01,-14.13 -11.47,-25.58 -25.6,-25.6h-8.53v85.33c-0.01,14.13 -11.47,25.58 -25.6,25.6h-19.95l-24.33,57.51c-2.39,6.49 -8.57,10.79 -15.49,10.78c-6.91,-0.01 -13.08,-4.34 -15.45,-10.83l-10.12,-23.92v9.13c-0.02,14.13 -11.47,25.58 -25.6,25.6h-28.48l-24.33,57.51c-2.39,6.48 -8.58,10.79 -15.49,10.78c-6.91,-0.01 -13.08,-4.34 -15.45,-10.83l-24.31,-57.45h-28.48c-14.13,-0.01 -25.58,-11.47 -25.6,-25.6v-9.13l-10.15,23.98c-2.39,6.48 -8.57,10.79 -15.49,10.77c-6.91,-0.01 -13.08,-4.34 -15.45,-10.83l-24.31,-57.45h-19.94c-14.13,-0.01 -25.59,-11.47 -25.6,-25.6v-85.33h-8.53c-14.13,0.01 -25.59,11.47 -25.6,25.6v34.13c0,4.71 -3.82,8.53 -8.53,8.53c-4.71,0 -8.53,-3.82 -8.53,-8.53v-34.13c0.03,-23.55 19.11,-42.64 42.67,-42.67h8.53v-51.2c0.01,-14.13 11.47,-25.59 25.6,-25.6h119.47c14.13,0.01 25.58,11.47 25.6,25.6v8.53h68.27v-8.53c0.02,-14.13 11.47,-25.59 25.6,-25.6h119.47c14.13,0.01 25.58,11.47 25.6,25.6v51.2h8.53c23.55,0.03 42.64,19.11 42.67,42.67zM316.73,460.8v-17.07h-119.47v17.07zM385,477.87h-256v17.07h256zM444.73,25.6c0,-4.71 -3.82,-8.53 -8.53,-8.53h-119.47c-4.71,0.01 -8.53,3.82 -8.53,8.53v8.53h17.07c8.37,0.01 16.2,4.12 20.97,10.99c16.79,-15.18 42.53,-14.57 58.57,1.4c16.05,15.97 16.78,41.7 1.68,58.57c13.32,9.93 21.17,25.57 21.17,42.19v7.42c-0.01,8.81 -7.15,15.95 -15.96,15.96h-60.84v23.87l25.57,60.42l26.3,-62c0.44,-1.04 1.08,-1.97 1.88,-2.76c0.9,-0.62 1.81,-1.22 2.74,-1.81c1,-0.41 2.06,-0.62 3.14,-0.63l0.11,-0.02h25.6c4.71,0 8.53,-3.82 8.53,-8.53zM399.57,70.82c-2.61,-10.88 -12.01,-18.8 -23.17,-19.53c-11.17,-0.73 -21.51,5.89 -25.53,16.33v18.3c2.04,5.28 5.75,9.74 10.58,12.7c0.29,0.14 0.58,0.31 0.86,0.48c7.75,4.31 17.19,4.3 24.93,-0.04c0.19,-0.11 0.38,-0.22 0.57,-0.32c9.61,-5.73 14.38,-17.05 11.77,-27.93zM350.87,153.6h59.73v-6.32c0,-13.15 -7.24,-25.22 -18.82,-31.43c-10.81,4.8 -23.14,4.82 -33.97,0.07c-2.49,1.37 -4.82,3.02 -6.94,4.92zM333.8,247.47v-187.73c-0.01,-4.71 -3.82,-8.53 -8.53,-8.53h-136.53c-4.71,0.01 -8.53,3.82 -8.53,8.53v187.73c0.01,4.71 3.82,8.53 8.53,8.53h34.1c1.13,0 2.24,0.22 3.28,0.66c0.92,0.59 1.83,1.19 2.73,1.81c0.8,0.79 1.44,1.73 1.88,2.76l26.23,62l26.3,-62c0.44,-1.03 1.08,-1.97 1.88,-2.76c0.9,-0.62 1.81,-1.22 2.73,-1.81c1.04,-0.43 2.16,-0.66 3.29,-0.66h34.11c4.71,-0.01 8.53,-3.82 8.53,-8.53zM163.13,194.53v-23.87h-60.84c-8.81,-0.01 -15.95,-7.15 -15.96,-15.96v-7.42c0.01,-16.62 7.86,-32.26 21.17,-42.19c-15.1,-16.86 -14.35,-42.59 1.69,-58.56c16.04,-15.96 41.77,-16.58 58.56,-1.41c4.77,-6.88 12.6,-10.98 20.97,-10.99h17.07v-8.53c-0.01,-4.71 -3.82,-8.53 -8.53,-8.53h-119.47c-4.71,0.01 -8.53,3.82 -8.53,8.53v153.6c0.01,4.71 3.82,8.53 8.53,8.53h25.57c1.13,0 2.24,0.22 3.28,0.66c0.51,0.26 0.98,0.57 1.43,0.93c0.46,0.25 0.9,0.55 1.3,0.88c0.8,0.79 1.44,1.73 1.88,2.76l26.23,62zM163.13,67.63c-4,-10.46 -14.34,-17.09 -25.51,-16.37c-11.17,0.72 -20.58,8.62 -23.21,19.5c-2.63,10.88 2.13,22.21 11.74,27.95c0.25,0.13 0.49,0.26 0.73,0.41c7.75,4.3 17.18,4.28 24.92,-0.05c0.22,-0.13 0.44,-0.26 0.67,-0.37c4.87,-2.96 8.62,-7.45 10.67,-12.76zM103.4,147.28v6.32h59.73v-32.77c-2.12,-1.9 -4.44,-3.55 -6.94,-4.92c-10.83,4.76 -23.16,4.74 -33.97,-0.07c-11.58,6.21 -18.82,18.29 -18.82,31.43zM495.93,401.07v-25.6h-477.87v25.6c0.01,14.13 11.47,25.58 25.6,25.6h426.67c14.13,-0.02 25.58,-11.47 25.6,-25.6zM316.73,204.8v8.53c-0.01,9.42 -7.64,17.06 -17.07,17.07h-85.33c-9.42,-0.01 -17.06,-7.65 -17.07,-17.07v-8.53c-0.02,-19.05 9.11,-36.96 24.55,-48.13c-15.23,-14.41 -20.14,-36.65 -12.39,-56.13c7.75,-19.48 26.6,-32.27 47.57,-32.27c20.97,0 39.82,12.79 47.57,32.27c7.75,19.48 2.84,41.72 -12.39,56.13c15.44,11.17 24.57,29.08 24.55,48.13zM223.82,111.46c-3.7,15.33 3.58,31.19 17.61,38.38c9.79,4.91 21.33,4.92 31.13,0.01c14.04,-7.19 21.32,-23.06 17.62,-38.39c-3.7,-15.33 -17.41,-26.13 -33.18,-26.14c-15.77,0 -29.48,10.8 -33.18,26.13zM299.67,204.8c0.03,-16.07 -9.04,-30.78 -23.42,-37.96c-12.32,5.1 -26.16,5.1 -38.48,0c-14.38,7.18 -23.46,21.88 -23.43,37.96v8.53h85.33zM137.53,349.87c-18.85,0 -34.13,-15.28 -34.13,-34.13c0,-18.85 15.28,-34.13 34.13,-34.13c18.85,0 34.13,15.28 34.13,34.13c-0.02,18.84 -15.29,34.11 -34.13,34.13zM137.53,332.8c9.43,0 17.07,-7.64 17.07,-17.07c0,-9.43 -7.64,-17.07 -17.07,-17.07c-9.43,0 -17.07,7.64 -17.07,17.07c0.01,9.42 7.65,17.06 17.07,17.07zM376.47,349.87c-18.85,0 -34.13,-15.28 -34.13,-34.13c0,-18.85 15.28,-34.13 34.13,-34.13c18.85,0 34.13,15.28 34.13,34.13c-0.02,18.84 -15.29,34.11 -34.13,34.13zM376.47,332.8c9.43,0 17.07,-7.64 17.07,-17.07c0,-9.43 -7.64,-17.07 -17.07,-17.07c-9.42,0 -17.07,7.64 -17.07,17.07c0.01,9.42 7.64,17.06 17.07,17.07z" />
	</g>
</svg>