<svg xmlns="http://www.w3.org/2000/svg" viewBox="0 0 513 512" width="513" height="512">
	<defs>
		<clipPath clipPathUnits="userSpaceOnUse" id="cp1">
			<path d="M1 0L513 0L513 512L1 512Z" />
		</clipPath>
		<linearGradient id="grd1" gradientUnits="userSpaceOnUse"  x1="135.768" y1="177.453" x2="378.241" y2="419.89">
			<stop offset="0" stop-color="#d4e1f4"  />
			<stop offset="0.172" stop-color="#d4e1f4"  />
			<stop offset="0.2" stop-color="#d4e1f4"  />
			<stop offset="0.2" stop-color="#dae4f4"  />
			<stop offset="0.201" stop-color="#ebebf4"  />
			<stop offset="0.201" stop-color="#f6f1f4"  />
			<stop offset="0.202" stop-color="#fdf4f4"  />
			<stop offset="0.205" stop-color="#fff5f4"  />
			<stop offset="0.252" stop-color="#fff5f4"  />
			<stop offset="0.26" stop-color="#fff5f4"  />
			<stop offset="0.26" stop-color="#d4e1f4"  />
			<stop offset="0.397" stop-color="#d4e1f4"  />
			<stop offset="0.42" stop-color="#d4e1f4"  />
			<stop offset="0.42" stop-color="#dae4f4"  />
			<stop offset="0.421" stop-color="#ebebf4"  />
			<stop offset="0.421" stop-color="#f6f1f4"  />
			<stop offset="0.422" stop-color="#fdf4f4"  />
			<stop offset="0.425" stop-color="#fff5f4"  />
			<stop offset="0.49" stop-color="#fff5f4"  />
			<stop offset="0.5" stop-color="#fff5f4"  />
			<stop offset="0.5" stop-color="#f9f2f4"  />
			<stop offset="0.5" stop-color="#e8ebf4"  />
			<stop offset="0.5" stop-color="#dde5f4"  />
			<stop offset="0.5" stop-color="#d6e2f4"  />
			<stop offset="0.501" stop-color="#d4e1f4"  />
			<stop offset="0.706" stop-color="#d4e1f4"  />
			<stop offset="0.74" stop-color="#d4e1f4"  />
			<stop offset="0.741" stop-color="#fff5f4"  />
			<stop offset="0.835" stop-color="#fff5f4"  />
			<stop offset="0.85" stop-color="#fff5f4"  />
			<stop offset="0.851" stop-color="#d4e1f4"  />
			<stop offset="1" stop-color="#d4e1f4"  />
		</linearGradient>
	</defs>
	<style>
		tspan { white-space:pre }
		.shp0 { fill: #7facfa } 
		.shp1 { fill: #e3e7f2 } 
		.shp2 { fill: #a4c2f7 } 
		.shp3 { fill: url(#grd1) } 
		.shp4 { fill: #ffffff } 
		.shp5 { fill: #5709e7 } 
	</style>
	<g id="Page 1" clip-path="url(#cp1)">
		<path id="Path 1" class="shp0" d="M9.53,68.27v418.13c0.03,9.41 7.65,17.04 17.07,17.07h460.8c9.41,-0.03 17.04,-7.65 17.07,-17.07v-418.13z" />
		<path id="Path 2" class="shp1" d="M9.53,68.27l0,418.13c-0.21,9.17 7.02,16.79 16.18,17.07h436.97c9.17,-0.28 16.39,-7.9 16.18,-17.07l0,-418.13z" />
		<path id="Path 3" class="shp0" d="M487.4,8.53h-460.8c-9.41,0.03 -17.04,7.65 -17.07,17.07v68.27h494.93v-68.27c-0.03,-9.41 -7.65,-17.04 -17.07,-17.07z" />
		<path id="Path 4" class="shp1" d="M462.68,8.53h-436.97c-9.17,0.28 -16.39,7.9 -16.18,17.07l0,68.27h469.34l0,-68.27c0.21,-9.17 -7.02,-16.79 -16.18,-17.07zM43.67,51.2c0,9.43 7.64,17.07 17.07,17.07c9.43,0 17.07,-7.64 17.07,-17.07c0,-9.43 -7.64,-17.07 -17.07,-17.07c-9.43,0 -17.07,7.64 -17.07,17.07zM103.4,51.2c0,9.43 7.64,17.07 17.07,17.07c9.43,0 17.07,-7.64 17.07,-17.07c0,-9.43 -7.64,-17.07 -17.07,-17.07c-9.43,0 -17.07,7.64 -17.07,17.07zM163.13,51.2c0,9.43 7.64,17.07 17.07,17.07c9.43,0 17.07,-7.64 17.07,-17.07c0,-9.43 -7.64,-17.07 -17.07,-17.07c-9.43,0 -17.07,7.64 -17.07,17.07zM436.2,42.67v17.07c0,4.71 3.82,8.53 8.53,8.53h17.07c4.71,0 8.53,-3.82 8.53,-8.53v-17.07c0,-4.71 -3.82,-8.53 -8.53,-8.53h-17.07c-4.71,0 -8.53,3.82 -8.53,8.53zM180.2,162.13h-110.93c-4.71,0.01 -8.52,3.83 -8.53,8.53v256c0.01,4.71 3.83,8.52 8.53,8.53h110.93M333.8,435.2h110.93c4.71,-0.02 8.52,-3.83 8.53,-8.53v-256c-0.01,-4.71 -3.83,-8.52 -8.53,-8.53h-110.93" />
		<path id="Path 5" class="shp2" d="M94.87,384c0,9.43 7.64,17.07 17.07,17.07h51.2c9.43,0 17.07,-7.64 17.07,-17.07c0,-9.43 -7.64,-17.07 -17.07,-17.07h-51.2c-9.42,0 -17.07,7.64 -17.07,17.07z" />
		<path id="Path 6" class="shp1" d="M94.87,238.93c0,23.56 19.1,42.67 42.67,42.67c23.56,0 42.67,-19.1 42.67,-42.67c0,-23.56 -19.1,-42.67 -42.67,-42.67c-23.56,0 -42.67,19.1 -42.67,42.67z" />
		<path id="Path 7" class="shp2" d="M333.8,384c0,9.43 7.64,17.07 17.07,17.07h51.2c9.43,0 17.07,-7.64 17.07,-17.07c0,-9.43 -7.64,-17.07 -17.07,-17.07h-51.2c-9.43,0 -17.07,7.64 -17.07,17.07z" />
		<path id="Path 8" class="shp1" d="M333.8,238.93c0,23.56 19.1,42.67 42.67,42.67c23.56,0 42.67,-19.1 42.67,-42.67c0,-23.56 -19.1,-42.67 -42.67,-42.67c-23.56,0 -42.67,19.1 -42.67,42.67z" />
		<path id="Path 9" class="shp3" d="M188.73,128c-4.71,0 -8.53,3.82 -8.53,8.53v324.27c0,4.71 3.82,8.53 8.53,8.53h136.53c4.71,0 8.53,-3.82 8.53,-8.53v-324.27c0,-4.71 -3.82,-8.53 -8.53,-8.53z" />
		<path id="Path 10" class="shp1" d="M243.82,190.22l-29.48,4.51l21.33,21.86l-5.04,30.87l26.37,-14.58l26.37,14.58l-5.04,-30.87l21.33,-21.86l-29.48,-4.51l-13.18,-28.09z" />
		<path id="Path 11" class="shp2" d="M214.33,418.13c0,9.43 7.64,17.07 17.07,17.07h51.2c9.43,0 17.07,-7.64 17.07,-17.07c0,-9.43 -7.64,-17.07 -17.07,-17.07h-51.2c-9.43,0 -17.07,7.64 -17.07,17.07z" />
		<path id="Path 12" class="shp4" d="M35.13,486.4v-460.8c-0.23,-9.15 6.98,-16.78 16.13,-17.07h-25.51c-9.18,0.25 -16.43,7.88 -16.21,17.07v460.8c-0.22,9.18 7.03,16.81 16.21,17.07h25.6c-9.18,-0.25 -16.43,-7.88 -16.21,-17.07zM1,93.87v110.93v281.6h17.07v-281.6v-110.93z" />
		<path id="Path 13" class="shp5" d="M6.29,169.98c-1.04,-0.41 -2,-1.02 -2.81,-1.79c-3.22,-3.4 -3.22,-8.72 0,-12.12c1.64,-1.56 3.8,-2.44 6.06,-2.48c0.57,0.02 1.14,0.08 1.7,0.17c0.54,0.09 1.05,0.26 1.54,0.51c0.55,0.19 1.06,0.45 1.54,0.77l1.28,1.03c3.3,3.36 3.3,8.75 0,12.12c-1.64,1.56 -3.8,2.44 -6.06,2.48c-1.12,-0.01 -2.22,-0.24 -3.25,-0.68zM513,25.6v460.8c-0.02,14.13 -11.47,25.59 -25.6,25.6h-460.8c-14.13,-0.01 -25.58,-11.47 -25.6,-25.6v-290.13c0,-4.71 3.82,-8.53 8.53,-8.53c4.71,0 8.53,3.82 8.53,8.53v290.13c0,4.71 3.82,8.53 8.53,8.53h460.8c4.71,0 8.53,-3.82 8.53,-8.53v-384h-477.87v25.6c0,4.71 -3.82,8.53 -8.53,8.53c-4.71,0 -8.53,-3.82 -8.53,-8.53v-102.4c0.02,-14.13 11.47,-25.58 25.6,-25.6h460.8c14.13,0.01 25.58,11.47 25.6,25.6zM495.93,85.33v-59.73c0,-4.71 -3.82,-8.53 -8.53,-8.53h-460.8c-4.71,0 -8.53,3.82 -8.53,8.53v59.73zM86.33,51.2c0,14.14 -11.46,25.6 -25.6,25.6c-14.14,0 -25.6,-11.46 -25.6,-25.6c0,-14.14 11.46,-25.6 25.6,-25.6c14.13,0.02 25.58,11.47 25.6,25.6zM69.27,51.2c0,-4.71 -3.82,-8.53 -8.53,-8.53c-4.71,0 -8.53,3.82 -8.53,8.53c0,4.71 3.82,8.53 8.53,8.53c4.71,0 8.53,-3.82 8.53,-8.53zM146.07,51.2c0,14.14 -11.46,25.6 -25.6,25.6c-14.14,0 -25.6,-11.46 -25.6,-25.6c0,-14.14 11.46,-25.6 25.6,-25.6c14.13,0.02 25.58,11.47 25.6,25.6zM129,51.2c0,-4.71 -3.82,-8.53 -8.53,-8.53c-4.71,0 -8.53,3.82 -8.53,8.53c0,4.71 3.82,8.53 8.53,8.53c4.71,0 8.53,-3.82 8.53,-8.53zM205.8,51.2c0,14.14 -11.46,25.6 -25.6,25.6c-14.14,0 -25.6,-11.46 -25.6,-25.6c0,-14.14 11.46,-25.6 25.6,-25.6c14.13,0.02 25.58,11.47 25.6,25.6zM188.73,51.2c0,-4.71 -3.82,-8.53 -8.53,-8.53c-4.71,0 -8.53,3.82 -8.53,8.53c0,4.71 3.82,8.53 8.53,8.53c4.71,0 8.53,-3.82 8.53,-8.53zM478.87,42.67v17.07c-0.01,9.42 -7.65,17.05 -17.07,17.07h-17.07c-9.42,-0.01 -17.06,-7.65 -17.07,-17.07v-17.07c0.01,-9.42 7.65,-17.05 17.07,-17.07h17.07c9.42,0.01 17.05,7.65 17.07,17.07zM444.73,59.73h17.08l-0.02,-17.07h-17.07zM342.33,136.53v17.07h102.4c9.42,0.01 17.05,7.65 17.07,17.07v256c-0.01,9.42 -7.65,17.05 -17.07,17.07h-102.4v17.07c-0.01,9.42 -7.65,17.05 -17.07,17.07h-136.53c-9.42,-0.01 -17.05,-7.65 -17.07,-17.07v-17.07h-102.4c-9.42,-0.01 -17.06,-7.65 -17.07,-17.07v-256c0.01,-9.42 7.65,-17.05 17.07,-17.07h102.4v-17.07c0.01,-9.42 7.65,-17.05 17.07,-17.07h136.53c9.42,0.01 17.05,7.65 17.07,17.07zM342.33,170.67v30.21c20.5,-18.45 51.93,-17.35 71.08,2.49c19.16,19.84 19.16,51.29 0,71.13c-19.16,19.84 -50.59,20.94 -71.08,2.49v30.21c4.71,0 8.53,3.82 8.53,8.53c0,4.71 -3.82,8.53 -8.53,8.53v35.71c2.73,-1.01 5.62,-1.54 8.53,-1.57h51.2c14.14,0 25.6,11.46 25.6,25.6c0,14.14 -11.46,25.6 -25.6,25.6h-51.2c-2.91,-0.03 -5.8,-0.56 -8.53,-1.57v18.64h102.4v-256zM376.47,273.07c18.85,0 34.13,-15.28 34.13,-34.13c0,-18.85 -15.28,-34.13 -34.13,-34.13c-18.85,0 -34.13,15.28 -34.13,34.13c0.02,18.84 15.29,34.11 34.13,34.13zM325.28,460.8l0,-25.52l-0.02,-0.08l0.02,-0.08l0,-51l-0.01,-0.13l0.01,-0.13l0,-68.1l-0.01,-0.05l0.01,-0.05l0,-76.65l-0.01,-0.1l0.01,-0.1l0,-76.69l0,-0.01l0,-0.01l0,-25.59h-136.53v324.27zM171.67,426.67v-18.64c-2.73,1.01 -5.62,1.54 -8.53,1.57h-51.2c-14.14,0 -25.6,-11.46 -25.6,-25.6c0,-14.14 11.46,-25.6 25.6,-25.6h51.2c2.91,0.03 5.8,0.56 8.53,1.57v-35.71h-34.13c-4.71,0 -8.53,-3.82 -8.53,-8.53c0,-4.71 3.82,-8.53 8.53,-8.53h34.13v-30.21c-20.5,18.45 -51.93,17.35 -71.09,-2.49c-19.16,-19.84 -19.16,-51.29 0,-71.13c19.16,-19.84 50.59,-20.94 71.09,-2.49v-30.21h-102.4v256zM137.53,204.8c-18.85,0 -34.13,15.28 -34.13,34.13c0,18.85 15.28,34.13 34.13,34.13c18.85,0 34.13,-15.28 34.13,-34.13c-0.02,-18.84 -15.29,-34.11 -34.13,-34.13zM163.13,375.47h-51.2c-4.71,0 -8.53,3.82 -8.53,8.53c0,4.71 3.82,8.53 8.53,8.53h51.2c4.71,0 8.53,-3.82 8.53,-8.53c0,-4.71 -3.82,-8.53 -8.53,-8.53zM350.87,392.53h51.2c4.71,0 8.53,-3.82 8.53,-8.53c0,-4.71 -3.82,-8.53 -8.53,-8.53h-51.2c-4.71,0 -8.53,3.82 -8.53,8.53c0,4.71 3.82,8.53 8.53,8.53zM208.23,200.68c-2.23,-2.29 -3,-5.63 -1.98,-8.67c1.02,-3.03 3.64,-5.24 6.8,-5.73l24.98,-3.82l11.25,-23.97c1.41,-2.99 4.42,-4.91 7.72,-4.91c3.31,0 6.32,1.91 7.73,4.91l11.25,23.97l24.98,3.82c3.16,0.48 5.79,2.69 6.8,5.73c1.02,3.03 0.25,6.38 -1.98,8.67l-18.33,18.78l4.34,26.63c0.52,3.23 -0.84,6.47 -3.51,8.35c-2.67,1.88 -6.18,2.07 -9.04,0.49l-22.24,-12.29l-22.24,12.29c-2.86,1.58 -6.37,1.39 -9.04,-0.49c-2.67,-1.88 -4.03,-5.12 -3.51,-8.35l4.34,-26.63zM232.04,200.66l9.73,9.98c1.89,1.94 2.75,4.66 2.32,7.33l-2.21,13.53l10.99,-6.08c2.57,-1.42 5.68,-1.42 8.25,0l10.99,6.08l-2.21,-13.53c-0.43,-2.67 0.43,-5.39 2.32,-7.33l9.73,-9.98l-13.07,-2c-2.81,-0.43 -5.23,-2.23 -6.43,-4.81l-5.46,-11.63l-5.46,11.63c-1.21,2.57 -3.62,4.38 -6.43,4.81zM205.8,281.6c0,-4.71 3.82,-8.53 8.53,-8.53h8.53c4.71,0 8.53,3.82 8.53,8.53c0,4.71 -3.82,8.53 -8.53,8.53h-8.53c-4.71,0 -8.53,-3.82 -8.53,-8.53zM308.2,281.6c0,4.71 -3.82,8.53 -8.53,8.53h-42.67c-4.71,0 -8.53,-3.82 -8.53,-8.53c0,-4.71 3.82,-8.53 8.53,-8.53h42.67c4.71,0 8.53,3.82 8.53,8.53zM205.8,315.73c0,-4.71 3.82,-8.53 8.53,-8.53h8.53c4.71,0 8.53,3.82 8.53,8.53c0,4.71 -3.82,8.53 -8.53,8.53h-8.53c-4.71,0 -8.53,-3.82 -8.53,-8.53zM308.2,315.73c0,4.71 -3.82,8.53 -8.53,8.53h-42.67c-4.71,0 -8.53,-3.82 -8.53,-8.53c0,-4.71 3.82,-8.53 8.53,-8.53h42.67c4.71,0 8.53,3.82 8.53,8.53zM205.8,349.87c0,-4.71 3.82,-8.53 8.53,-8.53h8.53c4.71,0 8.53,3.82 8.53,8.53c0,4.71 -3.82,8.53 -8.53,8.53h-8.53c-4.71,0 -8.53,-3.82 -8.53,-8.53zM308.2,349.87c0,4.71 -3.82,8.53 -8.53,8.53h-42.67c-4.71,0 -8.53,-3.82 -8.53,-8.53c0,-4.71 3.82,-8.53 8.53,-8.53h42.67c4.71,0 8.53,3.82 8.53,8.53zM308.2,418.13c0,14.14 -11.46,25.6 -25.6,25.6h-51.2c-14.14,0 -25.6,-11.46 -25.6,-25.6c0,-14.14 11.46,-25.6 25.6,-25.6h51.2c14.14,0 25.6,11.46 25.6,25.6zM291.13,418.13c0,-4.71 -3.82,-8.53 -8.53,-8.53h-51.2c-4.71,0 -8.53,3.82 -8.53,8.53c0,4.71 3.82,8.53 8.53,8.53h51.2c4.71,0 8.53,-3.82 8.53,-8.53zM86.33,315.73c0,-4.71 3.82,-8.53 8.53,-8.53h8.53c4.71,0 8.53,3.82 8.53,8.53c0,4.71 -3.82,8.53 -8.53,8.53h-8.53c-4.71,0 -8.53,-3.82 -8.53,-8.53zM427.67,315.73c0,4.71 -3.82,8.53 -8.53,8.53h-42.67c-4.71,0 -8.53,-3.82 -8.53,-8.53c0,-4.71 3.82,-8.53 8.53,-8.53h42.67c4.71,0 8.53,3.82 8.53,8.53z" />
	</g>
</svg>