<svg xmlns="http://www.w3.org/2000/svg" viewBox="0 0 513 514" width="513" height="514">
	<defs>
		<clipPath clipPathUnits="userSpaceOnUse" id="cp1">
			<path d="M1 1L513 1L513 513L1 513Z" />
		</clipPath>
		<linearGradient id="grd1" gradientUnits="userSpaceOnUse"  x1="54.76" y1="16.36" x2="425.533" y2="387.133">
			<stop offset="0" stop-color="#d3dff2"  />
			<stop offset="0.172" stop-color="#d3dff2"  />
			<stop offset="0.2" stop-color="#d3dff2"  />
			<stop offset="0.2" stop-color="#dae2f2"  />
			<stop offset="0.201" stop-color="#ebeaf2"  />
			<stop offset="0.201" stop-color="#f6eff2"  />
			<stop offset="0.202" stop-color="#fdf2f2"  />
			<stop offset="0.205" stop-color="#fff3f2"  />
			<stop offset="0.252" stop-color="#fff3f2"  />
			<stop offset="0.26" stop-color="#fff3f2"  />
			<stop offset="0.26" stop-color="#d3dff2"  />
			<stop offset="0.397" stop-color="#d3dff2"  />
			<stop offset="0.42" stop-color="#d3dff2"  />
			<stop offset="0.42" stop-color="#dae2f2"  />
			<stop offset="0.421" stop-color="#ebeaf2"  />
			<stop offset="0.421" stop-color="#f6eff2"  />
			<stop offset="0.422" stop-color="#fdf2f2"  />
			<stop offset="0.425" stop-color="#fff3f2"  />
			<stop offset="0.489" stop-color="#fff3f2"  />
			<stop offset="0.5" stop-color="#fff3f2"  />
			<stop offset="0.5" stop-color="#f8f0f2"  />
			<stop offset="0.5" stop-color="#e7e8f2"  />
			<stop offset="0.5" stop-color="#dce3f2"  />
			<stop offset="0.5" stop-color="#d5e0f2"  />
			<stop offset="0.501" stop-color="#d3dff2"  />
			<stop offset="0.706" stop-color="#d3dff2"  />
			<stop offset="0.74" stop-color="#d3dff2"  />
			<stop offset="0.741" stop-color="#fff3f2"  />
			<stop offset="0.835" stop-color="#fff3f2"  />
			<stop offset="0.85" stop-color="#fff3f2"  />
			<stop offset="0.851" stop-color="#d3dff2"  />
			<stop offset="1" stop-color="#d3dff2"  />
		</linearGradient>
	</defs>
	<style>
		tspan { white-space:pre }
		.shp0 { fill: #7facfa } 
		.shp1 { fill: #cad9fc } 
		.shp2 { fill: #e8edfc } 
		.shp3 { fill: #a4c2f7 } 
		.shp4 { fill: #90bae1 } 
		.shp5 { fill: url(#grd1) } 
		.shp6 { fill: #ffffff } 
		.shp7 { fill: #124ef7 } 
	</style>
	<g id="Page 1" clip-path="url(#cp1)">
		<path id="Path 1" class="shp0" d="M197.27,470.33h119.47v-85.33h-119.47z" />
		<path id="Path 2" class="shp1" d="M197.27,470.33h93.87v-85.33h-93.87zM9.53,316.73v68.27c0.03,9.41 7.65,17.04 17.07,17.07h460.8c9.41,-0.03 17.04,-7.65 17.07,-17.07v-68.27z" />
		<path id="Path 3" class="shp2" d="M9.53,316.73v68.27c0.03,9.41 7.65,17.04 17.07,17.07h435.2c9.41,-0.03 17.04,-7.65 17.07,-17.07v-68.27z" />
		<path id="Path 4" class="shp3" d="M478.87,76.95l-199,-6.91l-270.34,-9.3v273.07h494.93v-256z" />
		<path id="Path 5" class="shp4" d="M279.87,70.03l224.6,7.77v-25.6z" />
		<path id="Path 6" class="shp0" d="M501.31,16.7c-3.21,-4.49 -8.39,-7.16 -13.91,-7.17h-460.8c-9.41,0.03 -17.04,7.65 -17.07,17.07v51.2h494.93v-51.2c0.03,-3.55 -1.08,-7.02 -3.16,-9.9z" />
		<path id="Path 7" class="shp5" d="M9.53,333.8h469.33v-256l-224.6,-7.77l-244.74,-8.45z" />
		<path id="Path 8" class="shp3" d="M475.71,16.7c-3.21,-4.49 -8.39,-7.16 -13.91,-7.17h-435.2c-9.41,0.03 -17.04,7.65 -17.07,17.07v51.2h469.33l0,-51.2c0.03,-3.55 -1.08,-7.02 -3.16,-9.9z" />
		<path id="Path 9" class="shp1" d="M325.27,453.27h-136.53c-18.85,0 -34.13,15.28 -34.13,34.13v8.53c0,4.71 3.82,8.53 8.53,8.53h187.73c4.71,0 8.53,-3.82 8.53,-8.53v-8.53c0,-18.85 -15.28,-34.13 -34.13,-34.13z" />
		<path id="Path 10" class="shp2" d="M299.67,453.27h-110.93c-18.85,0 -34.13,15.28 -34.13,34.13v8.53c0,4.71 3.82,8.53 8.53,8.53h162.13c4.71,0 8.53,-3.82 8.53,-8.53v-8.53c0,-18.85 -15.28,-34.13 -34.13,-34.13z" />
		<path id="Path 11" class="shp1" d="M489.45,451.22c-7.46,-7.58 -17.15,-12.58 -27.65,-14.25c-5.64,-1.02 -11.42,-1.02 -17.07,0c-1.45,0.26 -2.82,0.51 -4.18,0.85c-22.66,5.77 -38.51,26.19 -38.49,49.58v8.53c0,4.71 3.82,8.53 8.53,8.53h85.33c4.71,0 8.53,-3.82 8.53,-8.53v-8.53c0.04,-13.58 -5.37,-26.62 -15.02,-36.18z" />
		<path id="Path 12" class="shp2" d="M440.55,437.82c-22.66,5.77 -38.51,26.19 -38.49,49.58v8.53c0,4.71 3.82,8.53 8.53,8.53h59.73c4.71,0 8.53,-3.82 8.53,-8.53v-8.53c-0.06,-23.3 -15.78,-43.65 -38.31,-49.58z" />
		<path id="Path 13" class="shp6" d="M177,496.29v-8.53c0,-18.85 15.28,-34.13 34.13,-34.13h8.53v-51.2h-25.6v51.2h-8.53c-18.85,0 -34.13,15.28 -34.13,34.13v8.53c0,4.71 3.82,8.53 8.53,8.53h25.6c-4.71,0 -8.53,-3.82 -8.53,-8.53zM31.93,385.36v-358.4c0.03,-9.41 7.65,-17.04 17.07,-17.07h-25.6c-9.41,0.03 -17.04,7.65 -17.07,17.07v358.4c0.03,9.41 7.65,17.04 17.07,17.07h25.6c-9.41,-0.03 -17.04,-7.65 -17.07,-17.07zM18.07,333.8v-110.93v-196.27h-17.07v196.27v110.93z" />
		<path id="Path 14" class="shp7" d="M18.07,299.67v25.6l477.87,0v-238.93l-477.87,0v145.07c0,4.71 -3.82,8.53 -8.53,8.53c-4.71,0 -8.53,-3.82 -8.53,-8.53l0,-153.56c0,-0.01 0,-0.03 0,-0.04c0,-0.01 0,-0.03 0,-0.04l0,-51.12c0,-0.01 0,-0.03 0,-0.04c0,-14.14 11.46,-25.6 25.6,-25.6h460.8c14.14,0 25.6,11.46 25.6,25.6v307.15c0,0.02 0,0.03 0,0.05v51.2c0,14.14 -11.46,25.6 -25.6,25.6l-162.13,0v34.13c23.55,0.03 42.64,19.11 42.67,42.67v17.07c0,2.26 -0.9,4.43 -2.5,6.03c-1.6,1.6 -3.77,2.5 -6.03,2.5h-204.8c-4.71,0 -8.53,-3.82 -8.53,-8.53v-17.07c0.03,-23.55 19.11,-42.64 42.67,-42.67v-34.13h-162.13c-14.14,0 -25.6,-11.46 -25.6,-25.6l0,-51.16c0,-0.01 0,-0.03 0,-0.04c0,-0.03 0,-0.06 0,-0.08v-34.05c0,-4.71 3.82,-8.53 8.53,-8.53c4.71,0 8.53,3.82 8.53,8.53zM495.93,26.6c0,-4.71 -3.82,-8.53 -8.53,-8.53h-460.8c-4.71,0 -8.53,3.82 -8.53,8.53c0,0 0,0 0,0h0v42.67l477.87,0zM3.47,259.47c1.64,-1.56 3.8,-2.44 6.06,-2.47c1.11,0.01 2.22,0.24 3.24,0.68c1.04,0.41 2,1.02 2.82,1.79c2.38,2.48 3.08,6.12 1.79,9.3c-0.41,1.04 -1.02,2 -1.79,2.82c-1.64,1.56 -3.8,2.44 -6.06,2.47c-0.57,-0.02 -1.14,-0.07 -1.71,-0.17c-0.54,-0.09 -1.05,-0.27 -1.54,-0.51c-0.54,-0.19 -1.06,-0.45 -1.54,-0.77l-1.28,-1.02c-1.56,-1.64 -2.44,-3.8 -2.47,-6.06c0.03,-2.26 0.92,-4.42 2.47,-6.06zM18.07,342.33v42.67c0,4.71 3.82,8.53 8.53,8.53h460.8c4.71,0 8.53,-3.82 8.53,-8.53v-42.67zM205.8,444.73h102.4v-34.13h-102.4zM163.13,495.93h187.73v-8.53c0,-14.14 -11.46,-25.6 -25.6,-25.6h-136.53c-14.14,0 -25.6,11.46 -25.6,25.6zM274.07,376.47h-34.13c-4.71,0 -8.53,-3.82 -8.53,-8.53c0,-4.71 3.82,-8.53 8.53,-8.53h34.13c4.71,0 8.53,3.82 8.53,8.53c0,4.71 -3.82,8.53 -8.53,8.53zM495.93,513h-85.33c-9.42,0 -17.07,-7.64 -17.07,-17.07v-8.53c0,-32.96 26.7,-59.68 59.64,-59.73c0.03,0 0.06,0 0.09,0c0.03,0 0.06,0 0.09,0c32.95,0.05 59.64,26.77 59.64,59.73v8.53c0,9.43 -7.64,17.07 -17.07,17.07zM410.6,487.4v8.53h85.33v-8.53c-0.02,-20.63 -14.67,-37.83 -34.13,-41.8v16.2c0,4.71 -3.82,8.53 -8.53,8.53c-4.71,0 -8.53,-3.82 -8.53,-8.53l0,-16.2c-19.46,3.97 -34.11,21.17 -34.13,41.8zM60.73,52.2h-17.07c-4.71,0 -8.53,-3.82 -8.53,-8.53c0,-4.71 3.82,-8.53 8.53,-8.53h17.07c4.71,0 8.53,3.82 8.53,8.53c0,4.71 -3.82,8.53 -8.53,8.53zM146.07,52.2h-51.2c-4.71,0 -8.53,-3.82 -8.53,-8.53c0,-4.71 3.82,-8.53 8.53,-8.53h51.2c4.71,0 8.53,3.82 8.53,8.53c0,4.71 -3.82,8.53 -8.53,8.53zM77.87,188.73c-0.02,0 -0.05,0 -0.07,0c-0.07,0 -0.14,0 -0.21,0c-4.61,-0.11 -8.32,-3.89 -8.32,-8.53v-68.27c0,-4.71 3.82,-8.53 8.53,-8.53l357.85,0c2.68,-0.22 5.33,0.83 7.13,2.88c1.76,2.01 2.46,4.7 1.95,7.27v66.64c0,4.64 -3.71,8.42 -8.32,8.53c-0.07,0 -0.14,0 -0.21,0c-0.02,0 -0.05,0 -0.07,0zM427.67,122.25l-125.07,23.82l125.07,23.82zM168.21,171.67l177.58,0l-88.79,-16.91zM86.33,169.89l125.07,-23.82l-125.07,-23.82zM345.81,120.47l-177.63,0l88.81,16.92zM163.13,231.4h-85.33c-4.71,0 -8.53,-3.82 -8.53,-8.53c0,-4.71 3.82,-8.53 8.53,-8.53h85.33c4.71,0 8.53,3.82 8.53,8.53c0,4.71 -3.82,8.53 -8.53,8.53zM163.13,265.53h-85.33c-4.71,0 -8.53,-3.82 -8.53,-8.53c0,-4.71 3.82,-8.53 8.53,-8.53h85.33c4.71,0 8.53,3.82 8.53,8.53c0,4.71 -3.82,8.53 -8.53,8.53zM163.13,299.67h-85.33c-4.71,0 -8.53,-3.82 -8.53,-8.53c0,-4.71 3.82,-8.53 8.53,-8.53h85.33c4.71,0 8.53,3.82 8.53,8.53c0,4.71 -3.82,8.53 -8.53,8.53zM299.67,231.4h-85.33c-4.71,0 -8.53,-3.82 -8.53,-8.53c0,-4.71 3.82,-8.53 8.53,-8.53h85.33c4.71,0 8.53,3.82 8.53,8.53c0,4.71 -3.82,8.53 -8.53,8.53zM299.67,265.53h-85.33c-4.71,0 -8.53,-3.82 -8.53,-8.53c0,-4.71 3.82,-8.53 8.53,-8.53h85.33c4.71,0 8.53,3.82 8.53,8.53c0,4.71 -3.82,8.53 -8.53,8.53zM299.67,299.67h-85.33c-4.71,0 -8.53,-3.82 -8.53,-8.53c0,-4.71 3.82,-8.53 8.53,-8.53h85.33c4.71,0 8.53,3.82 8.53,8.53c0,4.71 -3.82,8.53 -8.53,8.53zM436.2,231.4h-85.33c-4.71,0 -8.53,-3.82 -8.53,-8.53c0,-4.71 3.82,-8.53 8.53,-8.53h85.33c4.71,0 8.53,3.82 8.53,8.53c0,4.71 -3.82,8.53 -8.53,8.53zM436.2,265.53h-85.33c-4.71,0 -8.53,-3.82 -8.53,-8.53c0,-4.71 3.82,-8.53 8.53,-8.53h85.33c4.71,0 8.53,3.82 8.53,8.53c0,4.71 -3.82,8.53 -8.53,8.53zM436.2,299.67h-85.33c-4.71,0 -8.53,-3.82 -8.53,-8.53c0,-4.71 3.82,-8.53 8.53,-8.53h85.33c4.71,0 8.53,3.82 8.53,8.53c0,4.71 -3.82,8.53 -8.53,8.53z" />
	</g>
</svg>