<svg xmlns="http://www.w3.org/2000/svg" viewBox="0 0 513 505" width="513" height="505">
	<defs>
		<clipPath clipPathUnits="userSpaceOnUse" id="cp1">
			<path d="M0 1L512 1L512 504L0 504Z" />
		</clipPath>
	</defs>
	<style>
		tspan { white-space:pre }
		.shp0 { fill: #cad9fc } 
		.shp1 { fill: #7facfa } 
		.shp2 { fill: #a4c2f7 } 
		.shp3 { fill: #e8edfc } 
		.shp4 { fill: #ffffff } 
		.shp5 { fill: #124ef7 } 
	</style>
	<g id="Page 1" clip-path="url(#cp1)">
		<path id="Path 1" class="shp0" d="M334.17,135.36l6.32,31.57c12.92,3.21 25.28,8.33 36.69,15.19l11.26,-7.51c-7.21,-3.22 -14.69,-5.79 -22.36,-7.68l-6.31,-31.57c-0.81,-3.97 -4.31,-6.83 -8.36,-6.83h-25.6c4.06,0 7.55,2.85 8.36,6.83z" />
		<path id="Path 2" class="shp1" d="M496.64,272.23l-31.57,-6.31c-3.21,-12.92 -8.33,-25.29 -15.19,-36.69l17.84,-26.79c2.24,-3.39 1.77,-7.89 -1.11,-10.75l-26.28,-26.28c-2.86,-2.88 -7.36,-3.35 -10.75,-1.11l-9.56,6.4l20.99,20.99c2.88,2.86 3.35,7.36 1.11,10.75l-17.84,26.79c6.86,11.41 11.98,23.77 15.19,36.69l31.57,6.31c3.97,0.81 6.83,4.31 6.83,8.36v37.21c0,4.06 -2.85,7.55 -6.83,8.36l-31.57,6.31c-0.77,3.26 -1.71,6.48 -2.82,9.64l-219.14,93.1l4.35,9.05l240.38,-102.14c1.11,-3.16 2.05,-6.38 2.82,-9.64l31.57,-6.31c3.97,-0.81 6.83,-4.31 6.83,-8.36v-37.21c0,-4.06 -2.85,-7.55 -6.83,-8.36z" />
		<path id="Path 3" class="shp2" d="M471.04,272.23l-31.57,-6.31c-3.21,-12.92 -8.33,-25.29 -15.19,-36.69l17.84,-26.79c2.24,-3.39 1.77,-7.89 -1.11,-10.75l-20.99,-20.99l-17.24,11.43c-4.63,-2.77 -9.42,-5.28 -14.34,-7.51l-11.26,7.51c-11.41,-6.86 -23.78,-11.98 -36.69,-15.19l-6.32,-31.57c-0.81,-3.97 -4.31,-6.83 -8.36,-6.83h-11.61c-4.06,0 -7.55,2.85 -8.36,6.83l-6.32,31.57c-12.92,3.21 -25.29,8.33 -36.69,15.19l-11.26,-7.51l-15.53,-10.33c-3.39,-2.24 -7.89,-1.77 -10.75,1.11l-5.29,5.29l-20.99,20.99c-2.88,2.86 -3.35,7.36 -1.11,10.75l17.83,26.79c-6.86,11.41 -11.98,23.77 -15.19,36.69l-31.57,6.31c-3.97,0.81 -6.83,4.31 -6.83,8.36v37.21c0,0.58 0.09,1.15 0.26,1.71v0.09l55.13,115.63l219.14,-93.1c1.11,-3.16 2.05,-6.38 2.82,-9.64l31.57,-6.31c3.97,-0.81 6.83,-4.31 6.83,-8.36v-37.21c0,-4.06 -2.85,-7.55 -6.83,-8.36z" />
		<path id="Path 4" class="shp3" d="M332.8,196.8c-4.28,-0.02 -8.56,0.27 -12.8,0.85c-51.2,6.41 -89.62,49.94 -89.62,101.55c0,51.6 38.42,95.13 89.62,101.55c4.24,0.59 8.52,0.87 12.8,0.85c56.55,0 102.4,-45.85 102.4,-102.4c0,-56.55 -45.85,-102.4 -102.4,-102.4z" />
		<path id="Path 5" class="shp4" d="M230.4,299.2c0,56.08 40.12,101.55 89.6,101.55c49.48,0 89.6,-45.46 89.6,-101.55c0,-56.08 -40.12,-101.55 -89.6,-101.55c-49.48,0 -89.6,45.46 -89.6,101.55z" />
		<path id="Path 6" class="shp1" d="M189.44,128.87c0.26,-2.9 0.51,-5.89 0.51,-8.88c0,-2.99 -0.26,-5.89 -0.51,-8.79l26.28,-29.61c1.21,-1.37 1.42,-3.36 0.51,-4.95l-13.99,-24.23c-0.94,-1.56 -2.74,-2.37 -4.52,-2.05l-19.88,4.1l-18.94,3.84l0.08,0.17c-1.96,-1.45 -4.01,-2.9 -6.14,-4.18c-2.43,-1.47 -4.94,-2.81 -7.51,-4.01c-1.04,-0.49 -1.84,-1.38 -2.22,-2.48l-11.95,-35.84c-0.58,-1.72 -2.19,-2.89 -4.01,-2.9h-27.99c-1.82,0.01 -3.43,1.18 -4.01,2.9l-11.95,35.84c-0.38,1.09 -1.18,1.98 -2.22,2.48c-4.82,2.25 -9.4,4.99 -13.65,8.19l0.09,-0.17l-19.54,-4.01l-19.29,-3.93c-1.79,-0.32 -3.59,0.49 -4.52,2.05l-1.2,2.05l-12.8,22.19c-0.91,1.59 -0.7,3.58 0.51,4.95l26.28,29.53c-0.26,2.9 -0.51,5.89 -0.51,8.87c0,2.99 0.26,5.89 0.51,8.79l-26.28,29.61c-1.21,1.37 -1.42,3.36 -0.51,4.95l12.8,22.19l1.2,2.05c0.94,1.56 2.74,2.37 4.52,2.05l19.29,-3.92l19.54,-4.01l-0.09,-0.17c4.25,3.2 8.83,5.95 13.65,8.19c1.04,0.49 1.84,1.38 2.22,2.48l11.95,35.84c0.58,1.72 2.19,2.89 4.01,2.9h27.99c1.82,-0.01 3.43,-1.18 4.01,-2.9l11.95,-35.84c0.38,-1.09 1.17,-1.98 2.22,-2.48c2.57,-1.2 5.08,-2.54 7.51,-4.01c2.13,-1.28 4.18,-2.73 6.14,-4.18l-0.08,0.17l18.94,3.84l19.88,4.1c1.79,0.32 3.59,-0.49 4.52,-2.05l13.99,-24.24c0.91,-1.59 0.7,-3.58 -0.51,-4.95z" />
		<path id="Path 7" class="shp2" d="M163.84,128.87c0.26,-2.9 0.51,-5.89 0.51,-8.88c0,-2.99 -0.26,-5.89 -0.51,-8.79l26.28,-29.61c1.21,-1.37 1.42,-3.36 0.51,-4.95l-12.8,-22.19l-1.19,-2.05c-0.94,-1.56 -2.74,-2.37 -4.52,-2.05l-19.29,3.93l-19.54,4.01l0.08,0.17c-4.25,-3.2 -8.83,-5.95 -13.65,-8.19c-1.04,-0.49 -1.84,-1.38 -2.22,-2.48l-11.95,-35.84c-0.58,-1.72 -2.19,-2.89 -4.01,-2.9h-2.39c-1.82,0.01 -3.43,1.18 -4.01,2.9l-11.95,35.84c-0.38,1.09 -1.18,1.98 -2.22,2.48c-4.83,2.25 -9.4,4.99 -13.65,8.19l0.08,-0.17l-19.54,-4.01c-2.13,1.28 -4.18,2.73 -6.14,4.18l0.09,-0.17l-18.94,-3.84l-12.8,22.19c-0.91,1.59 -0.7,3.58 0.51,4.95l26.28,29.53c-0.26,2.9 -0.51,5.89 -0.51,8.87c0,2.99 0.26,5.89 0.51,8.79l-26.28,29.61c-1.21,1.37 -1.42,3.36 -0.51,4.95l12.8,22.19l18.94,-3.84l-0.09,-0.17c1.96,1.45 4.01,2.9 6.14,4.18l19.54,-4.01l-0.08,-0.17c4.25,3.2 8.83,5.95 13.65,8.19c1.04,0.49 1.84,1.38 2.22,2.48l11.95,35.84c0.58,1.72 2.19,2.89 4.01,2.9h2.39c1.82,-0.01 3.43,-1.18 4.01,-2.9l11.95,-35.84c0.38,-1.09 1.18,-1.98 2.22,-2.48c4.83,-2.25 9.4,-4.99 13.65,-8.19l-0.08,0.17l19.54,4.01l19.29,3.92c1.79,0.32 3.59,-0.49 4.52,-2.05l1.19,-2.05l12.8,-22.19c0.91,-1.59 0.7,-3.58 -0.51,-4.95z" />
		<path id="Path 8" class="shp0" d="M503.04,365.34c1.25,-6.47 -0.3,-13.18 -4.27,-18.44v-0.08c-5.93,-7.84 -16.1,-11.17 -25.51,-8.36c-0.17,0.09 -0.43,0.09 -0.6,0.17l-157.95,52.65c-3.49,1.19 -7.15,1.79 -10.84,1.79h-20.05c3.1,-3.08 5.49,-6.81 7,-10.92c3.39,-8.81 2.54,-18.69 -2.3,-26.79l-0.77,-1.28c-7.7,-12.88 -21.6,-20.76 -36.61,-20.74h-44.63c-12.97,-0.02 -25.73,-3.28 -37.12,-9.47c-4.06,-2.18 -7.92,-4.72 -11.52,-7.6c-10.72,-8.58 -23.53,-14.15 -37.12,-16.13c-3.8,-0.65 -7.66,-0.97 -11.52,-0.94h-23.89v179.2c-0.01,2.83 -0.71,5.61 -2.05,8.11l2.05,0.43h215.89c10.96,0 21.7,-3.01 31.06,-8.7l159.92,-97.37c5.65,-3.41 9.58,-9.05 10.83,-15.52z" />
		<path id="Path 9" class="shp3" d="M477.45,356.87c1.27,-6.45 -0.25,-13.14 -4.19,-18.41c-0.17,0.09 -0.43,0.09 -0.6,0.17l-157.95,52.65c-3.49,1.19 -7.15,1.79 -10.84,1.79h-20.05c3.1,-3.08 5.49,-6.81 7,-10.92l-1.71,0.6c-3.49,1.19 -7.15,1.79 -10.84,1.79h-20.05c10.04,-10.01 11.97,-25.56 4.69,-37.72l-0.77,-1.28c-2.85,-4.73 -6.59,-8.88 -11.01,-12.2c-7.38,-5.55 -16.37,-8.54 -25.6,-8.53h-44.63c-3.86,0.03 -7.71,-0.29 -11.52,-0.94c-13.59,-1.98 -26.4,-7.55 -37.12,-16.13c-3.6,-2.87 -7.46,-5.41 -11.52,-7.59c-11.39,-6.2 -24.15,-9.45 -37.12,-9.47h-23.89v179.2c-0.01,2.83 -0.71,5.61 -2.05,8.11l2.05,0.43h215.89c10.96,0 21.7,-3.01 31.06,-8.7l159.91,-97.37c5.64,-3.39 9.57,-9.01 10.84,-15.46z" />
		<path id="Path 10" class="shp1" d="M332.8,265.07c-4.4,-0.03 -8.75,0.84 -12.8,2.56c-12.89,5.18 -21.33,17.68 -21.33,31.57c0,13.89 8.45,26.39 21.33,31.57c4.05,1.72 8.4,2.59 12.8,2.56c18.85,0 34.13,-15.28 34.13,-34.13c0,-18.85 -15.28,-34.13 -34.13,-34.13z" />
		<path id="Path 11" class="shp2" d="M298.67,299.2c0,17.44 9.55,31.57 21.33,31.57c11.78,0 21.33,-14.13 21.33,-31.57c0,-17.44 -9.55,-31.57 -21.33,-31.57c-11.78,0 -21.33,14.14 -21.33,31.57z" />
		<path id="Path 12" class="shp0" d="M113.16,77.33c-4.33,0.01 -8.64,0.65 -12.8,1.88c-17.78,5.63 -29.87,22.14 -29.87,40.79c0,18.65 12.08,35.16 29.87,40.79c4.15,1.23 8.47,1.86 12.8,1.88c23.56,0 42.67,-19.1 42.67,-42.67c0,-23.56 -19.1,-42.67 -42.67,-42.67z" />
		<path id="Path 13" class="shp3" d="M70.49,120c0,22.53 13.37,40.79 29.87,40.79c16.49,0 29.87,-18.26 29.87,-40.79c0,-22.53 -13.37,-40.79 -29.87,-40.79c-16.5,0 -29.87,18.26 -29.87,40.79z" />
		<path id="Path 14" class="shp0" d="M68.27,273.6h-42.67c-14.12,0.04 -25.56,11.48 -25.6,25.6v179.2c0.04,14.12 11.48,25.56 25.6,25.6h42.67c9.42,-0.01 18.07,-5.19 22.53,-13.48c2.03,-3.71 3.09,-7.88 3.07,-12.12v-179.2c-0.04,-14.12 -11.48,-25.56 -25.6,-25.6z" />
		<path id="Path 15" class="shp3" d="M34.14,273.6h-8.53c-14.12,0.04 -25.56,11.48 -25.6,25.6v179.2c0.04,14.12 11.48,25.56 25.6,25.6h8.53c9.42,-0.01 18.07,-5.19 22.53,-13.48c2.03,-3.71 3.09,-7.88 3.07,-12.12v-179.2c-0.04,-14.12 -11.48,-25.56 -25.6,-25.6z" />
		<path id="Path 16" class="shp4" d="M10.07,163.35l12.8,22.19l1.2,2.05c0.93,1.56 2.74,2.37 4.52,2.05l19.29,-3.93l0.62,-0.13l-12.8,-22.19c-0.91,-1.59 -0.7,-3.58 0.51,-4.95l26.28,-29.61c-0.26,-2.9 -0.51,-5.8 -0.51,-8.79c0,-2.99 0.26,-5.97 0.51,-8.87l-26.31,-29.57c-1.21,-1.37 -1.42,-3.36 -0.51,-4.95l12.8,-22.19l-0.6,-0.17l-19.29,-3.93c-1.79,-0.32 -3.59,0.49 -4.52,2.05l-1.2,2.05l-12.8,22.19c-0.91,1.59 -0.7,3.58 0.51,4.95l26.28,29.53c-0.26,2.9 -0.51,5.89 -0.51,8.88c0,2.99 0.26,5.89 0.51,8.79l-26.28,29.61c-1.21,1.37 -1.42,3.36 -0.51,4.95zM93.02,58.3l-0.08,0.17c4.25,-3.2 8.83,-5.95 13.65,-8.19c1.04,-0.49 1.84,-1.38 2.22,-2.48l11.95,-35.84c0.58,-1.72 2.19,-2.89 4.01,-2.9h-25.6c-1.82,0.01 -3.43,1.18 -4.01,2.9l-11.95,35.84c-0.38,1.09 -1.17,1.98 -2.22,2.48c-2.57,1.18 -5.06,2.53 -7.46,4.02zM176.64,187.58l0.78,-1.34c-1.95,1.15 -3.98,2.25 -6.05,3.23l0.75,0.15c1.79,0.32 3.59,-0.49 4.52,-2.05zM177.42,53.76l-0.78,-1.34c-0.94,-1.56 -2.74,-2.37 -4.52,-2.05l-0.75,0.15c2.07,0.98 4.1,2.06 6.05,3.23zM85.34,290.67v0.11c2.39,0.05 4.77,0.18 7.13,0.45c-0.06,-0.19 -0.1,-0.38 -0.17,-0.56zM80.99,189.72c1.04,0.49 1.84,1.38 2.22,2.48l11.95,35.84c0.58,1.72 2.19,2.89 4.01,2.9h25.6c-1.82,-0.01 -3.43,-1.18 -4.01,-2.9l-11.95,-35.84c-0.37,-1.09 -1.17,-1.98 -2.22,-2.48c-4.82,-2.25 -9.4,-4.99 -13.65,-8.19l0.08,0.17l-19.49,4.01c2.4,1.49 4.89,2.83 7.46,4.01zM110.94,478.4c-0.01,2.83 -0.71,5.61 -2.05,8.11l2.05,0.43h6.83c1.05,-2.72 1.63,-5.61 1.71,-8.53zM34.14,504h25.6c-14.12,-0.04 -25.56,-11.48 -25.6,-25.6v-179.2c0.04,-14.12 11.48,-25.56 25.6,-25.6h-25.6c-14.12,0.04 -25.56,11.48 -25.6,25.6v179.2c0.04,14.12 11.48,25.56 25.6,25.6zM0,299.2v110.93v68.27h17.07v-68.27v-110.93z" />
		<path id="Path 17" class="shp5" d="M0,333.33l0,-34.03c0,-0.03 0,-0.07 0,-0.1c0,-14.14 11.46,-25.6 25.6,-25.6h42.67c11.15,0 20.63,7.12 24.14,17.07h16.82c15.7,0.02 31.02,4.3 44.37,12.28v-22.35c0,-8.14 5.74,-15.14 13.71,-16.74l26.35,-5.26c2.93,-10.08 6.97,-19.81 12.03,-29.01l-14.91,-22.4c-2.18,-3.29 -3.09,-7.11 -2.79,-10.83l-27.31,-5.57c-3.22,2.18 -6.59,4.15 -10.08,5.87l-12.3,36.98c-1.16,3.49 -4.42,5.84 -8.1,5.84h-34.13c-3.68,0 -6.94,-2.36 -8.1,-5.85l-12.3,-36.97c-3.49,-1.73 -6.86,-3.69 -10.09,-5.87l-38.3,7.82c-3.6,0.75 -7.27,-0.9 -9.1,-4.1l-17.07,-29.52c-1.84,-3.18 -1.44,-7.19 1.01,-9.94l25.89,-29.17c-0.14,-1.94 -0.22,-3.9 -0.22,-5.87c0,-1.97 0.08,-3.93 0.22,-5.87l-25.89,-29.17c-2.44,-2.75 -2.85,-6.76 -1.01,-9.94l17.07,-29.52c1.82,-3.19 5.5,-4.85 9.1,-4.1l38.3,7.82c3.23,-2.18 6.6,-4.15 10.09,-5.87l12.3,-36.97c1.16,-3.49 4.42,-5.85 8.1,-5.85h34.13c3.67,0 6.94,2.35 8.1,5.84l12.3,36.98c3.49,1.72 6.86,3.69 10.08,5.88l38.3,-7.82c3.6,-0.74 7.27,0.91 9.11,4.1l17.07,29.52c1.84,3.18 1.44,7.19 -1.01,9.94l-25.9,29.17c0.15,1.95 0.23,3.9 0.23,5.87c0,1.97 -0.09,3.93 -0.23,5.86l25.9,29.18c0.19,0.21 0.36,0.43 0.53,0.65c5.11,-2.17 11.13,-1.76 15.99,1.45l22.48,14.91c9.2,-5.06 18.93,-9.09 29.01,-12.02l5.27,-26.38c1.62,-7.96 8.63,-13.67 16.75,-13.65h37.21c8.14,0 15.15,5.74 16.74,13.72l5.26,26.34c10.08,2.93 19.81,6.96 29.01,12.02l22.4,-14.91c6.78,-4.49 15.78,-3.57 21.51,2.18l26.28,26.28c5.76,5.7 6.69,14.68 2.22,21.44l-14.89,22.47c5.07,9.2 9.1,18.93 12.03,29.01l26.38,5.27c7.95,1.63 13.66,8.63 13.65,16.75v37.21c0,8.14 -5.74,15.14 -13.71,16.74l-0.09,0.02c2.78,1.92 5.28,4.3 7.38,7.1c0.18,0.23 0.34,0.47 0.5,0.73c5.11,7.08 7.04,15.96 5.34,24.52c-1.71,8.85 -7.08,16.57 -14.78,21.25l-131.72,80.19c-0.25,0.17 -0.5,0.32 -0.77,0.47l-27.43,16.7c-10.69,6.52 -22.97,9.96 -35.49,9.96l-213.88,0c-4.69,5.24 -11.5,8.53 -19.08,8.53h-42.67c-14.14,0 -25.6,-11.46 -25.6,-25.6c0,-0.03 0,-0.06 0,-0.08v-76.72c0,-4.71 3.82,-8.53 8.53,-8.53c4.71,0 8.53,3.82 8.53,8.53v76.8h0c0,4.71 3.82,8.53 8.53,8.53h42.67c4.71,0 8.53,-3.82 8.53,-8.53l0,-179.13c0,-0.02 0,-0.05 0,-0.07c0,-0.02 0,-0.03 0,-0.05c-0.03,-4.69 -3.84,-8.48 -8.53,-8.48h-42.67c-4.71,0 -8.53,3.82 -8.53,8.53c0,0 0,0 0,0h0v34.13c0,4.71 -3.82,8.53 -8.53,8.53c-4.71,0 -8.53,-3.82 -8.53,-8.53zM206.51,324.8h18.35c-2,-8.37 -3.01,-16.96 -2.99,-25.6c0,-61.27 49.67,-110.93 110.93,-110.93c61.27,0 110.93,49.67 110.93,110.93c0.06,14.84 -2.9,29.45 -8.6,42.98l20.33,-6.78c0.48,-1.61 0.91,-3.24 1.3,-4.88c0.77,-3.25 3.36,-5.76 6.64,-6.41l31.53,-6.31v-37.21l-31.57,-6.31c-3.25,-0.65 -5.82,-3.12 -6.61,-6.33c-3.01,-12.1 -7.81,-23.68 -14.23,-34.35c-1.68,-2.83 -1.6,-6.37 0.23,-9.11l17.83,-26.79l-26.33,-26.27l-26.79,17.79c-2.74,1.82 -6.28,1.91 -9.11,0.22c-10.68,-6.42 -22.26,-11.22 -34.35,-14.23c-3.21,-0.79 -5.68,-3.37 -6.32,-6.61l-6.28,-31.54h-37.21l-6.31,31.57c-0.65,3.24 -3.11,5.82 -6.32,6.61c-12.1,3.01 -23.67,7.8 -34.36,14.23c-2.82,1.69 -6.37,1.6 -9.1,-0.22l-26.79,-17.83l-23.51,23.55c-0.63,0.94 -1.43,1.73 -2.34,2.34l-0.43,0.43l17.79,26.79c1.83,2.74 1.91,6.28 0.23,9.11c-6.43,10.68 -11.23,22.26 -14.23,34.35c-0.79,3.21 -3.37,5.68 -6.61,6.33l-31.54,6.27v34.2c10.77,6.5 23.15,9.99 35.84,10zM251.15,324.8c17.97,0.06 34.61,9.48 43.91,24.86l0.77,1.27c6.24,10.4 7.19,22.74 3.29,33.6h4.8c2.76,0 5.49,-0.44 8.11,-1.31l99.76,-33.25c9.79,-15.09 14.98,-32.73 14.9,-50.77c0,-51.84 -42.03,-93.87 -93.87,-93.87c-51.84,0 -93.87,42.03 -93.87,93.87c-0.02,8.67 1.18,17.29 3.57,25.6zM93.87,478.4c0,0 0,0 0,0h207.36c9.39,0 18.6,-2.58 26.62,-7.47l27.76,-16.9c0.05,-0.03 0.09,-0.06 0.14,-0.08l132.06,-80.39c3.58,-2.18 6.07,-5.77 6.86,-9.88c0.79,-4.11 -0.19,-8.37 -2.71,-11.71c-0.17,-0.24 -0.34,-0.48 -0.49,-0.73c-3.91,-4.7 -10.33,-6.49 -16.11,-4.5l-157.92,52.66c-4.37,1.45 -8.94,2.19 -13.54,2.19h-75.84c-13.48,-0.01 -26.66,3.98 -37.87,11.47l-6.25,4.17c-3.92,2.61 -9.22,1.56 -11.84,-2.37c-2.62,-3.92 -1.56,-9.22 2.36,-11.84l6.26,-4.16c14.01,-9.36 30.48,-14.35 47.33,-14.34l51.93,0c5.33,-7.18 5.91,-16.99 1.2,-24.82l-0.77,-1.27c-6.19,-10.26 -17.28,-16.54 -29.26,-16.57h-13.02c-1.08,0.23 -2.22,0.25 -3.35,0.04c-0.07,-0.01 -0.13,-0.03 -0.2,-0.04h-28.08c-19.62,-0.03 -38.65,-6.7 -53.98,-18.94c-12.3,-9.82 -27.56,-15.18 -43.3,-15.2h-15.36zM14.6,373.53c-1.64,1.56 -3.8,2.44 -6.06,2.47c-1.11,-0.01 -2.22,-0.24 -3.24,-0.68c-1.04,-0.41 -2,-1.02 -2.82,-1.79c-2.38,-2.48 -3.08,-6.12 -1.79,-9.3c0.41,-1.04 1.02,-2 1.79,-2.82c1.64,-1.56 3.8,-2.44 6.06,-2.47c0.57,0.02 1.14,0.07 1.71,0.17c0.54,0.09 1.05,0.27 1.54,0.51c0.54,0.19 1.06,0.45 1.54,0.77l1.28,1.02c1.56,1.64 2.44,3.8 2.47,6.06c-0.03,2.26 -0.92,4.42 -2.47,6.06zM332.8,341.87c-23.56,0 -42.67,-19.1 -42.67,-42.67c0,-23.56 19.1,-42.67 42.67,-42.67c23.56,0 42.67,19.1 42.67,42.67c-0.03,23.55 -19.11,42.64 -42.67,42.67zM332.8,273.6c-14.14,0 -25.6,11.46 -25.6,25.6c0,14.14 11.46,25.6 25.6,25.6c14.14,0 25.6,-11.46 25.6,-25.6c0,-14.14 -11.46,-25.6 -25.6,-25.6zM102.24,222.4h21.83l11.52,-34.64c0.77,-2.29 2.47,-4.16 4.69,-5.12c4.84,-2.12 9.42,-4.79 13.65,-7.96c2.46,-1.83 5.72,-2.2 8.53,-0.96l33.91,6.92l10.91,-18.88l-23.65,-26.64c-2.02,-1.83 -3.04,-4.52 -2.73,-7.24c0.66,-5.24 0.66,-10.53 0,-15.77c-0.32,-2.8 0.76,-5.57 2.89,-7.42l23.48,-26.45l-10.91,-18.89l-34.36,7.01c-2.71,1.11 -5.8,0.71 -8.14,-1.04c-4.21,-3.17 -8.78,-5.84 -13.61,-7.96c-2.22,-0.96 -3.93,-2.83 -4.69,-5.12l-11.52,-34.65h-21.83l-11.51,34.64c-0.77,2.3 -2.48,4.16 -4.7,5.12c-4.83,2.11 -9.4,4.78 -13.61,7.95c-2.48,1.85 -5.77,2.22 -8.59,0.96l-33.9,-6.9l-10.91,18.87l23.66,26.67c2.01,1.83 3.01,4.52 2.7,7.22c-0.65,5.24 -0.65,10.53 0,15.77c0.32,2.79 -0.75,5.56 -2.87,7.41l-23.5,26.45l10.91,18.88l34.36,-7.01c2.71,-1.09 5.79,-0.69 8.13,1.05c4.21,3.17 8.78,5.84 13.61,7.95c2.22,0.96 3.93,2.82 4.7,5.12zM113.16,171.2c-28.28,0 -51.2,-22.92 -51.2,-51.2c0,-28.28 22.92,-51.2 51.2,-51.2c28.28,0 51.2,22.92 51.2,51.2c-0.03,28.26 -22.93,51.17 -51.2,51.2zM113.16,85.87c-18.85,0 -34.13,15.28 -34.13,34.13c0,18.85 15.28,34.13 34.13,34.13c18.85,0 34.13,-15.28 34.13,-34.13c0,-18.85 -15.28,-34.13 -34.13,-34.13zM113.16,128.53c-1.12,0.03 -2.23,-0.2 -3.24,-0.68c-1.03,-0.43 -1.99,-1.04 -2.82,-1.79l-1.02,-1.28c-0.33,-0.47 -0.58,-0.99 -0.77,-1.54c-0.25,-0.48 -0.42,-1 -0.51,-1.54c-0.23,-1.13 -0.23,-2.29 0,-3.41c0.09,-0.54 0.27,-1.05 0.51,-1.54c0.18,-0.55 0.44,-1.06 0.77,-1.54l1.02,-1.28c3.4,-3.21 8.72,-3.21 12.12,0c3.3,3.36 3.3,8.75 0,12.12c-0.42,0.39 -0.88,0.73 -1.37,1.02c-0.43,0.34 -0.93,0.6 -1.45,0.77c-0.51,0.26 -1.06,0.43 -1.62,0.51c-0.54,0.1 -1.08,0.15 -1.62,0.17z" />
	</g>
</svg>