<svg xmlns="http://www.w3.org/2000/svg" viewBox="0 0 513 512" width="513" height="512">
	<defs>
		<clipPath clipPathUnits="userSpaceOnUse" id="cp1">
			<path d="M1 0L513 0L513 512L1 512Z" />
		</clipPath>
	</defs>
	<style>
		tspan { white-space:pre }
		.shp0 { fill: #cad9fc } 
		.shp1 { fill: #e8edfc } 
		.shp2 { fill: #a4c2f7 } 
		.shp3 { fill: #955ba5 } 
		.shp4 { fill: #ffffff } 
		.shp5 { fill: #124ef7 } 
		.shp6 { fill: #428dff } 
	</style>
	<g id="Page 1" clip-path="url(#cp1)">
		<path id="Path 1" class="shp0" d="M504.47,8.53v409.6l-85.33,85.33h-409.6v-409.6l85.33,-85.33zM210.58,424.7c0.38,0.36 0.7,0.78 0.95,1.23c-0.03,-0.09 -0.05,-0.19 -0.1,-0.3c-0.26,-0.33 -0.55,-0.65 -0.85,-0.94zM211.6,426.07c-0.02,-0.04 -0.05,-0.09 -0.07,-0.13c0.02,0.05 0.04,0.1 0.07,0.13z" />
		<path id="Path 2" class="shp1" d="M481.68,8.53v401.07l-85.33,85.33h-386.82v-401.07l85.33,-85.33zM168.17,412.24c-0.24,0.25 -0.47,0.51 -0.69,0.77c-0.07,0.14 -0.15,0.26 -0.26,0.37c0.12,-0.12 0.24,-0.24 0.34,-0.37c0.18,-0.27 0.38,-0.53 0.6,-0.77zM166.97,413.61c0.09,-0.07 0.18,-0.14 0.26,-0.22c-0.08,0.08 -0.17,0.15 -0.26,0.22zM168.51,411.9c-0.12,0.11 -0.23,0.22 -0.34,0.34c0.11,-0.11 0.22,-0.23 0.34,-0.34z" />
		<path id="Path 3" class="shp2" d="M136.24,380.03c6.48,-8.26 16.39,-13.09 26.89,-13.09c10.75,0 20.86,5.13 27.2,13.81c1.37,1.98 3.6,3.2 6.02,3.26h0.91c9.43,0 17.07,-7.64 17.07,-17.07v-68.27h-68.27c-9.43,0 -17.07,-7.64 -17.07,-17.07v-0.85c0.03,-2.45 1.24,-4.72 3.26,-6.11c11.8,-8.79 16.65,-24.15 12.02,-38.12c-4.63,-13.97 -17.69,-23.4 -32.4,-23.4c-14.71,0 -27.77,9.43 -32.4,23.4c-4.63,13.97 0.21,29.33 12.02,38.12c2.05,1.44 3.31,3.77 3.37,6.28v0.68c0,9.43 -7.64,17.07 -17.07,17.07h-68.27v204.8h204.8v-68.27c0,-9.43 -7.64,-17.07 -17.07,-17.07h-0.68c-2.52,0.08 -4.85,1.34 -6.29,3.41c-7.87,10.58 -21.15,15.66 -34.08,13.03c-12.92,-2.63 -23.17,-12.49 -26.28,-25.31c-2.5,-10.2 -0.18,-20.98 6.3,-29.24z" />
		<path id="Path 4" class="shp0" d="M393.53,503.47h25.6v-204.8h-25.6z" />
		<path id="Path 5" class="shp1" d="M350.87,298.67c-2.29,-0.03 -4.56,0.44 -6.65,1.36c-0.51,0.18 -0.99,0.4 -1.45,0.68c-0.51,0.23 -1,0.52 -1.45,0.85c-0.92,0.6 -1.75,1.31 -2.47,2.13c-3.24,3.16 -5.06,7.51 -5.04,12.03v0.68c0.09,2.52 1.35,4.86 3.41,6.31c10.57,7.88 15.63,21.15 13,34.07c-2.63,12.92 -12.48,23.15 -25.29,26.27c-6.96,1.65 -14.25,1.15 -20.91,-1.45c-12.92,-5.25 -21.39,-17.79 -21.42,-31.74c0,-10.76 5.14,-20.87 13.82,-27.22c1.97,-1.36 3.18,-3.58 3.24,-5.97v-0.94c0.01,-4.51 -1.77,-8.84 -4.95,-12.03c-0.77,-0.8 -1.63,-1.52 -2.56,-2.13c-0.51,-0.36 -1.05,-0.68 -1.62,-0.94c-0.39,-0.27 -0.82,-0.47 -1.28,-0.6c-2.09,-0.93 -4.36,-1.4 -6.66,-1.36h-68.27v68.27c0,9.42 -7.64,17.07 -17.07,17.07h-0.94c-2.4,-0.06 -4.62,-1.27 -5.97,-3.24c-1.26,-1.7 -2.69,-3.27 -4.27,-4.69c-6.19,-5.88 -14.41,-9.15 -22.95,-9.13c-10.51,-0.04 -20.46,4.77 -26.95,13.05c-6.49,8.27 -8.79,19.08 -6.25,29.28c2.57,10.62 10.1,19.36 20.22,23.47c1.43,0.61 2.92,1.1 4.44,1.45c11.18,2.82 23.02,-0.2 31.49,-8.02c1.55,-1.39 2.95,-2.93 4.18,-4.61c1.45,-2.06 3.79,-3.33 6.32,-3.41h0.68c4.53,-0.02 8.87,1.79 12.03,5.03c0.82,0.73 1.54,1.56 2.13,2.48c1.91,2.82 2.92,6.15 2.9,9.56v68.27h179.2v-204.8z" />
		<path id="Path 6" class="shp0" d="M344.21,300.03c-0.51,0.17 -0.99,0.4 -1.45,0.68c-0.51,0.23 -1,0.52 -1.45,0.85c-0.92,0.6 -1.75,1.31 -2.47,2.13c-3.24,3.16 -5.06,7.5 -5.04,12.03v0.68c0.09,2.52 1.35,4.86 3.41,6.31l13.65,-24.06c-2.29,-0.03 -4.56,0.44 -6.65,1.37z" />
		<path id="Path 7" class="shp3" d="M238.31,216.58c-1.36,-1.97 -3.58,-3.18 -5.97,-3.24h-0.94c-2.29,-0.03 -4.56,0.44 -6.66,1.37c-0.5,0.19 -0.98,0.42 -1.45,0.68c-0.51,0.23 -1,0.52 -1.45,0.85c-0.92,0.6 -1.75,1.31 -2.48,2.13c-0.91,0.87 -1.71,1.84 -2.39,2.9c6.19,5.88 14.41,9.15 22.95,9.13c4.42,0.01 8.79,-0.83 12.89,-2.48c-5.79,-2.37 -10.81,-6.3 -14.51,-11.35z" />
		<path id="Path 8" class="shp0" d="M393.53,298.67h25.6v-204.8h-25.6z" />
		<path id="Path 9" class="shp1" d="M214.33,93.87v68.27c-0.02,3.21 0.9,6.35 2.64,9.05c3.11,4.98 8.55,8 14.42,8.02h0.68c2.53,-0.07 4.87,-1.33 6.32,-3.41c3.72,-4.98 8.74,-8.85 14.51,-11.18h0.08c12.79,-5.15 27.43,-2.1 37.1,7.73c9.67,9.83 12.47,24.52 7.1,37.23c-5.37,12.7 -17.86,20.92 -31.65,20.84c-4.36,0.02 -8.68,-0.82 -12.71,-2.47c-4.01,1.62 -16.9,-14.59 -21.42,-14.59c-8.88,0 -8.36,13.65 -14.42,7.94c-1.74,2.73 -2.66,5.9 -2.64,9.13v68.27h68.27c2.29,-0.04 4.56,0.43 6.66,1.37c0.46,0.13 0.89,0.33 1.28,0.6c0.57,0.26 1.11,0.58 1.62,0.94c0.93,0.62 1.79,1.33 2.56,2.13c3.18,3.19 4.96,7.52 4.95,12.03v0.94c-0.06,2.4 -1.27,4.61 -3.24,5.97c-8.69,6.35 -13.82,16.46 -13.82,27.22c0.03,13.95 8.49,26.5 21.42,31.74c6.66,2.6 13.95,3.1 20.91,1.45c12.8,-3.12 22.66,-13.35 25.29,-26.27c2.63,-12.91 -2.43,-26.19 -13,-34.06c-2.06,-1.45 -3.33,-3.79 -3.41,-6.32v-0.68c-0.02,-4.53 1.79,-8.87 5.04,-12.03c0.72,-0.82 1.56,-1.54 2.47,-2.13c0.45,-0.33 0.94,-0.62 1.45,-0.85c0.46,-0.28 0.94,-0.51 1.45,-0.68c2.09,-0.93 4.36,-1.39 6.65,-1.37h42.67v-204.8zM299.03,203.64c3.47,-15.69 -4.47,-31.68 -19.08,-38.39c-14.61,-6.71 -31.91,-2.32 -41.56,10.54c-1.44,2.08 -3.79,3.35 -6.32,3.41h-0.68c-9.41,-0.03 -17.04,-7.65 -17.07,-17.07v-68.27h-204.8v204.8h68.27c3.41,0.02 6.74,-0.99 9.56,-2.9c0.88,-0.64 1.71,-1.35 2.48,-2.13c3.24,-3.16 5.06,-7.5 5.03,-12.03v-0.68c-0.07,-2.53 -1.33,-4.87 -3.41,-6.31c-12.86,-9.64 -17.25,-26.95 -10.54,-41.56c6.71,-14.6 22.7,-22.55 38.39,-19.08c15.69,3.47 26.84,17.42 26.76,33.5c0,10.76 -5.14,20.87 -13.82,27.22c-1.97,1.36 -3.18,3.58 -3.24,5.97v0.94c-0.02,4.53 1.79,8.87 5.03,12.03c0.76,0.78 1.59,1.49 2.48,2.13c2.82,1.91 6.15,2.92 9.56,2.9h68.27v-68.27c-0.02,-4.53 1.79,-8.87 5.04,-12.03c0.72,-0.82 1.56,-1.54 2.48,-2.13c2.82,-1.91 6.15,-2.92 9.56,-2.9h0.94c2.39,0.06 4.61,1.27 5.97,3.24c6.35,8.69 16.46,13.82 27.22,13.82c16.07,0.08 30.02,-11.06 33.5,-26.76z" />
		<path id="Path 10" class="shp2" d="M94.87,8.53l-85.33,85.33h204.8l85.33,-85.33z" />
		<path id="Path 11" class="shp1" d="M299.67,8.53l-85.33,85.33h204.8l85.33,-85.33z" />
		<path id="Path 12" class="shp0" d="M419.13,298.67v204.8l85.33,-85.33v-204.8z" />
		<path id="Path 13" class="shp1" d="M419.13,298.67v190.98l62.98,-62.98v-190.98z" />
		<path id="Path 14" class="shp4" d="M9.53,512h25.6v-8.53h-25.6zM35.13,298.67v-0.01v-204.8l85.33,-85.33h-25.6l-85.33,85.33v204.8v0.01v196.26h25.6zM1,298.67v110.93v93.87h17.07v-93.87v-110.93z" />
		<path id="Path 15" class="shp5" d="M1,332.8v-34.13c0,0 0,0 0,0v-204.8c0,-4.71 3.82,-8.53 8.53,-8.53h204.8c0.02,0 0.05,0 0.07,0h204.73c4.71,0 8.53,3.82 8.53,8.53v409.6c0,4.71 -3.82,8.53 -8.53,8.53h-204.71c-0.03,0 -0.06,0 -0.09,0h-204.8c-4.71,0 -8.53,-3.82 -8.53,-8.53c0,0 0,0 0,0h0v-102.4c0,-4.71 3.82,-8.53 8.53,-8.53c4.71,0 8.53,3.82 8.53,8.53l0,93.87h187.73v-59.73c0,-4.71 -3.82,-8.53 -8.53,-8.53c-10.97,14.83 -30.21,20.97 -47.74,15.23c-17.53,-5.74 -29.42,-22.06 -29.49,-40.51c-0.08,-18.45 11.67,-34.87 29.16,-40.75c6.77,-2.28 13.81,-2.78 20.53,-1.68c10.66,1.73 20.54,7.48 27.34,16.51h0.2c1.77,0 3.41,-0.54 4.77,-1.46c2.27,-1.53 3.76,-4.13 3.76,-7.08v-59.73h-59.73c-7.29,0 -13.87,-3.05 -18.53,-7.94c-4.38,-4.59 -7.07,-10.81 -7.07,-17.66v-0.85c0,-0.03 0,-0.05 0,-0.08c0.05,-5.13 2.57,-9.92 6.76,-12.88c6.5,-4.73 10.33,-12.29 10.31,-20.33c0,-0.11 0,-0.23 0,-0.34c-0.11,-7.77 -3.73,-15.08 -9.87,-19.86c-6.05,-4.73 -13.89,-6.49 -21.36,-4.83c-0.21,0.05 -0.42,0.1 -0.63,0.15c-0.16,0.04 -0.31,0.08 -0.47,0.12c-8.9,2.32 -15.85,9.32 -18.09,18.27c-0.07,0.29 -0.14,0.57 -0.2,0.86c-2.13,9.78 1.64,19.95 9.71,25.97c4.14,2.99 6.65,7.74 6.78,12.84c0,0.07 0,0.14 0,0.21c0,0.02 0,0.04 0,0.07c0.13,6.89 -2.5,13.55 -7.31,18.49c-4.81,4.94 -11.4,7.74 -18.29,7.79l-59.73,0v25.6c0,4.71 -3.82,8.53 -8.53,8.53c-4.71,0 -8.53,-3.82 -8.53,-8.53zM15.59,372.99c-1.64,1.56 -3.8,2.44 -6.06,2.47c-1.11,-0.01 -2.22,-0.24 -3.24,-0.68c-1.04,-0.41 -2,-1.02 -2.82,-1.79c-2.38,-2.48 -3.08,-6.12 -1.79,-9.3c0.41,-1.04 1.02,-2 1.79,-2.82c1.64,-1.56 3.8,-2.44 6.06,-2.47c0.57,0.02 1.14,0.08 1.71,0.17c0.53,0.09 1.05,0.27 1.54,0.51c0.54,0.19 1.06,0.45 1.54,0.77l1.28,1.02c1.56,1.64 2.44,3.8 2.48,6.06c-0.03,2.26 -0.92,4.42 -2.48,6.06zM222.87,494.93h187.73v-187.73h-59.73c-3.35,0 -6.26,1.94 -7.65,4.75c-0.56,1.14 -0.88,2.42 -0.88,3.78c13.23,9.89 19.56,26.54 16.25,42.72c-1.97,9.65 -7.17,18.11 -14.44,24.19c-4.92,4.12 -10.8,7.14 -17.28,8.72c-19.66,4.87 -40.03,-4.79 -48.71,-23.1c-1.43,-3.02 -2.48,-6.14 -3.16,-9.29c-3.48,-16.12 2.69,-33 16.13,-43.03v-0.21c0,-1.36 -0.32,-2.64 -0.88,-3.78c-1.39,-2.82 -4.3,-4.75 -7.65,-4.75h-59.73v59.73c0,14.14 -11.46,25.6 -25.6,25.6h-0.85c-5.13,-0.05 -9.93,-2.56 -12.89,-6.74c-4.74,-6.52 -12.32,-10.37 -20.39,-10.33c-7.89,0.01 -15.35,3.65 -20.2,9.87c-4.86,6.22 -6.58,14.33 -4.68,21.99c2.2,9.13 9.28,16.28 18.39,18.56c10.04,2.57 20.64,-1.17 26.85,-9.46c3.03,-4.23 7.9,-6.77 13.11,-6.83c6.89,-0.13 13.55,2.5 18.48,7.31c4.94,4.81 7.74,11.4 7.79,18.29zM222.87,290.13h59.73c14.14,0 25.6,11.46 25.6,25.6v0.85c-0.04,5.13 -2.55,9.93 -6.73,12.89c-6.39,4.7 -10.21,12.12 -10.33,20.05c-0.12,7.93 3.47,15.46 9.7,20.36c6.24,4.98 14.45,6.76 22.19,4.81c9.13,-2.2 16.28,-9.28 18.57,-18.39c2.54,-10.03 -1.21,-20.6 -9.5,-26.8c-4.23,-3.03 -6.77,-7.9 -6.83,-13.11c-0.13,-6.89 2.5,-13.55 7.31,-18.48c4.81,-4.94 11.4,-7.74 18.29,-7.79h59.73v-187.73h-187.73v59.73c0,2.5 1.08,4.75 2.79,6.31c1.52,1.38 3.53,2.22 5.74,2.22c0.01,-0.01 0.02,-0.03 0.03,-0.04c10.98,-14.79 30.19,-20.91 47.7,-15.17c17.52,5.74 29.4,22.06 29.48,40.5c0.07,18.44 -11.67,34.86 -29.15,40.74c-6.15,2.07 -12.52,2.67 -18.68,1.94c-9.43,-1.09 -18.21,-5.31 -24.94,-11.94c-1.51,-1.49 -2.93,-3.1 -4.24,-4.83h-0.21c-1.36,0 -2.65,0.32 -3.79,0.89c-1.06,0.53 -2,1.27 -2.75,2.17c-1.24,1.48 -1.99,3.39 -1.99,5.47zM137.53,281.4v0.2c0,4.71 3.82,8.53 8.53,8.53h59.73v-59.73c0,-14.14 11.46,-25.6 25.6,-25.6h0.9c5.13,0.05 9.93,2.56 12.89,6.74c4.73,6.51 12.29,10.35 20.33,10.32c7.9,0 15.35,-3.64 20.21,-9.86c4.86,-6.22 6.58,-14.34 4.67,-22c-2.2,-9.13 -9.28,-16.28 -18.39,-18.56c-10.04,-2.57 -20.63,1.17 -26.84,9.46c-3.03,4.23 -7.9,6.77 -13.11,6.83c-6.89,0.13 -13.55,-2.5 -18.49,-7.31c-4.94,-4.81 -7.74,-11.4 -7.79,-18.29v-59.73h-187.73v187.73h59.73c4.71,0 8.53,-3.82 8.53,-8.53c-13.77,-10.35 -20,-27.94 -15.81,-44.65c3.83,-15.35 15.89,-27.3 31.28,-30.98c19.66,-4.86 40.02,4.81 48.69,23.11c8.67,18.3 3.25,40.18 -12.96,52.32zM504.47,426.67c-4.71,0 -8.53,-3.82 -8.53,-8.53v-401.07h-401.07c-4.71,0 -8.53,-3.82 -8.53,-8.53c0,-4.71 3.82,-8.53 8.53,-8.53h409.6c4.71,0 8.53,3.82 8.53,8.53v409.6c0,4.71 -3.82,8.53 -8.53,8.53z" />
		<path id="Path 16" class="shp6" d="M203.17,424.13c1.54,-1.61 2.37,-3.77 2.29,-6c-0.16,-4.78 -4.09,-8.57 -8.88,-8.53c-4.71,0 -8.53,3.82 -8.53,8.53c0,4.71 3.82,8.53 8.53,8.53h0.68c2.23,-0.01 4.36,-0.93 5.9,-2.54z" />
		<path id="Path 17" class="shp5" d="M15.57,99.9l85.33,-85.33c3.23,-3.35 3.19,-8.67 -0.1,-11.96c-3.29,-3.29 -8.61,-3.34 -11.96,-0.1l-85.33,85.33c-2.44,2.44 -3.17,6.11 -1.85,9.3c1.32,3.19 4.43,5.27 7.88,5.27c2.26,0 4.43,-0.9 6.03,-2.5zM425.17,99.9l85.33,-85.33c3.23,-3.35 3.19,-8.67 -0.1,-11.96c-3.29,-3.29 -8.61,-3.34 -11.96,-0.1l-85.33,85.33c-2.44,2.44 -3.17,6.11 -1.85,9.3c1.32,3.19 4.43,5.27 7.88,5.27c2.26,0 4.43,-0.9 6.03,-2.5zM425.17,509.5l85.33,-85.33c3.23,-3.35 3.19,-8.67 -0.1,-11.96c-3.29,-3.29 -8.61,-3.34 -11.96,-0.1l-85.33,85.33c-2.44,2.44 -3.17,6.11 -1.85,9.3c1.32,3.19 4.43,5.27 7.88,5.27c2.26,0 4.43,-0.9 6.03,-2.5z" />
	</g>
</svg>