<svg xmlns="http://www.w3.org/2000/svg" viewBox="0 0 512 453" width="512" height="453">
	<defs>
		<clipPath clipPathUnits="userSpaceOnUse" id="cp1">
			<path d="M0 1L512 1L512 453L0 453Z" />
		</clipPath>
	</defs>
	<style>
		tspan { white-space:pre }
		.shp0 { fill: #a4c2f7 } 
		.shp1 { fill: #d4e1f4 } 
		.shp2 { fill: #e3e7f2 } 
		.shp3 { fill: #ffffff } 
		.shp4 { fill: #5709e7 } 
	</style>
	<g id="Page 1" clip-path="url(#cp1)">
		<path id="Path 1" class="shp0" d="M418.13,214.07v-8.53h-324.27v8.53c-18.85,0 -34.13,15.28 -34.13,34.13v34.13c0,18.85 15.28,34.13 34.13,34.13h324.27c18.85,0 34.13,-15.28 34.13,-34.13v-34.13c0,-18.85 -15.28,-34.13 -34.13,-34.13zM418.13,9.27h-324.27c-18.85,0 -34.13,15.28 -34.13,34.13v34.13c0,18.85 15.28,34.13 34.13,34.13v8.53h315.73v-8.53h8.53c18.85,0 34.13,-15.28 34.13,-34.13v-34.13c0,-18.85 -15.28,-34.13 -34.13,-34.13zM418.13,111.67h-324.27c-18.83,0.04 -34.09,15.3 -34.13,34.13v34.13c0.04,18.83 15.3,34.09 34.13,34.13h324.27c18.85,0 34.13,-15.28 34.13,-34.13v-34.13c0,-18.85 -15.28,-34.13 -34.13,-34.13z" />
		<path id="Path 2" class="shp1" d="M392.53,214.07v-8.53h-321.2c6.21,5.5 14.23,8.54 22.53,8.53c-18.85,0 -34.13,15.28 -34.13,34.13v34.13c0,18.85 15.28,34.13 34.13,34.13h298.67c18.85,0 34.13,-15.28 34.13,-34.13v-34.13c0,-18.85 -15.28,-34.13 -34.13,-34.13zM392.53,9.27h-298.67c-18.85,0 -34.13,15.28 -34.13,34.13v34.13c0,18.85 15.28,34.13 34.13,34.13c-8.3,0.01 -16.31,3.05 -22.53,8.53h312.66v-8.53h9.39c18.52,-0.46 33.29,-15.61 33.28,-34.13v-34.13c0,-18.85 -15.28,-34.13 -34.13,-34.13zM393.39,111.67h-299.52c-18.83,0.04 -34.09,15.3 -34.13,34.13v34.13c0.04,18.83 15.3,34.09 34.13,34.13h298.67c18.83,-0.04 34.09,-15.3 34.13,-34.13v-34.13c-0.06,-18.5 -14.79,-33.61 -33.28,-34.13z" />
		<path id="Path 3" class="shp2" d="M110.93,60.47c0,9.43 7.64,17.07 17.07,17.07c9.43,0 17.07,-7.64 17.07,-17.07c0,-9.43 -7.64,-17.07 -17.07,-17.07c-9.43,0 -17.07,7.64 -17.07,17.07zM110.93,265.27c0,9.43 7.64,17.07 17.07,17.07c9.43,0 17.07,-7.64 17.07,-17.07c0,-9.43 -7.64,-17.07 -17.07,-17.07c-9.43,0 -17.07,7.64 -17.07,17.07zM110.93,162.87c0,9.43 7.64,17.07 17.07,17.07c9.43,0 17.07,-7.64 17.07,-17.07c0,-9.43 -7.64,-17.07 -17.07,-17.07c-9.43,0 -17.07,7.64 -17.07,17.07z" />
		<path id="Path 4" class="shp0" d="M495.96,213.47c-24.21,-2.41 -46.56,-14.02 -62.46,-32.43c-1.67,-2.06 -4.17,-3.26 -6.83,-3.26c-2.65,0 -5.16,1.2 -6.83,3.26c-1.84,2.3 -3.83,4.47 -5.97,6.49c-15.46,14.64 -35.32,23.76 -56.49,25.94c-4.31,0.52 -7.54,4.19 -7.51,8.53v43.26c0,50.52 42.16,87.13 64,102.66c3.24,2.3 6.06,4.18 8.19,5.55c2.84,1.71 6.38,1.71 9.22,0c16.47,-10.5 72.19,-50.09 72.19,-108.2v-43.26c0.03,-4.34 -3.2,-8.01 -7.51,-8.53z" />
		<path id="Path 5" class="shp2" d="M470.36,213.47c-21.18,-2.18 -41.04,-11.3 -56.49,-25.94c-15.46,14.64 -35.32,23.76 -56.49,25.94c-4.31,0.52 -7.54,4.19 -7.51,8.53v43.26c0,50.52 42.16,87.13 64,102.66c21.85,-15.53 64,-52.14 64,-102.66v-43.26c0.03,-4.34 -3.2,-8.01 -7.51,-8.53zM238.93,359.13v51.2h34.13v-51.2c0,-4.71 -3.82,-8.53 -8.53,-8.53h-17.07c-4.71,0 -8.53,3.82 -8.53,8.53z" />
		<path id="Path 6" class="shp0" d="M187.73,418.87v17.07c0,4.71 3.82,8.53 8.53,8.53h119.47c4.71,0 8.53,-3.82 8.53,-8.53v-17.07c0,-4.71 -3.82,-8.53 -8.53,-8.53h-119.47c-4.71,0 -8.53,3.82 -8.53,8.53z" />
		<path id="Path 7" class="shp2" d="M187.73,418.87v17.07c0,4.71 3.82,8.53 8.53,8.53h93.87c4.71,0 8.53,-3.82 8.53,-8.53v-17.07c0,-4.71 -3.82,-8.53 -8.53,-8.53h-93.87c-4.71,0 -8.53,3.82 -8.53,8.53z" />
		<path id="Path 8" class="shp3" d="M221.87,410.33h-25.6c-4.71,0 -8.53,3.82 -8.53,8.53v17.07c0,4.71 3.82,8.53 8.53,8.53h25.6c-4.71,0 -8.53,-3.82 -8.53,-8.53v-17.07c0,-4.71 3.82,-8.53 8.53,-8.53zM93.87,316.47h25.6c-18.85,0 -34.13,-15.28 -34.13,-34.13v-34.13c0,-18.85 15.28,-34.13 34.13,-34.13c-18.83,-0.04 -34.09,-15.3 -34.13,-34.13v-34.13c0.04,-18.83 15.3,-34.09 34.13,-34.13c-18.85,0 -34.13,-15.28 -34.13,-34.13v-34.14c0,-18.85 15.28,-34.13 34.13,-34.13h-25.6c-18.85,0 -34.13,15.28 -34.13,34.13v34.13c0,18.85 15.28,34.13 34.13,34.13c-18.83,0.04 -34.09,15.3 -34.13,34.13v34.13c0.04,18.83 15.3,34.09 34.13,34.13c-18.85,0 -34.13,15.28 -34.13,34.13v34.13c0,18.85 15.28,34.14 34.13,34.14zM93.87,17.8h110.93h213.33v-17.07h-213.33h-110.93z" />
		<path id="Path 9" class="shp4" d="M156.08,15.32c-1.56,-1.64 -2.44,-3.8 -2.48,-6.06c0.02,-0.57 0.08,-1.14 0.17,-1.71c0.09,-0.54 0.27,-1.05 0.51,-1.54c0.19,-0.54 0.45,-1.06 0.77,-1.54l1.02,-1.28c2.44,-2.46 6.13,-3.2 9.33,-1.87c3.2,1.33 5.28,4.46 5.26,7.93c-0.01,1.12 -0.25,2.22 -0.68,3.24c-0.41,1.04 -1.02,2 -1.79,2.82c-2.48,2.38 -6.12,3.08 -9.3,1.79c-1.05,-0.41 -2,-1.02 -2.82,-1.79zM392.53,69c-4.71,0 -8.53,-3.82 -8.53,-8.53c0,-4.71 3.82,-8.53 8.53,-8.53h17.07c4.71,0 8.53,3.82 8.53,8.53c0,4.71 -3.82,8.53 -8.53,8.53zM341.33,69c-4.71,0 -8.53,-3.82 -8.53,-8.53c0,-4.71 3.82,-8.53 8.53,-8.53h17.07c4.71,0 8.53,3.82 8.53,8.53c0,4.71 -3.82,8.53 -8.53,8.53zM128,34.87c14.14,0 25.6,11.46 25.6,25.6c0,14.14 -11.46,25.6 -25.6,25.6c-14.14,0 -25.6,-11.46 -25.6,-25.6c0,-14.14 11.46,-25.6 25.6,-25.6zM128,51.93c-4.71,0 -8.53,3.82 -8.53,8.53c0,4.71 3.82,8.53 8.53,8.53c4.71,0 8.53,-3.82 8.53,-8.53c0,-4.71 -3.82,-8.53 -8.53,-8.53zM0,427.4c0,-4.71 3.82,-8.53 8.53,-8.53h170.67c0,-9.43 7.64,-17.07 17.07,-17.07h34.13v-51.2c0,-4.71 3.82,-8.53 8.53,-8.53h34.13c4.71,0 8.53,3.82 8.53,8.53v51.2h34.13c9.43,0 17.07,7.64 17.07,17.07h110.93c4.71,0 8.53,3.82 8.53,8.53c0,4.71 -3.82,8.53 -8.53,8.53h-110.93c0,9.43 -7.64,17.07 -17.07,17.07h-119.47c-9.43,0 -17.07,-7.64 -17.07,-17.07h-170.67c-4.71,0 -8.53,-3.82 -8.53,-8.53zM247.47,401.8h17.07v-42.67h-17.07zM196.27,435.93h119.47v-17.07h-119.47zM512,427.4c0,4.71 -3.82,8.53 -8.53,8.53h-25.6c-4.71,0 -8.53,-3.82 -8.53,-8.53c0,-4.71 3.82,-8.53 8.53,-8.53h25.6c4.71,0 8.53,3.82 8.53,8.53zM512,214.07v51.2c0,72.06 -76.95,116.05 -81.08,118.33l-0.11,0.06c-0.4,0.2 -0.81,0.36 -1.24,0.49c-0.24,0.11 -0.49,0.21 -0.74,0.29c-0.7,0.19 -1.43,0.29 -2.16,0.29c-0.73,0 -1.46,-0.1 -2.17,-0.29c-0.24,-0.06 -0.45,-0.19 -0.68,-0.26c-0.45,-0.14 -0.88,-0.31 -1.3,-0.52c-24.98,-14.66 -46.39,-34.69 -62.65,-58.66h-266c-23.55,-0.03 -42.64,-19.12 -42.67,-42.67v-34.13c0.04,-13.48 6.47,-26.15 17.33,-34.13c-10.86,-7.99 -17.29,-20.65 -17.33,-34.13v-34.13c0.04,-13.48 6.47,-26.15 17.33,-34.13c-10.86,-7.99 -17.29,-20.65 -17.33,-34.13v-34.13c0.03,-23.55 19.11,-42.64 42.67,-42.67h34.13c4.71,0 8.53,3.82 8.53,8.53c0,4.71 -3.82,8.53 -8.53,8.53h-34.13c-14.14,0 -25.6,11.46 -25.6,25.6v34.13c0,14.14 11.46,25.6 25.6,25.6h324.27c14.14,0 25.6,-11.46 25.6,-25.6v-34.13c0,-14.14 -11.46,-25.6 -25.6,-25.6h-221.87c-4.71,0 -8.53,-3.82 -8.53,-8.53c0,-4.71 3.82,-8.53 8.53,-8.53h221.87c23.55,0.03 42.64,19.11 42.67,42.67v34.14c-0.04,13.48 -6.47,26.15 -17.33,34.13c10.86,7.99 17.29,20.65 17.33,34.13v34.13c-0.02,4.09 -0.65,8.15 -1.86,12.06c13.52,8.07 28.8,12.72 44.53,13.54c4.71,0 8.53,3.82 8.53,8.53zM93.87,307.93h256.92c-6.13,-13.39 -9.35,-27.94 -9.45,-42.67v-42.67h-247.47c-14.14,0 -25.6,11.46 -25.6,25.6v34.13c0,14.14 11.46,25.6 25.6,25.6zM93.87,205.53h256c0.44,0 46.77,-0.68 69.49,-38.55c0.06,-0.11 0.18,-0.16 0.25,-0.27c0.73,-0.87 1.53,-1.68 2.41,-2.41c0.1,-0.07 0.16,-0.18 0.27,-0.24c0.34,-0.15 0.7,-0.28 1.06,-0.37c1.53,-0.78 3.29,-0.99 4.97,-0.61c0.57,0.14 1.11,0.34 1.64,0.59c0.39,0.1 0.76,0.24 1.13,0.4c0.11,0.07 0.17,0.18 0.27,0.25c0.45,0.34 0.87,0.72 1.25,1.13c0.42,0.38 0.81,0.81 1.15,1.26c0.07,0.11 0.19,0.16 0.25,0.27c2.76,4.62 6.03,8.91 9.75,12.8v-33.98c0,-14.14 -11.46,-25.6 -25.6,-25.6h-324.27c-14.14,0 -25.6,11.46 -25.6,25.6v34.13c0,14.14 11.46,25.6 25.6,25.6zM494.93,222c-26.52,-2.72 -50.97,-15.55 -68.27,-35.84c-17.3,20.29 -41.75,33.12 -68.27,35.84v43.26c0,53.81 53,91.31 68.27,100.94c15.24,-9.7 68.27,-47.28 68.27,-100.94zM403.57,301.9l51.2,-51.2c3.35,-3.23 8.67,-3.19 11.96,0.1c3.29,3.29 3.34,8.61 0.11,11.96l-51.2,51.2c-3.33,3.33 -8.73,3.33 -12.07,0c-3.33,-3.33 -3.33,-8.73 0,-12.07zM429.17,225.1c3.35,-3.23 8.67,-3.19 11.96,0.1c3.29,3.29 3.34,8.61 0.1,11.96l-34.13,34.13c-2.14,2.22 -5.32,3.11 -8.3,2.33c-2.98,-0.78 -5.31,-3.11 -6.09,-6.09c-0.78,-2.98 0.11,-6.16 2.33,-8.3z" />
	</g>
</svg>