<svg xmlns="http://www.w3.org/2000/svg" viewBox="0 0 512 512" width="512" height="512">
	<defs>
		<clipPath clipPathUnits="userSpaceOnUse" id="cp1">
			<path d="M0 0L512 0L512 512L0 512Z" />
		</clipPath>
		<linearGradient id="grd1" gradientUnits="userSpaceOnUse"  x1="51.575" y1="21.709" x2="434.825" y2="404.958">
			<stop offset="0" stop-color="#d3dff2"  />
			<stop offset="0.172" stop-color="#d3dff2"  />
			<stop offset="0.2" stop-color="#d3dff2"  />
			<stop offset="0.2" stop-color="#dae2f2"  />
			<stop offset="0.201" stop-color="#ebeaf2"  />
			<stop offset="0.201" stop-color="#f6eff2"  />
			<stop offset="0.202" stop-color="#fdf2f2"  />
			<stop offset="0.205" stop-color="#fff3f2"  />
			<stop offset="0.252" stop-color="#fff3f2"  />
			<stop offset="0.26" stop-color="#fff3f2"  />
			<stop offset="0.26" stop-color="#d3dff2"  />
			<stop offset="0.397" stop-color="#d3dff2"  />
			<stop offset="0.42" stop-color="#d3dff2"  />
			<stop offset="0.42" stop-color="#dae2f2"  />
			<stop offset="0.421" stop-color="#ebeaf2"  />
			<stop offset="0.421" stop-color="#f6eff2"  />
			<stop offset="0.422" stop-color="#fdf2f2"  />
			<stop offset="0.425" stop-color="#fff3f2"  />
			<stop offset="0.489" stop-color="#fff3f2"  />
			<stop offset="0.5" stop-color="#fff3f2"  />
			<stop offset="0.5" stop-color="#f8f0f2"  />
			<stop offset="0.5" stop-color="#e7e8f2"  />
			<stop offset="0.5" stop-color="#dce3f2"  />
			<stop offset="0.5" stop-color="#d5e0f2"  />
			<stop offset="0.501" stop-color="#d3dff2"  />
			<stop offset="0.706" stop-color="#d3dff2"  />
			<stop offset="0.74" stop-color="#d3dff2"  />
			<stop offset="0.741" stop-color="#fff3f2"  />
			<stop offset="0.835" stop-color="#fff3f2"  />
			<stop offset="0.85" stop-color="#fff3f2"  />
			<stop offset="0.851" stop-color="#d3dff2"  />
			<stop offset="1" stop-color="#d3dff2"  />
		</linearGradient>
	</defs>
	<style>
		tspan { white-space:pre }
		.shp0 { fill: #e8edfc } 
		.shp1 { fill: #cad9fc } 
		.shp2 { fill: #a4c2f7 } 
		.shp3 { fill: url(#grd1) } 
		.shp4 { fill: #ffffff } 
		.shp5 { fill: #124ef7 } 
		.shp6 { fill: #428dff } 
	</style>
	<g id="Page 1" clip-path="url(#cp1)">
		<path id="Path 1" class="shp0" d="M42.67,153.6c-9.68,0.3 -17.3,8.36 -17.07,18.04v297.69h460.8v-297.69c0.23,-9.68 -7.39,-17.74 -17.07,-18.04h-17.07z" />
		<path id="Path 2" class="shp1" d="M494.93,452.27h-187.73c-0.03,9.41 -7.65,17.04 -17.07,17.07h-68.27c-9.41,-0.03 -17.04,-7.65 -17.07,-17.07h-187.73c-4.71,0 -8.53,3.82 -8.53,8.53v25.6c0.03,9.41 7.65,17.04 17.07,17.07h460.8c9.41,-0.03 17.04,-7.65 17.07,-17.07v-25.6c0,-4.71 -3.82,-8.53 -8.53,-8.53z" />
		<path id="Path 3" class="shp0" d="M469.33,452.27h-162.13c-0.03,9.41 -7.65,17.04 -17.07,17.07h-76.8c-9.41,-0.03 -17.04,-7.65 -17.07,-17.07h-179.2c-4.71,0 -8.53,3.82 -8.53,8.53v25.6c0.03,9.41 7.65,17.04 17.07,17.07h435.2c9.41,-0.03 17.04,-7.65 17.07,-17.07v-25.6c0,-4.71 -3.82,-8.53 -8.53,-8.53z" />
		<path id="Path 4" class="shp2" d="M59.73,17.07v392.53c0,4.71 3.82,8.54 8.53,8.54h375.47c4.71,0 8.53,-3.82 8.53,-8.54v-392.53c0,-4.71 -3.82,-8.53 -8.53,-8.53h-375.47c-4.71,0 -8.53,3.82 -8.53,8.53z" />
		<path id="Path 5" class="shp3" d="M68.27,8.53c-4.71,0 -8.53,3.82 -8.53,8.53v392.53c0,4.71 3.82,8.53 8.53,8.53h349.87c4.71,0 8.53,-3.82 8.53,-8.53v-392.53c0,-4.71 -3.82,-8.53 -8.53,-8.53z" />
		<path id="Path 6" class="shp1" d="M443.73,8.53h-375.47c-4.71,0 -8.53,3.82 -8.53,8.53v59.73h392.53v-59.73c0,-4.71 -3.82,-8.53 -8.53,-8.53z" />
		<path id="Path 7" class="shp0" d="M418.13,8.53h-349.87c-4.71,0 -8.53,3.82 -8.53,8.53v59.73h366.93v-59.73c0,-4.71 -3.82,-8.53 -8.53,-8.53zM133.06,115.8l-34.37,48.12c-0.93,1.3 -1.06,3.01 -0.32,4.44c0.73,1.42 2.2,2.32 3.8,2.31h13.04c2.36,0 4.27,1.91 4.27,4.27v204.8c0,2.36 1.91,4.27 4.27,4.27h25.6c2.36,0 4.27,-1.91 4.27,-4.27v-204.8c0,-2.36 1.91,-4.27 4.27,-4.27h13.04c1.6,0 3.06,-0.89 3.8,-2.31c0.73,-1.42 0.61,-3.14 -0.32,-4.44l-34.37,-48.12c-0.8,-1.12 -2.09,-1.79 -3.47,-1.79c-1.38,0 -2.67,0.67 -3.47,1.79zM226.93,184.06l-34.37,48.12c-0.93,1.3 -1.06,3.01 -0.32,4.44c0.73,1.42 2.2,2.32 3.8,2.31h13.04c2.36,0 4.27,1.91 4.27,4.27v136.53c0,2.36 1.91,4.27 4.27,4.27h25.6c2.36,0 4.27,-1.91 4.27,-4.27v-136.53c0,-2.36 1.91,-4.27 4.27,-4.27h13.04c1.6,0 3.06,-0.89 3.8,-2.31c0.73,-1.42 0.61,-3.14 -0.33,-4.44l-34.37,-48.12c-0.8,-1.12 -2.09,-1.79 -3.47,-1.79c-1.38,0 -2.67,0.67 -3.47,1.79zM320.79,243.8l-34.37,48.12c-0.93,1.3 -1.06,3.01 -0.32,4.44c0.73,1.42 2.2,2.32 3.8,2.31h13.04c2.36,0 4.27,1.91 4.27,4.27v76.8c0,2.36 1.91,4.27 4.27,4.27h25.6c2.36,0 4.27,-1.91 4.27,-4.27v-76.8c0,-2.36 1.91,-4.27 4.27,-4.27h13.04c1.6,0 3.06,-0.89 3.8,-2.31c0.73,-1.42 0.61,-3.14 -0.33,-4.44l-34.37,-48.12c-0.8,-1.12 -2.09,-1.79 -3.47,-1.79c-1.38,0 -2.67,0.67 -3.47,1.79zM315.73,162.13c0,28.28 22.92,51.2 51.2,51.2c28.28,0 51.2,-22.92 51.2,-51.2c0,-28.28 -22.92,-51.2 -51.2,-51.2c-28.28,0 -51.2,22.92 -51.2,51.2zM366.93,162.13l-36.18,36.18c9.59,9.62 22.6,15.02 36.18,15.02c13.58,0 26.6,-5.4 36.18,-15.02zM315.73,162.13c-0.04,13.59 5.37,26.62 15.02,36.18l36.18,-36.18v-51.2c-28.28,0 -51.2,22.92 -51.2,51.2z" />
		<path id="Path 8" class="shp4" d="M25.6,503.47h25.6c-9.41,-0.03 -17.04,-7.65 -17.07,-17.07v-25.6c0,-4.71 3.82,-8.53 8.53,-8.53h8.53v-280.63c-0.24,-9.68 7.39,-17.74 17.07,-18.04h17.07v-136.53c0,-4.71 3.82,-8.53 8.53,-8.53h-25.6c-4.71,0 -8.53,3.82 -8.53,8.53v136.53h-17.07c-9.68,0.3 -17.3,8.36 -17.07,18.04v280.63h-8.53c-4.71,0 -8.53,3.82 -8.53,8.53v25.6c0.03,9.41 7.65,17.04 17.07,17.07zM34.13,452.27v-110.93v-170.67h-17.07v170.67v110.93z" />
		<path id="Path 9" class="shp5" d="M25.6,409.6c-4.71,0 -8.53,3.82 -8.53,8.53v34.13h17.07v-34.13c0,-4.71 -3.82,-8.53 -8.53,-8.53zM34.13,170.67h-17.07v179.2c0,4.71 3.82,8.53 8.53,8.53c4.71,0 8.53,-3.82 8.53,-8.53zM17.07,384c0.03,2.26 0.92,4.42 2.47,6.06l1.28,1.02c0.48,0.32 0.99,0.58 1.54,0.77c0.48,0.25 1,0.42 1.54,0.51c0.56,0.1 1.13,0.15 1.71,0.17c2.26,-0.03 4.42,-0.92 6.06,-2.47c0.77,-0.82 1.38,-1.77 1.79,-2.82c1.29,-3.18 0.59,-6.83 -1.79,-9.3c-0.82,-0.77 -1.77,-1.38 -2.82,-1.79c-1.03,-0.44 -2.13,-0.67 -3.24,-0.68c-2.26,0.03 -4.42,0.92 -6.06,2.47c-1.56,1.64 -2.44,3.8 -2.47,6.06z" />
		<path id="Path 10" class="shp6" d="M213.33,452.27c0,-4.71 -3.82,-8.53 -8.53,-8.53h-179.2c-4.71,0 -8.53,3.82 -8.53,8.53c0,4.71 3.82,8.53 8.53,8.53h179.2c4.71,0 8.53,-3.82 8.53,-8.53z" />
		<path id="Path 11" class="shp5" d="M25.6,179.2c-4.71,0 -8.53,-3.82 -8.53,-8.53c0,-14.14 11.46,-25.6 25.6,-25.6l8.53,0v-128c0,-9.43 7.64,-17.07 17.07,-17.07h375.47c9.43,0 17.07,7.64 17.07,17.07v128h8.53c14.14,0 25.6,11.46 25.6,25.6l0,273.07h8.53c4.71,0 8.53,3.82 8.53,8.53v34.13c0,14.14 -11.46,25.6 -25.6,25.6h-460.8c-14.14,0 -25.6,-11.46 -25.6,-25.6v-34.13c0,-4.71 3.82,-8.53 8.53,-8.53h196.27c1.25,0 2.43,0.27 3.5,0.75c2.97,1.34 5.04,4.32 5.04,7.79c0,4.71 3.82,8.53 8.53,8.53h68.27c4.71,0 8.53,-3.82 8.53,-8.53c0,-2.79 1.34,-5.27 3.42,-6.83c1.43,-1.07 3.2,-1.7 5.12,-1.7h170.67l0,-273.07c0,-4.71 -3.82,-8.53 -8.53,-8.53l-8.53,0v247.47c0,9.43 -7.64,17.07 -17.07,17.07h-375.47c-9.43,0 -17.07,-7.64 -17.07,-17.07v-247.47h-8.53c-4.71,0 -8.53,3.82 -8.53,8.53c0,4.71 -3.82,8.53 -8.53,8.53zM17.07,460.8v25.6c0,4.71 3.82,8.53 8.53,8.53h460.8c4.71,0 8.53,-3.82 8.53,-8.53v-25.6l-180.66,0c-3.51,9.94 -13,17.07 -24.14,17.07h-68.27c-11.15,0 -20.63,-7.12 -24.14,-17.07zM68.27,409.6h375.47v-324.27l-375.47,0zM443.73,17.07h-375.47v51.2l375.47,0zM93.87,51.2c-2.26,-0.03 -4.42,-0.92 -6.06,-2.47c-0.77,-0.82 -1.38,-1.77 -1.79,-2.82c-0.44,-1.03 -0.67,-2.13 -0.68,-3.24c-0.03,-2.55 1.1,-4.98 3.07,-6.61c1.97,-1.62 4.57,-2.27 7.07,-1.76c0.57,0.08 1.12,0.25 1.63,0.51c0.52,0.17 1.01,0.43 1.45,0.77c0.5,0.34 0.94,0.68 1.37,1.02c1.57,1.63 2.46,3.8 2.47,6.06c-0.01,1.12 -0.24,2.22 -0.68,3.24c-0.41,1.04 -1.02,2 -1.79,2.82c-1.64,1.56 -3.8,2.44 -6.06,2.47zM119.47,51.2c-2.26,-0.03 -4.42,-0.92 -6.06,-2.47c-0.77,-0.82 -1.38,-1.77 -1.79,-2.82c-0.44,-1.03 -0.67,-2.13 -0.68,-3.24c-0.03,-2.55 1.1,-4.98 3.08,-6.61c1.97,-1.62 4.57,-2.27 7.07,-1.76c0.57,0.08 1.12,0.25 1.63,0.51c0.52,0.17 1.01,0.43 1.45,0.77c0.5,0.34 0.94,0.68 1.37,1.02c1.57,1.63 2.46,3.8 2.47,6.06c-0.01,1.12 -0.24,2.22 -0.68,3.24c-0.41,1.04 -1.02,2 -1.79,2.82c-1.64,1.56 -3.8,2.44 -6.06,2.47zM145.07,51.2c-2.26,-0.03 -4.42,-0.92 -6.06,-2.47c-0.77,-0.82 -1.38,-1.77 -1.79,-2.82c-0.44,-1.03 -0.67,-2.13 -0.68,-3.24c-0.03,-2.55 1.1,-4.98 3.08,-6.61c1.97,-1.62 4.57,-2.27 7.07,-1.76c0.57,0.08 1.12,0.25 1.63,0.51c0.52,0.17 1.01,0.43 1.45,0.77c0.5,0.34 0.94,0.68 1.37,1.02c1.57,1.63 2.46,3.8 2.47,6.06c-0.01,1.12 -0.24,2.22 -0.68,3.24c-0.41,1.04 -1.02,2 -1.79,2.82c-1.64,1.56 -3.8,2.44 -6.06,2.47zM418.13,51.2h-68.27c-4.71,0 -8.53,-3.82 -8.53,-8.53c0,-4.71 3.82,-8.53 8.53,-8.53h68.27c4.71,0 8.53,3.82 8.53,8.53c0,4.71 -3.82,8.53 -8.53,8.53zM110.93,179.2h-17.07c-3.19,0 -6.12,-1.79 -7.58,-4.63c-1.46,-2.84 -1.21,-6.26 0.64,-8.86l42.67,-59.73c1.67,-2.13 4.23,-3.37 6.94,-3.37c2.71,0 5.26,1.24 6.94,3.37l42.67,59.73c1.86,2.6 2.1,6.02 0.64,8.86c-1.46,2.84 -4.39,4.63 -7.58,4.63h-17.07l0,196.27h42.67v-128h-17.07c-3.19,0 -6.12,-1.79 -7.58,-4.63c-1.46,-2.84 -1.21,-6.26 0.64,-8.86l42.67,-59.73c1.67,-2.12 4.23,-3.37 6.94,-3.37c2.71,0 5.26,1.24 6.94,3.37l42.67,59.73c1.86,2.6 2.1,6.02 0.64,8.86c-1.46,2.84 -4.39,4.63 -7.58,4.63h-17.07v128h42.67v-68.27h-17.07c-3.19,0 -6.12,-1.79 -7.58,-4.63c-1.46,-2.84 -1.21,-6.26 0.64,-8.86l42.67,-59.73c1.67,-2.13 4.23,-3.37 6.94,-3.37c2.71,0 5.26,1.24 6.94,3.37l42.67,59.73c1.85,2.6 2.1,6.02 0.64,8.86c-1.46,2.84 -4.39,4.63 -7.58,4.63h-17.07l0,68.27h68.27c4.71,0 8.53,3.82 8.53,8.53c0,4.71 -3.82,8.53 -8.53,8.53h-324.27c-4.71,0 -8.53,-3.82 -8.53,-8.53c0,-4.71 3.82,-8.53 8.53,-8.53l17.07,0zM128,375.47h17.07v-204.8c0,-4.71 3.82,-8.53 8.53,-8.53h9.02l-26.09,-36.52l-26.09,36.52h9.02c4.71,0 8.53,3.82 8.53,8.53zM221.87,375.47h17.07v-136.53c0,-4.71 3.82,-8.53 8.53,-8.53h9.02l-26.09,-36.51l-26.09,36.51h9.02c4.71,0 8.53,3.82 8.53,8.53zM315.73,375.47h17.07v-76.8c0,-4.71 3.82,-8.53 8.53,-8.53h9.02l-26.09,-36.51l-26.09,36.51h9.02c4.71,0 8.53,3.82 8.53,8.53zM366.93,221.87c-32.99,0 -59.73,-26.74 -59.73,-59.73c0,-32.99 26.74,-59.73 59.73,-59.73c32.99,0 59.73,26.74 59.73,59.73c-0.04,32.97 -26.76,59.69 -59.73,59.73zM324.27,162.13c0,8.7 2.6,16.79 7.07,23.53l27.06,-27.06v-38.28c-19.47,3.95 -34.13,21.17 -34.13,41.81zM366.93,204.8c23.56,0 42.67,-19.1 42.67,-42.67c-0.02,-20.63 -14.67,-37.83 -34.13,-41.8l0,41.8c0,2.26 -0.9,4.43 -2.5,6.03l-29.56,29.56c6.75,4.47 14.83,7.07 23.53,7.07z" />
	</g>
</svg>