<svg xmlns="http://www.w3.org/2000/svg" viewBox="0 0 513 513" width="513" height="513">
	<defs>
		<clipPath clipPathUnits="userSpaceOnUse" id="cp1">
			<path d="M1 1L513 1L513 513L1 513Z" />
		</clipPath>
		<linearGradient id="grd1" gradientUnits="userSpaceOnUse"  x1="28.063" y1="190.217" x2="229.965" y2="392.09">
			<stop offset="0" stop-color="#d4e1f4"  />
			<stop offset="0.172" stop-color="#d4e1f4"  />
			<stop offset="0.2" stop-color="#d4e1f4"  />
			<stop offset="0.2" stop-color="#dae4f4"  />
			<stop offset="0.201" stop-color="#ebebf4"  />
			<stop offset="0.201" stop-color="#f6f1f4"  />
			<stop offset="0.202" stop-color="#fdf4f4"  />
			<stop offset="0.205" stop-color="#fff5f4"  />
			<stop offset="0.252" stop-color="#fff5f4"  />
			<stop offset="0.26" stop-color="#fff5f4"  />
			<stop offset="0.26" stop-color="#d4e1f4"  />
			<stop offset="0.397" stop-color="#d4e1f4"  />
			<stop offset="0.42" stop-color="#d4e1f4"  />
			<stop offset="0.42" stop-color="#dae4f4"  />
			<stop offset="0.421" stop-color="#ebebf4"  />
			<stop offset="0.421" stop-color="#f6f1f4"  />
			<stop offset="0.422" stop-color="#fdf4f4"  />
			<stop offset="0.425" stop-color="#fff5f4"  />
			<stop offset="0.49" stop-color="#fff5f4"  />
			<stop offset="0.5" stop-color="#fff5f4"  />
			<stop offset="0.5" stop-color="#f9f2f4"  />
			<stop offset="0.5" stop-color="#e8ebf4"  />
			<stop offset="0.5" stop-color="#dde5f4"  />
			<stop offset="0.5" stop-color="#d6e2f4"  />
			<stop offset="0.501" stop-color="#d4e1f4"  />
			<stop offset="0.706" stop-color="#d4e1f4"  />
			<stop offset="0.74" stop-color="#d4e1f4"  />
			<stop offset="0.741" stop-color="#fff5f4"  />
			<stop offset="0.835" stop-color="#fff5f4"  />
			<stop offset="0.85" stop-color="#fff5f4"  />
			<stop offset="0.851" stop-color="#d4e1f4"  />
			<stop offset="1" stop-color="#d4e1f4"  />
		</linearGradient>
	</defs>
	<style>
		tspan { white-space:pre }
		.shp0 { fill: #7facfa } 
		.shp1 { fill: #e3e7f2 } 
		.shp2 { fill: url(#grd1) } 
		.shp3 { fill: #ffffff } 
		.shp4 { fill: #5709e7 } 
	</style>
	<g id="Page 1" clip-path="url(#cp1)">
		<path id="Path 1" class="shp0" d="M94.87,461.8h324.27v-409.6h-324.27z" />
		<path id="Path 2" class="shp1" d="M94.87,436.2h298.67v-358.4h-298.67z" />
		<path id="Path 3" class="shp0" d="M94.87,436.2v34.13c0,9.05 3.59,17.74 9.99,24.14c6.4,6.4 15.09,10 24.14,10h256c9.05,0 17.74,-3.59 24.14,-10c6.4,-6.4 10,-15.08 9.99,-24.14v-34.13zM409.14,19.53c-6.4,-6.4 -15.09,-10 -24.14,-9.99h-256c-9.05,0 -17.74,3.59 -24.14,9.99c-6.4,6.4 -10,15.08 -9.99,24.14v34.13h324.27v-34.13c0,-9.05 -3.59,-17.74 -9.99,-24.14z" />
		<path id="Path 4" class="shp1" d="M94.87,436.2v34.13c-0.72,18.1 13.34,33.36 31.44,34.13h235.79c18.1,-0.77 32.16,-16.04 31.44,-34.13v-34.13zM362.09,9.53h-235.79c-18.1,0.77 -32.16,16.04 -31.44,34.13v34.13h298.67v-34.13c0.72,-18.1 -13.34,-33.36 -31.44,-34.13z" />
		<path id="Path 5" class="shp2" d="M43.67,188.73c-9.05,0 -17.74,3.59 -24.14,9.99c-6.4,6.4 -10,15.08 -9.99,24.14v85.33c0,9.05 3.59,17.74 9.99,24.14c6.4,6.4 15.09,10 24.14,9.99v59.73l51.2,-59.73h170.67c9.05,0 17.74,-3.59 24.14,-9.99c6.4,-6.4 10,-15.09 9.99,-24.14v-42.67l-25.6,-23.04l-59.73,-53.76z" />
		<path id="Path 6" class="shp0" d="M274.07,242.49l-34.13,-53.76h-25.6l34.13,53.76l25.6,23.04v42.67c0,9.05 -3.59,17.74 -9.99,24.14c-6.4,6.4 -15.09,10 -24.14,9.99h25.6c9.05,0 17.74,-3.59 24.14,-9.99c6.4,-6.4 10,-15.09 9.99,-24.14v-42.67zM494.47,121.93c-6.4,-6.4 -15.08,-10 -24.14,-10h-221.87c-9.05,0 -17.74,3.59 -24.14,10c-6.4,6.4 -10,15.08 -9.99,24.14v85.33c0,9.05 3.59,17.74 9.99,24.14c6.4,6.4 15.09,10 24.14,9.99h170.67l51.2,59.73v-59.73c9.05,0 17.74,-3.59 24.14,-9.99c6.4,-6.4 10,-15.09 10,-24.14v-85.33c0,-9.05 -3.59,-17.74 -9.99,-24.14z" />
		<path id="Path 7" class="shp1" d="M468.87,121.93c-6.4,-6.4 -15.09,-10 -24.14,-9.99h-196.27c-9.05,0 -17.74,3.59 -24.14,9.99c-6.4,6.4 -10,15.08 -9.99,24.14v85.33c0,9.05 3.59,17.74 9.99,24.14c6.4,6.4 15.09,10 24.14,9.99h170.67l25.6,29.87v-29.87c9.05,0 17.74,-3.59 24.14,-9.99c6.4,-6.4 10,-15.09 10,-24.14v-85.33c0,-9.05 -3.59,-17.74 -9.99,-24.14zM248.47,188.73c0,14.14 11.46,25.6 25.6,25.6c14.14,0 25.6,-11.46 25.6,-25.6c0,-14.14 -11.46,-25.6 -25.6,-25.6c-14.14,0 -25.6,11.46 -25.6,25.6zM333.8,188.73c0,14.14 11.46,25.6 25.6,25.6c14.14,0 25.6,-11.46 25.6,-25.6c0,-14.14 -11.46,-25.6 -25.6,-25.6c-14.14,0 -25.6,11.46 -25.6,25.6zM419.13,188.73c0,14.14 11.46,25.6 25.6,25.6c14.14,0 25.6,-11.46 25.6,-25.6c0,-14.14 -11.46,-25.6 -25.6,-25.6c-14.14,0 -25.6,11.46 -25.6,25.6z" />
		<path id="Path 8" class="shp3" d="M45.13,198.73c6.4,-6.4 15.08,-10 24.14,-9.99h-25.6c-9.05,0 -17.74,3.59 -24.14,9.99c-6.4,6.4 -10,15.09 -9.99,24.14v85.33c0,9.05 3.59,17.74 9.99,24.14c6.4,6.4 15.09,10 24.14,10v59.73l25.6,-29.87v-29.87c-9.05,0 -17.74,-3.59 -24.14,-10c-6.4,-6.4 -10,-15.09 -9.99,-24.14v-85.33c0,-9.05 3.59,-17.74 9.99,-24.14zM120.47,188.73v-145.07c-0.72,-17.96 13.12,-33.16 31.06,-34.13h-25.26c-18.08,0.79 -32.12,16.05 -31.4,34.13v145.07h25.6zM120.47,470.33v-128h-25.6v128c-0.72,18.08 13.32,33.34 31.4,34.13h25.6c-18.08,-0.79 -32.12,-16.05 -31.4,-34.13zM86.33,69.27v110.93v8.53h17.07v-8.53v-110.93z" />
		<path id="Path 9" class="shp4" d="M91.62,145.38c-2.68,-1.03 -4.65,-3.37 -5.22,-6.18c-0.57,-2.82 0.34,-5.73 2.41,-7.73c1.64,-1.56 3.8,-2.44 6.06,-2.48c0.57,0.02 1.14,0.07 1.7,0.17c0.54,0.09 1.05,0.26 1.54,0.51c0.54,0.19 1.06,0.45 1.54,0.77l1.28,1.03c2.43,2.45 3.14,6.12 1.82,9.31c-1.32,3.19 -4.43,5.27 -7.88,5.28c-1.12,-0.01 -2.22,-0.25 -3.25,-0.68zM513,146.07v85.33c-0.03,20.27 -14.28,37.72 -34.13,41.8v52.06c0,3.57 -2.23,6.76 -5.57,8c-3.35,1.24 -7.11,0.26 -9.44,-2.45l-36.19,-42.22v181.74c-0.03,23.55 -19.11,42.64 -42.67,42.67h-256c-23.55,-0.03 -42.64,-19.11 -42.67,-42.67v-104.94l-36.19,42.22c-2.32,2.71 -6.09,3.69 -9.44,2.45c-3.35,-1.24 -5.57,-4.43 -5.57,-8v-52.06c-19.85,-4.08 -34.11,-21.54 -34.13,-41.8v-85.33c0.03,-23.55 19.11,-42.64 42.67,-42.67h42.67v-8.53c0,-4.71 3.82,-8.53 8.53,-8.53c4.71,0 8.53,3.82 8.53,8.53v8.53h102.4v-34.13c0.03,-23.55 19.11,-42.64 42.67,-42.67h162.13v-17.07h-307.2v17.07c0,4.71 -3.82,8.53 -8.53,8.53c-4.71,0 -8.53,-3.82 -8.53,-8.53v-59.73c0.03,-23.55 19.11,-42.64 42.67,-42.67h256c23.55,0.03 42.64,19.11 42.67,42.67v59.73h42.67c23.55,0.03 42.64,19.11 42.67,42.67zM410.6,470.33v-25.6h-307.2v25.6c0.01,14.13 11.47,25.59 25.6,25.6h256c14.13,-0.01 25.58,-11.47 25.6,-25.6zM308.2,274.07v34.13c-0.03,23.55 -19.12,42.64 -42.67,42.67h-162.13v76.8h307.2v-153.6zM52.2,379l36.19,-42.22c0.07,-0.08 0.17,-0.11 0.24,-0.18c0.46,-0.46 0.97,-0.86 1.53,-1.19c0.36,-0.29 0.75,-0.55 1.15,-0.78c0.49,-0.18 1,-0.32 1.51,-0.42c0.56,-0.18 1.14,-0.29 1.73,-0.35c0.11,-0.01 0.21,-0.07 0.32,-0.07h170.67c14.13,-0.01 25.58,-11.47 25.6,-25.6v-34.13h-42.67c-23.55,-0.03 -42.64,-19.11 -42.67,-42.67v-34.13h-162.13c-14.13,0.01 -25.59,11.47 -25.6,25.6v85.33c0.01,14.13 11.47,25.59 25.6,25.6c2.26,0 4.43,0.9 6.04,2.5c1.6,1.6 2.5,3.77 2.5,6.03zM410.6,69.27v-25.6c-0.02,-14.13 -11.47,-25.58 -25.6,-25.6h-256c-14.13,0.01 -25.58,11.47 -25.6,25.6v25.6zM495.93,231.4v-85.33c-0.01,-14.13 -11.47,-25.58 -25.6,-25.6h-221.87c-14.13,0.02 -25.58,11.47 -25.6,25.6v85.33c0.01,14.13 11.47,25.59 25.6,25.6h170.67c0.11,0 0.21,0.06 0.32,0.06c2.22,0.24 4.29,1.2 5.92,2.73c0.07,0.08 0.17,0.11 0.24,0.19l36.19,42.22v-36.67c0,-2.26 0.9,-4.43 2.5,-6.04c1.6,-1.6 3.77,-2.5 6.04,-2.5c14.13,-0.02 25.58,-11.47 25.6,-25.6zM308.2,188.73c0,18.85 -15.28,34.13 -34.13,34.13c-18.85,0 -34.13,-15.28 -34.13,-34.13c0,-18.85 15.28,-34.13 34.13,-34.13c18.84,0.02 34.11,15.29 34.13,34.13zM291.13,188.73c0,-9.43 -7.64,-17.07 -17.07,-17.07c-9.43,0 -17.07,7.64 -17.07,17.07c0,9.43 7.64,17.07 17.07,17.07c9.42,-0.01 17.05,-7.65 17.07,-17.07zM393.53,188.73c0,18.85 -15.28,34.13 -34.13,34.13c-18.85,0 -34.13,-15.28 -34.13,-34.13c0,-18.85 15.28,-34.13 34.13,-34.13c18.84,0.02 34.11,15.29 34.13,34.13zM376.47,188.73c0,-9.43 -7.64,-17.07 -17.07,-17.07c-9.43,0 -17.07,7.64 -17.07,17.07c0,9.43 7.64,17.07 17.07,17.07c9.42,-0.01 17.05,-7.65 17.07,-17.07zM478.87,188.73c0,18.85 -15.28,34.13 -34.13,34.13c-18.85,0 -34.13,-15.28 -34.13,-34.13c0,-18.85 15.28,-34.13 34.13,-34.13c18.84,0.02 34.11,15.29 34.13,34.13zM461.8,188.73c0,-9.43 -7.64,-17.07 -17.07,-17.07c-9.43,0 -17.07,7.64 -17.07,17.07c0,9.43 7.64,17.07 17.07,17.07c9.42,-0.01 17.05,-7.65 17.07,-17.07z" />
	</g>
</svg>