<?xml version="1.0" encoding="utf-8"?>
<!-- Generator: Adobe Illustrator 21.0.0, SVG Export Plug-In . SVG Version: 6.00 Build 0)  -->
<svg version="1.1" id="Graphics" xmlns="http://www.w3.org/2000/svg" xmlns:xlink="http://www.w3.org/1999/xlink" x="0px" y="0px"
	 viewBox="0 0 147 207.8" style="enable-background:new 0 0 147 207.8;" xml:space="preserve">
<style type="text/css">
	.st0{fill:#EFF1FE;}
	.st1{fill:#FFFFFF;}
	.st2{fill:url(#XMLID_4_);}
	.st3{fill:#E0E3FD;}
	.st4{fill:#F0F1FE;}
	.st5{opacity:0;fill:#FFFFFF;}
	.st6{opacity:2.439000e-02;fill:#FDFDFF;}
	.st7{opacity:4.878000e-02;fill:#FBFCFF;}
	.st8{opacity:7.317100e-02;fill:#F9FAFF;}
	.st9{opacity:9.756100e-02;fill:#F7F8FF;}
	.st10{opacity:0.122;fill:#F6F6FE;}
	.st11{opacity:0.1463;fill:#F4F5FE;}
	.st12{opacity:0.1707;fill:#F2F3FE;}
	.st13{opacity:0.1951;fill:#F0F1FE;}
	.st14{opacity:0.2195;fill:#EEEFFE;}
	.st15{opacity:0.2439;fill:#ECEEFE;}
	.st16{opacity:0.2683;fill:#EAECFE;}
	.st17{opacity:0.2927;fill:#E8EAFE;}
	.st18{opacity:0.3171;fill:#E7E8FD;}
	.st19{opacity:0.3415;fill:#E5E7FD;}
	.st20{opacity:0.3659;fill:#E3E5FD;}
	.st21{opacity:0.3902;fill:#E1E3FD;}
	.st22{opacity:0.4146;fill:#DFE2FD;}
	.st23{opacity:0.439;fill:#DDE0FD;}
	.st24{opacity:0.4634;fill:#DBDEFD;}
	.st25{opacity:0.4878;fill:#D9DCFD;}
	.st26{opacity:0.5122;fill:#D8DBFC;}
	.st27{opacity:0.5366;fill:#D6D9FC;}
	.st28{opacity:0.561;fill:#D4D7FC;}
	.st29{opacity:0.5854;fill:#D2D5FC;}
	.st30{opacity:0.6098;fill:#D0D4FC;}
	.st31{opacity:0.6341;fill:#CED2FC;}
	.st32{opacity:0.6585;fill:#CCD0FC;}
	.st33{opacity:0.6829;fill:#CACFFC;}
	.st34{opacity:0.7073;fill:#C9CDFB;}
	.st35{opacity:0.7317;fill:#C7CBFB;}
	.st36{opacity:0.7561;fill:#C5C9FB;}
	.st37{opacity:0.7805;fill:#C3C8FB;}
	.st38{opacity:0.8049;fill:#C1C6FB;}
	.st39{opacity:0.8293;fill:#BFC4FB;}
	.st40{opacity:0.8537;fill:#BDC2FB;}
	.st41{opacity:0.878;fill:#BBC1FB;}
	.st42{opacity:0.9024;fill:#BABFFA;}
	.st43{opacity:0.9268;fill:#B8BDFA;}
	.st44{opacity:0.9512;fill:#B6BBFA;}
	.st45{opacity:0.9756;fill:#B4BAFA;}
	.st46{fill:#B2B8FA;}
	.st47{fill:url(#SVGID_1_);}
	.st48{fill:#D1D4FC;}
	.st49{fill:#FFDFD6;}
	.st50{fill:#FF5722;}
	.st51{fill:#536DFE;}
	.st52{fill:#FFCEBD;}
	.st53{fill:#191C3C;}
	.st54{fill:#5709E7;}
	.st55{fill:#4D5068;}
	.st56{opacity:0.15;fill:#231F20;}
</style>
<path class="st0" d="M76.8,2.3c32.9,0,59.6,29.9,59.6,66.8c0,0,0,0,0,0c0,36.9-17.7,122-91.7,138.1c-32.3,7.1-5.5-60.3-30.3-122
	C-4.9,37.3,43.9,2.3,76.8,2.3z"/>
<g>
	<path id="XMLID_507_" class="st1" d="M99.1,108.4H28.2c-1.6,0-2.9-1.3-2.9-2.9V19c0-1.6,1.3-2.9,2.9-2.9h70.9
		c1.6,0,2.9,1.3,2.9,2.9v86.5C101.9,107.1,100.6,108.4,99.1,108.4z"/>
	<linearGradient id="XMLID_4_" gradientUnits="userSpaceOnUse" x1="25.3175" y1="20.9718" x2="101.9245" y2="20.9718">
		<stop  offset="0" style="stop-color:#E040FB"/>
		<stop  offset="7.285416e-03" style="stop-color:#E040F9"/>
		<stop  offset="0.3718" style="stop-color:#ED4DA4"/>
		<stop  offset="0.6698" style="stop-color:#F65666"/>
		<stop  offset="0.8866" style="stop-color:#FC5C40"/>
		<stop  offset="1" style="stop-color:#FE5E31"/>
	</linearGradient>
	<path id="XMLID_506_" class="st2" d="M101.9,25.8v-7.1c0-1.5-1.2-2.7-2.7-2.7H28c-1.5,0-2.7,1.2-2.7,2.7v7.1H101.9z"/>
	<circle id="XMLID_505_" class="st1" cx="31.1" cy="21" r="0.8"/>
	<circle id="XMLID_1_" class="st1" cx="34.9" cy="21" r="0.8"/>
	<circle id="XMLID_2_" class="st1" cx="38.6" cy="21" r="0.8"/>
	<circle class="st3" cx="40.6" cy="70.6" r="6.8"/>
	<circle class="st3" cx="40.6" cy="89.2" r="6.8"/>
	<rect x="55.4" y="66.2" class="st4" width="38" height="1.4"/>
	<rect x="55.4" y="71.8" class="st4" width="21" height="1.4"/>
	<rect x="55.4" y="85" class="st4" width="38" height="1.4"/>
	<rect x="55.4" y="90.6" class="st4" width="21" height="1.4"/>
</g>
<g>
	<g>
		<path class="st5" d="M99.4,16h-0.2h-18v33.4c0,2.7,2.2,4.9,4.9,4.9h15.8v-29v-6.6v-0.2C101.9,17.2,100.8,16,99.4,16z"/>
		<path class="st6" d="M99.4,16h-0.2H81.3v33.3c0,2.7,2.2,4.9,4.9,4.9h15.7v-29v-6.6v-0.2C101.9,17.2,100.8,16,99.4,16z"/>
		<path class="st7" d="M99.4,16h-0.2H81.5v33.3c0,2.7,2.2,4.9,4.9,4.9h15.6V25.2v-6.5v-0.2C101.9,17.1,100.8,16,99.4,16z"/>
		<path class="st8" d="M99.4,16h-0.2H81.6v33.2c0,2.7,2.2,4.8,4.8,4.8h15.5V25.2v-6.5v-0.2C101.9,17.1,100.8,16,99.4,16z"/>
		<path class="st9" d="M99.4,16h-0.2H81.8v33.1c0,2.7,2.2,4.8,4.8,4.8h15.4V25.1v-6.4v-0.2C101.9,17.1,100.8,16,99.4,16z"/>
		<path class="st10" d="M99.5,16h-0.2H81.9v33c0,2.6,2.1,4.8,4.8,4.8h15.3V25.1v-6.4v-0.2C101.9,17.1,100.8,16,99.5,16z"/>
		<path class="st11" d="M99.5,16h-0.2H82v32.9c0,2.6,2.1,4.7,4.7,4.7h15.1V25v-6.3v-0.2C101.9,17.1,100.8,16,99.5,16z"/>
		<path class="st12" d="M99.5,16h-0.2H82.2v32.8c0,2.6,2.1,4.7,4.7,4.7h15V24.9v-6.3v-0.2C101.9,17.1,100.8,16,99.5,16z"/>
		<path class="st13" d="M99.5,16h-0.2h-17v32.7c0,2.6,2.1,4.7,4.7,4.7h14.9V24.9v-6.3v-0.2C101.9,17.1,100.8,16,99.5,16z"/>
		<path class="st14" d="M99.5,16h-0.2H82.5v32.7c0,2.6,2.1,4.6,4.6,4.6h14.8V24.8v-6.2v-0.2C101.9,17.1,100.9,16,99.5,16z"/>
		<path class="st15" d="M99.6,16h-0.2H82.6v32.6c0,2.5,2.1,4.6,4.6,4.6h14.7V24.7v-6.2v-0.2C101.9,17.1,100.9,16,99.6,16z"/>
		<path class="st16" d="M99.6,16h-0.2H82.7v32.5c0,2.5,2,4.6,4.6,4.6h14.6V24.7v-6.1v-0.2C101.9,17.1,100.9,16,99.6,16z"/>
		<path class="st17" d="M99.6,16h-0.2H82.9v32.4c0,2.5,2,4.5,4.5,4.5h14.5V24.6v-6.1v-0.2C101.9,17.1,100.9,16,99.6,16z"/>
		<path class="st18" d="M99.6,16h-0.2H83v32.3c0,2.5,2,4.5,4.5,4.5h14.4V24.6v-6v-0.2C101.9,17.1,100.9,16,99.6,16z"/>
		<path class="st19" d="M99.6,16h-0.2H83.2v32.2c0,2.5,2,4.5,4.5,4.5h14.3V24.5v-6v-0.2C101.9,17.1,100.9,16,99.6,16z"/>
		<path class="st20" d="M99.6,16h-0.2H83.3v32.2c0,2.5,2,4.4,4.4,4.4h14.2V24.4v-5.9v-0.2C101.9,17,100.9,16,99.6,16z"/>
		<path class="st21" d="M99.7,16h-0.2h-16v32.1c0,2.4,2,4.4,4.4,4.4h14.1V24.4v-5.9v-0.2C101.9,17,100.9,16,99.7,16z"/>
		<path class="st22" d="M99.7,16h-0.2H83.6v32c0,2.4,2,4.4,4.4,4.4h14V24.3v-5.8v-0.2C101.9,17,100.9,16,99.7,16z"/>
		<path class="st23" d="M99.7,16h-0.2H83.7v31.9c0,2.4,1.9,4.3,4.3,4.3h13.9v-28v-5.8v-0.2C101.9,17,100.9,16,99.7,16z"/>
		<path class="st24" d="M99.7,16h-0.2H83.9v31.8c0,2.4,1.9,4.3,4.3,4.3h13.8v-28v-5.8v-0.2C101.9,17,100.9,16,99.7,16z"/>
		<path class="st25" d="M99.7,16h-0.2H84v31.7c0,2.4,1.9,4.3,4.3,4.3h13.6V24.1v-5.7v-0.2C101.9,17,100.9,16,99.7,16z"/>
		<path class="st26" d="M99.7,16h-0.2H84.1v31.6c0,2.3,1.9,4.2,4.2,4.2h13.5V24v-5.7v-0.2C101.9,17,100.9,16,99.7,16z"/>
		<path class="st27" d="M99.8,16h-0.2H84.3v31.6c0,2.3,1.9,4.2,4.2,4.2h13.4V24v-5.6v-0.2C101.9,17,101,16,99.8,16z"/>
		<path class="st28" d="M99.8,16h-0.2H84.4v31.5c0,2.3,1.9,4.2,4.2,4.2h13.3V23.9v-5.6v-0.2C101.9,17,101,16,99.8,16z"/>
		<path class="st29" d="M99.8,16h-0.2H84.6v31.4c0,2.3,1.9,4.1,4.1,4.1h13.2V23.9v-5.5v-0.2C101.9,17,101,16,99.8,16z"/>
		<path class="st30" d="M99.8,16h-0.2H84.7v31.3c0,2.3,1.8,4.1,4.1,4.1h13.1V23.8v-5.5v-0.2C101.9,17,101,16,99.8,16z"/>
		<path class="st31" d="M99.8,16h-0.2H84.9v31.2c0,2.2,1.8,4.1,4.1,4.1h13V23.7v-5.4v-0.2C101.9,17,101,16,99.8,16z"/>
		<path class="st32" d="M99.8,16h-0.2H85v31.1c0,2.2,1.8,4,4,4h12.9V23.7v-5.4v-0.2C101.9,17,101,16,99.8,16z"/>
		<path class="st33" d="M99.9,16h-0.2H85.1v31c0,2.2,1.8,4,4,4h12.8V23.6v-5.4v-0.2C101.9,16.9,101,16,99.9,16z"/>
		<path class="st34" d="M99.9,16h-0.2H85.3v31c0,2.2,1.8,4,4,4h12.7V23.5v-5.3v-0.2C101.9,16.9,101,16,99.9,16z"/>
		<path class="st35" d="M99.9,16h-0.2H85.4v30.9c0,2.2,1.8,3.9,3.9,3.9h12.6V23.5v-5.3v-0.2C101.9,16.9,101,16,99.9,16z"/>
		<path class="st36" d="M99.9,16h-0.2H85.6v30.8c0,2.2,1.7,3.9,3.9,3.9h12.5V23.4v-5.2V18C101.9,16.9,101,16,99.9,16z"/>
		<path class="st37" d="M99.9,16h-0.2H85.7v30.7c0,2.1,1.7,3.9,3.9,3.9h12.4V23.3v-5.2V18C101.9,16.9,101,16,99.9,16z"/>
		<path class="st38" d="M99.9,16h-0.2h-14v30.6c0,2.1,1.7,3.8,3.8,3.8h12.3V23.3v-5.1V18C101.9,16.9,101,16,99.9,16z"/>
		<path class="st39" d="M100,16h-0.2H86v30.5c0,2.1,1.7,3.8,3.8,3.8h12.1V23.2v-5.1V18C101.9,16.9,101,16,100,16z"/>
		<path class="st40" d="M100,16h-0.1H86.1v30.5c0,2.1,1.7,3.8,3.8,3.8h12V23.2v-5V18C101.9,16.9,101.1,16,100,16z"/>
		<path class="st41" d="M100,16h-0.1H86.3v30.4c0,2.1,1.7,3.7,3.7,3.7h11.9v-27v-5V18C101.9,16.9,101.1,16,100,16z"/>
		<path class="st42" d="M100,16h-0.1H86.4v30.3c0,2,1.7,3.7,3.7,3.7h11.8V23v-5v-0.1C101.9,16.9,101.1,16,100,16z"/>
		<path class="st43" d="M100,16h-0.1H86.5v30.2c0,2,1.6,3.7,3.7,3.7h11.7V23v-4.9v-0.1C101.9,16.9,101.1,16,100,16z"/>
		<path class="st44" d="M100.1,16h-0.1H86.7v30.1c0,2,1.6,3.6,3.6,3.6h11.6V22.9V18v-0.1C101.9,16.9,101.1,16,100.1,16z"/>
		<path class="st45" d="M100.1,16h-0.1H86.8v30c0,2,1.6,3.6,3.6,3.6h11.5V22.8V18v-0.1C101.9,16.9,101.1,16,100.1,16z"/>
		<path class="st46" d="M100.1,16h-0.1H87V46c0,2,1.6,3.6,3.6,3.6h11.4V22.8V18v-0.1C101.9,16.8,101.1,16,100.1,16z"/>
	</g>
	<g>
		<path class="st1" d="M136.5,50.6h-45c-2.8,0-5.1-2.3-5.1-5.1v-38c0-2.8,2.3-5.1,5.1-5.1h45c2.8,0,5.1,2.3,5.1,5.1v38
			C141.6,48.3,139.3,50.6,136.5,50.6z"/>
		<linearGradient id="SVGID_1_" gradientUnits="userSpaceOnUse" x1="86.3229" y1="7.2498" x2="141.6226" y2="7.2498">
			<stop  offset="0" style="stop-color:#E040FB"/>
			<stop  offset="7.285416e-03" style="stop-color:#E040F9"/>
			<stop  offset="0.3718" style="stop-color:#ED4DA4"/>
			<stop  offset="0.6698" style="stop-color:#F65666"/>
			<stop  offset="0.8866" style="stop-color:#FC5C40"/>
			<stop  offset="1" style="stop-color:#FE5E31"/>
		</linearGradient>
		<path class="st47" d="M137,2.3H90.9c-2.5,0-4.6,2.1-4.6,4.6v5.2h55.3V6.9C141.6,4.4,139.6,2.3,137,2.3z"/>
		<circle class="st1" cx="92.5" cy="7.2" r="0.8"/>
		<circle class="st1" cx="96.2" cy="7.2" r="0.8"/>
		<circle class="st1" cx="96.2" cy="7.2" r="0.8"/>
		<circle class="st1" cx="99.9" cy="7.2" r="0.8"/>
		<circle class="st48" cx="97" cy="25.1" r="6.6"/>
		<rect x="107.2" y="21.5" class="st4" width="30.2" height="1.8"/>
		<rect x="107.2" y="26.7" class="st4" width="30.2" height="1.8"/>
		<rect x="107.2" y="31.9" class="st49" width="11.3" height="1.8"/>
	</g>
</g>
<g>
	<g>
		<path class="st5" d="M51.8,34.3H25.3v30.5h26.5c2,0,3.5-1.6,3.5-3.5V37.9C55.4,35.9,53.8,34.3,51.8,34.3z"/>
		<path class="st6" d="M51.7,34.3H25.3v30.4h26.4c2,0,3.5-1.6,3.5-3.5V37.8C55.2,35.9,53.6,34.3,51.7,34.3z"/>
		<path class="st7" d="M51.5,34.3H25.3v30.2h26.2c1.9,0,3.5-1.6,3.5-3.5V37.8C55.1,35.9,53.5,34.3,51.5,34.3z"/>
		<path class="st8" d="M51.4,34.3H25.3v30h26.1c1.9,0,3.5-1.6,3.5-3.5v-23C54.9,35.9,53.3,34.3,51.4,34.3z"/>
		<path class="st9" d="M51.3,34.3h-26v29.9h26c1.9,0,3.5-1.6,3.5-3.5V37.8C54.7,35.9,53.2,34.3,51.3,34.3z"/>
		<path class="st10" d="M51.1,34.3H25.3V64h25.8c1.9,0,3.5-1.5,3.5-3.5V37.8C54.6,35.9,53,34.3,51.1,34.3z"/>
		<path class="st11" d="M51,34.3H25.3v29.6H51c1.9,0,3.4-1.5,3.4-3.4V37.7C54.4,35.8,52.9,34.3,51,34.3z"/>
		<path class="st12" d="M50.9,34.3H25.3v29.4h25.5c1.9,0,3.4-1.5,3.4-3.4V37.7C54.3,35.8,52.7,34.3,50.9,34.3z"/>
		<path class="st13" d="M50.7,34.3H25.3v29.2h25.4c1.9,0,3.4-1.5,3.4-3.4V37.7C54.1,35.8,52.6,34.3,50.7,34.3z"/>
		<path class="st14" d="M50.6,34.3H25.3v29.1h25.3c1.9,0,3.4-1.5,3.4-3.4V37.7C54,35.8,52.4,34.3,50.6,34.3z"/>
		<path class="st15" d="M50.4,34.3H25.3v28.9h25.1c1.9,0,3.4-1.5,3.4-3.4V37.7C53.8,35.8,52.3,34.3,50.4,34.3z"/>
		<path class="st16" d="M50.3,34.3h-25v28.8h25c1.8,0,3.3-1.5,3.3-3.3V37.7C53.6,35.8,52.1,34.3,50.3,34.3z"/>
		<path class="st17" d="M50.2,34.3H25.3v28.6h24.8c1.8,0,3.3-1.5,3.3-3.3V37.6C53.5,35.8,52,34.3,50.2,34.3z"/>
		<path class="st18" d="M50,34.3H25.3v28.4H50c1.8,0,3.3-1.5,3.3-3.3V37.6C53.3,35.8,51.9,34.3,50,34.3z"/>
		<path class="st19" d="M49.9,34.3H25.3v28.3h24.6c1.8,0,3.3-1.5,3.3-3.3V37.6C53.2,35.8,51.7,34.3,49.9,34.3z"/>
		<path class="st20" d="M49.7,34.3H25.3v28.1h24.4c1.8,0,3.3-1.5,3.3-3.3V37.6C53,35.8,51.6,34.3,49.7,34.3z"/>
		<path class="st21" d="M49.6,34.3H25.3v28h24.3c1.8,0,3.3-1.5,3.3-3.3V37.6C52.9,35.8,51.4,34.3,49.6,34.3z"/>
		<path class="st22" d="M49.5,34.3H25.3v27.8h24.2c1.8,0,3.2-1.4,3.2-3.2V37.5C52.7,35.8,51.3,34.3,49.5,34.3z"/>
		<path class="st23" d="M49.3,34.3h-24v27.6h24c1.8,0,3.2-1.4,3.2-3.2V37.5C52.5,35.7,51.1,34.3,49.3,34.3z"/>
		<path class="st24" d="M49.2,34.3H25.3v27.5h23.9c1.8,0,3.2-1.4,3.2-3.2V37.5C52.4,35.7,51,34.3,49.2,34.3z"/>
		<path class="st25" d="M49.1,34.3H25.3v27.3h23.7c1.8,0,3.2-1.4,3.2-3.2v-21C52.2,35.7,50.8,34.3,49.1,34.3z"/>
		<path class="st26" d="M48.9,34.3H25.3v27.2h23.6c1.7,0,3.2-1.4,3.2-3.2V37.5C52.1,35.7,50.7,34.3,48.9,34.3z"/>
		<path class="st27" d="M48.8,34.3H25.3v27h23.5c1.7,0,3.1-1.4,3.1-3.1V37.4C51.9,35.7,50.5,34.3,48.8,34.3z"/>
		<path class="st28" d="M48.6,34.3H25.3v26.8h23.3c1.7,0,3.1-1.4,3.1-3.1V37.4C51.8,35.7,50.4,34.3,48.6,34.3z"/>
		<path class="st29" d="M48.5,34.3H25.3V61h23.2c1.7,0,3.1-1.4,3.1-3.1V37.4C51.6,35.7,50.2,34.3,48.5,34.3z"/>
		<path class="st30" d="M48.4,34.3h-23v26.5h23c1.7,0,3.1-1.4,3.1-3.1V37.4C51.4,35.7,50.1,34.3,48.4,34.3z"/>
		<path class="st31" d="M48.2,34.3H25.3v26.4h22.9c1.7,0,3.1-1.4,3.1-3.1V37.4C51.3,35.7,49.9,34.3,48.2,34.3z"/>
		<path class="st32" d="M48.1,34.3H25.3v26.2h22.8c1.7,0,3-1.4,3-3V37.4C51.1,35.7,49.8,34.3,48.1,34.3z"/>
		<path class="st33" d="M47.9,34.3H25.3v26h22.6c1.7,0,3-1.4,3-3v-20C51,35.7,49.6,34.3,47.9,34.3z"/>
		<path class="st34" d="M47.8,34.3H25.3v25.9h22.5c1.7,0,3-1.3,3-3V37.3C50.8,35.7,49.5,34.3,47.8,34.3z"/>
		<path class="st35" d="M47.7,34.3H25.3V60h22.4c1.7,0,3-1.3,3-3V37.3C50.7,35.6,49.3,34.3,47.7,34.3z"/>
		<path class="st36" d="M47.5,34.3H25.3v25.6h22.2c1.6,0,3-1.3,3-3V37.3C50.5,35.6,49.2,34.3,47.5,34.3z"/>
		<path class="st37" d="M47.4,34.3H25.3v25.4h22.1c1.6,0,3-1.3,3-3V37.3C50.3,35.6,49,34.3,47.4,34.3z"/>
		<path class="st38" d="M47.3,34.3H25.3v25.3h21.9c1.6,0,2.9-1.3,2.9-2.9V37.2C50.2,35.6,48.9,34.3,47.3,34.3z"/>
		<path class="st39" d="M47.1,34.3H25.3v25.1h21.8c1.6,0,2.9-1.3,2.9-2.9V37.2C50,35.6,48.7,34.3,47.1,34.3z"/>
		<path class="st40" d="M47,34.3H25.3v24.9H47c1.6,0,2.9-1.3,2.9-2.9V37.2C49.9,35.6,48.6,34.3,47,34.3z"/>
		<path class="st41" d="M46.8,34.3H25.3v24.8h21.5c1.6,0,2.9-1.3,2.9-2.9v-19C49.7,35.6,48.4,34.3,46.8,34.3z"/>
		<path class="st42" d="M46.7,34.3H25.3v24.6h21.4c1.6,0,2.9-1.3,2.9-2.9V37.2C49.6,35.6,48.3,34.3,46.7,34.3z"/>
		<path class="st43" d="M46.6,34.3H25.3v24.5h21.2c1.6,0,2.8-1.3,2.8-2.8V37.2C49.4,35.6,48.1,34.3,46.6,34.3z"/>
		<path class="st44" d="M46.4,34.3H25.3v24.3h21.1c1.6,0,2.8-1.3,2.8-2.8V37.1C49.2,35.6,48,34.3,46.4,34.3z"/>
		<path class="st45" d="M46.3,34.3h-21v24.1h21c1.6,0,2.8-1.3,2.8-2.8V37.1C49.1,35.6,47.8,34.3,46.3,34.3z"/>
		<path class="st46" d="M46.1,34.3H25.3v24h20.8c1.5,0,2.8-1.2,2.8-2.8V37.1C48.9,35.6,47.7,34.3,46.1,34.3z"/>
	</g>
	<g>
		<path class="st1" d="M47.2,59.6H3.5C1.6,59.6,0,58,0,56.1V33.3c0-1.9,1.6-3.5,3.5-3.5h43.7c1.9,0,3.5,1.6,3.5,3.5v22.8
			C50.6,58,49.1,59.6,47.2,59.6z"/>
		<g>
			<circle id="XMLID_288_" class="st50" cx="13.1" cy="44.7" r="8.2"/>
			<path id="XMLID_287_" class="st1" d="M16.1,45.2l-5.3,3c-0.4,0.2-0.8-0.1-0.8-0.5v-6.1c0-0.4,0.4-0.7,0.8-0.5l5.3,3
				C16.5,44.4,16.5,45,16.1,45.2z"/>
		</g>
		<rect x="24.3" y="38.1" class="st4" width="22.5" height="2"/>
		<rect x="24.3" y="43.7" class="st4" width="22.5" height="2"/>
		<rect x="24.3" y="49.3" class="st51" width="11.2" height="2"/>
	</g>
</g>
<g>
	<rect x="97.3" y="193.5" class="st52" width="4.7" height="7.1"/>
	<g>
		<path class="st50" d="M96.6,198.8c0,0-0.3,3-1.1,5.5c-0.1,0.3-0.4,0.6-0.4,0.9v2.6h11v-1.4c0-0.6-0.2-1.3-0.6-1.8
			c-0.9-1.3-3.7-3.9-3.3-5.8H96.6z"/>
		<g>
			<path class="st53" d="M96.7,198.8L96.7,198.8C96.6,198.8,96.7,198.9,96.7,198.8C96.7,198.9,96.7,198.8,96.7,198.8z"/>
			<path class="st53" d="M95.2,205.9v1.9h11v-1.4c0-0.2,0-0.3,0-0.5H95.2z"/>
		</g>
		<path class="st53" d="M101.3,201h-2.5c-0.1,0-0.3-0.1-0.3-0.3v-0.1c0-0.1,0.1-0.3,0.3-0.3h2.5c0.1,0,0.3,0.1,0.3,0.3v0.1
			C101.6,200.9,101.4,201,101.3,201z"/>
		<path class="st53" d="M101.7,202.5h-2.5c-0.1,0-0.3-0.1-0.3-0.3v-0.1c0-0.1,0.1-0.3,0.3-0.3h2.5c0.1,0,0.3,0.1,0.3,0.3v0.1
			C101.9,202.4,101.8,202.5,101.7,202.5z"/>
	</g>
	<rect x="67" y="193.5" class="st52" width="4.7" height="7.1"/>
	<path class="st54" d="M79.7,133.3c1.3,3.2,9.2,31.1,9.2,31.1l7.1,33.4h6.9l-3.6-37.9l-2.6-40.2l-15,1.8l-2.7,7.4L79.7,133.3z"/>
	<polygon class="st54" points="63.9,127.2 64.4,160.8 66,197.7 72.6,197.7 75.3,168.3 81.7,133.6 81.7,121.4 65.2,122.9 	"/>
	<path class="st52" d="M80.8,79h-9.9V66h10.8C79.2,69.2,80.8,79,80.8,79z"/>
	<path class="st1" d="M65.2,125.7c0.3,7.7,25.3-4.7,30.8-1.8l-6.6-45.5c0,0-6.1-2.4-8.6-0.5c-3.5,2.6-9.9,0-9.9,0l-4.5,1.8
		C66.4,79.6,64.9,119.1,65.2,125.7z"/>
	<path class="st50" d="M80.3,70.8c0,0-1.8,30,13.1,49c0,0,4.5,11.2,8.2,11.8c0,0,3.8-9.7-0.8-17.4c-2.9-4.7-8.4-15.1-8.8-20.6
		L91,77.8L80.3,70.8z"/>
	<path class="st50" d="M70.8,70.8c0,0,4.3,19.7,4.5,29.7c0.1,8.2-12.6,35.4-12.6,35.4s-7.8-8.2-3.7-17.6c2.7-6.2,5.8-11.2,5.4-15.2
		L64.5,75L70.8,70.8z"/>
	<g>
		<path class="st52" d="M85.1,63.5c-0.1-1.3-0.3-2.6-0.7-3.9c0-0.1,0.6-0.2,1.1-0.2c0.4-0.1,0.6-0.5,0.3-0.9
			c-1.2-1.3-3.4-3.5-3.8-4.3c-0.5-1.1-0.1-0.3-0.7-1.3c-0.2-0.3-0.4-0.6-0.6-1c-0.2-0.4-0.7-0.9-1.2-1c-0.5-0.1-1,0.1-1.5,0.2
			c-2.1,0.5-4,0.9-5.9,1.9c-0.7,0.3-1.4,0.7-2.1,1.2c-0.9,0.7-1.6,1.7-2,2.8c-0.7,1.9-0.4,4,0,6c0.1,0.5,0.2,1,0.4,1.4
			c0.4,0.7,1,1.2,1.7,1.6c1.2,0.7,2.4,1.4,3.6,2c0.7,0.4,1.5,0.7,2.3,1c1.3,0.4,2.7,0.4,4,0.3c1,0,2.1-0.1,3-0.6
			c0.8-0.5,1.4-1.3,1.7-2.3C85.1,65.4,85.2,64.5,85.1,63.5z"/>
	</g>
	<g>
		<path class="st55" d="M82,45.2c-1.9,1.6-4.4,2.2-6.9,2.5c-2.5,0.3-5,0.4-7.3,1.2c-1.5,0.5-3.7,1.4-4.4,2.9c-1,2.1-0.8,5.2-0.3,7.4
			c0.4,1.6,1.2,3.2,2.3,4.5c1.2,1.4,2.7,2.1,4.3,2.9c0.1,0.1,0.3,0.1,0.4,0.2c0.1,0.1,0.3,0.2,0.4,0.2c0.3,0.1,0.3-0.4,0.3-0.6
			c0-0.4-0.2-0.8-0.4-1.2c-0.2-0.3-0.5-0.6-0.7-0.9c-0.7-0.8-0.6-1.9-0.7-2.9c0-0.5-0.1-1,0.1-1.5c0.2-0.5,0.5-0.9,1-1
			c0.5-0.1,1,0.2,1.4,0.6c0.8,0.7,1.4,1.5,1.9,2.5c0-0.9,0.1-1.7,0.1-2.6c0-0.6,0-1.2,0.2-1.8c0.2-0.8,0.8-1.5,0.6-2.3
			c-0.1-0.4-0.3-0.7-0.4-1c-0.1-0.5,0.3-1,0.8-1.3c0.5-0.2,1-0.3,1.5-0.4c0.8-0.1,1.6-0.4,2.4-0.6c0.7-0.2,1.5-0.5,2-1
			c0.6-0.5,1-1.3,1.1-2.1c0.2-0.8,0.2-1.6,0.2-2.4C82.1,46.2,82.1,45.7,82,45.2z"/>
	</g>
	<path class="st52" d="M52.3,92.2L47,106c-0.5,1.4-0.4,3,0.4,4.3l16.9,21.6l3-4.5l-10.9-17.2c-0.7-1.5-0.7-3.2,0.1-4.7l5.3-9.3
		C61.8,96.2,55.4,98.6,52.3,92.2z"/>
	<path class="st52" d="M67.3,127.3l1.9,0.3l1.3,1.2c0.5,0.4,0.5,1.2,0.1,1.7l-0.4,0.5l0.6,1c0.3,0.4,0.2,0.9-0.1,1.3l-1.9,2.3
		c-0.4,0.4-1,0.5-1.4,0.2l-2-1.3c-0.4-0.3-0.8-0.7-0.9-1.2l-0.3-1.5L67.3,127.3z"/>
	<g>
		<path class="st50" d="M66.4,198.8c0,0,0.7,2.9-1.6,5.5c-0.2,0.3-0.4,0.6-0.4,0.9v2.6h10.5v-1.4c0-0.6-0.2-1.3-0.6-1.8
			c-0.9-1.3-2.6-3.9-2.2-5.8H66.4z"/>
		<g>
			<path class="st53" d="M66.4,198.8L66.4,198.8C66.4,198.8,66.4,198.9,66.4,198.8C66.4,198.9,66.4,198.8,66.4,198.8z"/>
			<path class="st53" d="M64.4,205.9v1.9h10.5v-1.4c0-0.2,0-0.3,0-0.5H64.4z"/>
		</g>
		<path class="st53" d="M71,201h-2.5c-0.1,0-0.3-0.1-0.3-0.3v-0.1c0-0.1,0.1-0.3,0.3-0.3H71c0.1,0,0.3,0.1,0.3,0.3v0.1
			C71.3,200.9,71.1,201,71,201z"/>
		<path class="st53" d="M71.4,202.5h-2.5c-0.1,0-0.3-0.1-0.3-0.3v-0.1c0-0.1,0.1-0.3,0.3-0.3h2.5c0.1,0,0.3,0.1,0.3,0.3v0.1
			C71.6,202.4,71.5,202.5,71.4,202.5z"/>
	</g>
	<path class="st50" d="M70.8,70.8l-6.9,4.5l-3.1,1.5c-2,0.9-3.5,2.6-4.3,4.7L51,94.1c6,1.2,6.2,6.6,10.5,5.6l6.1-14.6l3.2-7.3V70.8z
		"/>
	<path class="st50" d="M80.3,70.8l6.9,3l3.9,1c2.4,0.6,4.4,2.3,5.4,4.6l6.4,12.8c-4.1,0-8.4,5.5-9.1,4.5l-7.9-13.9L80.3,70.8z"/>
	<path class="st56" d="M82.5,67.9c0.1-0.8-0.3-1.5-1-1.9l0,0c-0.2-0.1-0.4-0.3-0.5-0.5l-0.6-1.7c-0.2-0.4-0.2-0.9-0.1-1.4l0.2-1.3
		c0.1-0.7,0.9-1.1,1.5-0.8l2.2,1l1.4,1.3c0,0,0,0,0,0c0.1,1.2,0.1,2.4-0.3,3.5c-0.3,1-1,2-1.9,2.5c-0.3,0.2-0.7,0.3-1.1,0.4
		L82.5,67.9z"/>
	<path class="st52" d="M102.2,92.7l-15-24.2v-4c0-0.5-0.2-1-0.6-1.3l-1.7-1.7l-2-0.9c-0.6-0.3-1.3,0.1-1.4,0.7l-0.2,1.2
		c-0.1,0.4,0,0.8,0.1,1.2l0.5,1.5c0.1,0.2,0.2,0.4,0.4,0.5l0,0c0.6,0.4,1,1,0.9,1.7l-0.1,1.1l-2.7,0.5l3.3,2.6l10.8,25
		c1,2.2,3.6,3.2,5.7,2.2l0,0C102.7,97.7,103.5,94.9,102.2,92.7z"/>
</g>
</svg>
