<svg xmlns="http://www.w3.org/2000/svg" viewBox="0 0 292 199" width="292" height="199">
	<defs>
		<clipPath clipPathUnits="userSpaceOnUse" id="cp1">
			<path d="M0 1L292 1L292 199L0 199Z" />
		</clipPath>
		<linearGradient id="grd1" gradientUnits="userSpaceOnUse"  x1="73.492" y1="38.703" x2="254.037" y2="38.703">
			<stop offset="0" stop-color="#e040fb"  />
			<stop offset="1" stop-color="#fe5e31"  />
		</linearGradient>
		<linearGradient id="grd2" gradientUnits="userSpaceOnUse"  x1="25.978" y1="106.145" x2="45.341" y2="106.145">
			<stop offset="0" stop-color="#fec55e"  />
			<stop offset="1" stop-color="#ff5722"  />
		</linearGradient>
	</defs>
	<style>
		tspan { white-space:pre }
		.shp0 { fill: #d1d4fc } 
		.shp1 { fill: #b2b8fa } 
		.shp2 { fill: #e0e3fd } 
		.shp3 { fill: #c1c6fb } 
		.shp4 { fill: #fafaff } 
		.shp5 { fill: url(#grd1) } 
		.shp6 { fill: #ffffff } 
		.shp7 { opacity: 0.024;fill: #fdfdff } 
		.shp8 { opacity: 0.047;fill: #fbfbff } 
		.shp9 { opacity: 0.075;fill: #f9faff } 
		.shp10 { opacity: 0.098;fill: #f8f8fe } 
		.shp11 { opacity: 0.122;fill: #f6f6fe } 
		.shp12 { opacity: 0.145;fill: #f4f5fe } 
		.shp13 { opacity: 0.173;fill: #f2f3fe } 
		.shp14 { opacity: 0.196;fill: #f0f1fe } 
		.shp15 { opacity: 0.22;fill: #eeeffe } 
		.shp16 { opacity: 0.243;fill: #eceefe } 
		.shp17 { opacity: 0.267;fill: #eaecfe } 
		.shp18 { opacity: 0.294;fill: #e9eafd } 
		.shp19 { opacity: 0.318;fill: #e7e9fd } 
		.shp20 { opacity: 0.341;fill: #e5e7fd } 
		.shp21 { opacity: 0.365;fill: #e3e5fd } 
		.shp22 { opacity: 0.392;fill: #e1e3fd } 
		.shp23 { opacity: 0.416;fill: #dfe2fd } 
		.shp24 { opacity: 0.439;fill: #dde0fd } 
		.shp25 { opacity: 0.463;fill: #dbdefd } 
		.shp26 { opacity: 0.486;fill: #dadcfc } 
		.shp27 { opacity: 0.514;fill: #d7dbfc } 
		.shp28 { opacity: 0.537;fill: #d6d9fc } 
		.shp29 { opacity: 0.561;fill: #d4d7fc } 
		.shp30 { opacity: 0.584;fill: #d2d5fc } 
		.shp31 { opacity: 0.608;fill: #d0d4fc } 
		.shp32 { opacity: 0.635;fill: #ced2fc } 
		.shp33 { opacity: 0.659;fill: #ccd0fc } 
		.shp34 { opacity: 0.682;fill: #cacffc } 
		.shp35 { opacity: 0.706;fill: #c8cdfb } 
		.shp36 { opacity: 0.733;fill: #c7cbfb } 
		.shp37 { opacity: 0.757;fill: #c5c9fb } 
		.shp38 { opacity: 0.78;fill: #c3c8fb } 
		.shp39 { opacity: 0.804;fill: #c1c6fb } 
		.shp40 { opacity: 0.827;fill: #bfc4fb } 
		.shp41 { opacity: 0.855;fill: #bdc2fb } 
		.shp42 { opacity: 0.878;fill: #bbc1fb } 
		.shp43 { opacity: 0.902;fill: #b9bffa } 
		.shp44 { opacity: 0.925;fill: #b8bdfa } 
		.shp45 { opacity: 0.953;fill: #b6bbfa } 
		.shp46 { opacity: 0.976;fill: #b4bafa } 
		.shp47 { fill: #f0f1fe } 
		.shp48 { fill: #124ef7 } 
		.shp49 { fill: #ffdfcc } 
		.shp50 { fill: #fe5e31 } 
		.shp51 { opacity: 0.024;mix-blend-mode: multiply;fill: #fdfdff } 
		.shp52 { opacity: 0.047;mix-blend-mode: multiply;fill: #fbfbff } 
		.shp53 { opacity: 0.075;mix-blend-mode: multiply;fill: #f9faff } 
		.shp54 { opacity: 0.098;mix-blend-mode: multiply;fill: #f8f8fe } 
		.shp55 { opacity: 0.122;mix-blend-mode: multiply;fill: #f6f6fe } 
		.shp56 { opacity: 0.145;mix-blend-mode: multiply;fill: #f4f5fe } 
		.shp57 { opacity: 0.173;mix-blend-mode: multiply;fill: #f2f3fe } 
		.shp58 { opacity: 0.196;mix-blend-mode: multiply;fill: #f0f1fe } 
		.shp59 { opacity: 0.22;mix-blend-mode: multiply;fill: #eeeffe } 
		.shp60 { opacity: 0.243;mix-blend-mode: multiply;fill: #eceefe } 
		.shp61 { opacity: 0.267;mix-blend-mode: multiply;fill: #eaecfe } 
		.shp62 { opacity: 0.294;mix-blend-mode: multiply;fill: #e9eafd } 
		.shp63 { opacity: 0.318;mix-blend-mode: multiply;fill: #e7e9fd } 
		.shp64 { opacity: 0.341;mix-blend-mode: multiply;fill: #e5e7fd } 
		.shp65 { opacity: 0.365;mix-blend-mode: multiply;fill: #e3e5fd } 
		.shp66 { opacity: 0.392;mix-blend-mode: multiply;fill: #e1e3fd } 
		.shp67 { opacity: 0.416;mix-blend-mode: multiply;fill: #dfe2fd } 
		.shp68 { opacity: 0.439;mix-blend-mode: multiply;fill: #dde0fd } 
		.shp69 { opacity: 0.463;mix-blend-mode: multiply;fill: #dbdefd } 
		.shp70 { opacity: 0.486;mix-blend-mode: multiply;fill: #dadcfc } 
		.shp71 { opacity: 0.514;mix-blend-mode: multiply;fill: #d7dbfc } 
		.shp72 { opacity: 0.537;mix-blend-mode: multiply;fill: #d6d9fc } 
		.shp73 { opacity: 0.561;mix-blend-mode: multiply;fill: #d4d7fc } 
		.shp74 { opacity: 0.584;mix-blend-mode: multiply;fill: #d2d5fc } 
		.shp75 { opacity: 0.608;mix-blend-mode: multiply;fill: #d0d4fc } 
		.shp76 { opacity: 0.635;mix-blend-mode: multiply;fill: #ced2fc } 
		.shp77 { opacity: 0.659;mix-blend-mode: multiply;fill: #ccd0fc } 
		.shp78 { opacity: 0.682;mix-blend-mode: multiply;fill: #cacffc } 
		.shp79 { opacity: 0.706;mix-blend-mode: multiply;fill: #c8cdfb } 
		.shp80 { opacity: 0.733;mix-blend-mode: multiply;fill: #c7cbfb } 
		.shp81 { opacity: 0.757;mix-blend-mode: multiply;fill: #c5c9fb } 
		.shp82 { opacity: 0.78;mix-blend-mode: multiply;fill: #c3c8fb } 
		.shp83 { opacity: 0.804;mix-blend-mode: multiply;fill: #c1c6fb } 
		.shp84 { opacity: 0.827;mix-blend-mode: multiply;fill: #bfc4fb } 
		.shp85 { opacity: 0.855;mix-blend-mode: multiply;fill: #bdc2fb } 
		.shp86 { opacity: 0.878;mix-blend-mode: multiply;fill: #bbc1fb } 
		.shp87 { opacity: 0.902;mix-blend-mode: multiply;fill: #b9bffa } 
		.shp88 { opacity: 0.925;mix-blend-mode: multiply;fill: #b8bdfa } 
		.shp89 { opacity: 0.953;mix-blend-mode: multiply;fill: #b6bbfa } 
		.shp90 { opacity: 0.976;mix-blend-mode: multiply;fill: #b4bafa } 
		.shp91 { mix-blend-mode: multiply;fill: #b2b8fa } 
		.shp92 { fill: #ff5f00 } 
		.shp93 { fill: #ffdfd6 } 
		.shp94 { fill: #ffcebd } 
		.shp95 { fill: #4d5068 } 
		.shp96 { opacity: 0.149;fill: #19103a } 
		.shp97 { opacity: 0.302;fill: #303350 } 
		.shp98 { fill: #ffbba1 } 
		.shp99 { fill: #191c3c } 
		.shp100 { fill: url(#grd2) } 
		.shp101 { opacity: 0.102;fill: #a7a9ac } 
	</style>
	<g id="Page 1" clip-path="url(#cp1)">
		<path id="Path 1" class="shp0" d="M69.83,88.91c-13.02,8.06 -10.74,22.69 -10.56,36.05c0.25,18.93 0.51,37.86 0.76,56.8c0.01,0.95 1.5,0.95 1.48,0c-0.21,-15.84 -0.43,-31.68 -0.64,-47.52c-0.19,-14.37 -4.66,-35.16 9.7,-44.05c0.81,-0.5 0.07,-1.78 -0.75,-1.28zM59.74,109.32c2.02,-1.3 4.57,-1.43 6.74,-2.47c2.95,-1.42 4.91,-4.47 5.52,-7.68c0.61,-3.21 0,-6.56 -1.17,-9.62l-0.3,-0.16c-2.03,1.14 -4.11,2.32 -5.61,4.1c-0.98,1.17 -1.66,2.56 -2.32,3.93c-1.77,3.74 -3.43,7.8 -2.86,11.9zM47.17,73.63c10.06,3.99 9.64,16.15 10.07,25.17c0.37,7.77 0.76,15.53 1.08,23.3c0.72,17.19 1,34.4 0.89,51.61c0,0.96 1.48,0.95 1.48,0c0.14,-20.69 -0.39,-41.36 -1.37,-62.04c-0.57,-12.19 2.49,-33.82 -11.76,-39.47c-0.89,-0.35 -1.27,1.08 -0.39,1.43zM57.97,97.96c-0.16,-0.39 -0.36,-0.75 -0.58,-1.09c-0.02,0.07 -0.04,0.15 -0.07,0.22zM49.5,90.35c2.52,2.32 6.12,3.72 7.89,6.52c1.58,-4.5 1.9,-9.52 0.33,-14.01c-1.59,-4.57 -5.25,-8.5 -9.89,-9.88c-0.23,-0.07 -0.5,-0.13 -0.71,-0.02c-0.19,0.1 -0.29,0.31 -0.38,0.51c-2.41,5.58 -1.73,12.76 2.75,16.88z" />
		<path id="Path 2" class="shp1" d="M53.23,198.52h12.93c3.22,0 5.82,-2.61 5.82,-5.82v-18.97h-24.57v18.97c0,3.22 2.61,5.82 5.82,5.82z" />
		<path id="Path 3" class="shp0" d="M60.53,144.3c0.24,-6.15 0.36,-13.26 -4.21,-18.05c-1.88,-1.97 -4.27,-2.92 -6.79,-3.78c-3.43,-1.16 -7.23,-2.61 -10.87,-2.7c-0.96,-0.03 -0.95,1.46 0,1.48c4.77,0.12 13.29,2.54 16.61,6.04c4.25,4.49 3.99,11.27 3.77,17c-0.04,0.95 1.45,0.95 1.48,0zM37.02,119.56c0.31,1.84 0.76,3.74 1.93,5.2c1.83,2.3 5.06,3.04 7.98,2.73c2.92,-0.3 5.67,-1.47 8.46,-2.37l-0.56,-0.09c-1.92,-2.47 -4.37,-4.71 -7.4,-5.5c-1.5,-0.39 -3.07,-0.41 -4.62,-0.42c-1.79,-0.01 -3.58,-0.03 -5.38,-0.05c-0.13,0 -0.28,0.01 -0.36,0.1c-0.09,0.1 -0.07,0.25 -0.05,0.38z" />
		<path id="Path 4" class="shp2" d="M277.07,143.25c-0.11,-1.73 -0.24,-3.51 -1.02,-5.05c-5.45,6.59 -7.49,15.86 -5.32,24.14l1.61,1.49c2.65,-2.5 4.09,-6.07 4.65,-9.67c0.56,-3.6 0.32,-7.27 0.08,-10.91zM291.72,152.61c-0.12,-0.13 -0.3,-0.18 -0.47,-0.22c-3.57,-0.8 -7.49,0.11 -10.34,2.4c-2.85,2.29 -4.59,5.91 -4.59,9.57l1.08,1.31c2.29,0.62 4.67,-0.54 6.57,-1.96c3.47,-2.59 6.18,-6.18 7.74,-10.22c0.11,-0.29 0.21,-0.65 0,-0.88zM256.25,152.42c-2.43,-1.97 -5.26,-3.9 -8.38,-3.71c-0.33,0.02 -0.71,0.1 -0.86,0.39c-0.34,0.65 0.75,1.13 0.96,1.84c0.12,0.41 -0.08,0.83 -0.16,1.25c-0.15,0.76 0.09,1.55 0.38,2.28c2.86,7.17 10.95,11.85 18.59,10.76l0.95,-1.49c-3.45,-4.12 -7.3,-7.91 -11.48,-11.31zM265.2,164.18c5.45,5.18 6.15,12.86 5.21,19.94c-0.2,1.54 2.22,1.53 2.43,0c1.02,-7.72 -0.03,-16.06 -5.92,-21.66c-1.13,-1.07 -2.85,0.64 -1.71,1.72zM270.53,161.72c1.15,6.81 -0.32,13.7 0.41,20.54c0.16,1.54 2.59,1.55 2.43,0c-0.75,-7.07 0.69,-14.14 -0.5,-21.19c-0.26,-1.54 -2.6,-0.88 -2.34,0.64zM277.63,161.23c-2,3 -4.02,6.28 -4.96,9.8c-1.02,3.82 -0.73,8.12 -0.9,12.04c-0.07,1.56 2.36,1.56 2.43,0c0.16,-3.7 -0.1,-7.8 0.81,-11.39c0.84,-3.28 2.85,-6.42 4.71,-9.22c0.87,-1.3 -1.23,-2.52 -2.09,-1.22z" />
		<path id="Path 5" class="shp1" d="M281.55,197.44l4.61,-17.4c0.21,-0.78 -0.38,-1.54 -1.19,-1.54h-22.76c-0.8,0 -1.39,0.76 -1.19,1.54l4.61,17.4c0.14,0.54 0.63,0.91 1.19,0.91h13.54c0.56,0 1.04,-0.37 1.19,-0.91z" />
		<path id="Path 6" class="shp3" d="M275.43,140.82c-1.8,6.8 -1.82,13.88 -3.46,20.71c-0.05,0.22 0.28,0.31 0.34,0.09c1.64,-6.83 1.66,-13.92 3.46,-20.71c0.06,-0.22 -0.28,-0.31 -0.34,-0.09zM277.66,163.57c2.86,-4.48 7,-7.76 12.02,-9.51c0.21,-0.07 0.12,-0.41 -0.09,-0.34c-5.11,1.78 -9.32,5.11 -12.23,9.67c-0.12,0.19 0.18,0.37 0.3,0.18zM248.67,150.87c1.09,2.74 3.01,4.66 5.41,6.34c3.46,2.42 7.91,3.62 11.07,6.33c0.2,0.17 0.49,-0.12 0.29,-0.29c-2.21,-1.89 -5.01,-2.67 -7.51,-4.1c-3.58,-2.05 -7.29,-4.41 -8.87,-8.39c-0.1,-0.24 -0.49,-0.14 -0.4,0.11z" />
		<path id="Path 7" class="shp4" d="M254.04,34.35c0,-3.94 -3.19,-7.13 -7.13,-7.13h-166.28c-3.94,0 -7.13,3.19 -7.13,7.13v164.62h180.55z" />
		<path id="Path 8" class="shp5" d="M79.75,27.22c-3.45,0 -6.26,2.8 -6.26,6.26v16.72h180.55v-16.72c0,-3.46 -2.8,-6.26 -6.26,-6.26z" />
		<path id="Path 9" class="shp6" d="M87.17,36.73c-1.09,0 -1.97,0.88 -1.97,1.97c0,1.09 0.88,1.97 1.97,1.97c1.09,0 1.97,-0.88 1.97,-1.97c0,-1.09 -0.88,-1.97 -1.97,-1.97zM96.01,36.73c-1.09,0 -1.97,0.88 -1.97,1.97c0,1.09 0.88,1.97 1.97,1.97c1.09,0 1.97,-0.88 1.97,-1.97c0,-1.09 -0.88,-1.97 -1.97,-1.97zM104.85,36.73c-1.09,0 -1.97,0.88 -1.97,1.97c0,1.09 0.88,1.97 1.97,1.97c1.09,0 1.97,-0.88 1.97,-1.97c0,-1.09 -0.88,-1.97 -1.97,-1.97z" />
		<path id="Path 10" class="shp2" d="M82.83,60.41c-0.87,0 -1.58,0.71 -1.58,1.58c0,0.88 0.71,1.58 1.58,1.58c0.87,0 1.58,-0.71 1.58,-1.58c0,-0.88 -0.71,-1.58 -1.58,-1.58zM82.83,69.71c-0.87,0 -1.58,0.71 -1.58,1.58c0,0.87 0.71,1.58 1.58,1.58c0.87,0 1.58,-0.71 1.58,-1.58c0,-0.88 -0.71,-1.58 -1.58,-1.58zM82.83,79.01c-0.87,0 -1.58,0.71 -1.58,1.58c0,0.88 0.71,1.58 1.58,1.58c0.87,0 1.58,-0.71 1.58,-1.58c0,-0.88 -0.71,-1.58 -1.58,-1.58zM82.83,88.31c-0.87,0 -1.58,0.71 -1.58,1.58c0,0.87 0.71,1.58 1.58,1.58c0.87,0 1.58,-0.71 1.58,-1.58c0,-0.88 -0.71,-1.58 -1.58,-1.58zM82.83,97.61c-0.87,0 -1.58,0.71 -1.58,1.58c0,0.87 0.71,1.58 1.58,1.58c0.87,0 1.58,-0.71 1.58,-1.58c0,-0.88 -0.71,-1.58 -1.58,-1.58zM82.83,106.91c-0.87,0 -1.58,0.71 -1.58,1.58c0,0.87 0.71,1.58 1.58,1.58c0.87,0 1.58,-0.71 1.58,-1.58c0,-0.87 -0.71,-1.58 -1.58,-1.58z" />
		<path id="Path 11" class="shp7" d="M73.49,159.47h55.64c1.94,0 3.51,-1.57 3.51,-3.51v-31.34c0,-1.94 -1.57,-3.51 -3.51,-3.51h-55.64z" />
		<path id="Path 12" class="shp8" d="M73.49,159.29h55.46c1.93,0 3.5,-1.56 3.5,-3.5v-31.19c0,-1.93 -1.57,-3.5 -3.5,-3.5h-55.46z" />
		<path id="Path 13" class="shp9" d="M73.49,159.12h55.28c1.93,0 3.49,-1.56 3.49,-3.49v-31.04c0,-1.93 -1.56,-3.49 -3.49,-3.49h-55.28z" />
		<path id="Path 14" class="shp10" d="M73.49,158.95h55.1c1.92,0 3.47,-1.56 3.47,-3.47v-30.89c0,-1.92 -1.55,-3.48 -3.47,-3.48h-55.1z" />
		<path id="Path 15" class="shp11" d="M73.49,158.77h54.91c1.91,0 3.46,-1.55 3.46,-3.46v-30.74c0,-1.91 -1.55,-3.46 -3.46,-3.46h-54.91z" />
		<path id="Path 16" class="shp12" d="M73.49,158.6h54.73c1.91,0 3.45,-1.54 3.45,-3.45v-30.59c0,-1.9 -1.54,-3.45 -3.45,-3.45h-54.73z" />
		<path id="Path 17" class="shp13" d="M73.49,158.42h54.55c1.9,0 3.44,-1.54 3.44,-3.44v-30.44c0,-1.9 -1.54,-3.44 -3.44,-3.44h-54.55z" />
		<path id="Path 18" class="shp14" d="M73.49,158.25h54.37c1.89,0 3.43,-1.54 3.43,-3.43v-30.29c0,-1.89 -1.53,-3.43 -3.43,-3.43h-54.37z" />
		<path id="Path 19" class="shp15" d="M73.49,158.08h54.19c1.89,0 3.42,-1.53 3.42,-3.42v-30.14c0,-1.89 -1.53,-3.42 -3.42,-3.42h-54.19z" />
		<path id="Path 20" class="shp16" d="M73.49,157.9h54.01c1.88,0 3.4,-1.52 3.4,-3.41v-29.99c0,-1.88 -1.52,-3.41 -3.4,-3.41h-54.01z" />
		<path id="Path 21" class="shp17" d="M73.49,157.73h53.83c1.87,0 3.4,-1.52 3.4,-3.39v-29.84c0,-1.87 -1.52,-3.39 -3.4,-3.39h-53.83z" />
		<path id="Path 22" class="shp18" d="M73.49,157.56h53.64c1.87,0 3.38,-1.51 3.38,-3.38v-29.68c0,-1.87 -1.51,-3.38 -3.38,-3.38h-53.64z" />
		<path id="Path 23" class="shp19" d="M73.49,157.38h53.46c1.86,0 3.37,-1.51 3.37,-3.37v-29.53c0,-1.86 -1.51,-3.37 -3.37,-3.37h-53.46z" />
		<path id="Path 24" class="shp20" d="M73.49,157.21h53.28c1.86,0 3.36,-1.5 3.36,-3.36v-29.38c0,-1.86 -1.5,-3.36 -3.36,-3.36h-53.28z" />
		<path id="Path 25" class="shp21" d="M73.49,157.04h53.1c1.85,0 3.35,-1.5 3.35,-3.35v-29.23c0,-1.85 -1.5,-3.35 -3.35,-3.35h-53.1z" />
		<path id="Path 26" class="shp22" d="M73.49,156.86h52.92c1.84,0 3.34,-1.49 3.34,-3.34v-29.08c0,-1.84 -1.49,-3.34 -3.34,-3.34h-52.92z" />
		<path id="Path 27" class="shp23" d="M73.49,156.69h52.74c1.84,0 3.33,-1.49 3.33,-3.33v-28.93c0,-1.84 -1.49,-3.33 -3.33,-3.33h-52.74z" />
		<path id="Path 28" class="shp24" d="M73.49,156.51h52.56c1.83,0 3.31,-1.48 3.31,-3.31v-28.78c0,-1.83 -1.48,-3.31 -3.31,-3.31h-52.56z" />
		<path id="Path 29" class="shp25" d="M73.49,156.34h52.37c1.82,0 3.3,-1.48 3.3,-3.3v-28.63c0,-1.82 -1.48,-3.3 -3.3,-3.3h-52.37z" />
		<path id="Path 30" class="shp26" d="M73.49,156.17h52.19c1.82,0 3.29,-1.47 3.29,-3.29v-28.48c0,-1.82 -1.47,-3.29 -3.29,-3.29h-52.19z" />
		<path id="Path 31" class="shp27" d="M73.49,155.99h52.01c1.81,0 3.28,-1.47 3.28,-3.28v-28.33c0,-1.81 -1.47,-3.28 -3.28,-3.28h-52.01z" />
		<path id="Path 32" class="shp28" d="M73.49,155.82h51.83c1.8,0 3.27,-1.46 3.27,-3.27v-28.17c0,-1.81 -1.46,-3.27 -3.27,-3.27h-51.83z" />
		<path id="Path 33" class="shp29" d="M73.49,155.64h51.65c1.8,0 3.26,-1.46 3.26,-3.26v-28.02c0,-1.8 -1.46,-3.26 -3.26,-3.26h-51.65z" />
		<path id="Path 34" class="shp30" d="M73.49,155.47h51.47c1.79,0 3.25,-1.45 3.25,-3.25v-27.87c0,-1.79 -1.45,-3.25 -3.25,-3.25h-51.47z" />
		<path id="Path 35" class="shp31" d="M73.49,155.3h51.28c1.79,0 3.24,-1.45 3.24,-3.23v-27.72c0,-1.79 -1.45,-3.23 -3.24,-3.23h-51.28z" />
		<path id="Path 36" class="shp32" d="M73.49,155.12h51.1c1.78,0 3.22,-1.44 3.22,-3.22v-27.57c0,-1.78 -1.44,-3.22 -3.22,-3.22h-51.1z" />
		<path id="Path 37" class="shp33" d="M73.49,154.95h50.92c1.77,0 3.21,-1.44 3.21,-3.21v-27.42c0,-1.77 -1.44,-3.21 -3.21,-3.21h-50.92z" />
		<path id="Path 38" class="shp34" d="M73.49,154.78h50.74c1.77,0 3.2,-1.43 3.2,-3.2v-27.27c0,-1.77 -1.43,-3.2 -3.2,-3.2h-50.74z" />
		<path id="Path 39" class="shp35" d="M73.49,154.6h50.56c1.76,0 3.19,-1.43 3.19,-3.19v-27.12c0,-1.76 -1.43,-3.19 -3.19,-3.19h-50.56z" />
		<path id="Path 40" class="shp36" d="M73.49,154.43h50.38c1.76,0 3.18,-1.42 3.18,-3.18v-26.97c0,-1.75 -1.42,-3.18 -3.18,-3.18h-50.38z" />
		<path id="Path 41" class="shp37" d="M73.49,154.25h50.2c1.75,0 3.17,-1.42 3.17,-3.17v-26.82c0,-1.75 -1.42,-3.17 -3.17,-3.17h-50.2z" />
		<path id="Path 42" class="shp38" d="M73.49,154.08h50.02c1.74,0 3.15,-1.41 3.15,-3.15v-26.67c0,-1.74 -1.41,-3.16 -3.15,-3.16h-50.02z" />
		<path id="Path 43" class="shp39" d="M73.49,153.91h49.83c1.74,0 3.14,-1.41 3.14,-3.14v-26.52c0,-1.74 -1.41,-3.14 -3.14,-3.14h-49.83z" />
		<path id="Path 44" class="shp40" d="M73.49,153.73h49.65c1.73,0 3.13,-1.4 3.13,-3.13v-26.36c0,-1.73 -1.4,-3.13 -3.13,-3.13h-49.65z" />
		<path id="Path 45" class="shp41" d="M73.49,153.56h49.47c1.72,0 3.12,-1.4 3.12,-3.12v-26.21c0,-1.72 -1.4,-3.12 -3.12,-3.12h-49.47z" />
		<path id="Path 46" class="shp42" d="M73.49,153.38h49.29c1.72,0 3.11,-1.39 3.11,-3.11v-26.06c0,-1.72 -1.39,-3.11 -3.11,-3.11h-49.29z" />
		<path id="Path 47" class="shp43" d="M73.49,153.21h49.11c1.71,0 3.1,-1.39 3.1,-3.1v-25.91c0,-1.71 -1.39,-3.1 -3.1,-3.1h-49.11z" />
		<path id="Path 48" class="shp44" d="M73.49,153.04h48.93c1.7,0 3.09,-1.38 3.09,-3.09v-25.76c0,-1.7 -1.38,-3.09 -3.09,-3.09h-48.93z" />
		<path id="Path 49" class="shp45" d="M73.49,152.86h48.74c1.7,0 3.07,-1.38 3.07,-3.07v-25.61c0,-1.7 -1.38,-3.07 -3.07,-3.07h-48.74z" />
		<path id="Path 50" class="shp46" d="M73.49,152.69h48.56c1.69,0 3.06,-1.37 3.06,-3.06v-25.46c0,-1.69 -1.37,-3.06 -3.06,-3.06h-48.56z" />
		<path id="Path 51" class="shp1" d="M73.49,152.52h48.38c1.68,0 3.05,-1.37 3.05,-3.05v-25.31c0,-1.69 -1.37,-3.05 -3.05,-3.05h-48.38z" />
		<path id="Path 52" class="shp6" d="M127.87,151.31v-30.98c0,-1.91 -1.55,-3.46 -3.46,-3.46h-57.57c-1.91,0 -3.46,1.55 -3.46,3.46v30.98c0,1.91 1.55,3.46 3.46,3.46h57.57c1.91,0 3.46,-1.55 3.46,-3.46z" />
		<path id="Path 53" class="shp47" d="M95.62,121.1h-25.93v2.31h25.93z" />
		<path id="Path 54" class="shp48" d="M82.66,126.07h-12.97v2.31h12.97z" />
		<path id="Path 55" class="shp2" d="M124.54,149.45c0.78,-1.1 0.68,-4.3 0.56,-5.63c-0.3,-3.22 -0.59,-6.43 -0.89,-9.65c-0.07,-0.78 -0.21,-1.66 -0.88,-2.07c-0.6,-0.37 -1.39,-0.16 -2.01,0.19c-1.98,1.14 -2.86,3.46 -3.99,5.44c-1.13,1.98 -3.15,3.94 -5.37,3.44c-1.71,-0.39 -2.78,-2.08 -3.41,-3.72c-0.63,-1.64 -1.07,-3.43 -2.29,-4.69c-0.47,-0.48 -1.1,-0.88 -1.77,-0.8c-0.39,0.05 -0.73,0.25 -1.05,0.48c-1.77,1.3 -2.53,3.54 -3.9,5.26c-1.42,1.78 -3.46,2.95 -5.45,4.05c-2.29,1.26 -4.84,2.51 -7.42,2.03c-2.09,-0.39 -3.79,-1.86 -5.34,-3.31c-1.3,-1.21 -2.85,-2.55 -4.6,-2.29c-1.24,0.19 -2.21,1.15 -3.07,2.07c-2.43,2.62 -4.71,6.31 -6.83,9.19z" />
		<path id="Path 56" class="shp6" d="M223.14,192.51v-28.16c0,-1.11 -0.9,-2.01 -2.01,-2.01h-130.73c-1.11,0 -2.01,0.9 -2.01,2.01v28.16c0,1.11 0.9,2.01 2.01,2.01h130.73c1.11,0 2.01,-0.9 2.01,-2.01z" />
		<path id="Path 57" class="shp2" d="M125.79,169.02h-31.75v19.8h31.75z" />
		<path id="Path 58" class="shp1" d="M98.95,176.3l-4.88,7.05l-0.02,5.46h12.57z" />
		<path id="Path 59" class="shp6" d="M99.72,179.98l0.44,0.73l0.78,-1.12l-1.99,-3.28l-2.25,3.25l0.69,1.15l0.53,-0.77l0.85,1.41z" />
		<path id="Path 60" class="shp1" d="M106.6,188.82h7.14l-5.11,-8.26l-3.72,5.54z" />
		<path id="Path 61" class="shp0" d="M116.42,172.28c-1.92,0 -3.49,1.56 -3.49,3.49c0,1.93 1.56,3.49 3.49,3.49c1.92,0 3.49,-1.56 3.49,-3.49c0,-1.93 -1.56,-3.49 -3.49,-3.49z" />
		<path id="Path 62" class="shp6" d="M109.44,184.24l0.44,0.73l0.77,-1.12l-2.03,-3.28l-2.21,3.25l0.69,1.15l0.53,-0.77l0.85,1.41z" />
		<path id="Path 63" class="shp47" d="M216.07,169.36h-88.47v1.86h88.47zM216.07,173.91h-88.47v1.86h88.47zM216.07,178.45h-88.47v1.86h88.47z" />
		<path id="Path 64" class="shp49" d="M161.24,182.99h-33.64v1.86h33.64z" />
		<path id="Path 65" class="shp50" d="M76.87,194.28c-0.07,0.16 -0.03,0.36 0.09,0.48l0.81,0.81c0.21,0.21 0.21,0.54 0,0.75l-1.31,1.31c-0.21,0.21 -0.54,0.21 -0.75,0l-0.8,-0.8c-0.13,-0.13 -0.33,-0.16 -0.51,-0.08c-0.1,0.05 -0.21,0.09 -0.31,0.13c-0.18,0.07 -0.3,0.23 -0.3,0.42l0,1.14c0,0.29 -0.24,0.53 -0.53,0.53l-1.85,0c-0.29,0 -0.53,-0.24 -0.53,-0.53l0,-1.15c0,-0.18 -0.11,-0.34 -0.28,-0.41c-0.11,-0.04 -0.23,-0.09 -0.35,-0.14c-0.17,-0.07 -0.36,-0.03 -0.48,0.09l-0.81,0.81c-0.21,0.21 -0.54,0.21 -0.75,0l-1.31,-1.3c-0.21,-0.21 -0.21,-0.54 0,-0.75l0.8,-0.8c0.13,-0.13 0.16,-0.33 0.08,-0.51c-0.05,-0.1 -0.09,-0.21 -0.13,-0.31c-0.07,-0.17 -0.23,-0.3 -0.42,-0.3l-1.14,0c-0.29,0 -0.53,-0.24 -0.53,-0.53l0,-1.85c0,-0.29 0.24,-0.53 0.53,-0.53l1.15,0c0.18,0 0.34,-0.11 0.41,-0.28c0.04,-0.11 0.09,-0.23 0.14,-0.35c0.07,-0.17 0.03,-0.36 -0.1,-0.48l-0.81,-0.81c-0.21,-0.21 -0.21,-0.54 0,-0.75l1.3,-1.31c0.21,-0.21 0.54,-0.21 0.75,0l0.8,0.8c0.13,0.13 0.33,0.16 0.51,0.08c0.11,-0.05 0.22,-0.1 0.33,-0.14c0.18,-0.07 0.3,-0.23 0.3,-0.42v-1.14c0,-0.29 0.24,-0.53 0.53,-0.53h1.85c0.29,0 0.53,0.24 0.53,0.53v1.15c0,0.18 0.11,0.34 0.28,0.41c0.11,0.04 0.23,0.09 0.35,0.14c0.16,0.07 0.36,0.03 0.48,-0.09l0.81,-0.81c0.21,-0.21 0.54,-0.21 0.75,0l1.31,1.31c0.21,0.21 0.21,0.54 0,0.75l-0.8,0.8c-0.13,0.13 -0.16,0.33 -0.08,0.51c0.05,0.1 0.09,0.21 0.13,0.31c0.07,0.18 0.23,0.3 0.42,0.3l1.13,0c0.29,0 0.53,0.24 0.53,0.53l0,1.85c0,0.29 -0.24,0.53 -0.53,0.53l-1.45,0c-0.01,0.02 -0.13,0.35 -0.25,0.63zM71.39,194.64c1.52,0.59 3.22,-0.34 3.52,-1.97c0.23,-1.22 -0.47,-2.47 -1.63,-2.92c-1.52,-0.59 -3.22,0.34 -3.52,1.97c-0.23,1.22 0.47,2.47 1.63,2.92z" />
		<path id="Path 66" class="shp48" d="M260.55,195.91v-7.16c0,-1.44 -1.17,-2.61 -2.61,-2.61h-7.16c-1.44,0 -2.61,1.17 -2.61,2.61v7.16c0,1.44 1.17,2.61 2.61,2.61h7.16c1.44,0 2.61,-1.17 2.61,-2.61z" />
		<path id="Path 67" class="shp6" d="M252.8,192.14v-0.93l-2.69,1.09v0.81l2.69,1.09v-0.93l-1.68,-0.55v-0.02zM255.6,189.93h-1.04l-1.51,4.8h1.03zM255.94,193.28v0.93l2.67,-1.09v-0.81l-2.67,-1.09v0.93l1.66,0.55v0.02z" />
		<path id="Path 68" class="shp2" d="M120.27,74.48c-4.32,0 -7.83,3.51 -7.83,7.83c0,4.33 3.51,7.83 7.83,7.83c4.32,0 7.83,-3.51 7.83,-7.83c0,-4.32 -3.51,-7.83 -7.83,-7.83z" />
		<path id="Path 69" class="shp6" d="M124.02,80.69l-1.56,-1.55l-3.24,3.24l-1.17,-1.17l-1.55,1.55l2.72,2.72z" />
		<path id="Path 70" class="shp51" d="M254.04,60.27h-98.39c-2.25,0 -4.08,1.83 -4.08,4.08v44.62c0,2.25 1.83,4.08 4.08,4.08h98.39z" />
		<path id="Path 71" class="shp52" d="M254.04,60.27h-98.11c-2.25,0 -4.07,1.82 -4.07,4.07v44.38c0,2.25 1.82,4.07 4.07,4.07h98.11z" />
		<path id="Path 72" class="shp53" d="M254.04,60.27h-97.83c-2.24,0 -4.06,1.81 -4.06,4.06v44.14c0,2.24 1.82,4.05 4.06,4.05h97.83z" />
		<path id="Path 73" class="shp54" d="M254.04,60.27h-97.55c-2.23,0 -4.04,1.81 -4.04,4.04v43.9c0,2.23 1.81,4.04 4.04,4.04h97.55z" />
		<path id="Path 74" class="shp55" d="M254.04,60.27h-97.27c-2.23,0 -4.03,1.81 -4.03,4.03v43.65c0,2.23 1.81,4.03 4.03,4.03h97.27z" />
		<path id="Path 75" class="shp56" d="M254.04,60.27h-96.99c-2.22,0 -4.02,1.8 -4.02,4.02v43.41c0,2.22 1.8,4.02 4.02,4.02h96.99z" />
		<path id="Path 76" class="shp57" d="M254.04,60.27h-96.71c-2.21,0 -4.01,1.79 -4.01,4.01v43.17c0,2.21 1.8,4.01 4.01,4.01h96.71z" />
		<path id="Path 77" class="shp58" d="M254.04,60.27h-96.43c-2.21,0 -4,1.79 -4,4v42.93c0,2.21 1.79,4 4,4h96.43z" />
		<path id="Path 78" class="shp59" d="M254.04,60.27h-96.16c-2.2,0 -3.99,1.78 -3.99,3.98v42.68c0,2.2 1.78,3.99 3.99,3.99h96.16z" />
		<path id="Path 79" class="shp60" d="M254.04,60.27h-95.88c-2.19,0 -3.97,1.78 -3.97,3.97v42.44c0,2.2 1.78,3.97 3.97,3.97h95.88z" />
		<path id="Path 80" class="shp61" d="M254.04,60.27h-95.6c-2.19,0 -3.96,1.77 -3.96,3.96v42.2c0,2.19 1.77,3.96 3.96,3.96h95.6z" />
		<path id="Path 81" class="shp62" d="M254.04,60.27h-95.32c-2.18,0 -3.95,1.77 -3.95,3.95v41.96c0,2.18 1.77,3.95 3.95,3.95h95.32z" />
		<path id="Path 82" class="shp63" d="M254.04,60.27h-95.04c-2.18,0 -3.94,1.76 -3.94,3.94v41.71c0,2.18 1.76,3.94 3.94,3.94h95.04z" />
		<path id="Path 83" class="shp64" d="M254.04,60.27h-94.76c-2.17,0 -3.93,1.76 -3.93,3.93v41.47c0,2.17 1.76,3.93 3.93,3.93h94.76z" />
		<path id="Path 84" class="shp65" d="M254.04,60.27h-94.48c-2.16,0 -3.92,1.75 -3.92,3.92v41.23c0,2.16 1.75,3.92 3.92,3.92h94.48z" />
		<path id="Path 85" class="shp66" d="M254.04,60.27h-94.21c-2.16,0 -3.9,1.75 -3.9,3.9v40.99c0,2.16 1.75,3.9 3.9,3.9h94.21z" />
		<path id="Path 86" class="shp67" d="M254.04,60.27h-93.93c-2.15,0 -3.89,1.74 -3.89,3.89v40.74c0,2.15 1.74,3.89 3.89,3.89h93.93z" />
		<path id="Path 87" class="shp68" d="M254.04,60.27h-93.65c-2.14,0 -3.88,1.74 -3.88,3.88v40.5c0,2.14 1.74,3.88 3.88,3.88h93.65z" />
		<path id="Path 88" class="shp69" d="M254.04,60.27h-93.37c-2.14,0 -3.87,1.73 -3.87,3.87v40.26c0,2.14 1.73,3.87 3.87,3.87h93.37z" />
		<path id="Path 89" class="shp70" d="M254.04,60.27h-93.09c-2.13,0 -3.86,1.73 -3.86,3.86v40.02c0,2.13 1.73,3.86 3.86,3.86h93.09z" />
		<path id="Path 90" class="shp71" d="M254.04,60.27h-92.81c-2.13,0 -3.85,1.72 -3.85,3.85v39.77c0,2.13 1.72,3.85 3.85,3.85h92.81z" />
		<path id="Path 91" class="shp72" d="M254.04,60.27h-92.53c-2.12,0 -3.84,1.72 -3.84,3.83v39.53c0,2.12 1.72,3.84 3.84,3.84h92.53z" />
		<path id="Path 92" class="shp73" d="M254.04,60.27h-92.25c-2.11,0 -3.82,1.71 -3.82,3.82v39.29c0,2.11 1.71,3.82 3.82,3.82h92.25z" />
		<path id="Path 93" class="shp74" d="M254.04,60.27h-91.98c-2.1,0 -3.81,1.71 -3.81,3.81v39.04c0,2.11 1.71,3.81 3.81,3.81h91.98z" />
		<path id="Path 94" class="shp75" d="M254.04,60.27h-91.7c-2.1,0 -3.8,1.7 -3.8,3.8v38.8c0,2.1 1.7,3.8 3.8,3.8h91.7z" />
		<path id="Path 95" class="shp76" d="M254.04,60.27h-91.42c-2.09,0 -3.79,1.7 -3.79,3.79v38.56c0,2.09 1.7,3.79 3.79,3.79h91.42z" />
		<path id="Path 96" class="shp77" d="M254.04,60.27h-91.14c-2.09,0 -3.78,1.69 -3.78,3.78v38.32c0,2.09 1.69,3.78 3.78,3.78h91.14z" />
		<path id="Path 97" class="shp78" d="M254.04,60.27h-90.86c-2.08,0 -3.77,1.69 -3.77,3.77v38.07c0,2.08 1.69,3.77 3.77,3.77h90.86z" />
		<path id="Path 98" class="shp79" d="M254.04,60.27h-90.58c-2.07,0 -3.75,1.68 -3.75,3.75v37.83c0,2.07 1.68,3.75 3.75,3.75h90.58z" />
		<path id="Path 99" class="shp80" d="M254.04,60.27h-90.31c-2.07,0 -3.74,1.68 -3.74,3.74v37.59c0,2.07 1.68,3.74 3.74,3.74h90.31z" />
		<path id="Path 100" class="shp81" d="M254.04,60.27h-90.03c-2.06,0 -3.73,1.67 -3.73,3.73v37.35c0,2.06 1.67,3.73 3.73,3.73h90.03z" />
		<path id="Path 101" class="shp82" d="M254.04,60.27h-89.75c-2.06,0 -3.72,1.67 -3.72,3.72v37.1c0,2.05 1.67,3.72 3.72,3.72h89.75z" />
		<path id="Path 102" class="shp83" d="M254.04,60.27h-89.47c-2.05,0 -3.71,1.66 -3.71,3.71v36.86c0,2.05 1.66,3.71 3.71,3.71h89.47z" />
		<path id="Path 103" class="shp84" d="M254.04,60.27h-89.19c-2.04,0 -3.7,1.66 -3.7,3.7v36.62c0,2.04 1.66,3.7 3.7,3.7h89.19z" />
		<path id="Path 104" class="shp85" d="M254.04,60.27h-88.91c-2.03,0 -3.68,1.65 -3.68,3.68v36.38c0,2.04 1.65,3.68 3.68,3.68h88.91z" />
		<path id="Path 105" class="shp86" d="M254.04,60.27h-88.63c-2.03,0 -3.67,1.64 -3.67,3.67v36.13c0,2.03 1.65,3.67 3.67,3.67h88.63z" />
		<path id="Path 106" class="shp87" d="M254.04,60.27h-88.35c-2.02,0 -3.66,1.64 -3.66,3.66v35.89c0,2.02 1.64,3.66 3.66,3.66h88.35z" />
		<path id="Path 107" class="shp88" d="M254.04,60.27h-88.07c-2.02,0 -3.65,1.63 -3.65,3.65v35.65c0,2.01 1.64,3.65 3.65,3.65h88.07z" />
		<path id="Path 108" class="shp89" d="M254.04,60.27h-87.8c-2.01,0 -3.64,1.63 -3.64,3.64v35.41c0,2.01 1.63,3.64 3.64,3.64h87.8z" />
		<path id="Path 109" class="shp90" d="M254.04,60.27h-87.52c-2,0 -3.63,1.62 -3.63,3.63v35.16c0,2 1.63,3.63 3.63,3.63h87.52z" />
		<path id="Path 110" class="shp91" d="M254.04,60.27h-87.24c-2,0 -3.62,1.62 -3.62,3.62v34.92c0,2 1.62,3.62 3.62,3.62h87.24z" />
		<path id="Path 111" class="shp6" d="M277.06,53.32h-112.48c-2.38,0 -4.31,1.93 -4.31,4.31v43.14c0,2.38 1.93,4.3 4.31,4.3h112.48c2.38,0 4.31,-1.93 4.31,-4.3v-43.14c0,-2.38 -1.93,-4.31 -4.31,-4.31z" />
		<path id="Path 112" class="shp47" d="M169.48,60.51h-2.21v37.38h2.21zM175.13,60.51h-2.21v37.38h2.21zM180.79,60.51h-2.21v37.38h2.21zM186.45,60.51h-2.2v37.38h2.2zM192.11,60.51h-2.21v37.38h2.21zM197.77,60.51h-2.21v37.38h2.21z" />
		<path id="Path 113" class="shp92" d="M169.48,81.43h-2.21v16.45h2.21zM175.13,74.6h-2.21v23.29h2.21zM180.79,71.12h-2.21v26.76h2.21zM186.45,74.6h-2.2v23.29h2.2zM192.11,67.76h-2.21v30.12h2.21zM197.77,64.06h-2.21v33.83h2.21z" />
		<path id="Path 114" class="shp0" d="M216.82,60.74c-3.38,0 -6.11,2.74 -6.11,6.11c0,3.38 2.74,6.11 6.11,6.11c3.38,0 6.11,-2.74 6.11,-6.11c0,-3.38 -2.74,-6.11 -6.11,-6.11z" />
		<path id="Path 115" class="shp47" d="M275.66,61.7h-49.44v1.65h49.44zM275.66,66.5h-49.44v1.65h49.44z" />
		<path id="Path 116" class="shp93" d="M246.93,71.29h-20.71v1.65h20.71z" />
		<path id="Path 117" class="shp0" d="M216.82,84.37c-3.38,0 -6.11,2.74 -6.11,6.11c0,3.38 2.74,6.11 6.11,6.11c3.38,0 6.11,-2.74 6.11,-6.11c0,-3.38 -2.74,-6.11 -6.11,-6.11z" />
		<path id="Path 118" class="shp47" d="M275.66,85.34h-49.44v1.65h49.44zM275.66,90.13h-49.44v1.65h49.44z" />
		<path id="Path 119" class="shp93" d="M246.93,94.92h-20.71v1.65h20.71z" />
		<path id="Path 120" class="shp94" d="M226.41,95.76c-1.48,-0.8 -1.6,-4.71 -1.6,-4.71h-6.2c0,2.84 -2.04,4.71 -2.04,4.71zM206.67,103l-12.8,3.71c-0.48,0.14 -0.99,0.16 -1.48,0.06l-13.54,-2.75l-1.05,-2.62l-0.16,0.06c-0.57,0.19 -0.95,0.72 -0.95,1.33v0.77l-0.85,0.39l-2.7,0.63l-0.69,0.45h-2.52l0.91,0.83c0.14,0.12 0.3,0.2 0.48,0.23l6.06,0.91l2.78,0.5l10.94,4.49c0.72,0.3 1.52,0.35 2.28,0.17l13.95,-3.47zM234.8,108.68l13.95,3.47c0.76,0.19 1.56,0.13 2.28,-0.17l10.94,-4.49l2.78,-0.5l6.06,-0.91c0.18,-0.03 0.35,-0.11 0.48,-0.23l0.91,-0.83h-2.52l-0.68,-0.45l-2.7,-0.63l-0.85,-0.39v-0.77c0,-0.6 -0.38,-1.13 -0.95,-1.33l-0.16,-0.06l-1.05,2.62l-13.54,2.75c-0.49,0.1 -1,0.08 -1.48,-0.06l-12.8,-3.71zM221.84,82.22c-0.21,-0.75 -0.68,-1.46 -1.39,-1.77l0.95,-0.78c-0.42,0.02 -0.84,0.05 -1.23,0.17c-0.4,0.12 -0.76,0.33 -1.14,0.51c-0.56,0.28 -0.86,0.32 -1.14,0.91c-0.3,0.62 -0.59,1.25 -0.89,1.87c-0.13,0.28 -0.26,0.55 -0.35,0.84c-0.13,0.43 -0.16,0.88 -0.19,1.32c-0.03,0.37 -0.05,0.74 -0.08,1.11c-0.02,0.33 -0.05,0.66 -0.01,0.99c0.04,0.42 0.18,0.82 0.32,1.22c0.24,0.71 0.48,1.72 1.11,2.18c0.67,0.49 1.39,0.91 2.24,0.91c0.19,0 0.38,-0.02 0.53,-0.13c0.15,-0.1 0.24,-0.27 0.32,-0.44c0.96,-2.04 1.05,-4.38 1.12,-6.63c0.02,-0.78 0.05,-1.57 -0.16,-2.31zM231.45,196.26h4.3v-3.6h-4.3z" />
		<path id="Path 121" class="shp50" d="M234.88,195.13h-3.5l-0.66,1.97v0.95c0,0.52 0.42,0.95 0.95,0.95h3.65l3.87,-1.46v-0.67c0,-1.09 -0.52,-2.12 -1.41,-2.76l-2.02,-1.46v2.33z" />
		<path id="Path 122" class="shp95" d="M230.77,196.97l-0.04,0.14v0.95c0,0.52 0.42,0.95 0.95,0.95h3.65l3.87,-1.46v-0.67c0,-0.21 -0.03,-0.42 -0.07,-0.62l-3.79,1.43h-3.65c-0.44,0 -0.8,-0.31 -0.9,-0.72z" />
		<path id="Path 123" class="shp94" d="M213.36,192.65h-4.3v3.6h4.3z" />
		<path id="Path 124" class="shp95" d="M210.92,135.5c0,0 -0.92,6.26 -1.63,12.31c-0.15,1.31 -0.23,2.63 -0.23,3.95v13.68v28.15h4.3c0,0 3.33,-14.57 4,-24.29c0.18,-2.58 0.62,-5.13 1.18,-7.65l4.52,-20.35v-4.98zM221.74,136.34v11.2l4.83,16.43c0.36,1.66 0.67,3.34 0.74,5.03c0.45,10.68 4.14,24.68 4.14,24.68l4.3,-0.08v-28.15v-14.52c0,-0.78 -0.05,-1.55 -0.14,-2.32c-0.72,-6.1 -1.69,-11.51 -1.69,-11.51z" />
		<path id="Path 125" class="shp50" d="M209.05,194.99v-2.33l-2.02,1.46c-0.88,0.64 -1.41,1.67 -1.41,2.76v0.67l3.87,1.46h3.65c0.52,0 0.95,-0.43 0.95,-0.95v-0.95l-0.66,-1.97h-3.5z" />
		<path id="Path 126" class="shp95" d="M213.14,197.69h-3.65l-3.79,-1.43c-0.04,0.2 -0.07,0.41 -0.07,0.62v0.67l3.87,1.46h3.65c0.52,0 0.95,-0.42 0.95,-0.95v-0.95l-0.05,-0.14c-0.1,0.41 -0.46,0.72 -0.9,0.72z" />
		<path id="Path 127" class="shp48" d="M216.57,95.35l-4.08,1.23c-1.98,0.59 -3.81,1.59 -5.37,2.92c-0.68,0.58 -1.42,1.07 -2.17,1.54l-4.4,2.75l3.17,6.76l6.8,-1.41c2.99,9.77 -1.46,30.34 -1.46,30.34c9.7,5.98 22,-1.93 25.74,1.24l-1.23,-32.15l5.83,2.11l2.7,-6.67c0,0 -9.1,-6.6 -10.86,-7.15l-4.82,-1.5z" />
		<path id="Path 128" class="shp95" d="M227.55,85.83c-0.1,-0.68 0.08,-1.36 0.14,-2.04c0.08,-0.99 -0.08,-1.92 -0.53,-2.81c-0.36,-0.7 -0.78,-1.39 -1.37,-1.9c-1.15,-1 -2.78,-1.22 -4.3,-1.2c-0.46,0.01 -0.94,0.03 -1.37,0.21c-0.34,0.14 -0.64,0.37 -0.98,0.48c-0.23,0.07 -0.48,0.09 -0.71,0.15c-0.32,0.08 -0.62,0.23 -0.91,0.39c-0.3,0.17 -0.6,0.36 -0.8,0.64c-0.53,0.76 -0.4,2.29 -0.05,3.1c0.13,0.31 0.32,0.59 0.45,0.9c0.46,1.13 0.04,2.45 0.35,3.63c0.21,0.82 0.76,1.51 1.07,2.3c0.19,0.5 0.29,1.04 0.6,1.48c0.61,0.89 1.68,1 2.65,1.21c1.2,0.26 2.28,0.65 3.53,0.67c2.17,0.04 1.7,-1.94 2.37,-3.35c0.15,-0.32 0.38,-0.61 0.48,-0.95c0.29,-0.96 -0.46,-1.91 -0.6,-2.9z" />
		<path id="Path 129" class="shp94" d="M140.7,30.49l-5.53,4.35l-1.56,18.87v4.07c0,0.32 0.14,0.62 0.38,0.82c0.2,0.17 0.44,0.26 0.7,0.26h2.46v2.47c0,0.36 0.29,0.65 0.65,0.65c0.37,0 0.66,-0.3 0.65,-0.67l-0.08,-4.11l0.45,-0.05c0.42,-0.04 0.71,-0.43 0.64,-0.85l-0.14,-0.8c-0.01,-0.39 -0.18,-0.76 -0.47,-1.02l-0.78,-0.7l-0.93,-1.46l2.1,-13.13l5.38,-3.73zM186.53,33.86l6.04,3.51l15.76,11.09l0.42,0.69c0.4,0.66 1.12,1.06 1.9,1.06h5.47h3.55c0.4,0 0.73,-0.33 0.73,-0.73c0,-0.4 -0.33,-0.73 -0.73,-0.73h-3.16l-5.16,-2.51l-19.86,-17.44z" />
		<path id="Path 130" class="shp95" d="M159.64,15.38l-6.42,2.88c-0.92,0.41 -1.76,0.97 -2.49,1.67l-10.51,9.96l4.69,6.08l7.37,-3.53l2.44,11.61l-0.52,6.14h25.21l-0.78,-5.88c0,0 0.44,-11.45 1.09,-12.9c0.25,-0.56 6.29,2.98 6.29,2.98l5.9,-6.03l-10.42,-8.25c-0.91,-0.73 -1.94,-1.29 -3.04,-1.69l-8.53,-3.04z" />
		<path id="Path 131" class="shp96" d="M154.22,50.19h25.21l-0.24,-1.83h-24.81z" />
		<path id="Path 132" class="shp94" d="M164.85,24.38c2.31,0 4.18,-1.87 4.18,-4.18v-3.84h-8.37v3.84c0,2.31 1.87,4.18 4.18,4.18z" />
		<path id="Path 133" class="shp50" d="M157.54,10.53c0.2,0.73 0.78,1.3 1.02,2.01c0.18,0.54 0.18,1.17 0.56,1.59c0.37,0.41 0.99,0.48 1.54,0.52c1.03,0.08 2.07,0.16 3.11,0.23c2.18,0.17 4.54,0.29 6.4,-0.87l-0.23,0.07c0.44,-0.5 1.11,-0.7 1.52,-1.31c0.44,-0.64 0.67,-1.43 0.62,-2.21c-0.04,-0.54 -0.2,-1.11 0.03,-1.61c0.09,-0.19 0.22,-0.35 0.3,-0.55c0.18,-0.44 0.01,-0.94 -0.16,-1.38c-0.18,-0.49 -0.37,-0.99 -0.55,-1.48c-0.39,-1.03 -0.8,-2.11 -1.62,-2.85c-0.51,-0.46 -1.26,-0.75 -1.88,-0.45c0.26,-0.13 -1.15,-1 -1.28,-1.04c-0.55,-0.16 -1.12,-0.31 -1.7,-0.35c-1.36,-0.08 -3.28,0.23 -4.39,1c-0.64,0.44 -0.43,0.39 -0.97,0.94c-0.65,0.67 -1.31,1.68 -1.49,2.6c-0.09,0.45 -0.11,1.38 -0.16,1.84c-0.12,1.14 -0.98,2.17 -0.68,3.28z" />
		<path id="Path 134" class="shp94" d="M164.8,20.15c2.85,0 5.16,-2.31 5.16,-5.16v-7.2h-10.31v7.2c0,2.85 2.31,5.16 5.16,5.16z" />
		<path id="Path 135" class="shp50" d="M158.33,8.21c0.01,0.06 0.05,0.1 0.1,0.14c0.91,0.87 2.34,0.81 3.59,0.67c1.67,-0.18 3.39,-0.4 4.86,-1.21c0.09,-0.05 0.18,-0.1 0.28,-0.08c0.08,0.02 0.14,0.08 0.19,0.13c0.97,1.01 1.99,2.16 3.38,2.34l0.18,-0.14c0.29,-0.8 0.47,-1.77 -0.05,-2.46c-0.29,-0.38 -0.75,-0.59 -1.18,-0.79c-0.47,-0.21 -0.93,-0.42 -1.4,-0.63c-0.66,-0.3 -1.33,-0.6 -2.04,-0.73c-0.59,-0.11 -1.19,-0.11 -1.78,-0.09c-1.17,0.03 -2.36,0.09 -3.47,0.47c-1.11,0.38 -2.14,1.12 -2.63,2.19c-0.03,0.06 -0.05,0.12 -0.04,0.18zM169.97,15.77c0.19,-1.04 0.2,-2.12 0.02,-3.16c-0.39,0.55 -0.54,1.24 -0.85,1.84c-0.31,0.6 -0.9,1.16 -1.57,1.09c-0.8,-0.09 -1.23,-0.99 -1.94,-1.37c-0.43,-0.23 -0.95,-0.26 -1.43,-0.16c-0.48,0.1 -0.92,0.33 -1.33,0.59c-0.53,0.33 -1.11,0.74 -1.72,0.59c-0.39,-0.1 -0.7,-0.42 -0.89,-0.78c-0.19,-0.36 -0.3,-0.76 -0.44,-1.14c-0.03,-0.09 -0.07,-0.15 -0.16,-0.18c-0.56,1.12 -0.36,2.87 0.04,4.01c0.45,1.28 1.38,2.4 2.6,3c0.94,0.46 2.01,0.6 3.06,0.53c0.73,-0.05 1.48,-0.19 2.12,-0.56c0.94,-0.54 1.56,-1.5 1.97,-2.51c0.24,-0.58 0.41,-1.18 0.52,-1.79z" />
		<path id="Path 136" class="shp94" d="M32.48,194.44h5.44v-5.88h-5.44zM1.91,192.32l5.24,1.49l1.61,-5.66l-5.24,-1.48z" />
		<path id="Path 137" class="shp48" d="M21.05,152.25l10.22,14.59l0.64,24.45h6.69l-0.39,-29.1l-9.96,-19.8z" />
		<path id="Path 138" class="shp97" d="M28.23,142.4l-7.18,9.85l4.98,7.12l0.49,-10.68l2.51,-4.72z" />
		<path id="Path 139" class="shp48" d="M13.48,138.6l-0.72,1.7c-0.65,1.54 -0.79,3.26 -0.38,4.88l0.46,1.84l-2.74,16.91c0,0.58 -0.3,1.25 -0.71,1.88c-1.63,2.55 -2.7,5.41 -3.36,8.36l-3.77,16.06l5.9,0.64l7.43,-20.67c0.89,-0.95 1.61,-2.06 2.12,-3.26l7.72,-18.25l3.07,-5.78l-0.26,-0.52z" />
		<path id="Path 140" class="shp98" d="M31.91,116.73l12.36,13.95c0.46,0.52 1.14,0.79 1.83,0.74l14.43,-1.14c0.37,-0.03 0.7,-0.22 0.9,-0.52l1.95,-2.85v-8.26c-0.79,0.02 -1.41,0.67 -1.41,1.46v2.78l-2.05,4.26c-0.24,0.51 -0.79,0.79 -1.34,0.71l-11.72,-1.56c-0.38,-0.05 -0.72,-0.26 -0.94,-0.58l-7.32,-9.82z" />
		<path id="Path 141" class="shp94" d="M34.87,111.56l4.52,2.83l2.93,-4.68l-4.53,-2.83zM35.34,98.77l-0.79,3.37l1.98,5.82c0.38,1.1 1.42,1.85 2.58,1.85h2.37c2,0 3.63,-1.64 3.6,-3.64l-0.01,-0.8l0.8,-0.2c-1.12,-1.03 -1.07,-3.54 -1.07,-3.54v-2.1c-2.66,-3.07 -9.47,-0.76 -9.47,-0.76z" />
		<path id="Path 142" class="shp95" d="M40.4,119.19l-1.61,-3.92l0.6,-0.88l-5.66,-3.75l-4.63,1.7c-0.73,0.26 -1.33,0.79 -1.7,1.47l-6.36,12.69c-0.06,0.11 -0.12,0.22 -0.19,0.32l-8.01,11.63l16.98,5.09l1.26,-8.74c0.09,-0.42 0.29,-0.82 0.57,-1.15l8.01,-9.57zM48.48,198l-0.25,-0.61c-0.47,-1.13 -1.32,-2.06 -2.41,-2.63l-4.52,-1.66l-3.06,-1.92v1.64l-3.5,-0.07l-1.43,-0.8l-1.01,0.01v6.03z" />
		<path id="Path 143" class="shp99" d="M31.42,198.96h17.47v-0.96h-17.47z" />
		<path id="Path 144" class="shp95" d="M15.27,198.31l-0.21,-0.86c-0.5,-1.11 -0.5,-1.11 -1.35,-1.84l-3.67,-2.44l-2.31,-2.36l-0.35,1.46l-3.11,-0.81l-1.1,-1.02l-0.9,-0.2l-1.29,5.37l12.66,3.03z" />
		<path id="Path 145" class="shp99" d="M0,196.27l10.76,2.58l1.35,-0.58l-11.91,-2.85zM15.6,198l-4.84,0v0.95l4.84,-0.07z" />
		<path id="Path 146" class="shp100" d="M37.41,94.99c-0.33,0.07 -0.65,0.17 -0.96,0.31c-0.37,0.17 -0.73,0.39 -1.12,0.5c-0.24,0.07 -0.5,0.09 -0.72,0.21c-0.23,0.13 -0.39,0.34 -0.55,0.56c-0.42,0.61 -0.79,1.27 -1.08,1.95c-0.12,0.28 -0.23,0.57 -0.46,0.77c-0.18,0.15 -0.42,0.23 -0.62,0.36c-1.33,0.82 -0.06,2.03 -0.5,3.08c-0.2,0.49 -0.48,0.77 -0.58,1.32c-0.12,0.68 -0.17,1.31 -0.6,1.89c-0.29,0.4 -0.72,0.72 -0.85,1.19c-0.13,0.45 0.04,0.94 -0.05,1.4c-0.2,1.04 -1.58,1.5 -1.84,2.52c-0.14,0.56 0.18,0.99 0.17,1.52c-0.01,0.58 -0.44,1.29 -0.7,1.8c-0.5,0.97 -1.17,1.95 -1.05,3.03c1.64,-0.38 2.95,-1.58 4.17,-2.74c0.27,0.46 0.46,0.97 0.56,1.49c-0.08,-0.52 0.22,-1.02 0.55,-1.43c0.34,-0.42 0.67,-0.83 0.96,-1.27c0.51,0.5 0.87,1.2 1.09,1.88c0.26,-0.3 0.47,-0.64 0.62,-1c0.49,-0.06 0.86,0.42 1.11,0.84c0.37,0.63 0.76,1.3 1.4,1.65c-0.22,-1.1 -0.3,-2.23 -0.38,-3.35c0.48,0.14 0.95,0.32 1.41,0.52c-0.48,-0.38 -0.99,-0.79 -1.22,-1.36c-0.19,-0.46 -0.18,-0.98 -0.16,-1.48c0.02,-0.67 -0.11,-1.01 0.44,-1.39c0.43,-0.3 0.98,-0.33 1.33,-0.76c0.49,-0.62 0.16,-1.54 0.36,-2.31c0.03,-0.13 0.09,-0.27 0.19,-0.36c0.12,-0.11 0.28,-0.16 0.43,-0.22c0.56,-0.23 0.99,-0.75 1.1,-1.34c0.08,-0.45 0,-0.97 0.29,-1.33c0.35,-0.45 1.05,-0.42 1.52,-0.75c0.69,-0.48 0.68,-1.57 1.36,-2.07c0.2,-0.15 0.44,-0.22 0.67,-0.3c0.54,-0.17 1,-0.24 1.32,-0.73c0.35,-0.54 0.29,-1.25 0.35,-1.87c0.04,-0.37 0.07,-0.75 -0.09,-1.09c-0.17,-0.36 -0.53,-0.6 -0.92,-0.71c-0.38,-0.11 -0.79,-0.11 -1.19,-0.1c-0.6,0 -1.26,0.11 -1.85,-0.01c-0.5,-0.11 -0.89,-0.47 -1.39,-0.64c-0.5,-0.18 -1.03,-0.27 -1.56,-0.27c-0.32,0 -0.63,0.03 -0.94,0.09zM30.61,116.14c0,0.02 0.01,0.03 0.01,0.05c0,-0.02 -0.01,-0.03 -0.01,-0.05z" />
		<path id="Path 147" class="shp101" d="M31.91,118.78c0.5,0.23 2.06,1.85 1.41,2.78c-0.2,0.29 -0.19,0.55 0.14,0.55c0.79,0 1.16,0.62 1.87,1.28c-0.06,0.1 -0.09,0.22 -0.07,0.37c0.05,0.42 0.1,-0.3 0.54,-0.14c0.01,0.15 0.6,0.79 0.74,0.86c0.63,0.32 0.98,1.14 1.38,1.68l0.6,-0.71c-0.32,-0.4 -0.68,-0.73 -1.1,-1.01c0.04,-0.19 -0.02,-0.39 -0.2,-0.47c-0.24,-0.11 -0.48,-0.21 -0.72,-0.32c0.1,-0.2 0.05,-0.49 -0.16,-0.61c-1.22,-0.69 -1.45,-1.83 -2.61,-2.14c0.26,-1.03 -0.72,-1.84 -1.7,-2.3c-0.53,-0.24 -0.64,-0.06 -0.11,0.18z" />
		<path id="Path 148" class="shp94" d="M34.87,122.03l9.4,10.11c0.46,0.52 1.14,0.79 1.83,0.74l14.43,-1.15c0.36,-0.03 0.7,-0.22 0.9,-0.52l1.95,-2.85v-8.26c-0.79,0.03 -1.41,0.67 -1.41,1.46v2.78l-2.05,4.26c-0.24,0.51 -0.79,0.79 -1.34,0.71l-11.72,-1.56c-0.38,-0.05 -0.72,-0.26 -0.94,-0.58l-5.51,-7.98z" />
		<path id="Path 149" class="shp101" d="M30.38,135.21c-0.22,0.06 -0.39,0.26 -0.31,0.53c0.14,0.46 0.28,0.93 0.42,1.39c0.04,0.13 0.12,0.21 0.21,0.26l0.37,-2.61c0.01,-0.05 0.04,-0.09 0.05,-0.14c-0.03,-0.04 -0.05,-0.08 -0.07,-0.12c0.04,0.01 0.07,0.03 0.1,0.04c0.11,-0.34 0.26,-0.66 0.49,-0.93l0.84,-1c-0.98,-0.26 -1.96,-0.5 -2.96,-0.7c-0.57,-0.11 -0.58,0.03 -0.01,0.17c0.3,0.08 1.31,0.83 1.6,0.93c0,0 -0.01,0.01 -0.01,0.02c-0.23,0.47 -0.79,0.7 -1.31,0.61c-0.34,-0.06 -0.67,-0.12 -0.84,-0.17c-0.38,-0.13 -0.7,-0.41 -0.5,-0.08c0.51,0.82 1.45,1.06 1.94,1.78zM24.02,127.47c-0.5,-0.55 -1.08,-1.15 -1.43,-1.81c-0.45,-0.86 -0.15,-1.48 0.29,-2.26c0.1,-0.18 0.06,-0.36 -0.04,-0.49l-1.34,2.68c0.07,0.2 -0.02,0.43 -0.18,0.35l-0.27,0.55c-0.06,0.11 -0.12,0.22 -0.19,0.32l-0.08,0.11c0.07,0.12 -0.08,0.34 -0.23,0.33l-1.55,2.25c0.85,-0.4 1.46,-0.43 2.36,-0.29c0.39,0.06 0.72,-0.11 0.34,-0.43c-0.06,-0.05 -0.01,-0.41 -0.06,-0.45c0.03,0.01 0.07,0.01 0.1,0.02c0.39,0.11 1.31,0.28 1.12,-0.06c-0.07,-0.13 -0.75,-0.86 -0.82,-0.98c0.49,0.27 0,-0.81 1.33,0.19c0.43,0.33 0.98,0.33 0.66,-0.03z" />
		<path id="Path 150" class="shp6" d="M34.66,195.42c0,0.64 0.52,1.17 1.17,1.17c0.64,0 1.17,-0.52 1.17,-1.17c0,-0.64 -0.52,-1.17 -1.17,-1.17c-0.64,0 -1.17,0.52 -1.17,1.17zM2.74,194.25c0,0.64 0.52,1.17 1.17,1.17c0.64,0 1.17,-0.52 1.17,-1.17c0,-0.64 -0.52,-1.17 -1.17,-1.17c-0.64,0 -1.17,0.52 -1.17,1.17z" />
		<path id="Path 151" class="shp94" d="M136.45,194.42l-3.24,1.44l-5.18,1.33c-0.67,0.15 -1.14,0.74 -1.14,1.43l15.12,-0.06l-0.37,-2.65l-2.16,-1.48z" />
		<path id="Path 152" class="shp95" d="M134.95,197.03l-1.75,-1.17l-5.07,0.86c-0.67,0.15 -1.25,1.21 -1.25,1.9l15.12,-0.07l-0.37,-2.65l-1.23,1.08l-2.15,-0.02c-1,0.19 -2.39,0.55 -3.29,0.06z" />
		<path id="Path 153" class="shp94" d="M141,188.47h-4.56v6.29l4.56,1.15z" />
		<path id="Path 154" class="shp95" d="M173.18,177.09c0,0 -28.88,-10.44 -32.25,-9.15c0,0 -4.31,0 -5.22,6.85l0.17,14.8h5.66l1.49,-11.3c0.23,-0.72 1.07,-1.05 1.73,-0.68l17.45,9.73zM157.74,179.74l-17.46,10.76c-1.04,0.64 -1.67,1.77 -1.67,2.99v1.03c0,2.27 1.84,4.1 4.1,4.1l23.73,-1.17v-6.91c0,0 7.27,-2.83 6.91,-8.89z" />
		<path id="Path 155" class="shp94" d="M166.44,190.53v6.91l13.2,1.17l-11.93,-8.7z" />
		<path id="Path 156" class="shp95" d="M167.71,189.92l-1.27,0.61v2.96c0.8,-0.38 1.73,-0.35 2.5,0.1l5.87,4.47c0.46,0.35 1.03,0.55 1.62,0.55h3.22z" />
		<path id="Path 157" class="shp94" d="M155.95,139.81c0,0 2.82,5.4 0.65,8.61l7.68,-0.71l-3.07,-9.77z" />
		<path id="Path 158" class="shp95" d="M162.01,137.15c-0.1,-0.62 -0.38,-1.2 -0.66,-1.76c-0.84,-1.72 -1.74,-3.52 -3.29,-4.63c-0.68,-0.49 -1.48,-0.83 -2.1,-1.4c-0.15,0.09 -0.3,0.19 -0.45,0.28l-0.83,0.15c-0.82,0.15 -1.57,0.72 -1.88,1.49c-0.31,0.78 -0.13,1.74 0.48,2.31c0.37,0.35 0.85,0.54 1.3,0.79c0.95,0.53 1.74,1.33 2.24,2.29c0.18,0.34 0.33,0.71 0.55,1.03c0.7,0.97 1.99,1.28 3.16,1.52c0.22,0.04 0.45,0.09 0.67,0.02c0.16,-0.05 0.3,-0.17 0.41,-0.3c0.41,-0.48 0.51,-1.16 0.41,-1.78z" />
		<path id="Path 159" class="shp94" d="M161.75,135.04c-0.64,-1.13 -1.29,-2.26 -2.06,-3.3c-0.23,-0.31 -0.48,-0.62 -0.82,-0.81c-0.33,-0.19 -0.71,-0.24 -1.08,-0.28c-0.92,-0.11 -1.85,-0.14 -2.78,-0.09l-0.14,0.2c-0.26,0.66 -0.45,1.35 -0.59,2.05c-0.15,0.74 -1.25,2.49 -1.32,3.25c-0.01,0.11 0.98,0.22 0.97,0.34c-0.04,0.4 -0.07,0.8 -0.1,1.2c-0.06,0.74 -0.12,0.5 0.04,1.23c0.15,0.73 0.56,1.44 1.21,1.79c0.74,0.4 1.65,0.27 2.46,0.04c1.14,-0.32 2.23,-0.83 3.21,-1.49c0.83,-0.56 1.64,-1.35 1.65,-2.35c0.01,-0.63 -0.32,-1.21 -0.63,-1.77z" />
		<path id="Path 160" class="shp6" d="M166.73,145.81c-0.47,-0.56 -1.25,-0.77 -1.94,-0.51l-8.2,3.11l-5.73,7.85c-0.77,1.06 -0.83,2.48 -0.14,3.6l3.03,4.94c2.25,5 2.19,16.17 2.19,16.17c5.95,-1.3 15.18,5.8 19.01,0.74c0,0 -8.96,-26.6 -7.36,-31.54c0.48,-1.5 0.15,-3.14 -0.87,-4.35z" />
		<path id="Path 161" class="shp95" d="M169.1,149.48c0.14,-3.67 -1.17,-7.26 -1.27,-10.94c-0.07,-2.85 0.51,-6.02 -1.19,-8.32c-1.4,-1.9 -3.95,-2.55 -6.31,-2.59c-1.15,-0.02 -2.32,0.07 -3.39,0.5c-0.65,0.26 -1.28,0.7 -1.78,1.19c-0.28,0.27 -0.58,0.52 -0.44,0.89c0.12,0.33 0.69,0.62 0.99,0.74c0.43,0.16 0.89,0.19 1.33,0.32c1.04,0.3 1.11,1.06 1.25,2.01c0.16,1.11 0.26,2.22 0.29,3.34c0.01,0.44 0.01,0.88 0.09,1.31c0.04,0.22 0.1,0.43 0.19,0.63c0.33,0.74 1.02,1.24 1.65,1.76c0.51,0.42 1.15,0.98 1.3,1.65c0.18,0.78 -0.13,1.63 0.08,2.45c0.34,1.32 1.53,2.22 2.39,3.27c1.28,1.57 1.9,3.61 2.08,5.63c0.18,2.02 1.85,4.53 2.18,6.08c1.43,-3.18 0.43,-6.46 0.56,-9.93z" />
		<path id="Path 162" class="shp94" d="M130.17,155.31l13.43,10.4c0.57,0.44 1.32,0.55 1.99,0.28l16.64,-6.55c1.69,-0.67 2.39,-2.69 1.48,-4.26c-0.76,-1.3 -2.37,-1.83 -3.75,-1.23l-15.54,6.73l-12.5,-7.5l-1.12,-1.58l-2.55,-1.72l-0.37,-0.09v1.18l0.2,0.06l0.26,0.72l-2.78,-0.49l-3.76,-0.69c-0.15,0.12 -0.11,0.62 0,0.77l3.12,0.97l-0.03,0.34l-3.67,-0.95c-0.16,0.12 -0.12,0.64 0,0.8l3.68,1.12l-0.09,0.43l-3.34,-0.8c-0.11,0.08 -0.08,0.44 0,0.55l3.2,1.02c0.04,0.06 0.04,0.23 -0.01,0.27l-2.88,-0.5c-0.44,0.31 -0.05,0.66 0.02,0.73l5.37,0.76c0.59,0.08 1.19,0 1.74,-0.24z" />
		<path id="Path 163" class="shp6" d="M164.57,154.58c-0.81,-1.39 -2.54,-1.96 -4.02,-1.32l-8.54,2.94c-0.8,1.75 3.2,4.37 2.87,7.15l8.1,-4.2c1.82,-0.72 2.57,-2.88 1.59,-4.57z" />
		<path id="Path 164" class="shp48" d="M190.87,190.06c-2.39,0 -4.33,1.94 -4.33,4.33c0,2.39 1.94,4.33 4.33,4.33c2.39,0 4.33,-1.94 4.33,-4.33c0,-2.39 -1.94,-4.33 -4.33,-4.33z" />
		<path id="Path 165" class="shp6" d="M192.58,196.77l-0.31,-1.65c-0.01,-0.03 0.01,-0.07 0.03,-0.09l1.19,-1.19c0.06,-0.06 0.02,-0.16 -0.06,-0.17l-1.66,-0.22c-0.03,0 -0.06,-0.02 -0.07,-0.05l-0.76,-1.49c-0.04,-0.07 -0.14,-0.07 -0.18,0l-0.72,1.51c-0.02,0.03 -0.04,0.05 -0.07,0.06l-1.66,0.26c-0.08,0.01 -0.11,0.11 -0.05,0.17l1.21,1.15c0.03,0.02 0.04,0.06 0.03,0.09l-0.26,1.66c-0.01,0.08 0.07,0.14 0.14,0.1l1.48,-0.8c0.03,-0.01 0.06,-0.01 0.09,0l1.49,0.76c0.07,0.04 0.16,-0.03 0.14,-0.11z" />
		<path id="Path 166" class="shp50" d="M290.68,196.94v-3.03c0,-1.02 -0.83,-1.86 -1.85,-1.86h-5.23c-1.02,0 -1.86,0.83 -1.86,1.86v3.03c0,1.02 0.84,1.85 1.86,1.85h5.23c1.02,0 1.85,-0.83 1.85,-1.85z" />
		<path id="Path 167" class="shp6" d="M284.4,193.34v4.17l3.61,-2.08l-3.61,-2.08v4.17l3.61,-2.08z" />
	</g>
</svg>