<svg xmlns="http://www.w3.org/2000/svg" viewBox="0 0 1022 809" width="1022" height="809">
	<style>
		tspan { white-space:pre }
		.shp0 { fill: #eff1fe } 
	</style>
	<path id="Shape 526" class="shp0" d="M1021.99,0h-248.58c-1.34,1.13 -2.67,2.28 -3.98,3.51c-30.76,28.57 -42.85,72.2 -70.55,103.73c-24.41,27.79 -60.83,44.68 -97.85,45.39c-34.05,0.65 -72.03,-10.7 -99.67,9.16c-17.84,12.83 -25.55,35.17 -38.26,53.08c-16.81,23.69 -43.62,40.04 -72.4,44.17c-56.82,8.14 -120.84,-28.09 -168.85,3.34c-23.1,15.13 -35.22,42.88 -38.77,70.23c-3.56,27.35 0.19,55.05 2.09,82.57c3.37,48.72 -0.91,102.5 -34.49,138.01c-37.87,40.03 -104.61,47.43 -133.85,94.11c-21.6,34.48 -26.01,136.56 18.05,157.68c8.21,3.93 17.66,4.01 26.77,4.01c34.9,0 69.81,-0.01 104.71,-0.01c272.45,-0.03 546.81,-6.43 817.94,-1.67c12.42,0.22 25.26,-0.6 37.69,-2.84z" />
</svg>