<?xml version="1.0" encoding="utf-8"?>
<!-- Generator: Adobe Illustrator 21.0.0, SVG Export Plug-In . SVG Version: 6.00 Build 0)  -->
<svg version="1.1" id="Graphics" xmlns="http://www.w3.org/2000/svg" xmlns:xlink="http://www.w3.org/1999/xlink" x="0px" y="0px"
	 viewBox="0 0 180.5 109.9" style="enable-background:new 0 0 180.5 109.9;" xml:space="preserve">
<style type="text/css">
	.st0{fill:#FAFAFF;}
	.st1{fill:#C1CCE5;}
	.st2{fill:#FFFFFF;}
	.st3{fill:#E0E3FD;}
	.st4{fill:#B2B8FA;}
	.st5{fill:#D1D4FC;}
	.st6{fill:#F0F1FE;}
	.st7{fill:#FFDFCC;}
	.st8{fill:#FFDFD6;}
	.st9{fill:#FB5B43;}
</style>
<g>
	<path id="XMLID_507_" class="st0" d="M180.5,109.9H0V7.1C0,3.2,3.2,0,7.1,0h166.3c3.9,0,7.1,3.2,7.1,7.1L180.5,109.9L180.5,109.9z"
		/>
	<path id="XMLID_506_" class="st1" d="M180.5,23V6.3c0-3.5-2.8-6.3-6.3-6.3H6.3C2.8,0,0,2.8,0,6.3V23H180.5z"/>
	<circle id="XMLID_505_" class="st2" cx="13.7" cy="11.5" r="2"/>
	<circle id="XMLID_1_" class="st2" cx="22.5" cy="11.5" r="2"/>
	<circle id="XMLID_2_" class="st2" cx="31.4" cy="11.5" r="2"/>
	<circle class="st3" cx="9.3" cy="34.8" r="1.6"/>
	<circle class="st3" cx="9.3" cy="44.1" r="1.6"/>
	<circle class="st3" cx="9.3" cy="53.4" r="1.6"/>
	<circle class="st3" cx="9.3" cy="62.7" r="1.6"/>
	<circle class="st3" cx="9.3" cy="72" r="1.6"/>
	<circle class="st3" cx="9.3" cy="81.3" r="1.6"/>
	<g>
		<path class="st2" d="M128.7,96.2H24.9c-1.1,0-2-0.9-2-2V72.4c0-1.1,0.9-2,2-2h103.8c1.1,0,2,0.9,2,2v21.7
			C130.7,95.3,129.8,96.2,128.7,96.2z"/>
		<g>
			<rect x="27.4" y="75.8" class="st3" width="25.4" height="15.8"/>
		</g>
		<g>
			<polygon class="st4" points="31.3,81.6 27.4,87.2 27.4,91.6 37.5,91.6 			"/>
		</g>
		<g>
			<polygon class="st2" points="32,84.5 32.3,85.1 32.9,84.2 31.3,81.6 29.5,84.2 30.1,85.1 30.5,84.5 31.2,85.6 			"/>
		</g>
		<g>
			<polygon class="st4" points="36.1,89.4 39.1,85 43.2,91.6 37.5,91.6 			"/>
		</g>
		<circle class="st5" cx="45.3" cy="81.2" r="2.8"/>
		<g>
			<polygon class="st2" points="39.7,87.9 40.1,88.5 40.7,87.6 39.1,85 37.3,87.6 37.9,88.5 38.3,87.9 39,89 			"/>
		</g>
		<rect x="54.3" y="76" class="st6" width="70.8" height="1.5"/>
		<rect x="54.3" y="79.7" class="st6" width="70.8" height="1.5"/>
		<rect x="54.3" y="83.3" class="st6" width="70.8" height="1.5"/>
		<rect x="54.3" y="86.9" class="st7" width="26.9" height="1.5"/>
	</g>
	<g>
		<path class="st2" d="M70.9,32.5H28.2c-2.4,0-4.3,1.9-4.3,4.3V60c0,2.4,1.9,4.3,4.3,4.3h42.7c2.4,0,4.3-1.9,4.3-4.3V36.8
			C75.2,34.4,73.2,32.5,70.9,32.5z"/>
		<circle class="st5" cx="31.9" cy="40.8" r="3.8"/>
		<rect x="37.6" y="37.6" class="st6" width="30.3" height="1"/>
		<rect x="37.6" y="40.6" class="st6" width="30.3" height="1"/>
		<rect x="37.6" y="43.5" class="st8" width="12.7" height="1"/>
		<circle class="st5" cx="31.9" cy="55.3" r="3.8"/>
		<rect x="37.6" y="52.1" class="st6" width="30.3" height="1"/>
		<rect x="37.6" y="55.1" class="st6" width="30.3" height="1"/>
		<rect x="37.6" y="58" class="st8" width="12.7" height="1"/>
	</g>
	<g>
		<path class="st2" d="M126.4,32.5H83.7c-2.4,0-4.3,1.9-4.3,4.3V60c0,2.4,1.9,4.3,4.3,4.3h42.7c2.4,0,4.3-1.9,4.3-4.3V36.8
			C130.7,34.4,128.7,32.5,126.4,32.5z"/>
		<circle class="st5" cx="87.4" cy="40.8" r="3.8"/>
		<rect x="93.2" y="37.6" class="st6" width="30.3" height="1"/>
		<rect x="93.2" y="40.6" class="st6" width="30.3" height="1"/>
		<rect x="93.2" y="43.5" class="st8" width="12.7" height="1"/>
		<circle class="st5" cx="87.4" cy="55.3" r="3.8"/>
		<rect x="93.2" y="52.1" class="st6" width="30.3" height="1"/>
		<rect x="93.2" y="55.1" class="st6" width="30.3" height="1"/>
		<rect x="93.2" y="58" class="st8" width="12.7" height="1"/>
	</g>
</g>
<path class="st9" d="M169,32.5h-30.3c-2.4,0-4.3,1.9-4.3,4.3v43.7c0,2.4,1.9,4.3,4.3,4.3H169c2.4,0,4.3-1.9,4.3-4.3V36.8
	C173.3,34.4,171.4,32.5,169,32.5z"/>
</svg>
